<?xml version="1.0" encoding="UTF-8"?><svg xmlns="http://www.w3.org/2000/svg" viewBox="0 0 30 30"><defs><style>.cls-1,.cls-2{fill:#f3fafe;}.cls-3,.cls-4{fill:#e78f5e;}.cls-5,.cls-6{fill:#c4c3d7;}.cls-7{fill:#212322;}.cls-6,.cls-4,.cls-2{mix-blend-mode:multiply;}.cls-8{isolation:isolate;}</style></defs><g class="cls-8"><g id="Layer_1"><g id="Accessories"><path class="cls-5" d="m21.19,28.49h-12.96c-1.05,0-1.91-.85-1.91-1.91v-10.93h16.77v10.93c0,1.05-.85,1.91-1.91,1.91h0Z"/><path class="cls-6" d="m21.82,15.66v10.93c0,1.05-.85,1.91-1.91,1.91h1.27c1.05,0,1.91-.85,1.91-1.91v-10.93h-1.27Z"/><path class="cls-1" d="m19.37,13.32v-5.72h-8.48v5.72h-2.65v2.35h13.79v-2.35h-2.65Z"/><path class="cls-2" d="m19.37,13.32v-5.72h-1.27v5.72h-9.87v2.35h13.79v-2.35h-2.65Z"/><circle class="cls-1" cx="21.05" cy="9.65" r="1.69"/><path class="cls-2" d="m21.05,7.95c-.22,0-.44.04-.64.12.62.25,1.06.86,1.06,1.57s-.44,1.32-1.06,1.57c.2.08.41.12.64.12.94,0,1.69-.76,1.69-1.69,0-.94-.76-1.69-1.69-1.69Z"/><path class="cls-3" d="m18.11,4.7c0,1.43-.83,2.89-2.73,2.89s-2.73-1.46-2.73-2.89c0-1.84,2.73-3.33,2.73-3.33,0,0,2.73,1.49,2.73,3.33Z"/><path class="cls-4" d="m15.38,1.37s-.27.15-.64.4c.81.56,2.1,1.67,2.1,2.93s-.64,2.54-2.1,2.83c.2.04.41.06.63.06,1.91,0,2.73-1.46,2.73-2.89,0-1.84-2.73-3.33-2.73-3.33Z"/><path class="cls-7" d="m5.85,16.14v10.45c0,1.31,1.07,2.38,2.38,2.38h12.96c1.31,0,2.38-1.07,2.38-2.38v-11.4h-1.07s0-2.35,0-2.35h-2.65v-1.38c.34.23.76.36,1.2.36,1.2,0,2.17-.97,2.17-2.17s-.97-2.17-2.17-2.17c-.44,0-.86.13-1.2.36v-.72h-2.13s.08-.09.12-.13c.49-.6.76-1.41.76-2.28s-.51-1.82-1.53-2.71c-.71-.63-1.42-1.02-1.45-1.04l-.23-.12-.23.12s-.74.41-1.45,1.04c-1.01.9-1.53,1.81-1.53,2.71s.27,1.68.76,2.28c.04.05.08.09.12.13h-2.64v5.72h-2.65v2.35h-.95m-.95,1.06v-1.06m15.2-6.76c.67,0,1.22.55,1.22,1.22s-.55,1.22-1.22,1.22c-.61,0-1.11-.45-1.2-1.03v-.37c.09-.58.59-1.03,1.2-1.03ZM15.38,1.92c.79.49,2.26,1.63,2.26,2.78,0,1-.48,2.15-1.78,2.37v-1.89h-.95v1.89c-1.3-.22-1.78-1.37-1.78-2.37,0-1.15,1.46-2.29,2.26-2.78Zm7.24,24.67c0,.79-.64,1.43-1.43,1.43h-12.96c-.79,0-1.43-.64-1.43-1.43v-10.45h11.91v-.95h-10.01v-1.39h9.06v-.95h-6.4v-4.77h7.53v5.72h2.65v1.39h-1.87v.95h2.95v10.45Z"/><path class="cls-7" d="m14.9,9.02h.95v.95h-.95v-.95Z"/><path class="cls-7" d="m12.87,10.42h.95v.95h-.95v-.95Z"/><path class="cls-7" d="m17,10.42h.95v.95h-.95v-.95Z"/></g></g></g></svg>