<?xml version="1.0" encoding="UTF-8"?><svg id="Layer_1" xmlns="http://www.w3.org/2000/svg" viewBox="0 0 30 30"><defs><style>.cls-1{fill:#212322;}</style></defs><path class="cls-1" d="m14.48,25.38c-.63-.09-1.22-.34-1.71-.73-.4-.26-.66-.69-.7-1.17,0-.5.46-.73.89-.83,1.35-.11,2.7-.11,4.05,0,.43.1.89.33.89.83-.04.48-.29.91-.69,1.17-.5.39-1.09.64-1.71.73-.17.02-.34.03-.5.03-.17,0-.33-.01-.5-.03m-4.22-4.22c-1.11-.1-2.14-.6-2.9-1.41-.57-.66-.87-1.51-.86-2.38-.05-.83.21-1.66.73-2.31.74-.76,1.12-1.79,1.06-2.85v-.43c-.07-1.4.39-2.78,1.28-3.86,1.34-1.59,3.3-2.5,5.38-2.51h.09c2.12,0,4.13.97,5.47,2.62.84,1.06,1.27,2.39,1.2,3.75v.43c-.05,1.05.34,2.08,1.06,2.85.52.65.78,1.47.73,2.31,0,.87-.3,1.72-.86,2.38-.76.81-1.79,1.31-2.9,1.41-1.57.13-3.14.25-4.74.25-1.58,0-3.16-.08-4.74-.25"/></svg>