<?xml version="1.0" encoding="UTF-8"?><svg xmlns="http://www.w3.org/2000/svg" viewBox="0 0 30 30"><defs><style>.cls-1,.cls-2{fill:#f3fafe;}.cls-3{fill:#d8d3a0;}.cls-4,.cls-5{fill:#c4c3d7;}.cls-6{fill:#212322;}.cls-5,.cls-2,.cls-7{mix-blend-mode:multiply;}.cls-8{isolation:isolate;}</style></defs><g class="cls-8"><g id="Layer_1"><g id="Beverages"><path class="cls-4" d="m8.98,4.98l-.73,1.09c-.24.36-.37.78-.37,1.22v16.91c0,.43.13.86.37,1.22l.73,1.09h12.05l.73-1.09c.24-.36.37-.78.37-1.22V7.29c0-.43-.13-.86-.37-1.22l-.73-1.09h-12.05,0Z"/><path class="cls-5" d="m21.75,6.07l-.73-1.09h-1.53l.73,1.09c.24.36.37.78.37,1.22v16.91c0,.43-.13.86-.37,1.22l-.73,1.09h1.53l.73-1.09c.24-.36.37-.78.37-1.22V7.29c0-.43-.13-.86-.37-1.22h0Z"/><path class="cls-1" d="m7.88,3.23h14.24v1.75H7.88v-1.75Z"/><g class="cls-7"><path class="cls-1" d="m20.7,3.23h1.42v1.75h-1.42v-1.75Z"/></g><path class="cls-3" d="m20.31,3.23h-3.51v-.48c0-.52.36-.97.87-1.07l1.68-.35c.05-.01.11-.02.16-.02.44,0,.79.36.79.79v1.12Z"/><path class="cls-1" d="m7.88,26.5h14.24v1.75H7.88v-1.75Z"/><path class="cls-2" d="m20.7,26.5h1.42v1.75h-1.42v-1.75Z"/><path class="cls-6" d="m22.12,10.14c-.22,0-.41.18-.41.41v13.66c0,.35-.1.7-.3.99l-.61.91h-11.61l-.61-.91c-.2-.29-.3-.64-.3-.99v-4.4c0-.22-.18-.41-.41-.41s-.41.18-.41.41v4.4c0,.51.15,1.01.44,1.44l.31.46h-.34c-.22,0-.41.18-.41.41v1.75c0,.22.18.41.41.41h11.1c.22,0,.41-.18.41-.41s-.18-.41-.41-.41h-10.69v-.94h13.43v.94h-.84c-.22,0-.41.18-.41.41s.18.41.41.41h1.24c.22,0,.41-.18.41-.41v-1.75c0-.22-.18-.41-.41-.41h-.34l.31-.46c.29-.43.44-.93.44-1.44v-13.66c0-.22-.18-.41-.41-.41h0Z"/><path class="cls-6" d="m22.53,4.98v-1.75c0-.22-.18-.41-.41-.41h-1.4v-.72c0-.66-.54-1.2-1.2-1.2-.08,0-.16,0-.24.03l-1.68.35c-.69.14-1.2.76-1.2,1.47v.07H7.88c-.22,0-.41.18-.41.41v1.75c0,.22.18.41.41.41h.34l-.31.46c-.29.43-.44.93-.44,1.44v10.61c0,.22.18.41.41.41s.41-.18.41-.41V7.29c0-.35.1-.7.3-.99l.61-.91h11.61l.61.91c.2.29.3.64.3.99v1.36c0,.22.18.41.41.41s.41-.18.41-.41v-1.36c0-.52-.15-1.01-.44-1.44l-.31-.46h.34c.22,0,.41-.18.41-.41h0Zm-5.31-2.23c0-.32.23-.61.55-.67l1.68-.35s.05,0,.08,0c.21,0,.39.17.39.39v.72h-2.69v-.07Zm-8.93.89h13.43v.94h-13.43v-.94Z"/></g></g></g></svg>