<?xml version="1.0" encoding="UTF-8"?><svg id="Layer_1" xmlns="http://www.w3.org/2000/svg" viewBox="0 0 30 30"><g id="Iconly_Bold_Heart"><g id="Heart"><path id="Heart-2" d="m15.01,24.91h0l-.26-.16c-2.29-1.42-4.43-3.09-6.37-4.96-1.34-1.36-2.37-3-3.01-4.8-.57-1.72-.52-3.59.14-5.27.67-1.68,2.06-2.98,3.79-3.54.29-.1.59-.17.89-.21h.12c.28-.04.56-.06.84-.06h.11c.62.02,1.24.13,1.83.33h.06s.06.04.09.06c.22.07.43.15.63.26l.38.17c.1.06.19.12.28.19.06.04.11.08.15.1l.04.02c.09.05.18.11.26.17,1.09-.84,2.43-1.3,3.81-1.3h.04c.63,0,1.26.09,1.86.29,1.71.55,3.09,1.84,3.76,3.52.65,1.69.71,3.55.16,5.27-.63,1.81-1.66,3.45-3.01,4.81-1.93,1.87-4.05,3.53-6.33,4.96l-.25.15h0Zm4.91-15.88c-.34,0-.64.22-.76.54-.14.42.08.88.5,1.03.65.25,1.07.88,1.07,1.57v.03c-.02.22.05.45.19.62.14.17.35.27.57.29.42-.02.76-.34.79-.76v-.12c.03-1.39-.81-2.66-2.11-3.16-.08-.03-.17-.04-.25-.04Z"/></g></g></svg>