<?xml version="1.0" encoding="UTF-8"?><svg id="Layer_1" xmlns="http://www.w3.org/2000/svg" viewBox="0 0 30 30"><g id="Iconly_Bold_Wallet"><g id="Wallet"><path id="Wallet-2" d="m19.52,24.63h-9.03c-1.48.08-2.93-.43-4.04-1.41-1-1.06-1.52-2.48-1.45-3.93v-7.32c-.07-1.45.45-2.87,1.45-3.93,1.11-.98,2.56-1.49,4.04-1.41h9.03c1.48-.08,2.93.43,4.04,1.42,1,1.07,1.52,2.5,1.45,3.96h-4.23v.03c-.94,0-1.84.36-2.51,1.02-.67.64-1.04,1.52-1.04,2.45.03,1.94,1.62,3.49,3.56,3.47h4.23v.31c.07,1.45-.45,2.87-1.45,3.93-1.11.98-2.56,1.49-4.04,1.41Zm-9.78-14.11c-.41,0-.75.32-.76.74,0,.42.35.75.76.75h5.64c.41,0,.74-.33.74-.74s-.33-.75-.74-.75h-5.64Zm14.52,6.97h-3.43c-.97,0-1.82-.65-2.06-1.59-.11-.59.05-1.2.43-1.65.39-.46.97-.73,1.58-.74h3.48c.41,0,.74.32.75.73v2.53c-.01.4-.34.73-.75.73h0Zm-3.34-2.82c-.2,0-.39.07-.53.21-.14.14-.22.33-.23.52,0,.42.35.75.77.75h.33c.41,0,.75-.33.75-.74s-.33-.75-.74-.75h-.34Z"/></g></g></svg>