<?xml version="1.0" encoding="UTF-8"?><svg id="Layer_1" xmlns="http://www.w3.org/2000/svg" viewBox="0 0 30 30"><g id="Iconly_Bold_Discount"><g id="Discount"><path id="Discount-2" d="m15.01,25c-.8,0-1.56-.31-2.13-.87l-.73-.73c-.28-.28-.66-.44-1.06-.44h-1.03c-1.66,0-3.01-1.35-3.01-3.01v-1.03c0-.4-.16-.78-.44-1.07l-.72-.71c-1.17-1.18-1.18-3.08,0-4.26l.73-.73c.28-.28.44-.67.44-1.07v-1.02c0-1.66,1.35-3.01,3.01-3.01h1.03c.4,0,.78-.16,1.06-.44l.72-.72c1.18-1.18,3.08-1.18,4.26,0l.73.73c.28.28.66.44,1.06.44h1.03c1.66,0,3.01,1.35,3.01,3.01v1.03c0,.4.16.78.44,1.06l.72.72c1.17,1.17,1.18,3.07.02,4.25l-.02.02h-.01s-.71.72-.71.72c-.28.28-.44.66-.44,1.06v1.03c0,1.66-1.35,3.01-3.01,3.01h-1.03c-.4,0-.78.16-1.06.44l-.72.72c-.56.57-1.33.89-2.13.89Zm2.57-8.3c-.48,0-.88.39-.88.87,0,.48.39.88.87.88.48,0,.88-.39.88-.87,0,0,0,0,0,0,0-.48-.39-.87-.87-.87h0Zm0-5.14c-.23,0-.45.09-.62.25l-5.14,5.14c-.34.34-.34.9,0,1.24.16.17.38.26.61.26.23,0,.46-.09.62-.26l5.14-5.14c.34-.34.34-.9,0-1.24-.16-.16-.39-.26-.62-.26h0Zm-5.14,0c-.48,0-.88.39-.88.87,0,.48.39.88.87.88.48,0,.88-.39.88-.87,0,0,0,0,0-.01,0-.48-.39-.87-.87-.87Z"/></g></g></svg>