<?xml version="1.0" encoding="UTF-8"?><svg xmlns="http://www.w3.org/2000/svg" viewBox="0 0 30 30"><defs><style>.cls-1,.cls-2{fill:#f3fafe;}.cls-3,.cls-4{fill:#d8d3a0;}.cls-5{fill:#c4c3d7;}.cls-6{fill:#212322;}.cls-4,.cls-2{mix-blend-mode:multiply;}.cls-7{isolation:isolate;}</style></defs><g class="cls-7"><g id="Layer_1"><g id="Capsules"><path class="cls-5" d="m9.09,28.77c-2.64,0-4.77-2.14-4.77-4.77h0V5.96c0-2.64,2.14-4.77,4.77-4.77h0c2.64,0,4.77,2.14,4.77,4.77h0v18.04c0,2.64-2.14,4.77-4.77,4.77h0Z"/><path class="cls-1" d="m13.86,5.96v9.02H4.31V5.96c0-2.64,2.14-4.77,4.77-4.77s4.77,2.14,4.77,4.77Z"/><path class="cls-1" d="m11.94,27.86c-2.13-1.55-2.6-4.54-1.05-6.67,0,0,0,0,0,0l8.13-11.15c1.55-2.13,4.54-2.6,6.67-1.05,0,0,0,0,0,0,2.13,1.55,2.6,4.54,1.05,6.67,0,0,0,0,0,0l-8.13,11.15c-1.55,2.13-4.54,2.6-6.67,1.05,0,0,0,0,0,0h0Z"/><path class="cls-3" d="m26.74,15.66l-4.06,5.57-7.72-5.63,4.06-5.58c1.55-2.13,4.54-2.6,6.67-1.05,2.13,1.55,2.6,4.54,1.05,6.67h0Z"/><path class="cls-6" d="m4.31,11.43c.23,0,.42-.19.42-.42v-1.19c0-.23-.19-.42-.42-.42s-.42.19-.42.42v1.19c0,.23.19.42.42.42Z"/><path class="cls-6" d="m25.94,8.65c-2.32-1.69-5.57-1.18-7.26,1.14l-.86,1.18c-.14.19-.1.45.09.59.19.14.45.1.59-.09l.86-1.18c1.42-1.94,4.14-2.37,6.09-.95,1.94,1.42,2.37,4.14.95,6.09l-3.81,5.23-7.04-5.13,1.59-2.19c.14-.19.1-.45-.09-.59-.19-.14-.45-.1-.59.09l-2.18,2.99V5.96c0-2.87-2.33-5.2-5.2-5.2-2.87,0-5.19,2.33-5.2,5.2v2.44c0,.23.19.42.42.42s.42-.19.42-.42v-2.44c0-2.41,1.95-4.36,4.36-4.35,2.4,0,4.35,1.95,4.35,4.35v8.6H4.73v-1.99c0-.23-.19-.42-.42-.42s-.42.19-.42.42h0v11.43c0,2.87,2.33,5.19,5.19,5.19,1.01,0,1.99-.29,2.83-.85.84.55,1.82.85,2.82.85.27,0,.55-.02.82-.06,1.36-.21,2.58-.96,3.39-2.07l1.33-1.82c.13-.19.09-.45-.1-.58-.18-.13-.44-.09-.58.09l-1.33,1.82c-1.42,1.94-4.14,2.37-6.09.95-1.94-1.42-2.37-4.14-.95-6.09h0l3.81-5.23,7.04,5.13-1.2,1.65c-.14.19-.1.45.09.59s.45.1.59-.09h0l5.51-7.56c1.69-2.32,1.18-5.57-1.14-7.26h0Zm-15.38,12.29c-1.55,2.12-1.27,5.07.66,6.86-.65.37-1.38.56-2.13.56-2.4,0-4.35-1.95-4.35-4.35v-8.6h8.71v1.58l-2.89,3.96Z"/><path class="cls-6" d="m23.53,18.05c.13,0,.26-.06.34-.17l.81-1.11c.14-.19.1-.45-.09-.59-.19-.14-.45-.1-.59.09,0,0,0,0,0,0l-.81,1.11c-.14.19-.1.45.09.59.07.05.16.08.25.08Z"/><rect class="cls-2" x="4.19" y="13.24" width="9.66" height="1.74"/><rect class="cls-4" x="14.5" y="16.79" width="9.66" height="1.74" transform="translate(14.37 -8.05) rotate(36.66)"/></g></g></g></svg>