<?xml version="1.0" encoding="UTF-8"?><svg id="Layer_1" xmlns="http://www.w3.org/2000/svg" viewBox="0 0 30 30"><defs><style>.cls-1{stroke:#250e34;}.cls-1,.cls-2{stroke-linecap:round;stroke-linejoin:round;stroke-width:1.5px;}.cls-2{fill:none;stroke:#000;}</style></defs><g id="Iconly_Light_Buy"><g id="Buy-4"><path id="Stroke_1-26" class="cls-2" d="m5.75,5.98l2.08.36.96,11.47c.08.94.86,1.66,1.8,1.65h10.91c.9,0,1.66-.66,1.79-1.55l.95-6.56c.11-.73-.4-1.41-1.14-1.52-.06,0-14.94-.01-14.94-.01"/><path id="Stroke_3-19" class="cls-2" d="m17.13,13.52h2.77"/><path id="Stroke_5-10" class="cls-1" d="m10.15,22.93c.3,0,.55.24.55.54,0,.3-.24.55-.54.55-.3,0-.55-.24-.55-.54,0,0,0,0,0,0,0-.3.24-.54.54-.54h0Z"/><path id="Stroke_7-7" class="cls-1" d="m21.44,22.93c.3,0,.55.24.55.54,0,.3-.24.55-.54.55-.3,0-.55-.24-.55-.54,0,0,0,0,0,0,0-.3.24-.54.54-.54Z"/></g></g></svg>