<?xml version="1.0" encoding="UTF-8"?><svg xmlns="http://www.w3.org/2000/svg" viewBox="0 0 30 30"><defs><style>.cls-1{fill:#fff;}.cls-2{fill:#a0a66e;}.cls-3,.cls-4{fill:#d8d3a0;}.cls-5{fill:#212322;}.cls-6{mix-blend-mode:multiply;}.cls-4{stroke:#a0a66e;stroke-miterlimit:9.99;stroke-width:.39px;}.cls-7{isolation:isolate;}</style></defs><g class="cls-7"><g id="Layer_1"><g id="Concentrates"><path class="cls-3" d="m23.02,12.34h-1.72v-.59c0-.46-.37-.83-.83-.83h0c-.46,0-.83.37-.83.83v.59h-3l-1.8,2.55-1.37,2.96,3.18,5.51h6.36l3.18-5.51-3.18-5.51Z"/><g class="cls-6"><polygon class="cls-3" points="22.99 23.38 23.65 22.27 17.47 22.27 14.19 16.59 13.45 17.87 16.63 23.38 22.99 23.38"/></g><polygon class="cls-2" points="7.09 17.86 3.91 23.37 7.09 28.88 13.45 28.88 16.65 23.37 13.42 17.86 7.09 17.86"/><g class="cls-6"><polygon class="cls-4" points="13.45 28.88 14.11 27.76 7.93 27.76 4.65 22.08 3.91 23.37 7.09 28.88 13.45 28.88"/></g><path class="cls-2" d="m22.99,1.32h-6.36l-3.18,5.51,3.18,5.51h1.35v1.89c0,.46.37.83.83.83s.83-.37.83-.83v-2.5c0-.46.37-.83.83-.83s.83.37.83.83v4.57c0,.46.37.83.83.83s.83-.37.83-.83v-3.97l3.22-5.51-3.18-5.51Z"/><g class="cls-6"><path class="cls-3" d="m18.81,13.95c-.46,0-.83-.37-.83-.83v1.12c0,.46.37.83.83.83s.83-.37.83-.83v-1.12c0,.46-.37.83-.83.83Z"/></g><g class="cls-6"><polygon class="cls-2" points="17.97 12.34 17.97 11.23 17.47 11.23 14.19 5.55 13.45 6.83 16.63 12.34 17.97 12.34"/></g><g class="cls-6"><path class="cls-3" d="m22.13,16.03c-.46,0-.83-.37-.83-.83v1.12c0,.46.37.83.83.83s.83-.37.83-.83v-1.12c0,.46-.37.83-.83.83Z"/></g><path class="cls-3" d="m13.45,6.86h-6.36l-3.18,5.51,3.18,5.51h1.35v2.82c0,.46.37.83.83.83h0c.46,0,.83-.37.83-.83v-1.06c0-.46.37-.83.83-.83s.83.37.83.83v3.14c0,.46.37.83.83.83h0c.46,0,.83-.37.83-.83v-4.9l3.22-5.51-3.18-5.51Z"/><g class="cls-6"><path class="cls-3" d="m9.27,20.42c-.46,0-.83-.37-.83-.83v1.12c0,.46.37.83.83.83s.83-.37.83-.83v-1.12c0,.46-.37.83-.83.83Z"/></g><g class="cls-6"><polygon class="cls-3" points="8.43 17.89 8.43 16.77 7.93 16.77 4.65 11.09 3.91 12.38 7.09 17.89 8.43 17.89"/></g><g class="cls-6"><path class="cls-3" d="m12.59,22.5c-.46,0-.83-.37-.83-.83v1.12c0,.46.37.83.83.83s.83-.37.83-.83v-1.12c0,.46-.37.83-.83.83Z"/></g><rect class="cls-1" x="17.13" y="2.6" width=".83" height=".83"/><rect class="cls-1" x="18.79" y="2.6" width=".83" height=".83"/><rect class="cls-1" x="7.6" y="8.14" width=".83" height=".83"/><polygon class="cls-5" points="23.26 23.78 16.41 23.78 13.11 18.06 13.83 17.65 16.89 22.95 22.78 22.95 25.72 17.86 22.66 12.55 23.38 12.14 26.68 17.86 23.26 23.78"/><polygon class="cls-5" points="13.69 29.29 11.73 29.29 11.73 28.46 13.21 28.46 16.15 23.37 13.09 18.06 13.81 17.65 17.11 23.37 13.69 29.29"/><rect class="cls-5" x="10.07" y="28.46" width=".83" height=".83"/><polygon class="cls-5" points="9.23 29.29 6.85 29.29 3.43 23.37 6.73 17.65 7.45 18.06 4.39 23.37 7.33 28.46 9.23 28.46 9.23 29.29"/><path class="cls-5" d="m22.13,17.56c-.69,0-1.25-.56-1.25-1.25v-4.58c0-.23-.19-.41-.41-.41s-.41.19-.41.41v2.5c0,.69-.56,1.25-1.25,1.25s-1.25-.56-1.25-1.25v-1.47h-1.17l-3.42-5.93,3.42-5.93h4.48v.83h-4l-2.94,5.1,2.94,5.1h1.52v2.3c0,.23.19.42.42.42s.42-.19.42-.42v-2.5c0-.69.56-1.24,1.24-1.24s1.25.56,1.25,1.24v4.58c0,.23.19.42.42.42s.42-.19.42-.42v-4.08l3.15-5.4-2.94-5.09h-1.05v-.83h1.53l3.42,5.93-3.28,5.62v3.86c0,.69-.56,1.25-1.25,1.25Z"/><path class="cls-5" d="m12.59,24.03c-.69,0-1.25-.56-1.25-1.25v-3.14c0-.23-.19-.41-.41-.41s-.41.19-.41.41v1.06c0,.69-.56,1.24-1.25,1.24s-1.25-.56-1.25-1.24v-2.41h-1.17l-3.42-5.93,3.42-5.93h6.84l3.42,5.93-1.49,2.56-.72-.42,1.25-2.14-2.94-5.09h-5.88l-2.94,5.1,2.94,5.1h1.52v3.24c0,.23.19.41.41.41s.42-.19.42-.41v-1.06c0-.69.56-1.24,1.24-1.24s1.24.56,1.24,1.24v3.14c0,.23.19.41.41.41s.42-.19.42-.41v-5.01l1.44-2.46.72.42-1.33,2.27v4.79c0,.69-.56,1.25-1.24,1.25Z"/><rect class="cls-5" x="8.02" y="15.06" width=".83" height="2.82"/><rect class="cls-5" x="17.56" y="9.25" width=".83" height="3.1"/></g></g></g></svg>