<?xml version="1.0" encoding="UTF-8"?><svg id="Layer_1" xmlns="http://www.w3.org/2000/svg" viewBox="0 0 30 30"><defs><style>.cls-1{stroke-width:2px;}.cls-1,.cls-2{fill:none;stroke:#000;stroke-linecap:round;stroke-linejoin:round;}.cls-2{stroke-width:1.5px;}</style></defs><g id="Iconly_Light_Discount"><g id="Discount-3"><path id="Stroke_1-36" class="cls-2" d="m7.71,10.05c0-1.25,1.01-2.26,2.26-2.26h1.03c.6,0,1.17-.24,1.59-.66l.72-.72c.88-.89,2.31-.89,3.2-.01,0,0,0,0,0,0h0s.72.73.72.73c.42.42,1,.66,1.59.66h1.03c1.25,0,2.26,1.01,2.26,2.26h0v1.03c0,.6.24,1.17.66,1.59l.72.72c.89.88.89,2.31.01,3.2,0,0,0,0,0,0h0s-.72.73-.72.73c-.42.42-.66,1-.66,1.59v1.03c0,1.25-1.01,2.26-2.26,2.26h-1.03c-.6,0-1.17.24-1.59.66l-.72.72c-.88.89-2.31.89-3.2.01,0,0,0,0,0,0h0s-.72-.73-.72-.73c-.42-.42-1-.66-1.59-.66h-1.03c-1.25,0-2.26-1.01-2.26-2.26v-1.03c0-.6-.24-1.17-.66-1.59l-.72-.72c-.89-.88-.89-2.31-.01-3.2,0,0,0,0,0,0h0s.72-.73.72-.73c.42-.42.66-1,.66-1.59v-1.03"/><path id="Stroke_3-25" class="cls-2" d="m12.35,17.57l5.14-5.14"/><path id="Stroke_11-4" class="cls-1" d="m17.42,17.5h0"/><path id="Stroke_11-5" class="cls-1" d="m12.42,12.5h0"/></g></g></svg>