<?xml version="1.0" encoding="UTF-8"?><svg xmlns="http://www.w3.org/2000/svg" viewBox="0 0 30 30"><defs><style>.cls-1{fill:#a0a66e;}.cls-2{fill:#d8d3a0;}.cls-3{fill:#212322;}.cls-4{isolation:isolate;}.cls-5{mix-blend-mode:multiply;opacity:.5;}</style></defs><g class="cls-4"><g id="Layer_1"><g id="Flower"><path class="cls-2" d="m7.36,8.1c.92.92,2.4.77,2.4.77,0,0,.15-1.48-.77-2.4s-2.48-.85-2.48-.85c0,0-.07,1.56.85,2.48h0Z"/><path class="cls-1" d="m23.75,18.51c.19-.45.29-.94.29-1.46,0-1.56-.95-2.89-2.29-3.47.39-.54.63-1.2.63-1.91,0-1.18-.64-2.22-1.59-2.78.12-.34.19-.71.19-1.09,0-1.71-1.33-3.11-3.02-3.22-.08-1.41-1.25-2.54-2.68-2.54s-2.6,1.12-2.68,2.54c-1.68.11-3.02,1.51-3.02,3.22,0,.38.07.75.19,1.09-.95.56-1.59,1.6-1.59,2.78,0,.72.23,1.38.63,1.91-1.35.57-2.29,1.91-2.29,3.47,0,.52.1,1.01.29,1.46-.87.69-1.42,1.75-1.42,2.95,0,2.08,1.69,3.76,3.76,3.76.52,0,1.01-.1,1.46-.29.56,2.06,2.44,3.57,4.67,3.57s4.12-1.52,4.67-3.57c.45.19.94.29,1.46.29,2.08,0,3.76-1.69,3.76-3.76,0-1.19-.56-2.26-1.42-2.95h0Z"/><g class="cls-5"><path class="cls-1" d="m23.75,18.51c.19-.45.29-.94.29-1.46,0-1.56-.95-2.89-2.29-3.47.39-.54.63-1.2.63-1.91,0-1.18-.64-2.22-1.59-2.78.12-.34.19-.71.19-1.09,0-1.71-1.33-3.11-3.02-3.22-.05-.84-.48-1.58-1.13-2.04.22.44.35.94.35,1.46,0,.06,0,.11,0,.17-.03.55.16,1.1.53,1.51.54.58.87,1.35.87,2.2,0,.25-.03.49-.08.73-.16.7.07,1.43.59,1.93.72.69,1.16,1.65,1.16,2.72,0,.19-.01.37-.04.55-.08.57.06,1.14.41,1.6.49.65.78,1.47.76,2.35-.04,2-1.68,3.64-3.68,3.68-.08,0-.16,0-.24,0-.75-.03-1.46.33-1.85.97-.85,1.39-2.38,2.31-4.13,2.31s-3.26-.92-4.12-2.3c-.4-.65-1.12-1.02-1.87-.99-.04,0-.07,0-.11,0,0,0,0,0,0,0-.02,2.09,1.68,3.8,3.76,3.8.52,0,1.01-.1,1.46-.29.56,2.06,2.44,3.57,4.67,3.57s4.12-1.52,4.67-3.57c.47.2.99.3,1.54.29,2-.04,3.64-1.68,3.68-3.68.03-1.23-.54-2.33-1.42-3.03h0Z"/></g><path class="cls-2" d="m22.48,11.32c-.86.86-.72,2.25-.72,2.25,0,0,1.39.14,2.25-.72s.8-2.32.8-2.32c0,0-1.46-.06-2.32.8h0Z"/><path class="cls-2" d="m20.41,10.94c0,1.52,1.34,2.63,1.34,2.63,0,0,1.34-1.1,1.34-2.63s-1.34-2.75-1.34-2.75c0,0-1.34,1.23-1.34,2.75Z"/><path class="cls-2" d="m15.32,10.93c0,1.22,1.08,2.1,1.08,2.1,0,0,1.08-.88,1.08-2.1s-1.08-2.2-1.08-2.2c0,0-1.08.99-1.08,2.2Z"/><path class="cls-2" d="m13.59,12.12c1.08,1.08,2.81.91,2.81.91,0,0,.17-1.73-.91-2.81-1.08-1.08-2.9-1-2.9-1,0,0-.08,1.82,1,2.9Z"/><path class="cls-2" d="m6.09,16.27c.86.86.72,2.25.72,2.25,0,0-1.39.14-2.25-.72-.86-.86-.8-2.32-.8-2.32,0,0,1.46-.06,2.32.8h0Z"/><path class="cls-2" d="m8.15,15.89c0,1.52-1.34,2.63-1.34,2.63,0,0-1.34-1.1-1.34-2.63s1.34-2.75,1.34-2.75c0,0,1.34,1.23,1.34,2.75Z"/><path class="cls-2" d="m14.21,20.02c0,1.22,1.08,2.1,1.08,2.1,0,0,1.08-.88,1.08-2.1s-1.08-2.2-1.08-2.2c0,0-1.08.99-1.08,2.2h0Z"/><path class="cls-2" d="m22.78,18.33c-.79.93-.53,2.3-.53,2.3,0,0,1.39.02,2.18-.91.79-.93.6-2.38.6-2.38,0,0-1.46.06-2.24.99Z"/><path class="cls-3" d="m11.52,5.28c.22-.11.45-.19.69-.24.05.51.22,1,.51,1.42.08.11.2.18.33.18.08,0,.15-.02.22-.07.18-.12.23-.37.11-.55-.26-.38-.39-.82-.39-1.28,0-1.26,1.03-2.29,2.29-2.29,1.26,0,2.29,1.03,2.29,2.29,0,.46-.14.9-.39,1.28-.12.18-.08.43.11.55.07.05.15.07.22.07.13,0,.25-.06.33-.18.29-.43.46-.91.51-1.42,1.28.28,2.23,1.42,2.23,2.76,0,.87-.41,1.71-1.1,2.24-.17.14-.21.39-.07.56.08.1.2.15.32.15.09,0,.17-.03.24-.08.02-.01.03-.03.05-.04-.01.1-.02.21-.02.32,0,.78.3,1.45.64,1.96-.12-.01-.24-.02-.36-.02-.78,0-1.54.22-2.2.63-.19.12-.24.36-.13.55.08.12.21.19.34.19.07,0,.15-.02.21-.06.53-.33,1.15-.51,1.78-.51.46,0,.9.09,1.31.27h0c.44.19.82.45,1.14.8.08.08.18.13.29.13.1,0,.2-.04.27-.11.16-.15.17-.4.02-.56-.12-.13-.24-.24-.37-.35.44-.11.93-.33,1.33-.73.97-.97.92-2.55.91-2.62,0-.21-.17-.37-.38-.38-.03,0-.67-.03-1.38.2-.27-1.37-1.36-2.38-1.41-2.43-.15-.14-.39-.14-.54,0,0,0-.05.04-.11.11,0-.07,0-.14,0-.2,0-1.79-1.32-3.31-3.06-3.58-.25-1.47-1.52-2.57-3.05-2.57s-2.8,1.11-3.05,2.57c-.37.06-.73.18-1.08.35-.2.1-.27.34-.17.54.1.2.34.27.54.17h0Zm12.19,7.28c-.29.29-.65.44-.99.52.35-.48.7-1.15.76-1.93.32-.12.64-.18.89-.21-.05.44-.19,1.15-.66,1.62h0Zm-1.96-3.79c.36.42.95,1.25.95,2.17s-.59,1.69-.95,2.07c-.35-.38-.95-1.15-.95-2.07s.59-1.75.95-2.17Z"/><path class="cls-3" d="m25.07,19.46c.5-.98.36-2.12.36-2.18-.03-.21-.21-.36-.41-.35-.02,0-.25.01-.56.07,0-.35-.05-.69-.13-1.02-.06-.21-.27-.34-.49-.29-.21.06-.34.27-.29.49.07.28.11.56.11.85,0,.07,0,.14,0,.21-.41.17-.83.42-1.16.81-.48.57-.63,1.28-.66,1.81-.37-.17-.77-.27-1.18-.29-.22,0-.41.16-.41.38s.16.41.38.41c.51.02.99.21,1.39.54s.66.77.76,1.28c.04.19.21.32.39.32.03,0,.05,0,.08,0,.22-.05.35-.26.31-.47-.09-.41-.25-.79-.48-1.12.45-.1,1.01-.31,1.47-.74.16.4.25.83.25,1.27,0,1.86-1.51,3.37-3.37,3.37-.34,0-.67-.05-.99-.15.07-.33.1-.67.1-1.01,0-.41-.05-.82-.14-1.22-.05-.21-.27-.35-.48-.3-.21.05-.35.27-.3.48.17.72.16,1.49-.03,2.2-.52,1.93-2.29,3.28-4.29,3.28s-3.77-1.35-4.29-3.28c0,0,0,0,0,0-.19-.71-.2-1.48-.03-2.19.05-.21-.08-.43-.3-.48-.21-.05-.43.08-.48.3-.1.4-.14.81-.14,1.22,0,.34.03.68.1,1.01-.32.1-.65.15-.99.15-.78,0-1.5-.26-2.11-.74-.17-.14-.42-.11-.56.06-.14.17-.11.42.06.56.74.59,1.66.92,2.61.92.41,0,.82-.06,1.2-.18.74,2.06,2.71,3.46,4.93,3.46s4.19-1.4,4.93-3.46c.39.12.79.18,1.2.18,2.3,0,4.16-1.87,4.16-4.16,0-.7-.18-1.39-.51-2h0Zm-2.46.73c-.01-.41.05-1.1.48-1.61.43-.51,1.12-.71,1.56-.79,0,.44-.1,1.16-.52,1.67-.43.51-1.1.68-1.51.74Z"/><path class="cls-3" d="m5.78,21.46c-.04-1.81,1.55-3.4,3.37-3.37.22,0,.4-.18.4-.4s-.18-.4-.4-.4c-.34,0-.66.04-.98.12.22-.43.39-.95.39-1.52,0-.54-.15-1.05-.35-1.49.23-.18.49-.34.76-.45,0,0,0,0,0,0,.42-.18.86-.27,1.31-.27.63,0,1.25.18,1.78.51.07.04.14.06.21.06.13,0,.26-.07.34-.19.12-.19.06-.43-.13-.55-.66-.41-1.42-.63-2.2-.63-.45,0-.89.07-1.31.21-.25-.43-.39-.92-.39-1.43,0-.84.38-1.64,1.02-2.17.24.45.57.85.98,1.17.07.06.16.08.24.08.12,0,.24-.05.32-.15.14-.17.1-.43-.07-.56-.69-.53-1.1-1.37-1.1-2.24,0-.49.13-.98.37-1.4.11-.19.04-.44-.15-.54-.19-.11-.44-.04-.54.15-.08.13-.14.27-.2.41-.06-.07-.12-.15-.19-.21-1.03-1.03-2.71-.97-2.78-.97-.21,0-.37.17-.38.38,0,.07-.06,1.75.97,2.78.5.5,1.14.73,1.67.83-.61.66-.96,1.54-.96,2.46,0,.62.15,1.22.45,1.75-.15.08-.29.18-.43.28-.35-.51-.69-.84-.72-.86-.15-.14-.39-.14-.54,0-.05.05-1.14,1.06-1.41,2.43-.71-.22-1.35-.2-1.38-.2-.21,0-.37.17-.38.38,0,.07-.06,1.64.91,2.62.49.49,1.11.7,1.62.79-.59.73-.91,1.64-.91,2.6,0,.56.11,1.1.33,1.62.06.15.21.24.37.24.05,0,.1-.01.15-.03.2-.09.3-.32.21-.52-.17-.41-.26-.85-.26-1.31h0Zm1.14-15.42c.47.04,1.26.2,1.78.72.21.21.37.48.49.8,0,.08,0,.16,0,.24,0,.23.02.46.06.68-.45-.04-1.13-.18-1.6-.65-.52-.52-.67-1.31-.72-1.78Zm-.11,7.67c.36.42.95,1.25.95,2.17s-.59,1.69-.95,2.07c-.35-.38-.95-1.15-.95-2.07s.59-1.75.95-2.17Zm-2.62,2.17c.24.02.57.08.89.21.05.79.41,1.46.76,1.93-.33-.08-.7-.24-.99-.52-.47-.47-.62-1.18-.66-1.62h0Z"/><path class="cls-3" d="m16.67,8.43c-.15-.14-.39-.14-.54,0-.02.02-.49.46-.84,1.11-1.16-.77-2.64-.72-2.71-.72-.21,0-.37.17-.38.38,0,.08-.07,2.01,1.11,3.2.92.92,2.23,1.03,2.82,1.03.18,0,.29-.01.31-.01.09,0,.16-.04.22-.1.12-.1,1.21-1.06,1.21-2.4,0-1.38-1.16-2.45-1.21-2.5h0Zm-3.66,1.21c.55.04,1.55.21,2.2.87s.78,1.62.8,2.13c-.51-.02-1.48-.14-2.13-.8-.65-.65-.82-1.65-.87-2.2h0Zm3.74,2.36c-.09-.59-.31-1.31-.83-1.9.14-.32.33-.58.48-.77.28.34.68.95.68,1.61,0,.4-.15.77-.33,1.07h0Z"/><path class="cls-3" d="m13.31,22.93c.14.17.39.2.56.07.41-.32.89-.48,1.41-.48s1,.17,1.41.48c.07.06.16.08.25.08.12,0,.24-.05.32-.15.14-.17.1-.42-.07-.56-.33-.26-.7-.44-1.09-.55.32-.43.66-1.06.66-1.81,0-1.38-1.16-2.45-1.21-2.5-.15-.14-.39-.14-.54,0-.05.05-1.21,1.12-1.21,2.5,0,.75.34,1.38.66,1.81-.39.11-.76.29-1.09.55-.17.14-.2.39-.07.56h0Zm1.97-4.52c.28.34.68.95.68,1.61s-.4,1.23-.68,1.54c-.28-.31-.68-.87-.68-1.54,0-.66.4-1.27.68-1.61Z"/></g></g></g></svg>