<?xml version="1.0" encoding="UTF-8"?><svg id="Layer_1" xmlns="http://www.w3.org/2000/svg" viewBox="0 0 30 30"><defs><style>.cls-1{fill:none;stroke:#000;stroke-linecap:round;stroke-linejoin:round;stroke-width:1.5px;}</style></defs><g id="Iconly_Light_Home"><g id="Home-5"><path id="Home-6" class="cls-1" d="m12.03,23.77v-3.07c0-.78.64-1.42,1.42-1.42h2.89c.79,0,1.43.63,1.43,1.42h0v3.08c0,.67.53,1.21,1.2,1.22h1.92c1.91.01,3.46-1.53,3.48-3.44h0v-8.73c-.01-.75-.37-1.45-.96-1.9l-6.58-5.25c-1.16-.91-2.79-.91-3.94,0l-6.55,5.26c-.6.45-.95,1.15-.96,1.9v8.71c0,1.91,1.56,3.45,3.47,3.44h1.93c.68,0,1.24-.55,1.24-1.23h0"/></g></g></svg>