<?xml version="1.0" encoding="UTF-8"?><svg id="Layer_1" xmlns="http://www.w3.org/2000/svg" viewBox="0 0 30 30"><defs><style>.cls-1{fill:none;stroke:#000;stroke-linecap:round;stroke-linejoin:round;stroke-width:1.5px;}</style></defs><g id="Iconly_Light_Document"><g id="Document-4"><path id="Stroke_1-73" class="cls-1" d="m18.63,19.27h-7.22"/><path id="Stroke_2-6" class="cls-1" d="m18.63,15.08h-7.22"/><path id="Stroke_3-60" class="cls-1" d="m14.17,10.91h-2.76"/><path id="Stroke_4-6" class="cls-1" d="m18.83,5.8h-7.69c-2.34-.13-4.35,1.67-4.48,4.01-.01.2,0,.4,0,.6v9.2c-.2,2.34,1.54,4.4,3.88,4.6.21.02.42.02.62,0h7.69c2.34.13,4.35-1.67,4.48-4.01.01-.2,0-.39,0-.59v-9.2c.2-2.34-1.53-4.4-3.88-4.6-.21-.02-.42-.02-.63,0Z"/></g></g></svg>