<?xml version="1.0" encoding="UTF-8"?><svg id="Layer_1" xmlns="http://www.w3.org/2000/svg" viewBox="0 0 30 30"><defs><style>.cls-1{stroke:#000;}.cls-1,.cls-2{fill:none;stroke-linecap:round;stroke-linejoin:round;stroke-width:1.5px;}.cls-2{stroke:#240b34;}</style></defs><path class="cls-1" d="m12.22,10.76c-2.71,0-4.18,0-4.18,0"/><path class="cls-1" d="m5.62,6.91l2.08.36.96,11.47c.08.94.86,1.66,1.8,1.65h10.91c.9,0,1.66-.66,1.78-1.55l.95-6.56c.11-.73-.4-1.41-1.14-1.52-.02,0-1,0-3.52,0"/><path d="m10.02,23.86c.3,0,.54.24.55.54s-.24.55-.54.55c-.3,0-.55-.24-.55-.54h0c0-.3.24-.55.54-.55"/><path class="cls-2" d="m10.02,23.86c.3,0,.54.24.55.54s-.24.55-.54.55c-.3,0-.55-.24-.55-.54h0c0-.3.24-.55.54-.55Z"/><path d="m21.3,23.86c.3,0,.54.24.55.54s-.24.55-.54.55c-.3,0-.55-.24-.55-.54h0c0-.3.24-.55.54-.55"/><path class="cls-2" d="m21.3,23.86c.3,0,.54.24.55.54s-.24.55-.54.55c-.3,0-.55-.24-.55-.54h0c0-.3.24-.55.54-.55Z"/><line class="cls-1" x1="15.99" y1="17.09" x2="15.99" y2="5.05"/><polyline class="cls-1" points="18.91 14.16 15.99 17.09 13.07 14.16"/></svg>