<?xml version="1.0" encoding="UTF-8"?><svg xmlns="http://www.w3.org/2000/svg" xmlns:xlink="http://www.w3.org/1999/xlink" viewBox="0 0 30 30"><defs><style>.cls-1{fill:none;}.cls-2{clip-path:url(#clippath);}.cls-3{fill:#f3fafe;}.cls-4{fill:#f3fafd;}.cls-5{fill:#d8d3a0;}.cls-6{fill:#212322;}.cls-7{mix-blend-mode:multiply;}.cls-8{isolation:isolate;}</style><clipPath id="clippath"><rect class="cls-1" x=".91" y=".91" width="28.19" height="28.19"/></clipPath></defs><g class="cls-8"><g id="Layer_1"><g id="Pre-rolls"><g id="g7967"><g class="cls-2"><g id="g7969"><g id="g7975"><g id="path7977"><path class="cls-3" d="m3.06,22.96L21.15,7.37c.7-.6,1.08-1.49,1.04-2.42-.01-.23.04-.46.16-.66l.7-1.19c.27-.47.2-1.06-.19-1.44h0c-.38-.38-.97-.46-1.44-.19l-1.19.7c-.2.12-.43.17-.66.16-.92-.04-1.81.34-2.42,1.04L1.58,21.47c-.36.42-.34,1.04.05,1.43.39.39,1.01.41,1.43.05"/></g></g><g id="g7979"><g id="path7981" class="cls-7"><path class="cls-3" d="m22.19,4.95c-.01-.23.04-.46.16-.66l.7-1.19c.14-.23.19-.5.15-.75-2.47,2.95-5.95,6.49-10.02,10.07-4.09,3.6-8.06,6.62-11.3,8.7l-.3.35c-.36.42-.34,1.04.05,1.43.39.39,1.01.41,1.43.05L21.15,7.37c.7-.6,1.08-1.49,1.04-2.42"/></g></g><g id="g7983" class="cls-7"><g id="path7985"><path class="cls-5" d="m3.06,22.96l5.75-4.96-2.28-2.28-4.96,5.75c-.36.42-.34,1.04.05,1.43.39.39,1.01.41,1.43.05"/></g></g><g id="g7987" class="cls-7"><g id="path7989"><path class="cls-5" d="m7.74,16.93c-2.1,1.64-4.09,3.05-5.87,4.19l-.3.35c-.36.42-.34,1.04.05,1.43.39.39,1.01.41,1.43.05l5.75-4.96-1.07-1.07Z"/></g></g><g id="g7991"><g id="path7993"><path class="cls-4" d="m8.53,28.42l18.09-15.59c.7-.6,1.08-1.49,1.04-2.42-.01-.23.04-.46.16-.66l.7-1.19c.27-.47.2-1.06-.19-1.44h0c-.38-.38-.97-.46-1.44-.19l-1.19.7c-.2.12-.43.17-.66.16-.92-.04-1.81.34-2.42,1.04L7.04,26.94c-.36.42-.34,1.04.05,1.43.39.39,1.01.41,1.43.05"/></g></g><g id="g7995" class="cls-7"><g id="path7997"><path class="cls-3" d="m27.66,10.42c-.01-.23.04-.46.16-.66l.7-1.19c.14-.23.19-.5.15-.75-2.47,2.95-5.95,6.49-10.02,10.07-4.09,3.6-8.06,6.62-11.3,8.7l-.3.35c-.36.42-.34,1.04.05,1.43.39.39,1.01.41,1.43.05l18.09-15.59c.7-.6,1.08-1.49,1.04-2.42"/></g></g><g id="g7999" class="cls-7"><g id="path8001"><path class="cls-5" d="m8.53,28.42l5.75-4.96-2.28-2.28-4.96,5.75c-.36.42-.34,1.04.05,1.43.39.39,1.01.41,1.43.05"/></g></g><g id="g8003" class="cls-7"><g id="path8005"><path class="cls-5" d="m13.21,22.4c-2.1,1.64-4.09,3.05-5.87,4.19l-.3.35c-.36.42-.34,1.04.05,1.43.39.39,1.01.41,1.43.05l5.75-4.96-1.07-1.07Z"/></g></g><g id="g8007"><g id="path8009"><path class="cls-6" d="m8.81,18.41c-.11,0-.21-.04-.29-.12l-2.28-2.28c-.16-.16-.16-.42,0-.58.16-.16.42-.16.58,0l2.28,2.28c.16.16.16.42,0,.58-.08.08-.19.12-.29.12Z"/></g></g><g id="g8011"><g id="path8013"><path class="cls-6" d="m2.37,23.62c-.39,0-.76-.15-1.04-.43-.54-.54-.57-1.41-.07-1.99l6.11-7.09c.15-.17.41-.19.58-.04.17.15.19.41.04.58l-6.11,7.09c-.22.25-.2.63.03.87.12.12.28.19.45.19.15,0,.3-.05.42-.15L20.88,7.06c.61-.52.93-1.28.9-2.08,0-.03,0-.05,0-.08,0-.28.08-.56.22-.81l.7-1.19c.18-.3.13-.69-.12-.94-.15-.15-.34-.23-.55-.23-.14,0-.27.04-.39.11l-1.19.7c-.27.16-.57.23-.88.22-.04,0-.08,0-.12,0-.75,0-1.47.33-1.96.9l-8.22,9.54c-.15.17-.41.19-.58.04s-.19-.41-.04-.58L16.85,3.11c.65-.75,1.59-1.19,2.59-1.19.05,0,.11,0,.16,0,.15,0,.3-.03.43-.1l1.19-.7c.25-.14.52-.22.81-.22.43,0,.83.17,1.13.47.51.51.62,1.31.25,1.94l-.7,1.19c-.07.12-.11.25-.11.39,0,.01,0,.02,0,.03,0,0,0,0,0,0,.05,1.06-.38,2.06-1.18,2.75L3.33,23.27c-.27.23-.61.35-.96.35Z"/></g></g><g id="g8015"><g id="path8017"><path class="cls-6" d="m18.14,10.37c-.2,0-.38-.15-.41-.35l-.98-6.58c-.03-.23.12-.44.35-.47.23-.03.44.12.47.35l.98,6.58c.03.23-.12.44-.35.47-.02,0-.04,0-.06,0Z"/></g></g><g id="g8019"><g id="path8021"><path class="cls-6" d="m14.59,13.43c-.2,0-.38-.15-.41-.35l-.85-5.67c-.03-.23.12-.44.35-.47.23-.03.44.12.47.35l.85,5.67c.03.23-.12.44-.35.47-.02,0-.04,0-.06,0Z"/></g></g><g id="g8023"><g id="path8025"><path class="cls-6" d="m11.03,16.5c-.2,0-.38-.15-.41-.35l-.71-4.77c-.03-.23.12-.44.35-.47.23-.03.44.12.47.35l.71,4.77c.03.23-.12.44-.35.47-.02,0-.04,0-.06,0Z"/></g></g><g id="g8027"><g id="path8029"><path class="cls-6" d="m14.28,23.88c-.11,0-.21-.04-.29-.12l-2.28-2.28c-.16-.16-.16-.42,0-.58.16-.16.42-.16.58,0l2.28,2.28c.16.16.16.42,0,.58-.08.08-.19.12-.29.12Z"/></g></g><g id="g8031"><g id="path8033"><path class="cls-6" d="m7.84,29.09c-.39,0-.76-.15-1.04-.43-.54-.54-.57-1.41-.07-1.99l2.37-2.75c.15-.17.41-.19.58-.04.17.15.19.41.04.58l-2.37,2.75c-.22.25-.2.63.03.87.12.12.28.19.45.19.15,0,.3-.05.42-.15l12.78-11.01c.17-.15.43-.13.58.04.15.17.13.43-.04.58l-12.78,11.01c-.27.23-.61.35-.96.35Z"/></g></g><g id="g8035"><g id="path8037"><path class="cls-6" d="m10.67,23.15c-.1,0-.19-.03-.27-.1-.17-.15-.19-.41-.04-.58l11.96-13.89c.65-.75,1.59-1.19,2.59-1.19.05,0,.11,0,.16,0,.15,0,.3-.03.43-.1l1.19-.7c.25-.14.52-.22.81-.22.43,0,.83.17,1.13.47.51.51.62,1.31.25,1.94l-.7,1.19c-.07.12-.11.25-.11.39,0,.01,0,.02,0,.03.05,1.06-.38,2.06-1.18,2.75l-3.86,3.32c-.17.15-.43.13-.58-.04-.15-.17-.13-.43.04-.58l3.86-3.32c.61-.52.93-1.28.9-2.08,0-.02,0-.05,0-.08,0-.28.08-.56.22-.81l.7-1.19c.18-.3.13-.69-.12-.94-.15-.15-.34-.23-.55-.23-.14,0-.27.04-.39.11l-1.19.7c-.27.16-.57.23-.88.22-.04,0-.08,0-.12,0-.75,0-1.47.33-1.96.9l-11.96,13.89c-.08.09-.2.14-.31.14Z"/></g></g><g id="g8039"><g id="path8041"><path class="cls-6" d="m23.61,15.84c-.2,0-.38-.15-.41-.35l-.98-6.58c-.03-.23.12-.44.35-.47.23-.03.44.12.47.35l.98,6.58c.03.23-.12.44-.35.47-.02,0-.04,0-.06,0Z"/></g></g><g id="g8043"><g id="path8045"><path class="cls-6" d="m20.06,18.9c-.2,0-.38-.15-.41-.35l-.85-5.67c-.03-.23.12-.44.35-.47.23-.03.44.12.47.35l.85,5.67c.03.23-.12.44-.35.47-.02,0-.04,0-.06,0Z"/></g></g><g id="g8047"><g id="path8049"><path class="cls-6" d="m16.5,21.97c-.2,0-.38-.15-.41-.35l-.71-4.77c-.03-.23.12-.44.35-.47.23-.03.44.12.47.35l.71,4.77c.03.23-.12.44-.35.47-.02,0-.04,0-.06,0Z"/></g></g></g></g></g></g></g></g></svg>