<?xml version="1.0" encoding="UTF-8"?><svg id="Layer_1" xmlns="http://www.w3.org/2000/svg" viewBox="0 0 30 30"><defs><style>.cls-1{fill:none;stroke:#000;stroke-linecap:round;stroke-linejoin:round;stroke-width:1.5px;}</style></defs><circle class="cls-1" cx="15" cy="15.02" r="9.25"/><path d="m12.07,13.03c0-.37.12-.75.36-1.13.24-.38.59-.7,1.04-.95.46-.25.99-.38,1.6-.38.57,0,1.07.1,1.5.31.43.21.77.49,1,.85.24.36.35.75.35,1.17,0,.33-.07.62-.2.87s-.29.47-.48.65c-.18.18-.52.49-1,.92-.13.12-.24.23-.32.32-.08.09-.14.17-.18.25-.04.08-.07.15-.09.23-.02.08-.05.21-.1.4-.07.41-.31.61-.7.61-.2,0-.37-.07-.51-.2-.14-.13-.21-.33-.21-.59,0-.33.05-.61.15-.85.1-.24.24-.45.4-.63.17-.18.39-.4.68-.65.25-.22.43-.38.54-.49.11-.11.21-.23.28-.37.08-.14.12-.29.12-.45,0-.31-.12-.58-.35-.79-.23-.22-.53-.32-.9-.32-.43,0-.75.11-.95.32-.2.22-.38.54-.51.96-.13.44-.39.66-.76.66-.22,0-.4-.08-.55-.23-.15-.15-.22-.32-.22-.5m2.86,6.42c-.24,0-.45-.08-.62-.23-.18-.16-.27-.37-.27-.65,0-.25.09-.45.26-.62.17-.17.38-.25.63-.25s.45.08.62.25c.17.17.25.38.25.62,0,.27-.09.49-.26.65-.17.16-.38.23-.61.23"/></svg>