<?xml version="1.0" encoding="utf-8"?>
<!-- Generator: Adobe Illustrator 27.0.1, SVG Export Plug-In . SVG Version: 6.00 Build 0)  -->
<svg version="1.1"
	 id="Layer_1" image-rendering="optimizeQuality" text-rendering="geometricPrecision" shape-rendering="geometricPrecision"
	 xmlns="http://www.w3.org/2000/svg" xmlns:xlink="http://www.w3.org/1999/xlink" x="0px" y="0px" viewBox="0 0 267 512.5"
	 style="enable-background:new 0 0 267 512.5;" xml:space="preserve">
<style type="text/css">
	.st0{fill:#1D2120;}
</style>
<path class="st0" d="M133.5,490.9c30.8,0,58.8-12.6,79.1-32.9c20.3-20.3,32.9-48.3,32.9-79.1V227.7c0-30.8-12.6-58.8-32.9-79.1
	c-20.3-20.3-48.3-32.9-79.1-32.9s-58.8,12.6-79.1,32.8c-20.3,20.3-32.9,48.3-32.9,79.1V379c0,30.8,12.6,58.8,32.8,79
	C74.7,478.3,102.7,490.9,133.5,490.9z M83.6,49.9L133.4,0l50,49.9l-15.2,15.2l-34.8-34.7L98.8,65.1L83.6,49.9z M133.5,196
	c12.5,0,22.7,10.2,22.7,22.7v30.3c0,12.5-10.2,22.7-22.7,22.7s-22.7-10.2-22.7-22.7v-30.3C110.8,206.2,121,196,133.5,196z
	 M133.5,512.5c-36.7,0-70-15-94.2-39.2l-0.1-0.1C15,449,0,415.6,0,379V227.7c0-36.7,15-70,39.2-94.2l0.1-0.1
	c24.2-24.2,57.6-39.2,94.2-39.2c36.7,0,70,15,94.2,39.2l0.1,0.1c24.2,24.2,39.2,57.6,39.2,94.2V379c0,36.7-15,70-39.2,94.2l-0.1,0.1
	C203.6,497.4,170.2,512.5,133.5,512.5z"/>
</svg>
