<?xml version="1.0" encoding="utf-8"?>
<!-- Generator: Adobe Illustrator 24.0.1, SVG Export Plug-In . SVG Version: 6.00 Build 0)  -->
<svg version="1.1" id="Layer_1" xmlns="http://www.w3.org/2000/svg" xmlns:xlink="http://www.w3.org/1999/xlink" x="0px" y="0px"
	 viewBox="0 0 50 50" style="enable-background:new 0 0 50 50;" xml:space="preserve">
<style type="text/css">
	.st0{fill:#F2BAA3;stroke:#202221;stroke-miterlimit:10;}
	.st1{fill:#263339;}
	.st2{fill:#8DB25F;}
</style>
<circle class="st0" cx="25.04" cy="24.75" r="24"/>
<g>
	<g>
		<path class="st1" d="M20.59,39.06c-0.17,0-0.34-0.06-0.47-0.18c-0.29-0.26-0.31-0.7-0.05-0.99L24.52,33
			c0.13-0.15,0.32-0.23,0.52-0.23l0,0c0.2,0,0.38,0.08,0.52,0.23l4.45,4.89c0.26,0.29,0.24,0.73-0.05,0.99
			c-0.28,0.26-0.73,0.24-0.99-0.05l-3.93-4.32l-3.93,4.32C20.97,38.99,20.78,39.06,20.59,39.06z"/>
	</g>
	<g>
		<path class="st1" d="M25.04,41.86c-0.39,0-0.7-0.31-0.7-0.7v-7.69c0-0.39,0.31-0.7,0.7-0.7s0.7,0.31,0.7,0.7v7.69
			C25.74,41.55,25.43,41.86,25.04,41.86z"/>
	</g>
	<path class="st2" d="M27.84,20.89c0,6.95-2.8,12.58-2.8,12.58s-2.8-5.63-2.8-12.58s2.8-12.58,2.8-12.58S27.84,13.94,27.84,20.89z"
		/>
	<path class="st1" d="M25.04,34.17c-0.27,0-0.51-0.15-0.63-0.39c-0.12-0.24-2.87-5.86-2.87-12.89S24.3,8.24,24.42,8
		c0.24-0.48,1.02-0.48,1.25,0c0.12,0.24,2.87,5.86,2.87,12.89s-2.75,12.66-2.87,12.89C25.55,34.02,25.31,34.17,25.04,34.17z
		 M25.04,10.1c-0.8,2.09-2.1,6.16-2.1,10.79c0,4.64,1.29,8.71,2.1,10.79c0.8-2.09,2.1-6.16,2.1-10.79
		C27.14,16.25,25.85,12.18,25.04,10.1z"/>
	<path class="st2" d="M34.93,27.54c-4.37,4.37-9.88,5.93-9.88,5.93s1.56-5.52,5.93-9.88s9.88-5.93,9.88-5.93
		S39.29,23.17,34.93,27.54z"/>
	<path class="st1" d="M25.04,34.17c-0.18,0-0.36-0.07-0.49-0.2c-0.18-0.18-0.25-0.44-0.18-0.68c0.07-0.23,1.66-5.74,6.11-10.19
		c4.44-4.45,9.96-6.04,10.19-6.11c0.24-0.07,0.51,0,0.69,0.18c0.18,0.18,0.25,0.44,0.18,0.68c-0.07,0.23-1.66,5.74-6.11,10.19l0,0
		c-4.45,4.44-9.96,6.04-10.19,6.11C25.17,34.16,25.11,34.17,25.04,34.17z M39.71,18.8c-1.86,0.73-5.34,2.37-8.25,5.28
		c-2.91,2.91-4.55,6.38-5.28,8.24c1.86-0.73,5.34-2.37,8.25-5.28C37.34,24.14,38.98,20.66,39.71,18.8z M34.93,27.54h0.01H34.93z"/>
	<path class="st2" d="M15.16,27.54c4.37,4.37,9.88,5.93,9.88,5.93s-1.56-5.52-5.93-9.88s-9.88-5.93-9.88-5.93
		S10.79,23.17,15.16,27.54z"/>
	<path class="st1" d="M25.04,34.17c-0.06,0-0.13-0.01-0.19-0.03c-0.23-0.07-5.74-1.66-10.19-6.11c-4.44-4.44-6.04-9.95-6.11-10.19
		c-0.07-0.24,0-0.51,0.18-0.68c0.18-0.18,0.44-0.25,0.68-0.18c0.23,0.07,5.74,1.66,10.19,6.11c4.44,4.44,6.04,9.95,6.11,10.19
		c0.07,0.24,0,0.51-0.18,0.68C25.4,34.1,25.22,34.17,25.04,34.17z M10.37,18.8c0.73,1.86,2.37,5.34,5.28,8.25
		c2.92,2.92,6.39,4.55,8.25,5.28c-0.73-1.86-2.37-5.34-5.28-8.25C15.7,21.17,12.23,19.53,10.37,18.8z"/>
	<path class="st2" d="M16.65,35.57c4.63,0,8.39-2.1,8.39-2.1s-3.75-2.1-8.39-2.1s-8.39,2.1-8.39,2.1S12.02,35.57,16.65,35.57z"/>
	<path class="st1" d="M16.66,36.27c-4.76,0-8.57-2.1-8.73-2.19c-0.22-0.12-0.36-0.36-0.36-0.61c0-0.25,0.14-0.49,0.36-0.61
		c0.16-0.09,3.97-2.19,8.73-2.19c4.76,0,8.57,2.1,8.73,2.19c0.22,0.12,0.36,0.36,0.36,0.61c0,0.25-0.14,0.49-0.36,0.61
		C25.22,34.17,21.41,36.27,16.66,36.27z M9.93,33.47c1.44,0.59,3.93,1.4,6.73,1.4c2.79,0,5.28-0.81,6.72-1.4
		c-1.45-0.59-3.93-1.4-6.72-1.4C13.85,32.07,11.37,32.88,9.93,33.47z"/>
	<path class="st2" d="M33.43,35.57c4.63,0,8.39-2.1,8.39-2.1s-3.75-2.1-8.39-2.1s-8.39,2.1-8.39,2.1S28.8,35.57,33.43,35.57z"/>
	<path class="st1" d="M33.43,36.27c-4.76,0-8.57-2.1-8.73-2.19c-0.22-0.12-0.36-0.36-0.36-0.61c0-0.25,0.14-0.49,0.36-0.61
		c0.16-0.09,3.97-2.19,8.73-2.19s8.57,2.1,8.73,2.19c0.22,0.12,0.36,0.36,0.36,0.61c0,0.25-0.14,0.49-0.36,0.61
		C42,34.17,38.19,36.27,33.43,36.27z M26.71,33.47c1.45,0.59,3.93,1.4,6.72,1.4s5.28-0.81,6.72-1.4c-1.45-0.59-3.93-1.4-6.72-1.4
		S28.15,32.88,26.71,33.47z"/>
</g>
</svg>
