<?xml version="1.0" encoding="UTF-8"?><svg xmlns="http://www.w3.org/2000/svg" viewBox="0 0 30 30"><defs><style>.cls-1{fill:#d8d3a0;}.cls-2{fill:#c4c3d7;}.cls-3{fill:#212322;}.cls-4{mix-blend-mode:multiply;}.cls-5{isolation:isolate;}</style></defs><g class="cls-5"><g id="Layer_1"><g id="Tincture"><path class="cls-2" d="m12.97,7.66V3.35c0-1.12.91-2.03,2.03-2.03s2.03.91,2.03,2.03v4.32h-4.06Z"/><g class="cls-4"><path class="cls-2" d="m17.03,6.14v1.52h-4.06v-1.52h4.06Z"/></g><path class="cls-2" d="m18.81,7.66v3.05h-7.62v-3.05h7.62Z"/><path class="cls-1" d="m20.27,28.48h-10.54c-.35,0-.63-.28-.63-.63V11.34c0-.35.28-.63.63-.63h10.54c.35,0,.63.28.63.63v16.5c0,.35-.28.63-.63.63Z"/><g class="cls-4"><path class="cls-1" d="m20.27,10.71h-1.52c.35,0,.63.28.63.63v16.5c0,.35-.28.63-.63.63h1.52c.35,0,.63-.28.63-.63V11.34c0-.35-.28-.63-.63-.63Z"/></g><path class="cls-3" d="m21.37,11.34c0-.61-.5-1.11-1.11-1.11h-.99v-2.57c0-.26-.21-.47-.47-.47h-1.31v-3.84c0-1.38-1.12-2.5-2.5-2.5s-2.5,1.12-2.5,2.5v3.84h-1.31c-.26,0-.47.21-.47.47v2.57h-.99c-.61,0-1.11.5-1.11,1.11v9.94c0,.26.21.47.47.47s.47-.21.47-.47v-8.08h10.86v12.77h-10.86v-2.49c0-.26-.21-.47-.47-.47s-.47.21-.47.47v4.36c0,.61.5,1.11,1.11,1.11h10.54c.61,0,1.11-.5,1.11-1.11V11.34Zm-7.93-8c0-.86.7-1.56,1.56-1.56s1.56.7,1.56,1.56v3.84h-3.12v-3.84Zm-1.78,4.79h6.67v2.1h-6.67v-2.1Zm-2.09,4.13v-.92c0-.09.07-.16.16-.16h10.54c.09,0,.16.07.16.16v.92h-10.86Zm10.7,15.74h-10.54c-.09,0-.16-.07-.16-.16v-.93h10.86v.93c0,.09-.07.16-.16.16Z"/></g></g></g></svg>