<?xml version="1.0" encoding="UTF-8"?><svg xmlns="http://www.w3.org/2000/svg" viewBox="0 0 30 30"><defs><style>.cls-1{fill:#f3fafe;}.cls-2{fill:#d8d3a0;}.cls-3{fill:#c4c3d7;}.cls-4{fill:#212322;}.cls-5{mix-blend-mode:multiply;}.cls-6{isolation:isolate;}</style></defs><g class="cls-6"><g id="Layer_1"><g id="Topicals"><path class="cls-3" d="m23.99,25.22H6.01c-2.19,0-3.97-1.78-3.97-3.97v-6.85c0-1.01.82-1.83,1.83-1.83h22.25c1.01,0,1.83.82,1.83,1.83v6.85c0,2.19-1.78,3.97-3.97,3.97Z"/><path class="cls-1" d="m4.21,9.26h21.57v3.3H4.21v-3.3Z"/><path class="cls-2" d="m24.64,9.26c0-1.93-1.57-3.5-3.5-3.5-1.42,0-2.73-.77-3.42-2.02h0s-.37.49-.37.49c-.74.97-1.89,1.53-3.1,1.53h-5.39c-1.93,0-3.5,1.57-3.5,3.5h19.28Z"/><path class="cls-4" d="m26.47,11.9v-2.64c0-.38-.31-.68-.68-.68h-.52c-.33-1.98-2.05-3.5-4.13-3.5-1.17,0-2.26-.64-2.82-1.67-.11-.2-.32-.33-.55-.35-.23-.02-.45.08-.59.27l-.37.49c-.61.79-1.56,1.27-2.56,1.27h-5.39c-2.07,0-3.8,1.52-4.13,3.5h-.52c-.38,0-.68.31-.68.68v2.64c-1.22.17-2.17,1.22-2.17,2.49v6.85c0,2.56,2.09,4.65,4.65,4.65h17.97c2.56,0,4.65-2.09,4.65-4.65v-6.85c0-1.27-.95-2.32-2.17-2.49h0ZM8.86,6.45h5.39c1.32,0,2.58-.58,3.45-1.56.86.98,2.11,1.56,3.45,1.56s2.43.91,2.74,2.14H6.12c.31-1.23,1.42-2.14,2.74-2.14h0Zm18.42,14.8c0,1.81-1.47,3.29-3.29,3.29H6.01c-1.81,0-3.29-1.47-3.29-3.29v-6.85c0-.63.52-1.15,1.15-1.15h8.05c.38,0,.68-.31.68-.68s-.31-.68-.68-.68h-7.04v-1.93h20.21v1.93h-7.04c-.38,0-.68.31-.68.68s.31.68.68.68h8.05c.63,0,1.15.52,1.15,1.15v6.85Z"/><circle class="cls-4" cx="15" cy="12.56" r=".68"/><g class="cls-5"><path class="cls-3" d="m25.9,12.58h1.65v11.66h-1.65v-11.66Z"/></g><g class="cls-5"><path class="cls-1" d="m23.79,9.45h1.65v3.41h-1.65v-3.41Z"/></g></g></g></g></svg>