<?xml version="1.0" encoding="UTF-8"?><svg xmlns="http://www.w3.org/2000/svg" viewBox="0 0 30 30"><defs><style>.cls-1{fill:#f3fafe;}.cls-2{fill:#d8d3a0;}.cls-3{fill:#c4c3d7;}.cls-4{fill:#212322;}.cls-5{mix-blend-mode:multiply;}.cls-6{isolation:isolate;}</style></defs><g class="cls-6"><g id="Layer_1"><g id="Vape"><path class="cls-3" d="m14.11,1.7h1.73v4.33h-1.73V1.7Z"/><g class="cls-5"><path class="cls-3" d="m14.11,4.83h1.73v1.19h-1.73v-1.19Z"/></g><path class="cls-3" d="m12.27,13.38h5.41v13.2h-5.41v-13.2Z"/><g class="cls-5"><path class="cls-3" d="m16.38,13.38h1.3v13.2h-1.3v-13.2Z"/></g><path class="cls-1" d="m16.93,6.02v1.73h-3.89v-1.73h3.89Z"/><g class="cls-5"><path class="cls-1" d="m16.93,6.02v1.73h-1.3v-1.73h1.3Z"/></g><path class="cls-1" d="m16.93,26.57v1.73h-3.89v-1.73h3.89Z"/><g class="cls-5"><path class="cls-1" d="m16.93,26.57v1.73h-1.3v-1.73h1.3Z"/></g><path class="cls-1" d="m16.93,11.65v1.73h-3.89v-1.73h3.89Z"/><g class="cls-5"><path class="cls-1" d="m16.93,11.65v1.73h-1.3v-1.73h1.3Z"/></g><path class="cls-2" d="m16.93,7.75v3.89h-3.89v-3.89h3.89Z"/><g class="cls-5"><path class="cls-2" d="m16.93,7.75v3.89h-1.3v-3.89h1.3Z"/></g><circle class="cls-3" cx="14.98" cy="18.03" r=".87"/><path d="m13.71,18.03c0,.7.57,1.27,1.27,1.27s1.27-.57,1.27-1.27-.57-1.27-1.27-1.27c-.7,0-1.27.57-1.27,1.27Zm1.73,0c0,.26-.21.46-.46.46s-.46-.21-.46-.46.21-.46.46-.46.46.21.46.46Z"/><path class="cls-4" d="m17.68,15.4c.22,0,.4-.18.4-.4v-1.62c0-.22-.18-.4-.4-.4h-.36v-6.95c0-.22-.18-.4-.4-.4h-.68V1.7c0-.22-.18-.4-.4-.4h-1.73c-.22,0-.4.18-.4.4v3.92h-.68c-.22,0-.4.18-.4.4v2.72c0,.22.18.4.4.4s.4-.18.4-.4v-.59h3.09v3.09h-3.09v-.63c0-.22-.18-.4-.4-.4s-.4.18-.4.4v2.36h-.36c-.22,0-.4.18-.4.4v13.19c0,.22.18.4.4.4h.36v1.33c0,.22.18.4.4.4h3.89c.22,0,.4-.18.4-.4v-1.33h.36c.22,0,.4-.18.4-.4v-9.7c0-.22-.18-.4-.4-.4s-.4.18-.4.4v9.3h-4.61v-12.39h4.61v1.22c0,.22.18.4.4.4Zm-3.17-13.3h.93v3.52h-.93v-3.52Zm-1.08,5.25v-.93h.68s0,0,0,0h1.73s0,0,0,0h.68v.93h-3.09Zm3.09,20.55h-3.09v-.93h3.09v.93Zm-3.09-14.93v-.93h3.09v.93h-3.09Z"/></g></g></g></svg>