<?xml version="1.0" encoding="UTF-8"?><svg id="Layer_1" xmlns="http://www.w3.org/2000/svg" viewBox="0 0 30 30"><defs><style>.cls-1{fill:#212322;}</style></defs><path class="cls-1" d="m4.84,21.55c.16.56.55,1.03,1.07,1.28,2.8,1.37,5.92,2.09,9.04,2.09s6.33-.74,9.16-2.15c.51-.25.9-.72,1.06-1.27.16-.56.09-1.17-.21-1.66l-.61-1.01s.02-.01.03-.02l-7.73-12.86c-.69-1.15-2.36-1.16-3.07-.01l-7.84,12.8s.01,0,.02,0l-.7,1.13c-.31.5-.39,1.11-.22,1.68m12.19-6.82c.06-.23.33-.33.53-.2.46.31,1.19.88,1.42,1.5.35.93-.01,1.46-.53,1.65-.52.2-1.14.05-1.49-.89-.24-.62-.07-1.53.07-2.07m-2.23-4.84c.13-.18.39-.18.52,0,.29.42.73,1.14.73,1.75,0,.92-.48,1.25-.99,1.25s-.99-.33-.99-1.25c0-.61.44-1.33.73-1.75m-3.78,6.15c.23-.62.96-1.19,1.42-1.5.2-.13.47-.03.53.2.14.54.31,1.45.07,2.07-.35.93-.98,1.08-1.49.89-.52-.2-.88-.72-.53-1.65m12.05,3.48l.64,1.07c.09.15.11.34.06.51-.05.17-.16.31-.32.38-2.63,1.31-5.58,2-8.52,2s-5.8-.67-8.4-1.94c-.15-.07-.27-.21-.32-.38-.05-.18-.03-.36.07-.52l.73-1.19c5.03,2.54,11,2.57,16.05.07"/></svg>