<svg width="30" height="36" viewBox="0 0 30 36" fill="none" xmlns="http://www.w3.org/2000/svg">
<g clip-path="url(#clip0_1640_3130)">
<path d="M14.1176 35.2941C13.0588 35.1176 12 34.7647 11.1176 34.0588C10.4118 33.5294 9.88235 32.8235 9.88235 31.9412C9.88235 31.0588 10.7647 30.7059 11.4706 30.5294C13.7647 30.3529 16.2353 30.3529 18.5294 30.5294C19.2353 30.7059 20.1176 31.0588 20.1176 31.9412C20.1176 32.8235 19.5882 33.5294 18.8824 34.0588C18 34.5882 16.9412 35.1176 15.8824 35.2941C15.5294 35.2941 15.3529 35.2941 15 35.2941C14.6471 35.2941 14.4706 35.2941 14.1176 35.2941ZM6.70588 27.7059C4.76471 27.5294 3 26.6471 1.58824 25.2353C0.529412 24.1765 0 22.5882 0 21.1765C0 19.5882 0.352941 18.1765 1.23529 16.9412C2.47059 15.5294 3.17647 13.7647 3.17647 12V11.2941C3 8.82353 3.88235 6.35294 5.47059 4.41176C7.76471 1.58824 11.2941 0 15 0L15.1765 0C18.8824 0 22.4118 1.76471 24.8824 4.58824C26.2941 6.52941 27.1765 8.82353 27 11.1176V11.8235C27 13.7647 27.5294 15.5294 28.9412 16.7647C29.8235 18 30.3529 19.4118 30.1765 20.8235C30.1765 22.4118 29.6471 23.8235 28.5882 25.0588C27.1765 26.4706 25.4118 27.3529 23.4706 27.5294C20.6471 27.7059 18 27.8824 15.1765 27.8824C12.1765 28.2353 9.35294 28.0588 6.70588 27.7059Z" fill="#F9F9F9"/>
</g>
<defs>
<clipPath id="clip0_1640_3130">
<rect width="30" height="35.2941" fill="white"/>
</clipPath>
</defs>
</svg>
