<svg width="30" height="30" viewBox="0 0 30 30" fill="none" xmlns="http://www.w3.org/2000/svg">
<g clip-path="url(#clip0_1640_3132)">
<path d="M0.146412 25C0.439095 25.9091 1.02446 26.5152 1.75617 26.9697C5.85373 29.0909 10.3903 30.1515 14.9269 30.1515C19.6098 30.1515 24.1464 29.0909 28.3903 26.8182C29.122 26.3636 29.7074 25.7576 30.0001 24.8485C30.2928 23.9394 30.1464 23.0303 29.7074 22.2727L28.8293 20.7576L17.4147 1.36364C16.3903 -0.454546 13.9025 -0.454546 12.8781 1.36364L1.46348 20.7576L0.439095 22.4242C7.01388e-05 23.1818 -0.146271 24.0909 0.146412 25ZM18.0001 14.697C18.1464 14.3939 18.4391 14.2424 18.7318 14.3939C19.4635 14.8485 20.4879 15.7576 20.7806 16.6667C21.3659 18.0303 20.7806 18.9394 20.0489 19.2424C19.3171 19.5455 18.4391 19.2424 17.8537 17.8788C17.561 16.8182 17.7074 15.4545 18.0001 14.697ZM14.6342 7.27273C14.7806 6.9697 15.2196 6.9697 15.3659 7.27273C15.8049 7.87879 16.3903 8.93939 16.3903 10C16.3903 11.3636 15.6586 11.8182 14.9269 11.8182C14.1952 11.8182 13.4635 11.3636 13.4635 10C13.6098 9.09091 14.1952 7.87879 14.6342 7.27273ZM9.21958 16.6667C9.51227 15.7576 10.683 14.8485 11.2684 14.3939C11.561 14.2424 12.0001 14.3939 12.0001 14.697C12.1464 15.4545 12.4391 16.8182 12.1464 17.8788C11.561 19.2424 10.683 19.5455 9.95129 19.2424C9.21958 18.7879 8.63422 18.0303 9.21958 16.6667ZM26.7806 21.8182L27.6586 23.4849C27.8049 23.7879 27.8049 23.9394 27.8049 24.2424C27.6586 24.5455 27.5123 24.697 27.3659 24.8485C23.561 26.8182 19.1708 27.8788 14.9269 27.8788C10.683 27.8788 6.43909 26.8182 2.63422 25C2.34153 24.8485 2.19519 24.697 2.19519 24.3939C2.04885 24.0909 2.19519 23.7879 2.34153 23.6364L3.36592 21.8182C10.683 25.6061 19.4635 25.6061 26.7806 21.8182Z" fill="#F9F9F9"/>
</g>
<defs>
<clipPath id="clip0_1640_3132">
<rect width="30" height="30" fill="white"/>
</clipPath>
</defs>
</svg>
