<svg width="30" height="30" viewBox="0 0 30 30" fill="none" xmlns="http://www.w3.org/2000/svg">
<path d="M15.0388 30L14.6492 29.7473C11.2169 27.5063 8.00954 24.8709 5.10189 21.9199C3.09351 19.7736 1.54975 17.1854 0.590524 14.3448C-0.263785 11.6305 -0.188846 8.67934 0.800354 6.01233C1.80454 3.36109 3.88787 1.30987 6.48077 0.426122C6.91542 0.268311 7.36506 0.157519 7.81469 0.0943941H7.99454C8.4142 0.0312695 8.83386 0 9.25352 0H9.41838C10.3476 0.0315623 11.2769 0.204893 12.1612 0.520516H12.2511C12.2961 0.536297 12.341 0.583733 12.386 0.615296C12.7157 0.725764 13.0305 0.852028 13.3302 1.02562L13.8998 1.29378C14.0496 1.38846 14.1845 1.48344 14.3344 1.59391C14.4243 1.65704 14.4993 1.71993 14.5592 1.75149L14.6192 1.78309C14.7541 1.86199 14.889 1.95656 15.0089 2.05124C16.6426 0.725625 18.6509 0 20.7193 0H20.7792C21.7234 0 22.6677 0.141707 23.5669 0.45733C26.1299 1.32529 28.1982 3.36109 29.2024 6.01233C30.1766 8.67934 30.2665 11.6147 29.4272 14.329C28.483 17.1854 26.9392 19.7736 24.9159 21.9199C22.0232 24.8709 18.8458 27.4905 15.4285 29.7473L15.0388 30ZM22.3979 4.93932C21.8883 4.93932 21.4387 5.28657 21.2588 5.79156C21.049 6.45437 21.3787 7.18035 22.0082 7.41707C22.9824 7.8116 23.6119 8.80592 23.6119 9.89482V9.94182C23.5819 10.289 23.6868 10.6522 23.8967 10.9204C24.1065 11.1887 24.4213 11.3466 24.751 11.3782C25.3805 11.3466 25.8901 10.8416 25.935 10.1788V9.98921C25.98 7.79563 24.721 5.79156 22.7726 5.0025C22.6527 4.95516 22.5328 4.93932 22.3979 4.93932Z" fill="#F9F9F9"/>
</svg>
