<svg width="30" height="30" viewBox="0 0 30 30" fill="none" xmlns="http://www.w3.org/2000/svg">
<path d="M14.85 29.85C13.65 29.85 12.45 29.4 11.7 28.5L10.65 27.45C10.2 27 9.6 26.85 9 26.85H7.5C4.95 26.85 3 24.9 3 22.35V20.85C3 20.25 2.7 19.65 2.4 19.2L1.35 18.15C-0.45 16.35 -0.45 13.5 1.35 11.7L2.4 10.65C2.7 10.2 2.85 9.6 2.85 9V7.5C2.85 4.95 4.8 3 7.35 3H8.85C9.45 3 10.05 2.7 10.5 2.4L11.55 1.35C13.35 -0.45 16.2 -0.45 18 1.35L19.05 2.4C19.5 2.7 20.1 2.85 20.7 2.85H22.2C24.75 2.85 26.7 4.8 26.7 7.35V8.85C26.7 9.45 27 10.05 27.3 10.5L28.35 11.55C30.15 13.35 30.15 16.2 28.35 18L27.3 19.05C26.85 19.5 26.7 20.1 26.7 20.7V22.2C26.7 24.75 24.75 26.7 22.2 26.7H20.7C20.1 26.7 19.5 27 19.05 27.3L18 28.35C17.25 29.4 16.05 29.85 14.85 29.85ZM18.75 17.4C18 17.4 17.4 18 17.4 18.75C17.4 19.5 18 20.1 18.75 20.1C19.5 20.1 20.1 19.5 20.1 18.75C19.95 18 19.5 17.4 18.75 17.4ZM18.75 9.75C18.45 9.75 18 9.9 17.85 10.2L10.05 17.85C9.6 18.3 9.6 19.2 10.05 19.65C10.35 19.95 10.65 20.1 10.95 20.1C11.25 20.1 11.7 19.95 11.85 19.65L19.5 12C19.95 11.55 19.95 10.65 19.5 10.2C19.35 9.75 19.05 9.75 18.75 9.75ZM10.95 9.75C10.35 9.75 9.75 10.2 9.75 10.95C9.75 11.7 10.35 12.3 11.1 12.3C11.85 12.3 12.45 11.7 12.45 10.95C12.3 10.2 11.7 9.75 10.95 9.75Z" fill="#F9F9F9" fill-opacity="0.976471"/>
</svg>
