<?xml version="1.0" encoding="UTF-8"?><svg id="Layer_1" xmlns="http://www.w3.org/2000/svg" viewBox="0 0 30 30"><defs><style>.cls-1{fill:none;stroke:#000;stroke-linecap:round;stroke-linejoin:round;stroke-width:1.5px;}</style></defs><g id="Iconly_Light_Edit_Square"><g id="Edit_Square-4"><path id="Stroke_1-29" class="cls-1" d="m13.64,5.6h-3.74c-3.07,0-5,2.18-5,5.26v8.31c0,3.08,1.92,5.26,5,5.26h8.82c3.09,0,5-2.18,5-5.26v-4.03"/><path id="Stroke_3-21" class="cls-1" d="m10.98,13.73l7.47-7.47c.93-.93,2.44-.93,3.37,0l1.22,1.21c.93.93.93,2.44,0,3.37,0,0,0,0,0,0l-7.51,7.51c-.41.41-.96.64-1.53.64h-3.75l.09-3.78c.01-.56.24-1.09.63-1.48Z"/><path id="Stroke_5-12" class="cls-1" d="m17.32,7.42l4.57,4.57"/></g></g></svg>