<svg width="35" height="35" viewBox="0 0 35 35" fill="none" xmlns="http://www.w3.org/2000/svg">
<g clip-path="url(#clip0_1868_5024)">
<path d="M27.5804 15.7474V12.0632C27.5804 12.0632 27.67 11.9864 27.6828 12.0504L28.7189 15.2485L34.3092 13.7902L31.9938 6.37058C30.8297 4.18308 30.1133 4.28542 30.1133 4.28542C30.1133 4.28542 26.186 3.12131 23.5508 1.8037C23.5508 1.81649 23.538 1.84207 23.5252 1.86766C22.3867 4.64361 20.3655 6.06357 17.5 6.06357C14.6345 6.06357 12.6133 4.6564 11.4748 1.86766C11.462 1.82928 11.4492 1.7909 11.4364 1.76532C8.82676 3.03177 4.89949 4.29821 4.89949 4.29821C4.89949 4.29821 4.18312 4.19587 3.01901 6.38338L0.690796 13.7902L6.28107 15.2485L7.31726 12.0504C7.31726 12.0504 7.4196 11.9992 7.4196 12.0632V31.3413C7.4196 31.3413 10.784 32.0705 17.5 32.0705C24.216 32.0705 27.5804 31.3413 27.5804 31.3413V15.7474Z" fill="#C4C3D7"/>
<path d="M17.5 32.6206C10.7968 32.6206 7.44518 31.9042 7.30446 31.8786L6.88231 31.7891V15.159L6.63925 15.9009L0 14.1612L2.53289 6.11475C3.58187 4.14472 4.38779 3.77374 4.79715 3.74816C5.34722 3.56906 8.83955 2.41775 11.1933 1.26643L11.705 1.02338L11.9737 1.663C13.0227 4.24706 14.8392 5.51351 17.5 5.51351C20.1608 5.51351 21.9645 4.24706 23.0263 1.663L23.2694 1.04896L23.8067 1.3176C26.1732 2.50729 29.6656 3.58186 30.2029 3.74816C30.6122 3.77374 31.4309 4.14472 32.4799 6.11475L32.5183 6.2043L35.0128 14.1612L28.3863 15.9009L28.1433 15.159V16.2847H27.0559V12.0632C27.0559 11.769 27.2734 11.5259 27.5548 11.4748C27.8491 11.4236 28.1305 11.6027 28.22 11.8841L29.0899 14.5961L33.6312 13.4064L31.4949 6.57528C30.7273 5.15532 30.2284 4.87389 30.1133 4.82272H30.0749L29.9598 4.79713C29.8063 4.74596 26.4291 3.74816 23.8322 2.53288C22.5786 5.23208 20.455 6.58807 17.5128 6.58807C14.5705 6.58807 12.4214 5.20649 11.1678 2.48171C8.59649 3.65861 5.2193 4.74596 5.07858 4.79713L4.96345 4.83551H4.91228C4.79715 4.87389 4.29825 5.15532 3.5307 6.57528L1.39437 13.4064L5.93567 14.5961L6.80556 11.8841C6.8951 11.6027 7.17654 11.4236 7.47076 11.4748C7.76499 11.5259 7.96966 11.769 7.96966 12.0632V30.8936C9.06981 31.0855 12.2679 31.5332 17.5128 31.5332C22.7577 31.5332 25.9558 31.0855 27.0559 30.8936V25.137H28.1433V31.7763L27.7211 31.8658C27.5804 31.8914 24.2288 32.6078 17.5256 32.6078L17.5 32.6206Z" fill="#212322"/>
<path d="M7.4068 31.3542V33.5289C7.4068 33.5289 10.7712 34.2581 17.4872 34.2581C24.2032 34.2581 27.5676 33.5289 27.5676 33.5289V31.3542C27.5676 31.3542 24.2032 32.0834 17.4872 32.0834C10.7712 32.0834 7.4068 31.3542 7.4068 31.3542Z" fill="#F3FAFE"/>
<path d="M17.5 34.7953C10.7968 34.7953 7.44517 34.079 7.30446 34.0534L6.88231 33.9638V30.689L7.53472 30.8297C7.53472 30.8297 10.9375 31.5461 17.5 31.5461C24.0625 31.5461 27.4397 30.8297 27.4653 30.8297L28.1177 30.689V33.9638L27.6955 34.0534C27.5548 34.079 24.2032 34.7953 17.5 34.7953ZM7.95687 33.0684C9.05702 33.2602 12.2551 33.708 17.5 33.708C22.7449 33.708 25.943 33.2602 27.0431 33.0684V32.0066C25.7639 32.2113 22.5914 32.6334 17.5 32.6334C12.4086 32.6334 9.23611 32.2241 7.95687 32.0066V33.0684Z" fill="black"/>
<path d="M17.5 6.05081C20.3655 6.05081 22.3867 4.64364 23.5252 1.8549C23.5252 1.82932 23.538 1.81652 23.5508 1.79094C22.7833 1.40717 22.1181 1.0106 21.7087 0.626831C18.9072 1.75256 16.1056 1.75256 13.3041 0.626831C12.9075 0.985018 12.2295 1.36879 11.4364 1.75256C11.4492 1.79094 11.462 1.81652 11.4748 1.8549C12.6133 4.63085 14.6345 6.05081 17.5 6.05081Z" fill="#F3FAFE"/>
<path d="M17.5 6.60088C14.3914 6.60088 12.1912 5.07858 10.9759 2.07237L10.7328 1.49671L11.1933 1.26645C12.0249 0.869883 12.6133 0.511696 12.9331 0.217471L13.189 0L13.496 0.127924C16.1568 1.18969 18.8432 1.18969 21.504 0.127924L21.8238 0L22.0797 0.230263C22.4251 0.550073 23.0007 0.90826 23.8066 1.31762L24.2544 1.53509L24.0497 2.05958C22.8216 5.06579 20.6213 6.58809 17.5256 6.58809L17.5 6.60088ZM12.1272 2.00841C13.2018 4.36221 14.9543 5.50073 17.5 5.50073C20.0457 5.50073 21.7727 4.36221 22.8472 2.03399C22.3355 1.75256 21.9134 1.49671 21.5936 1.24086C18.8688 2.25146 16.1184 2.25146 13.3936 1.24086C13.0738 1.48392 12.6517 1.72697 12.1272 2.00841Z" fill="#212322"/>
<path d="M21.568 0.677968C18.856 1.72694 16.1312 1.72694 13.4192 0.677968C13.3681 0.665176 13.3297 0.703553 13.3553 0.74193C13.6623 1.33038 14.2507 3.87607 17.5 3.87607C20.7493 3.87607 21.3377 1.33038 21.6447 0.74193C21.6703 0.703553 21.6192 0.652383 21.5808 0.677968H21.568Z" fill="#C4C3D7"/>
<path d="M17.5 4.42617C14.2763 4.42617 13.3425 2.12354 12.9843 1.25365C12.9459 1.15131 12.9075 1.06177 12.8819 0.997804C12.7668 0.780333 12.8052 0.511693 12.9715 0.3326C13.1378 0.140714 13.3936 0.089544 13.6239 0.179091C16.1952 1.1769 18.8048 1.1769 21.3889 0.179091C21.6192 0.089544 21.875 0.153506 22.0413 0.3326C22.2076 0.511693 22.246 0.780333 22.1308 0.997804C22.0925 1.06177 22.0669 1.15131 22.0157 1.25365C21.6575 2.12354 20.7237 4.42617 17.5 4.42617ZM14.3147 1.54788C14.7624 2.39218 15.5939 3.33881 17.5 3.33881C19.4061 3.33881 20.2376 2.39218 20.6853 1.54788C18.5618 2.16191 16.4254 2.16191 14.3019 1.54788H14.3147Z" fill="#212322"/>
<path d="M28.3479 12.5621H27.2606V8.27665C27.2606 6.70318 27.8746 5.21927 28.9876 4.10633L29.4225 3.67139L30.19 4.43893L29.7551 4.87387C28.8468 5.78213 28.3479 6.99741 28.3479 8.27665V12.5621Z" fill="#212322"/>
<path d="M7.7394 12.5621H6.65204V8.27665C6.65204 6.98462 6.15314 5.78213 5.24488 4.87387L4.80994 4.43893L5.57748 3.67139L6.01242 4.10633C7.12536 5.21927 7.7394 6.70318 7.7394 8.27665V12.5621Z" fill="#212322"/>
<path d="M22.3995 11.0527L23.1542 11.9098L24.0113 12.6901L23.1414 13.4449L22.3611 14.3019L21.6064 13.4321L20.7621 12.6645L21.6191 11.897L22.3995 11.0527Z" fill="#F3FAFE"/>
<path d="M22.3611 15.1206L21.2226 13.8158L19.9433 12.6517L21.2482 11.5132L22.4123 10.2339L23.5508 11.5388L24.83 12.7029L23.5252 13.8414L22.3611 15.1206ZM21.568 12.6773L22.0157 13.0867L22.3739 13.496L22.7833 13.0483L23.1926 12.6901L22.7449 12.2807L22.3867 11.8714L21.9773 12.3191L21.568 12.6773Z" fill="#212322"/>
<path d="M14.2635 26.2372L15.0183 27.0943L15.8754 27.8747L15.0055 28.6294L14.2379 29.4865L13.4704 28.6166L12.6261 27.8363L13.4832 27.0815L14.2635 26.2372Z" fill="#F3FAFE"/>
<path d="M14.2252 30.3052L13.0866 29.0004L11.8074 27.8363L13.1122 26.6978L14.2763 25.4185L15.4148 26.7233L16.6941 27.8874L15.3893 29.026L14.2252 30.3052ZM13.432 27.8619L13.8798 28.2712L14.2379 28.6806L14.6473 28.2328L15.0567 27.8747L14.6089 27.4653L14.2507 27.0559L13.8414 27.5037L13.432 27.8619Z" fill="#212322"/>
<path d="M11.5388 7.79059L12.4982 9.00587L13.7007 9.9653L12.4982 10.9247L11.5388 12.1272L10.5793 10.9247L9.36404 9.9653L10.5793 9.00587L11.5388 7.79059Z" fill="#D8D3A0"/>
<path d="M11.5387 13.0099L10.1955 11.3085L8.49416 9.96531L10.1955 8.6221L11.5387 6.92072L12.8819 8.6221L14.5833 9.96531L12.8819 11.3085L11.5387 13.0099ZM10.2467 9.96531L11.0143 10.5921L11.5515 11.2701L12.1784 10.5026L12.8564 9.96531L12.0888 9.33848L11.5515 8.66048L10.9247 9.42803L10.2467 9.96531Z" fill="#212322"/>
<path d="M19.6747 23.5252L20.6341 24.7277L21.8366 25.6871L20.6341 26.6466L19.6747 27.8618L18.7153 26.6466L17.5 25.6871L18.7153 24.7277L19.6747 23.5252Z" fill="#D8D3A0"/>
<path d="M19.6747 28.7317L18.3315 27.0303L16.6301 25.6871L18.3315 24.3439L19.6747 22.6425L21.0179 24.3439L22.7193 25.6871L21.0179 27.0303L19.6747 28.7317ZM18.3827 25.6871L19.1502 26.3139L19.6875 26.9919L20.3143 26.2244L20.9923 25.6871L20.2248 25.0603L19.6875 24.3823L19.0607 25.1498L18.3827 25.6871Z" fill="#212322"/>
<path d="M29.4225 20.6981C29.4225 20.6981 28.8085 20.0201 27.9514 19.7387C28.3608 18.9327 28.3096 18.0117 28.3096 18.0117C28.3096 18.0117 27.3885 17.9605 26.5826 18.3699C26.3012 17.5128 25.6232 16.8987 25.6232 16.8987C25.6232 16.8987 24.9452 17.5128 24.6638 18.3699C23.8578 17.9605 22.9368 18.0117 22.9368 18.0117C22.9368 18.0117 22.8856 18.9327 23.295 19.7387C22.4379 20.0201 21.8238 20.6981 21.8238 20.6981C21.8238 20.6981 22.4379 21.3761 23.295 21.6575C22.8856 22.4634 22.9368 23.3845 22.9368 23.3845C22.9368 23.3845 23.8578 23.4357 24.6638 23.0263C24.9452 23.8834 25.6232 24.4974 25.6232 24.4974C25.6232 24.4974 26.3012 23.8834 26.5826 23.0263C27.3885 23.4357 28.3096 23.3845 28.3096 23.3845C28.3096 23.3845 28.3608 22.4634 27.9514 21.6575C28.8085 21.3761 29.4225 20.6981 29.4225 20.6981Z" fill="#A0A66E"/>
<path d="M25.636 25.2266L25.265 24.894C25.265 24.894 24.7405 24.4079 24.3823 23.7171C23.6404 23.9473 22.9496 23.9218 22.9112 23.9218L22.4251 23.8962L22.3995 23.4101C22.3995 23.4101 22.3611 22.6937 22.6042 21.9389C21.9134 21.5808 21.4529 21.0818 21.4273 21.0563L21.0947 20.6853L21.4273 20.3143C21.4273 20.3143 21.9134 19.7898 22.6042 19.4316C22.3739 18.6897 22.3995 17.9989 22.3995 17.9605L22.4251 17.4744L22.9112 17.4488C22.9112 17.4488 23.6276 17.4104 24.3823 17.6535C24.7405 16.9627 25.2394 16.5022 25.265 16.4766L25.636 16.144L26.0069 16.4766C26.0069 16.4766 26.5314 16.9627 26.8896 17.6535C27.6316 17.4232 28.3224 17.4488 28.3607 17.4488L28.8469 17.4744L28.8724 17.9605C28.8724 17.9605 28.9108 18.6769 28.6678 19.4316C29.3586 19.7898 29.8191 20.2887 29.8447 20.3143L30.1773 20.6853L29.8447 21.0563C29.8447 21.0563 29.3586 21.5808 28.6678 21.9389C28.898 22.6809 28.8724 23.3717 28.8724 23.4101L28.8469 23.8962L28.3607 23.9218C28.3607 23.9218 27.6444 23.9601 26.8896 23.7171C26.5314 24.4079 26.0325 24.8684 26.0069 24.894L25.636 25.2266ZM24.9963 22.2587L25.1882 22.86C25.2906 23.1798 25.4697 23.4612 25.636 23.6787C25.8023 23.4612 25.9686 23.1798 26.0837 22.86L26.2756 22.2587L26.8385 22.5402C27.1455 22.6937 27.4781 22.7704 27.7467 22.8088C27.7083 22.5402 27.6316 22.2076 27.4781 21.9006L27.1966 21.3377L27.7979 21.1458C28.1177 21.0435 28.3991 20.8644 28.6166 20.6981C28.3991 20.5318 28.1177 20.3655 27.7979 20.2503L27.1966 20.0585L27.4781 19.4956C27.6316 19.1886 27.7083 18.856 27.7467 18.5873C27.4781 18.6257 27.1455 18.7025 26.8385 18.856L26.2756 19.1374L26.0837 18.5362C25.9814 18.2164 25.8023 17.9349 25.636 17.7174C25.4697 17.9349 25.3034 18.2164 25.1882 18.5362L24.9963 19.1374L24.4335 18.856C24.1265 18.7025 23.7939 18.6257 23.5252 18.5873C23.5636 18.856 23.6404 19.1886 23.7939 19.4956L24.0753 20.0585L23.4741 20.2503C23.1542 20.3527 22.8728 20.5318 22.6553 20.6981C22.8728 20.8644 23.1542 21.0307 23.4741 21.1458L24.0753 21.3377L23.7939 21.9006C23.6404 22.2076 23.5636 22.5402 23.5252 22.8088C23.7939 22.7704 24.1265 22.6937 24.4335 22.5402L24.9963 22.2587Z" fill="#212322"/>
<path d="M25.0859 21.2354V20.148H26.1732V21.2354H25.0859Z" fill="#212322"/>
<path d="M17.5 18.5234C17.5 18.5234 16.886 17.8454 16.0289 17.564C16.4382 16.7581 16.3871 15.837 16.3871 15.837C16.3871 15.837 15.466 15.7858 14.6601 16.1952C14.3787 15.3381 13.7007 14.7241 13.7007 14.7241C13.7007 14.7241 13.0227 15.3381 12.7412 16.1952C11.9353 15.7858 11.0143 15.837 11.0143 15.837C11.0143 15.837 10.9631 16.7581 11.3724 17.564C10.5154 17.8454 9.90132 18.5234 9.90132 18.5234C9.90132 18.5234 10.5154 19.2014 11.3724 19.4828C10.9631 20.2888 11.0143 21.2098 11.0143 21.2098C11.0143 21.2098 11.9353 21.261 12.7412 20.8516C13.0227 21.7087 13.7007 22.3227 13.7007 22.3227C13.7007 22.3227 14.3787 21.7087 14.6601 20.8516C15.466 21.261 16.3871 21.2098 16.3871 21.2098C16.3871 21.2098 16.4382 20.2888 16.0289 19.4828C16.886 19.2014 17.5 18.5234 17.5 18.5234Z" fill="#A0A66E"/>
<path d="M13.7007 23.0519L13.3297 22.7193C13.3297 22.7193 12.8052 22.2332 12.447 21.5424C11.705 21.7727 11.0143 21.7471 10.9759 21.7471L10.4898 21.7215L10.4642 21.2354C10.4642 21.2354 10.4258 20.519 10.6689 19.7771C9.97808 19.4189 9.51755 18.92 9.49197 18.8944L9.15936 18.5234L9.49197 18.1524C9.49197 18.1524 9.97808 17.6279 10.6689 17.2698C10.4386 16.5278 10.4642 15.837 10.4642 15.7986L10.4898 15.3125L10.9759 15.2869C10.9759 15.2869 11.6923 15.2486 12.447 15.4916C12.8052 14.8008 13.3041 14.3403 13.3297 14.3147L13.7007 13.9821L14.0716 14.3147C14.0716 14.3147 14.5961 14.8008 14.9543 15.4916C15.6963 15.2614 16.3871 15.2869 16.4254 15.2869L16.9116 15.3125L16.9371 15.7986C16.9371 15.7986 16.9755 16.515 16.7325 17.2698C17.4233 17.6279 17.8838 18.1269 17.9094 18.1524L18.242 18.5234L17.9094 18.8944C17.9094 18.8944 17.4233 19.4189 16.7325 19.7771C16.9627 20.519 16.9371 21.2098 16.9371 21.2354L16.9116 21.7215L16.4254 21.7471C16.4254 21.7471 15.7091 21.7855 14.9543 21.5424C14.5961 22.2332 14.0972 22.6937 14.0716 22.7193L13.7007 23.0519ZM13.061 20.0841L13.2529 20.6853C13.3553 21.0051 13.5344 21.2866 13.7007 21.504C13.867 21.2866 14.0333 21.0051 14.1484 20.6853L14.3403 20.0841L14.9031 20.3655C15.2102 20.519 15.5428 20.5958 15.8114 20.6342C15.773 20.3655 15.6963 20.0329 15.5428 19.7259L15.2613 19.163L15.8626 18.9712C16.1824 18.8688 16.4638 18.6897 16.6813 18.5234C16.4638 18.3571 16.1824 18.1908 15.8626 18.0757L15.2613 17.8838L15.5428 17.3209C15.6963 17.0139 15.773 16.6813 15.8114 16.4127C15.5428 16.451 15.2102 16.5278 14.9031 16.6813L14.3403 16.9627L14.1484 16.3615C14.0461 16.0417 13.867 15.7603 13.7007 15.5428C13.5344 15.7603 13.3681 16.0417 13.2529 16.3615L13.061 16.9627L12.4982 16.6813C12.1912 16.5278 11.8586 16.451 11.5899 16.4127C11.6283 16.6813 11.7051 17.0139 11.8586 17.3209L12.14 17.8838L11.5387 18.0757C11.2189 18.178 10.9375 18.3571 10.72 18.5234C10.9375 18.6897 11.2189 18.856 11.5387 18.9712L12.14 19.163L11.8586 19.7259C11.7051 20.0329 11.6283 20.3655 11.5899 20.6342C11.8586 20.5958 12.1912 20.519 12.4982 20.3655L13.061 20.0841Z" fill="#212322"/>
<path d="M13.1634 19.0735V17.9861H14.2507V19.0735H13.1634Z" fill="#212322"/>
</g>
<defs>
<clipPath id="clip0_1868_5024">
<rect width="35" height="34.7953" fill="white"/>
</clipPath>
</defs>
</svg>
