<svg width="290" height="290" viewBox="0 0 290 290" fill="none" xmlns="http://www.w3.org/2000/svg">
<path d="M16.9199 159.54C5.11994 81.48 39.1499 35.32 117.21 23.52C195.27 11.72 267.9 79.23 279.7 157.29C291.5 235.35 232.25 271.55 154.19 283.35C76.1399 295.15 28.7199 237.59 16.9199 159.54Z" fill="#F3F9FE"/>
<path d="M25.2898 81.95C25.2298 81.95 25.1798 81.94 25.1298 81.91L8.4598 72.29C8.3598 72.23 8.2998 72.12 8.2998 72.01V52.77C8.2998 52.65 8.3598 52.55 8.4598 52.49L25.1198 42.87C25.2198 42.81 25.3398 42.81 25.4398 42.87L42.0998 52.49C42.1998 52.55 42.2598 52.66 42.2598 52.77V72.01C42.2598 72.13 42.1998 72.23 42.0998 72.29L25.4398 81.91C25.3998 81.94 25.3498 81.95 25.2898 81.95ZM8.9498 71.82L25.2898 81.25L41.6298 71.82V52.96L25.2898 43.53L8.9498 52.96V71.82Z" fill="#020202"/>
<path d="M58.6199 81.95C58.5599 81.95 58.5099 81.94 58.4599 81.91L41.7999 72.29C41.6999 72.23 41.6399 72.12 41.6399 72.01V52.77C41.6399 52.65 41.6999 52.55 41.7999 52.49L58.4599 42.87C58.5599 42.81 58.6799 42.81 58.7799 42.87L75.4399 52.49C75.5399 52.55 75.5999 52.66 75.5999 52.77V72.01C75.5999 72.13 75.5399 72.23 75.4399 72.29L58.7799 81.91C58.7299 81.94 58.6699 81.95 58.6199 81.95ZM42.2799 71.82L58.6199 81.25L74.9599 71.82V52.96L58.6199 43.53L42.2799 52.96V71.82Z" fill="#020202"/>
<path d="M93.2399 81.41C93.1899 81.41 93.1399 81.4 93.0899 81.37L75.1299 72.3C74.9699 72.22 74.9099 72.02 74.9899 71.86C75.0699 71.7 75.2699 71.64 75.4299 71.72L93.3899 80.8C93.5499 80.88 93.6099 81.08 93.5299 81.24C93.4699 81.35 93.3599 81.41 93.2399 81.41Z" fill="#020202"/>
<path d="M25.2897 43.67C25.1097 43.67 24.9697 43.52 24.9697 43.35V31.36C24.9697 31.18 25.1197 31.04 25.2897 31.04C25.4597 31.04 25.6097 31.19 25.6097 31.36V43.35C25.6097 43.53 25.4697 43.67 25.2897 43.67Z" fill="#020202"/>
<path d="M110.18 18.2C110 18.2 109.86 18.05 109.86 17.88V8.89001C109.86 8.71001 110.01 8.57001 110.18 8.57001C110.35 8.57001 110.5 8.72001 110.5 8.89001V17.87C110.5 18.06 110.36 18.2 110.18 18.2Z" fill="#020202"/>
<path d="M75.2798 52.99C75.2198 52.99 75.1698 52.98 75.1198 52.95L58.4598 43.33C58.3598 43.27 58.2998 43.16 58.2998 43.05V23.8C58.2998 23.68 58.3598 23.58 58.4598 23.52L75.1198 13.9C75.2198 13.84 75.3398 13.84 75.4398 13.9L92.0998 23.52C92.1998 23.58 92.2598 23.69 92.2598 23.8V43.04C92.2598 43.16 92.1998 43.26 92.0998 43.32L75.4398 52.94C75.3898 52.97 75.3398 52.99 75.2798 52.99ZM58.9398 42.85L75.2798 52.28L91.6198 42.85V23.99L75.2798 14.56L58.9398 23.99V42.85Z" fill="#020202"/>
<path d="M110.16 49.24C110.13 49.24 110.09 49.23 110.06 49.22L91.8399 43.3C91.7099 43.26 91.6199 43.13 91.6199 42.99V23.84C91.6199 23.7 91.7099 23.57 91.8399 23.53L110.06 17.61C110.19 17.57 110.34 17.61 110.42 17.73L121.68 33.23C121.76 33.34 121.76 33.5 121.68 33.61L110.42 49.11C110.36 49.2 110.26 49.24 110.16 49.24ZM92.2699 42.76L110.04 48.53L121.02 33.41L110.04 18.3L92.2699 24.07V42.76Z" fill="#020202"/>
<path d="M277.63 59.81C277.45 59.81 277.31 59.66 277.31 59.49V48.24H259.37C259.19 48.24 259.05 48.09 259.05 47.92C259.05 47.74 259.2 47.6 259.37 47.6H277.63C277.81 47.6 277.95 47.75 277.95 47.92V59.49C277.95 59.66 277.81 59.81 277.63 59.81Z" fill="black"/>
<path d="M277.63 59.49V169.82H67.71V47.91H259.36L277.63 59.49Z" fill="white"/>
<path d="M277.63 170.15H67.7099C67.5299 170.15 67.3899 170 67.3899 169.83V47.91C67.3899 47.73 67.5399 47.59 67.7099 47.59H259.37C259.55 47.59 259.69 47.74 259.69 47.91C259.69 48.09 259.54 48.23 259.37 48.23H68.0299V169.5H277.3V59.49C277.3 59.31 277.45 59.17 277.62 59.17C277.8 59.17 277.94 59.32 277.94 59.49V169.83C277.95 170 277.81 170.15 277.63 170.15Z" fill="black"/>
<path d="M268.9 161.64H76.7798C76.5998 161.64 76.4598 161.49 76.4598 161.32L76.3198 56.42C76.3198 56.33 76.3498 56.25 76.4098 56.19C76.4698 56.13 76.5498 56.09 76.6398 56.09H268.9C269.08 56.09 269.22 56.24 269.22 56.41V161.31C269.23 161.5 269.08 161.64 268.9 161.64ZM77.0998 161H268.57V56.74H76.9698L77.0998 161Z" fill="black"/>
<path d="M203.34 194.29H141.99C141.81 194.29 141.67 194.14 141.67 193.97V169.87C141.67 169.69 141.82 169.55 141.99 169.55H203.34C203.52 169.55 203.66 169.7 203.66 169.87V193.97C203.67 194.15 203.52 194.29 203.34 194.29ZM142.32 193.64H203.02V170.19H142.32V193.64Z" fill="black"/>
<path d="M241.81 213.14C241.72 213.14 241.64 213.11 241.57 213.04L240.07 211.42C229.97 200.54 215.67 194.29 200.83 194.29H144.5C129.66 194.29 115.36 200.53 105.26 211.42L104.26 212.49H155.6C155.78 212.49 155.92 212.64 155.92 212.81C155.92 212.99 155.77 213.13 155.6 213.13H103.52C103.39 213.13 103.27 213.05 103.22 212.94C103.17 212.82 103.19 212.68 103.28 212.59L104.78 210.97C115 199.95 129.47 193.63 144.5 193.63H200.83C215.85 193.63 230.33 199.95 240.55 210.97L242.05 212.59C242.17 212.72 242.16 212.93 242.03 213.05C241.97 213.11 241.89 213.14 241.81 213.14Z" fill="black"/>
<path d="M173.06 95.12C173 95.12 172.95 95.11 172.9 95.08L156.24 85.46C156.14 85.4 156.08 85.29 156.08 85.18V65.94C156.08 65.82 156.14 65.72 156.24 65.66L172.9 56.04C173 55.98 173.12 55.98 173.22 56.04L189.88 65.66C189.98 65.72 190.04 65.83 190.04 65.94V85.18C190.04 85.3 189.98 85.4 189.88 85.46L173.22 95.08C173.18 95.11 173.12 95.12 173.06 95.12ZM156.72 84.99L173.06 94.42L189.4 84.99V66.13L173.06 56.7L156.72 66.13V84.99Z" fill="#020202"/>
<path d="M139.74 95.12C139.68 95.12 139.63 95.11 139.58 95.08L122.92 85.46C122.82 85.4 122.76 85.29 122.76 85.18V65.94C122.76 65.82 122.82 65.72 122.92 65.66L139.58 56.04C139.68 55.98 139.8 55.98 139.9 56.04L156.56 65.66C156.66 65.72 156.72 65.83 156.72 65.94V85.18C156.72 85.3 156.66 85.4 156.56 85.46L139.9 95.08C139.85 95.11 139.79 95.12 139.74 95.12ZM123.4 84.99L139.74 94.42L156.08 84.99V66.13L139.74 56.7L123.4 66.13V84.99Z" fill="#020202"/>
<path d="M123.07 66.26C123.02 66.26 122.97 66.25 122.92 66.22L104.96 57.14C104.8 57.06 104.74 56.86 104.82 56.7C104.9 56.54 105.1 56.48 105.26 56.56L123.22 65.64C123.38 65.72 123.44 65.92 123.36 66.08C123.31 66.2 123.19 66.26 123.07 66.26Z" fill="#020202"/>
<path d="M88.1799 129.38C87.9999 129.38 87.8599 129.23 87.8599 129.06V120.08C87.8599 119.9 88.0099 119.76 88.1799 119.76C88.3499 119.76 88.4999 119.91 88.4999 120.08V129.06C88.4999 129.23 88.3499 129.38 88.1799 129.38Z" fill="#020202"/>
<path d="M106.41 94.91V114.15L123.07 123.77L139.74 114.15V94.91L123.07 85.28L106.41 94.91Z" fill="#C4C4D7"/>
<path d="M123.07 124.09C123.01 124.09 122.96 124.08 122.91 124.05L106.25 114.43C106.15 114.37 106.09 114.26 106.09 114.15V94.91C106.09 94.79 106.15 94.69 106.25 94.63L122.91 85C123.01 84.94 123.13 84.94 123.23 85L139.89 94.62C139.99 94.68 140.05 94.79 140.05 94.9V114.14C140.05 114.26 139.99 114.36 139.89 114.42L123.23 124.04C123.19 124.08 123.13 124.09 123.07 124.09ZM106.73 113.96L123.07 123.39L139.41 113.96V95.09L123.07 85.66L106.73 95.09V113.96Z" fill="black"/>
<path d="M88.1899 120.35C88.0899 120.35 87.9899 120.3 87.9299 120.22L76.6699 104.72C76.5899 104.61 76.5899 104.45 76.6699 104.34L87.9299 88.84C88.0099 88.73 88.1599 88.68 88.2899 88.72L106.51 94.64C106.64 94.68 106.73 94.81 106.73 94.95V114.11C106.73 114.25 106.64 114.38 106.51 114.42L88.2899 120.34C88.2599 120.34 88.2199 120.35 88.1899 120.35ZM77.3299 104.53L88.3099 119.65L106.08 113.88V95.18L88.3099 89.41L77.3299 104.53Z" fill="#020202"/>
<path d="M156.49 123.83C156.43 123.83 156.38 123.82 156.33 123.79L139.67 114.17C139.57 114.11 139.51 114 139.51 113.89V94.64C139.51 94.52 139.57 94.42 139.67 94.36L156.33 84.74C156.43 84.68 156.55 84.68 156.65 84.74L173.31 94.36C173.41 94.42 173.47 94.53 173.47 94.64V113.88C173.47 114 173.41 114.1 173.31 114.16L156.65 123.78C156.6 123.81 156.55 123.83 156.49 123.83ZM140.15 113.7L156.49 123.13L172.83 113.7V94.83L156.49 85.4L140.15 94.83V113.7Z" fill="#020202"/>
<path d="M207.92 87.23V107.42L225.4 117.52L242.88 107.42V87.23L225.4 77.14L207.92 87.23Z" fill="#020202"/>
<path d="M244.45 214.87V234.11L261.11 243.73L277.78 234.11V214.87L261.11 205.25L244.45 214.87Z" fill="#E7905F"/>
<path d="M261.11 244.06C261.05 244.06 261 244.05 260.95 244.02L244.29 234.4C244.19 234.34 244.13 234.23 244.13 234.12V214.88C244.13 214.76 244.19 214.66 244.29 214.6L260.95 204.98C261.05 204.92 261.17 204.92 261.27 204.98L277.93 214.6C278.03 214.66 278.09 214.77 278.09 214.88V234.12C278.09 234.24 278.03 234.34 277.93 234.4L261.27 244.02C261.23 244.04 261.17 244.06 261.11 244.06ZM244.77 233.92L261.11 243.35L277.45 233.92V215.05L261.11 205.62L244.77 215.05V233.92Z" fill="black"/>
<path d="M227.79 244.06C227.73 244.06 227.68 244.05 227.63 244.02L210.97 234.4C210.87 234.34 210.81 234.23 210.81 234.12V214.88C210.81 214.76 210.87 214.66 210.97 214.6L227.63 204.98C227.73 204.92 227.85 204.92 227.95 204.98L244.61 214.6C244.71 214.66 244.77 214.77 244.77 214.88V234.12C244.77 234.24 244.71 234.34 244.61 234.4L227.95 244.02C227.9 244.04 227.84 244.06 227.79 244.06ZM211.45 233.92L227.79 243.35L244.13 233.92V215.05L227.79 205.62L211.45 215.05V233.92Z" fill="#020202"/>
<path d="M211.12 215.2C211.07 215.2 211.02 215.19 210.97 215.16L193.01 206.08C192.85 206 192.79 205.8 192.87 205.64C192.95 205.48 193.15 205.42 193.31 205.5L211.27 214.58C211.43 214.66 211.49 214.86 211.41 215.02C211.36 215.13 211.24 215.2 211.12 215.2Z" fill="#020202"/>
<path d="M261.11 255.85C260.93 255.85 260.79 255.7 260.79 255.53V243.54C260.79 243.36 260.94 243.22 261.11 243.22C261.29 243.22 261.43 243.37 261.43 243.54V255.53C261.44 255.7 261.29 255.85 261.11 255.85Z" fill="#020202"/>
<path d="M176.22 278.31C176.04 278.31 175.9 278.16 175.9 277.99V269C175.9 268.82 176.05 268.68 176.22 268.68C176.4 268.68 176.54 268.83 176.54 269V277.98C176.55 278.17 176.4 278.31 176.22 278.31Z" fill="#020202"/>
<path d="M194.46 243.84V263.08L211.12 272.7L227.79 263.08V243.84L211.12 234.22L194.46 243.84Z" fill="#A1A76F"/>
<path d="M211.12 273.03C211.06 273.03 211.01 273.02 210.96 272.99L194.3 263.37C194.2 263.31 194.14 263.2 194.14 263.09V243.85C194.14 243.73 194.2 243.63 194.3 243.57L210.96 233.95C211.06 233.89 211.18 233.89 211.28 233.95L227.94 243.57C228.04 243.63 228.1 243.74 228.1 243.85V263.09C228.1 263.21 228.04 263.31 227.94 263.37L211.28 272.99C211.23 273.01 211.18 273.03 211.12 273.03ZM194.78 262.89L211.12 272.32L227.46 262.89V244.02L211.12 234.59L194.78 244.02V262.89Z" fill="black"/>
<path d="M176.24 269.28C176.14 269.28 176.04 269.23 175.98 269.15L164.72 253.65C164.64 253.54 164.64 253.38 164.72 253.27L175.98 237.77C176.06 237.66 176.21 237.61 176.34 237.65L194.56 243.57C194.69 243.61 194.78 243.74 194.78 243.88V263.04C194.78 263.18 194.69 263.31 194.56 263.35L176.34 269.27C176.31 269.28 176.27 269.28 176.24 269.28ZM165.38 253.46L176.36 268.58L194.13 262.81V244.13L176.36 238.36L165.38 253.46Z" fill="#020202"/>
<path d="M190.22 143.29L196.67 137.99C196.67 137.99 194.18 133.89 197.63 129.94C198.43 129.02 200.24 127.28 201.79 125.83C203.55 124.18 205.08 122.3 206.35 120.25L207.8 117.9C208.53 116.72 210.06 116.32 211.27 117.01L211.53 117.16C212.75 117.85 213.2 119.4 212.54 120.64L208.28 128.66L212.61 129.41C214.83 129.79 217.11 129.55 219.2 128.7L227.7 125.45C229.11 124.91 230.71 125.5 231.43 126.83L231.55 127.06L235.93 124.86C237.24 124.26 238.79 124.79 239.46 126.08C240.11 127.34 239.67 128.9 238.46 129.64L208.65 147.81L199.63 154.76L190.22 143.29Z" fill="#DFE3E8"/>
<path d="M199.62 155.07C199.53 155.07 199.43 155.03 199.37 154.95L189.97 143.5C189.86 143.36 189.88 143.16 190.01 143.04L196.26 137.91C195.78 136.93 194.31 133.25 197.38 129.73C198.21 128.78 200.11 126.96 201.56 125.6C203.29 123.97 204.81 122.12 206.06 120.09L207.51 117.74C208.33 116.4 210.05 115.96 211.41 116.73L211.67 116.88C213.04 117.65 213.55 119.41 212.81 120.8L208.76 128.42L212.65 129.09C214.81 129.46 217.03 129.22 219.06 128.4L227.57 125.15C229.11 124.56 230.86 125.2 231.68 126.63L235.78 124.58C237.26 123.9 239 124.5 239.74 125.94C240.46 127.35 239.97 129.1 238.62 129.92L208.83 148.09L199.82 155.03C199.76 155.05 199.69 155.07 199.62 155.07ZM190.67 143.33L199.67 154.29L208.44 147.53C208.45 147.52 208.46 147.52 208.47 147.51L238.28 129.34C239.34 128.69 239.73 127.32 239.16 126.21C238.58 125.07 237.21 124.6 236.06 125.14L231.68 127.33C231.52 127.41 231.33 127.35 231.25 127.2L231.13 126.97C230.49 125.79 229.05 125.26 227.8 125.74L219.3 128.99C217.16 129.86 214.82 130.11 212.54 129.72L208.21 128.97C208.11 128.95 208.02 128.89 207.97 128.79C207.92 128.7 207.93 128.59 207.97 128.49L212.23 120.47C212.8 119.39 212.41 118.02 211.34 117.42L211.08 117.27C210.02 116.67 208.69 117.01 208.05 118.05L206.6 120.4C205.32 122.48 203.76 124.38 201.99 126.05C199.93 127.99 198.5 129.4 197.86 130.14C194.61 133.86 196.84 137.65 196.94 137.81C197.02 137.95 196.99 138.13 196.87 138.23L190.67 143.33Z" fill="black"/>
<path d="M206.28 132.6C206.23 132.6 206.17 132.59 206.12 132.56C205.96 132.47 205.9 132.28 205.99 132.12L208.02 128.4C208.11 128.24 208.3 128.18 208.46 128.27C208.62 128.36 208.68 128.55 208.59 128.71L206.56 132.43C206.51 132.53 206.4 132.6 206.28 132.6Z" fill="black"/>
<path d="M218 133.84L220.38 132.72C221.89 132.01 223.16 130.87 224.04 129.44L228.85 121.63C229.54 120.51 231 120.15 232.13 120.83C233.2 121.48 233.61 122.84 233.05 123.97L228.53 133.19C228.16 133.94 227.65 134.6 227.03 135.14L223.66 138.07L218 133.84Z" fill="#DFE3E8"/>
<path d="M227.03 135.47C226.94 135.47 226.85 135.43 226.78 135.36C226.66 135.22 226.68 135.02 226.81 134.9C227.41 134.38 227.88 133.76 228.23 133.05L232.75 123.83C233.22 122.86 232.87 121.67 231.95 121.11C230.98 120.53 229.71 120.84 229.11 121.8L225.44 127.81C225.35 127.96 225.15 128.01 224.99 127.92C224.84 127.83 224.79 127.63 224.88 127.47L228.55 121.46C229.33 120.19 231 119.78 232.28 120.55C233.49 121.28 233.95 122.84 233.33 124.11L228.81 133.33C228.42 134.12 227.89 134.81 227.23 135.39C227.19 135.45 227.11 135.47 227.03 135.47Z" fill="black"/>
<path d="M212.42 138.01L214.58 136.51C215.95 135.56 217.02 134.22 217.65 132.67L221.11 124.17C221.61 122.95 222.99 122.35 224.21 122.83C225.38 123.29 226 124.57 225.64 125.77L222.7 135.62C222.46 136.42 222.07 137.16 221.54 137.8L218.7 141.25L212.42 138.01Z" fill="#DFE3E8"/>
<path d="M209.94 139.58C209.83 139.58 209.72 139.52 209.66 139.42C209.57 139.27 209.62 139.07 209.77 138.98L214.41 136.24C215.71 135.33 216.73 134.05 217.34 132.56L220.8 124.06C221.36 122.68 222.94 122 224.32 122.54C225.63 123.06 226.34 124.52 225.94 125.88L223.62 134.52C223.13 136.31 222.11 137.79 220.21 139.46C220.08 139.58 219.87 139.57 219.75 139.43C219.63 139.3 219.64 139.09 219.78 138.97C221.6 137.36 222.54 136.02 222.99 134.34L225.31 125.69C225.62 124.65 225.08 123.53 224.08 123.14C223.03 122.73 221.82 123.24 221.4 124.3L217.94 132.8C217.28 134.41 216.18 135.79 214.75 136.78L210.09 139.53C210.05 139.56 209.99 139.58 209.94 139.58Z" fill="black"/>
<path d="M190.22 143.29L194.57 139.71L201.55 153.26L199.62 154.74L190.22 143.29Z" fill="black"/>
<path d="M166.38 175.57L136.29 155.1C127.03 148.8 116.53 144.6 105.5 142.77L84.5199 139.29L59.1299 142.98C47.8799 144.62 37.7999 150.87 31.3199 160.24L11.0699 189.52C6.96987 195.45 8.43987 203.59 14.3399 207.7C20.2499 211.81 28.3599 210.34 32.4599 204.41L41.2399 193.56L42.1199 194.58L33.0799 277.9H123.16L122.45 177.24L151.78 197.19C157.73 201.24 165.82 199.68 169.86 193.7C173.88 187.74 172.33 179.62 166.38 175.57Z" fill="white"/>
<path d="M33.0699 278.23C33.0599 278.23 33.0499 278.23 33.0399 278.23C32.8599 278.21 32.7299 278.05 32.7499 277.87L41.3499 193.55L40.1899 195.34C40.1799 195.35 40.1799 195.36 40.1699 195.37L32.6999 204.62C30.6799 207.54 27.6299 209.51 24.1199 210.15C20.6199 210.78 17.0699 210.01 14.1499 207.97C8.10988 203.76 6.59988 195.4 10.7899 189.34L31.0399 160.06C37.5499 150.64 47.7699 144.3 59.0699 142.66L84.4599 138.97C84.4899 138.97 84.5299 138.97 84.5599 138.97L105.54 142.45C116.54 144.27 127.23 148.56 136.46 154.83L166.55 175.3C172.64 179.44 174.24 187.78 170.11 193.9C168.11 196.86 165.08 198.87 161.57 199.54C158.07 200.21 154.52 199.48 151.58 197.47L122.76 177.86L123.47 277.9C123.47 278.08 123.33 278.23 123.15 278.23C122.98 278.23 122.82 278.09 122.82 277.91L122.11 177.25C122.11 177.13 122.18 177.02 122.28 176.96C122.39 176.9 122.52 176.91 122.62 176.98L151.95 196.93C154.75 198.84 158.13 199.54 161.46 198.9C164.79 198.26 167.68 196.35 169.58 193.53C173.51 187.71 171.99 179.78 166.19 175.83L136.1 155.36C126.95 149.13 116.34 144.89 105.44 143.08L84.5099 139.61L59.1699 143.29C48.0499 144.91 37.9899 151.15 31.5799 160.42L11.3299 189.7C7.33988 195.47 8.76988 203.43 14.5199 207.43C17.2999 209.37 20.6699 210.1 23.9999 209.5C27.3399 208.9 30.2399 207.02 32.1799 204.22L39.6499 194.96L41.5299 192.06C41.6099 191.93 41.7699 191.88 41.9099 191.93C42.0499 191.98 42.1399 192.12 42.1299 192.27L33.3899 277.93C33.3799 278.11 33.2399 278.23 33.0699 278.23Z" fill="black"/>
<path d="M92.4199 187.93L76.8799 140.68L84.4999 139.56L92.1199 140.81L92.4199 187.93Z" fill="#020202"/>
<path d="M88.8998 187.69C88.8198 187.69 88.7398 187.66 88.6798 187.6L69.5798 169.98C69.4598 169.87 69.4398 169.69 69.5298 169.55L75.6698 160.78L66.3698 159.18C66.2798 159.16 66.1998 159.11 66.1498 159.04C66.0998 158.96 66.0898 158.87 66.1098 158.78L70.7098 141.16C70.7598 140.99 70.9298 140.88 71.1098 140.93C71.2798 140.98 71.3898 141.15 71.3398 141.33L66.8298 158.6L76.2798 160.22C76.3898 160.24 76.4798 160.31 76.5198 160.42C76.5598 160.52 76.5498 160.64 76.4898 160.73L70.2098 169.69L89.0998 187.12C89.2298 187.24 89.2398 187.45 89.1198 187.58C89.0698 187.65 88.9898 187.69 88.8998 187.69Z" fill="black"/>
<path d="M96.7298 187.69C96.6798 187.69 96.6298 187.68 96.5798 187.65C96.4198 187.57 96.3598 187.37 96.4398 187.21L105.98 168.39L98.2698 160.68C98.1998 160.61 98.1598 160.5 98.1798 160.4C98.1998 160.3 98.2598 160.21 98.3498 160.16L105.6 156.38L97.4798 141.64C97.3898 141.48 97.4498 141.29 97.6098 141.2C97.7698 141.11 97.9598 141.17 98.0498 141.33L106.33 156.36C106.37 156.44 106.38 156.53 106.36 156.61C106.33 156.69 106.28 156.76 106.2 156.8L99.0498 160.53L106.61 168.09C106.71 168.19 106.73 168.34 106.67 168.47L97.0298 187.5C96.9598 187.62 96.8498 187.69 96.7298 187.69Z" fill="black"/>
<path d="M69.7999 245.84H43.7299C43.5499 245.84 43.4099 245.69 43.4099 245.52C43.4099 245.34 43.5599 245.2 43.7299 245.2H69.7999C69.9799 245.2 70.1199 245.35 70.1199 245.52C70.1199 245.7 69.9799 245.84 69.7999 245.84Z" fill="black"/>
<path d="M63.1799 250.45H40.4799C40.2999 250.45 40.1599 250.3 40.1599 250.13C40.1599 249.95 40.3099 249.81 40.4799 249.81H63.1799C63.3599 249.81 63.4999 249.96 63.4999 250.13C63.5099 250.3 63.3599 250.45 63.1799 250.45Z" fill="black"/>
<path d="M153.49 173.66L187.31 139.71L205.72 158.19L168.02 196.04C162.94 201.14 156.24 200.93 149.94 196L153.49 173.66Z" fill="white"/>
<path d="M159.54 200.07C156.36 200.07 152.99 198.8 149.73 196.24C149.59 196.13 149.56 195.93 149.67 195.78C149.78 195.64 149.98 195.61 150.13 195.72C156.46 200.67 162.9 200.69 167.78 195.79L205.26 158.17L187.31 140.15L153.72 173.87C153.59 174 153.39 174 153.26 173.87C153.13 173.74 153.13 173.54 153.26 173.41L187.08 139.46C187.2 139.34 187.42 139.34 187.54 139.46L205.95 157.94C206.08 158.07 206.08 158.27 205.95 158.4L168.25 196.25C165.72 198.8 162.72 200.07 159.54 200.07Z" fill="black"/>
<path d="M41.8399 192.13C41.7799 192.13 41.7099 192.11 41.6599 192.07C41.5099 191.97 41.4699 191.77 41.5699 191.62L53.9199 173.23C54.0199 173.08 54.2199 173.04 54.3699 173.14C54.5199 173.24 54.5599 173.44 54.4599 173.59L42.1099 191.98C42.0499 192.08 41.9499 192.13 41.8399 192.13Z" fill="black"/>
<path d="M79.1099 214.95V236.28L97.5799 246.95L116.06 236.28V214.95L97.5799 204.29L79.1099 214.95Z" fill="black"/>
<path d="M49.84 199.73L36.51 220.92L67.23 233.82L77.33 209.74L49.84 199.73Z" fill="black"/>
<path d="M107.21 222.79L104.53 226.88L110.59 230.9L109.85 232.02L111.59 233.17C113.02 234.12 114.95 233.72 115.89 232.28C116.83 230.84 116.44 228.9 115.01 227.96L107.21 222.79Z" fill="#B9BEC6"/>
<path d="M105.43 227.47L102.75 231.56L108.81 235.58L108.07 236.7L109.9 237.91C111.28 238.83 113.15 238.44 114.06 237.05L114.18 236.87C115.09 235.48 114.71 233.61 113.33 232.69L105.43 227.47Z" fill="#B9BEC6"/>
<path d="M101.61 230.8L98.9299 234.89L104.99 238.91L104.25 240.03L106.08 241.24C107.46 242.16 109.33 241.77 110.24 240.38L110.36 240.2C111.27 238.81 110.89 236.94 109.51 236.02L101.61 230.8Z" fill="#B9BEC6"/>
<path d="M98.0198 234.27L95.3398 238.36L101.4 242.38L99.5298 245.21L100.95 246.15C102.56 247.22 104.73 246.77 105.79 245.15L106.48 244.09C107.54 242.47 107.1 240.29 105.49 239.22L98.0198 234.27Z" fill="#B9BEC6"/>
<path d="M97.3098 217.18L98.1698 223.05C98.1698 223.05 105.59 220.23 107.41 219.58C107.7 219.44 109.76 219.02 111.92 216.74C111.95 216.68 114.17 214.79 113.14 211.89L113.11 211.81C112.68 210.59 111.12 210.26 110.24 211.2C109.2 212.31 108.5 213.18 106.89 213.75L97.3098 217.18Z" fill="#B9BEC6"/>
<path d="M44.2999 197.3L93.3599 215.34C95.8299 215.84 98.1799 216.81 100.28 218.2L109.9 224.57L99.1799 240.9L83.7099 230.65L38.8899 215.88L44.2999 197.3Z" fill="#B9BEC6"/>
<path d="M102.81 247.25C102.48 247.25 102.16 247.21 101.84 247.13C100.87 246.89 100.07 246.31 99.59 245.49C99.18 244.66 99.7 244.12 100.13 243.68C100.45 243.35 100.75 243.04 100.78 242.61C100.67 242.18 100.41 242.02 100.09 241.81C99.09 241.13 98.11 240.45 97.14 239.78C92.31 236.44 87.75 233.29 82.58 230.62C81.48 230.16 39.14 217.57 37.88 217.33C37.74 217.32 37.62 217.23 37.58 217.09C37.53 216.92 37.64 216.74 37.81 216.69C37.93 216.66 38.1 216.61 60.38 223.24C64.09 224.34 82.59 229.86 82.9 230.06C88.07 232.74 92.65 235.9 97.5 239.25C98.48 239.92 99.45 240.6 100.44 241.27C100.8 241.5 101.26 241.79 101.42 242.51C101.43 242.54 101.43 242.56 101.43 242.59C101.41 243.29 100.96 243.75 100.6 244.13C100.14 244.61 99.98 244.82 100.17 245.18C100.56 245.82 101.21 246.3 102.01 246.5C102.88 246.72 103.8 246.58 104.56 246.13C105.9 245.21 106.73 243.6 106.65 242.04C106.59 240.72 105.89 239.62 104.69 238.94C102.56 237.58 100.38 236.18 98.15 234.73C98 234.63 97.96 234.43 98.06 234.28C98.16 234.13 98.36 234.09 98.51 234.19C100.74 235.64 102.92 237.04 105.03 238.39C106.42 239.17 107.23 240.46 107.3 242.01C107.38 243.79 106.44 245.62 104.91 246.67C104.26 247.06 103.54 247.25 102.81 247.25Z" fill="black"/>
<path d="M104.17 221.11C104.06 221.11 103.95 221.05 103.89 220.95C103.8 220.79 103.85 220.6 104.01 220.51C104.96 219.96 106 219.64 107.01 219.33C107.57 219.16 108.15 218.98 108.7 218.77C110.75 217.97 112.26 216.44 112.83 214.56C113.13 213.59 113.36 212.49 112.81 211.74C112.52 211.33 112.09 211.08 111.62 211.04C111.16 211 110.7 211.16 110.35 211.5C108.91 212.88 107.48 213.95 105.24 214.7C104.83 214.84 104.42 214.96 104.02 215.08C103.2 215.32 102.42 215.55 101.66 215.89C101.48 215.97 101.31 216.05 101.13 216.13C99.7901 216.76 98.4101 217.4 96.8101 217C96.7801 216.99 96.7601 216.98 96.7301 216.97C94.0001 215.47 47.3801 198.3 44.2201 197.63C44.0401 197.59 43.9301 197.42 43.9701 197.24C44.0101 197.06 44.1801 196.95 44.3601 196.99C47.5101 197.66 93.8901 214.74 97.0101 216.37C98.3601 216.69 99.5801 216.13 100.86 215.53C101.04 215.45 101.22 215.36 101.39 215.28C102.19 214.92 103.02 214.67 103.83 214.43C104.23 214.31 104.64 214.19 105.03 214.06C106.88 213.44 108.25 212.59 109.9 211.01C110.39 210.54 111.03 210.31 111.68 210.37C112.33 210.43 112.94 210.78 113.34 211.34C114.05 212.33 113.79 213.61 113.45 214.73C112.82 216.8 111.17 218.49 108.93 219.36C108.36 219.58 107.77 219.76 107.2 219.94C106.18 220.25 105.22 220.54 104.33 221.06C104.29 221.09 104.23 221.11 104.17 221.11Z" fill="black"/>
<path d="M111.56 238.73C111.29 238.73 111.02 238.7 110.75 238.63C110.58 238.59 110.47 238.41 110.51 238.24C110.55 238.07 110.73 237.96 110.9 238C112 238.28 113.16 237.83 113.79 236.87L113.91 236.69C114.72 235.45 114.38 233.78 113.15 232.96L105.52 227.91C105.37 227.81 105.33 227.61 105.43 227.46C105.53 227.31 105.73 227.27 105.88 227.37L113.51 232.42C115.04 233.43 115.47 235.51 114.46 237.05L114.34 237.23C113.71 238.18 112.66 238.73 111.56 238.73Z" fill="black"/>
<path d="M114.18 233.89C114.04 233.89 113.91 233.8 113.87 233.66C113.82 233.49 113.92 233.31 114.09 233.26C114.72 233.08 115.27 232.67 115.63 232.12C116.47 230.83 116.12 229.09 114.84 228.24L101.25 219.24C101.1 219.14 101.06 218.94 101.16 218.79C101.26 218.64 101.46 218.6 101.61 218.7L115.2 227.7C116.78 228.75 117.22 230.89 116.18 232.47C115.73 233.15 115.06 233.65 114.27 233.88C114.24 233.88 114.21 233.89 114.18 233.89Z" fill="black"/>
<path d="M107.74 242.06C107.46 242.06 107.19 242.03 106.91 241.95C106.74 241.91 106.63 241.73 106.68 241.55C106.72 241.38 106.9 241.27 107.08 241.32C108.19 241.61 109.35 241.15 109.98 240.2L110.1 240.02C110.91 238.78 110.57 237.11 109.34 236.29L101.77 231.27C101.62 231.17 101.58 230.97 101.68 230.82C101.78 230.67 101.98 230.63 102.13 230.73L109.7 235.75C111.23 236.76 111.66 238.84 110.65 240.38L110.53 240.56C109.89 241.51 108.84 242.06 107.74 242.06Z" fill="black"/>
<path d="M77.67 209.23L72.31 227.26L68 225.69L76.76 208.83L77.67 209.23Z" fill="black"/>
<path d="M37.5899 189.83L78.7799 205.02L65.6999 230.05L16.5499 209.29C9.91987 206.49 6.80987 198.83 9.59987 192.18C10.4499 190.16 11.7399 188.47 13.3099 187.17L37.5899 189.83Z" fill="white"/>
<path d="M65.6999 230.38C65.6599 230.38 65.6099 230.37 65.5699 230.35L16.4199 209.59C9.63991 206.73 6.44991 198.86 9.29991 192.05C10.0499 190.25 11.3899 188.39 12.5699 186.75C12.7399 186.51 12.9099 186.28 13.0799 186.05C13.1799 185.9 13.3899 185.87 13.5299 185.97C13.6799 186.07 13.7099 186.28 13.6099 186.42C13.4399 186.65 13.2699 186.89 13.0999 187.13C11.9399 188.74 10.6199 190.57 9.89991 192.3C7.17991 198.78 10.2199 206.26 16.6699 208.99L65.5399 229.64L78.3099 205.19L37.4699 190.13C37.2999 190.07 37.2199 189.88 37.2799 189.71C37.3399 189.54 37.5299 189.46 37.6999 189.52L78.8899 204.71C78.9799 204.74 79.0499 204.81 79.0799 204.9C79.1099 204.99 79.1099 205.08 79.0699 205.17L65.9899 230.21C65.9299 230.32 65.8199 230.38 65.6999 230.38Z" fill="black"/>
<path d="M80.6599 136.38C86.3208 136.38 90.9099 131.773 90.9099 126.09C90.9099 120.407 86.3208 115.8 80.6599 115.8C74.999 115.8 70.4099 120.407 70.4099 126.09C70.4099 131.773 74.999 136.38 80.6599 136.38Z" fill="black"/>
<path d="M66.4299 144.11C72.0909 144.11 76.6799 139.503 76.6799 133.82C76.6799 128.137 72.0909 123.53 66.4299 123.53C60.769 123.53 56.1799 128.137 56.1799 133.82C56.1799 139.503 60.769 144.11 66.4299 144.11Z" fill="black"/>
<path d="M53.98 154.39C59.6409 154.39 64.23 149.783 64.23 144.1C64.23 138.417 59.6409 133.81 53.98 133.81C48.3191 133.81 43.73 138.417 43.73 144.1C43.73 149.783 48.3191 154.39 53.98 154.39Z" fill="black"/>
<path d="M84.51 145.73C86.74 145.73 88.55 143.92 88.55 141.68V129.01H80.48V141.68C80.47 143.92 82.28 145.73 84.51 145.73Z" fill="#DFE3E8"/>
<path d="M84.5099 146.06C82.1099 146.06 80.1499 144.1 80.1499 141.68V129.01C80.1499 128.83 80.2999 128.69 80.4699 128.69H88.5399C88.7199 128.69 88.8599 128.84 88.8599 129.01V141.68C88.8699 144.09 86.9199 146.06 84.5099 146.06ZM80.7999 129.33V141.68C80.7999 143.74 82.4699 145.41 84.5099 145.41C86.5599 145.41 88.2199 143.74 88.2199 141.68V129.33H80.7999Z" fill="black"/>
<path d="M80.47 132.08V129.01H88.54V135.79C87.81 135.94 86.36 136.12 84.69 135.57C82.09 134.7 80.81 132.65 80.47 132.08Z" fill="black"/>
<path d="M85.6001 133.81C89.1844 133.81 92.0901 130.586 92.0901 126.61C92.0901 122.634 89.1844 119.41 85.6001 119.41C82.0158 119.41 79.1101 122.634 79.1101 126.61C79.1101 130.586 82.0158 133.81 85.6001 133.81Z" fill="#DFE3E8"/>
<path d="M85.6 134.14C81.84 134.14 78.78 130.76 78.78 126.61C78.78 122.46 81.84 119.08 85.6 119.08C89.36 119.08 92.42 122.46 92.42 126.61C92.42 130.76 89.36 134.14 85.6 134.14ZM85.6 119.73C82.2 119.73 79.43 122.82 79.43 126.61C79.43 130.4 82.2 133.49 85.6 133.49C89 133.49 91.77 130.4 91.77 126.61C91.77 122.82 89.01 119.73 85.6 119.73Z" fill="black"/>
<path d="M82.78 129.78C83.41 130.36 84.22 130.75 85.13 130.84C87.16 131.05 89 129.72 89.5 127.8L82.78 129.78Z" fill="white"/>
<path d="M222.19 99.97C222.07 99.86 221.9 99.78 221.69 99.74C221.51 99.7 221.42 99.68 221.17 99.68H217.22C217.22 99.68 217.48 100.85 218.12 101.89C218.37 101.89 221.52 101.87 221.7 101.83C221.88 101.79 222.06 101.72 222.2 101.6C222.43 101.4 222.54 101.3 222.54 100.79C222.54 100.63 222.53 100.5 222.48 100.37C222.43 100.22 222.34 100.1 222.19 99.97Z" fill="#F3F9FE"/>
<path d="M227.97 88.2V92.37H233.31C232.09 90.39 230.2 88.89 227.97 88.2Z" fill="#F3F9FE"/>
<path d="M225.49 84.05C218.26 84.05 212.39 89.91 212.39 97.15C212.39 104.38 218.25 110.25 225.49 110.25C232.72 110.25 238.59 104.38 238.59 97.15C238.59 89.91 232.73 84.05 225.49 84.05ZM215.37 92.44L217.08 92.43V93.72C217.08 94.08 217.37 94.37 217.73 94.37H221.7H222.03C222.39 94.37 222.68 94.08 222.68 93.72V87.31C222.68 86.78 223.11 86.34 223.65 86.34H224.39V93.72C224.39 95.02 223.33 96.08 222.03 96.08H218.06H217.73C216.43 96.08 215.37 95.02 215.37 93.72V92.44ZM224.44 107.89H223.77C223.5 107.89 223.25 107.79 223.07 107.63C222.89 107.47 222.78 107.25 222.78 107.01V104.61C222.78 104.39 222.75 104.2 222.7 104.04C222.64 103.85 222.55 103.71 222.43 103.6C222.31 103.49 222.14 103.41 221.93 103.37C221.75 103.33 221.53 103.31 221.28 103.31H219.01C219.01 103.31 220.13 104.63 220.84 105.07L220.88 106.76C216.64 104.41 215.71 100.8 215.43 99.26L215.28 98.25H220.89C221.66 98.25 222.05 98.29 222.57 98.38C223.06 98.46 223.43 98.59 223.69 98.75C223.93 98.9 224.11 99.11 224.23 99.38C224.36 99.67 224.42 100.02 224.42 100.44C224.42 100.68 224.39 101.2 224.32 101.42C224.26 101.63 224.15 101.82 224 101.98C223.86 102.12 223.69 102.24 223.49 102.33C223.25 102.43 222.99 102.49 222.73 102.52C223.04 102.57 223.32 102.64 223.54 102.73C223.75 102.82 223.92 102.92 224.05 103.04C224.18 103.16 224.27 103.3 224.33 103.46C224.4 103.63 224.43 103.84 224.43 104.08L224.44 107.89ZM227.29 86.47C229.58 86.92 231.64 88.08 233.25 89.81C234.86 91.55 235.87 93.71 236.16 96.05L236.17 96.12H234.66L234.65 96.07C234.58 95.6 234.48 95.14 234.35 94.69L234.03 93.84H227.98V96.12H227.62C226.98 96.12 226.45 95.59 226.45 94.94L226.44 86.34L227.29 86.47ZM234.99 99.69H228.67C228.27 99.69 227.95 100.01 227.95 100.41V101.03C227.95 101.42 228.28 101.74 228.67 101.74H232.32C233.04 101.74 233.62 102.3 233.65 103.02C233.66 103.32 233.57 103.6 233.41 103.85C233.41 103.85 231.27 107.12 226.42 107.97V106.55C227.43 106.28 229.19 105.56 230.61 104.46C230.87 104.23 231.49 103.78 231.92 103.28V103.27H228.67C227.44 103.27 226.43 102.15 226.42 100.92V101.02C226.42 101.02 226.42 100.9 226.42 100.91C226.42 100.92 226.42 100.92 226.42 100.93V100.42C226.42 99.18 227.43 98.17 228.67 98.17H235.94L235.95 98.71C235.97 99.24 235.54 99.69 234.99 99.69Z" fill="#F3F9FE"/>
</svg>
