<svg width="290" height="290" viewBox="0 0 290 290" fill="none" xmlns="http://www.w3.org/2000/svg">
<path d="M279.95 155.97C279.95 236.63 238.52 278.06 157.86 278.06C77.1999 278.06 14.1299 198.76 14.1299 118.1C14.1299 37.44 79.5099 9.92001 160.17 9.92001C240.83 9.92001 279.95 75.31 279.95 155.97Z" fill="#F3F9FE"/>
<path d="M156.9 248.77H49.53L61.85 181.77H124.67C142.47 181.77 156.89 196.09 156.89 213.76V248.77H156.9Z" fill="black"/>
<path d="M156.9 249.07H49.5299C49.4399 249.07 49.3599 249.03 49.2999 248.96C49.2399 248.89 49.2199 248.8 49.2399 248.71L61.5599 181.71C61.5899 181.57 61.7099 181.46 61.8599 181.46H124.68C142.61 181.46 157.2 195.95 157.2 213.75V248.76C157.2 248.93 157.07 249.07 156.9 249.07ZM49.8899 248.46H156.6V213.75C156.6 196.28 142.28 182.06 124.68 182.06H62.1099L49.8899 248.46Z" fill="black"/>
<path d="M136.26 219.89C136.12 219.89 135.99 219.79 135.96 219.65L132.52 203.35C132.49 203.19 132.59 203.03 132.75 202.99C132.91 202.96 133.07 203.06 133.11 203.22L136.55 219.52C136.58 219.68 136.48 219.84 136.32 219.88C136.3 219.89 136.28 219.89 136.26 219.89Z" fill="white"/>
<path d="M136.26 273.76H74.06C69.99 273.76 66.24 271.6 64.21 268.09H136.26V273.76Z" fill="black"/>
<path d="M29.45 253.8V219.59H55.52V240.93C55.52 243.68 57.7599 245.91 60.5299 245.91L103.41 245.9V269.22L44.9799 269.23C36.41 269.23 29.45 262.32 29.45 253.8Z" fill="#DFE3E8"/>
<path d="M129.21 253.14L131.76 255.87C133.05 257.25 133.18 259.34 132.07 260.87L129.57 264.32L123.5 257.6H85.3699V249.68H121.24C124.26 249.69 127.15 250.94 129.21 253.14Z" fill="#DFE3E8"/>
<path d="M128.03 248.2L129.47 249.75C130.76 251.13 130.89 253.22 129.78 254.75L127.28 258.2L121.21 251.48H85.3699V245.97H91.4499C93.9699 245.97 98.4499 243.56 104.13 243.56H117.32C121.39 243.56 125.27 245.24 128.03 248.2Z" fill="#DFE3E8"/>
<path d="M130.1 258.47L133.16 261.75C134.45 263.13 134.58 265.22 133.47 266.75L130.97 270.2L124.9 263.48H101.28V255.56H123.39C125.94 255.56 128.37 256.61 130.1 258.47Z" fill="#DFE3E8"/>
<path d="M128.98 264.23L132.17 267.65C133.35 268.92 133.47 270.84 132.45 272.24C131.08 274.12 128.31 274.27 126.75 272.54L125.02 270.62C124.19 269.7 123.01 269.18 121.77 269.18H101.94C96.7599 269.18 93.1099 268.89 88.1099 261.25L122.14 261.26C124.74 261.27 127.22 262.34 128.98 264.23Z" fill="#DFE3E8"/>
<path d="M132.07 261.18C132.01 261.18 131.95 261.16 131.89 261.12C131.76 261.02 131.72 260.83 131.82 260.7C132.84 259.3 132.72 257.35 131.53 256.08L128.98 253.35C126.99 251.21 124.17 249.99 121.23 249.99H114.21C114.04 249.99 113.91 249.85 113.91 249.69C113.91 249.52 114.05 249.39 114.21 249.39H121.23C124.33 249.39 127.31 250.68 129.42 252.94L131.97 255.67C133.35 257.15 133.49 259.41 132.3 261.05C132.25 261.14 132.16 261.18 132.07 261.18Z" fill="black"/>
<path d="M132.49 268.39C132.43 268.39 132.37 268.37 132.31 268.33C132.18 268.23 132.14 268.04 132.24 267.91L133.21 266.57C134.23 265.17 134.11 263.22 132.92 261.95L129.86 258.67C128.19 256.88 125.83 255.85 123.37 255.85H114.14C113.97 255.85 113.84 255.71 113.84 255.55C113.84 255.38 113.98 255.25 114.14 255.25H123.37C125.99 255.25 128.52 256.35 130.3 258.26L133.36 261.54C134.74 263.02 134.88 265.28 133.69 266.92L132.72 268.26C132.68 268.35 132.58 268.39 132.49 268.39Z" fill="black"/>
<path d="M129.48 274.06C128.35 274.06 127.29 273.59 126.53 272.75L124.8 270.83C124.03 269.98 122.93 269.49 121.78 269.49H99.84C95.92 269.49 92.27 267.57 90.07 264.34C89.98 264.2 90.01 264.01 90.15 263.92C90.29 263.83 90.48 263.86 90.57 264C92.66 267.06 96.13 268.88 99.84 268.88H121.77C123.09 268.88 124.36 269.44 125.24 270.42L126.97 272.34C127.65 273.1 128.63 273.5 129.65 273.44C130.67 273.39 131.6 272.88 132.19 272.06C133.12 270.78 133.01 269.01 131.93 267.85L128.74 264.43C127.04 262.61 124.63 261.56 122.13 261.56H114.45C114.28 261.56 114.15 261.42 114.15 261.26C114.15 261.09 114.29 260.96 114.45 260.96H122.13C124.8 260.96 127.37 262.08 129.18 264.02L132.37 267.44C133.65 268.81 133.78 270.9 132.68 272.42C131.98 273.39 130.88 273.98 129.68 274.05C129.63 274.06 129.55 274.06 129.48 274.06Z" fill="black"/>
<path d="M44.9899 269.53C40.7599 269.53 36.7799 267.89 33.7899 264.93C30.7999 261.96 29.1499 258.01 29.1499 253.81V219.3H55.8299V240.94C55.8299 242.19 56.3199 243.36 57.2099 244.24C58.0999 245.12 59.2799 245.61 60.5399 245.61H90.3199C92.5699 245.61 94.3699 245.12 96.2599 244.6C98.5399 243.98 101.13 243.27 105.02 243.27H117.33C121.46 243.27 125.45 245 128.26 248.01L129.7 249.56C130.89 250.84 131.18 252.69 130.44 254.26C130.37 254.41 130.19 254.47 130.04 254.4C129.89 254.33 129.82 254.15 129.9 254C130.54 252.65 130.29 251.07 129.27 249.97L127.83 248.42C125.14 245.53 121.31 243.87 117.35 243.87H105.04C101.23 243.87 98.6799 244.57 96.4399 245.18C94.4999 245.71 92.6699 246.21 90.3399 246.21H60.5299C59.1099 246.21 57.7799 245.66 56.7699 244.67C55.7699 243.67 55.2099 242.35 55.2099 240.94V219.9H29.7499V253.81C29.7499 257.85 31.3399 261.65 34.2099 264.51C37.0899 267.37 40.9099 268.94 44.9799 268.94H107.41C107.58 268.94 107.71 269.08 107.71 269.24C107.71 269.41 107.57 269.54 107.41 269.54H44.9899C44.9899 269.53 44.9899 269.53 44.9899 269.53Z" fill="black"/>
<path d="M62.2299 224.81H25.4299V207.73C25.4299 193.39 37.0499 181.77 51.3899 181.77H62.2399V224.81H62.2299Z" fill="black"/>
<path d="M55.5299 225.12H25.4299C25.2599 225.12 25.1299 224.98 25.1299 224.82V218.31C25.1299 198 41.7799 181.47 62.2399 181.47C62.4099 181.47 62.5399 181.61 62.5399 181.77C62.5399 181.94 62.3999 182.07 62.2399 182.07C42.1099 182.07 25.7399 198.33 25.7399 218.31V224.51H55.5399C55.7099 224.51 55.8399 224.65 55.8399 224.81C55.8299 224.98 55.6999 225.12 55.5299 225.12Z" fill="black"/>
<path d="M62.23 225.12H55.53C55.36 225.12 55.23 224.98 55.23 224.82C55.23 224.65 55.37 224.52 55.53 224.52H61.93V212.96C61.93 212.79 62.07 212.66 62.23 212.66C62.4 212.66 62.53 212.8 62.53 212.96V224.82C62.54 224.98 62.4 225.12 62.23 225.12Z" fill="white"/>
<path d="M216.58 273.76H114.91L139.41 206.64H241.08L216.58 273.76Z" fill="white"/>
<path d="M216.58 274.06H114.91C114.81 274.06 114.72 274.01 114.66 273.93C114.6 273.85 114.59 273.75 114.62 273.65L139.11 206.54C139.15 206.42 139.27 206.34 139.39 206.34H241.06C241.16 206.34 241.25 206.39 241.31 206.47C241.37 206.55 241.38 206.65 241.35 206.75L216.86 273.86C216.83 273.98 216.71 274.06 216.58 274.06ZM115.35 273.46H216.38L240.65 206.95H139.62L115.35 273.46Z" fill="black"/>
<path d="M187.31 236.92C186.42 239.39 184.3 240.9 182.57 240.29C180.84 239.68 180.16 237.18 181.05 234.71C181.94 232.24 184.06 230.73 185.79 231.34C187.52 231.95 188.2 234.45 187.31 236.92Z" fill="white"/>
<path d="M183.36 240.73C183.06 240.73 182.76 240.68 182.47 240.58C181.75 240.32 181.17 239.78 180.8 238.99C180.23 237.78 180.22 236.15 180.77 234.61C181.71 231.99 184.01 230.39 185.89 231.06C186.61 231.32 187.19 231.86 187.56 232.65C188.13 233.86 188.14 235.49 187.59 237.03C186.8 239.24 185.03 240.73 183.36 240.73ZM184.99 231.5C183.58 231.5 182.05 232.83 181.35 234.81C180.85 236.2 180.85 237.66 181.36 238.73C181.66 239.37 182.12 239.81 182.69 240.01C184.26 240.57 186.21 239.14 187.04 236.82C187.54 235.43 187.54 233.97 187.03 232.9C186.73 232.26 186.27 231.82 185.7 231.62C185.46 231.54 185.23 231.5 184.99 231.5Z" fill="black"/>
<path d="M107.34 160.71C107.17 160.71 107.04 160.57 107.04 160.41V146.95C107.04 141.84 102.85 137.69 97.7098 137.69C92.5698 137.69 88.3798 141.84 88.3798 146.95V160.41C88.3798 160.58 88.2398 160.71 88.0798 160.71C87.9098 160.71 87.7798 160.57 87.7798 160.41V146.95C87.7798 141.51 92.2398 137.09 97.7098 137.09C103.19 137.09 107.64 141.51 107.64 146.95V160.41C107.64 160.58 107.51 160.71 107.34 160.71Z" fill="#B9BEC6"/>
<path d="M107.84 169.16C110.38 169.16 112.44 166.057 112.44 162.23C112.44 158.403 110.38 155.3 107.84 155.3C105.299 155.3 103.24 158.403 103.24 162.23C103.24 166.057 105.299 169.16 107.84 169.16Z" fill="white"/>
<path d="M107.84 169.46C105.14 169.46 102.94 166.22 102.94 162.23C102.94 158.24 105.14 155 107.84 155C110.54 155 112.74 158.24 112.74 162.23C112.74 166.21 110.54 169.46 107.84 169.46ZM107.84 155.61C105.47 155.61 103.55 158.58 103.55 162.23C103.55 165.88 105.48 168.85 107.84 168.85C110.2 168.85 112.13 165.88 112.13 162.23C112.13 158.58 110.21 155.61 107.84 155.61Z" fill="black"/>
<path d="M89.9399 181.77L102.08 192.19V166.59H89.9399V181.77Z" fill="#DFE3E8"/>
<path d="M102.08 192.49C102.01 192.49 101.94 192.47 101.88 192.42L89.7399 182C89.6699 181.94 89.6299 181.86 89.6299 181.77V166.59C89.6299 166.42 89.7699 166.29 89.9299 166.29H102.07C102.24 166.29 102.37 166.43 102.37 166.59V192.19C102.37 192.31 102.3 192.42 102.19 192.46C102.16 192.48 102.12 192.49 102.08 192.49ZM90.2399 181.63L101.77 191.53V166.9H90.2399V181.63Z" fill="black"/>
<path d="M108.18 164.83C112.228 164.83 115.51 161.571 115.51 157.55C115.51 153.529 112.228 150.27 108.18 150.27C104.132 150.27 100.85 153.529 100.85 157.55C100.85 161.571 104.132 164.83 108.18 164.83Z" fill="black"/>
<path d="M86.8798 168.27C90.928 168.27 94.2098 165.011 94.2098 160.99C94.2098 156.969 90.928 153.71 86.8798 153.71C82.8316 153.71 79.5498 156.969 79.5498 160.99C79.5498 165.011 82.8316 168.27 86.8798 168.27Z" fill="black"/>
<path d="M87.6198 158.91C91.668 158.91 94.9498 155.651 94.9498 151.63C94.9498 147.609 91.668 144.35 87.6198 144.35C83.5715 144.35 80.2898 147.609 80.2898 151.63C80.2898 155.651 83.5715 158.91 87.6198 158.91Z" fill="black"/>
<path d="M96.0097 154.18C100.058 154.18 103.34 150.921 103.34 146.9C103.34 142.879 100.058 139.62 96.0097 139.62C91.9614 139.62 88.6797 142.879 88.6797 146.9C88.6797 150.921 91.9614 154.18 96.0097 154.18Z" fill="black"/>
<path d="M98.0499 144.76C95.1899 147.61 95.1999 152.22 98.0699 155.05C100.94 157.89 105.58 157.88 108.44 155.03C111.3 152.18 111.29 147.57 108.42 144.74C105.55 141.9 100.91 141.91 98.0499 144.76Z" fill="black"/>
<path d="M89.9397 171.16V166.59H102.08V176.67C100.98 176.89 98.7997 177.16 96.2897 176.34C92.3697 175.06 90.4397 172.02 89.9397 171.16Z" fill="black"/>
<path d="M90.3297 170.73C92.7897 173.4 94.7497 173.85 97.7097 173.85C103.03 173.85 107.34 169.12 107.34 163.28C107.34 157.44 103.03 152.71 97.7097 152.71C94.1997 152.71 91.1297 154.77 89.4497 157.85L90.3297 170.73Z" fill="#DFE3E8"/>
<path d="M97.7097 174.16C94.6397 174.16 92.6197 173.66 90.1097 170.94C89.9997 170.82 89.9997 170.63 90.1297 170.51C90.2497 170.4 90.4397 170.41 90.5597 170.53C92.9297 173.1 94.7597 173.56 97.7197 173.56C102.86 173.56 107.05 168.95 107.05 163.29C107.05 157.63 102.86 153.02 97.7197 153.02C94.4197 153.02 91.4297 154.88 89.7197 158C89.6397 158.15 89.4597 158.2 89.3097 158.12C89.1597 158.04 89.1097 157.86 89.1897 157.71C90.9797 154.44 94.2397 152.42 97.7197 152.42C103.2 152.42 107.65 157.3 107.65 163.29C107.65 169.28 103.19 174.16 97.7097 174.16Z" fill="black"/>
<path d="M97.7098 152.72C92.3898 152.72 88.0798 157.45 88.0798 163.29C88.0798 163.81 88.1198 164.33 88.1798 164.83L96.9298 156.98L106.94 160.26C105.75 155.9 102.07 152.72 97.7098 152.72Z" fill="black"/>
<path d="M94.7197 167.52C95.2597 168.44 96.0897 169.2 97.1597 169.65C99.5297 170.64 102.24 169.73 103.56 167.61L94.7197 167.52Z" fill="white"/>
<path d="M96.2398 175.38C89.9998 175.38 87.9398 171.07 87.3298 167.28C87.2998 167.12 87.4198 166.96 87.5798 166.93C87.7498 166.9 87.8998 167.02 87.9298 167.18C88.5498 171.06 90.8098 175.51 97.9998 174.67C98.4098 174.62 98.5498 174.61 98.6598 174.78C98.7198 174.88 98.7298 175.01 98.6698 175.1C98.5998 175.23 98.4498 175.28 98.3198 175.24C98.2598 175.25 98.1598 175.26 98.0698 175.27C97.4098 175.35 96.8098 175.38 96.2398 175.38Z" fill="#B9BEC6"/>
<path d="M100.794 177.057C102.223 176.719 103.109 175.286 102.771 173.857C102.434 172.427 101.001 171.541 99.5711 171.879C98.1414 172.217 97.2561 173.649 97.5937 175.079C97.9313 176.509 99.364 177.394 100.794 177.057Z" fill="white"/>
<path d="M100.18 177.44C98.55 177.44 97.22 176.11 97.22 174.48C97.22 172.85 98.55 171.52 100.18 171.52C101.81 171.52 103.14 172.85 103.14 174.48C103.14 176.12 101.82 177.44 100.18 177.44ZM100.18 172.13C98.88 172.13 97.82 173.19 97.82 174.49C97.82 175.79 98.88 176.85 100.18 176.85C101.48 176.85 102.54 175.79 102.54 174.49C102.54 173.18 101.48 172.13 100.18 172.13Z" fill="black"/>
<path d="M88.0798 160.71C87.9098 160.71 87.7798 160.57 87.7798 160.41V146.95C87.7798 141.51 92.2398 137.09 97.7098 137.09C97.8798 137.09 98.0098 137.23 98.0098 137.39C98.0098 137.56 97.8698 137.69 97.7098 137.69C92.5698 137.69 88.3798 141.84 88.3798 146.95V160.41C88.3798 160.58 88.2498 160.71 88.0798 160.71Z" fill="#B9BEC6"/>
<path d="M87.6198 169.58C90.1603 169.58 92.2198 166.477 92.2198 162.65C92.2198 158.823 90.1603 155.72 87.6198 155.72C85.0793 155.72 83.0198 158.823 83.0198 162.65C83.0198 166.477 85.0793 169.58 87.6198 169.58Z" fill="white"/>
<path d="M87.6197 169.87C84.9197 169.87 82.7197 166.63 82.7197 162.64C82.7197 158.65 84.9197 155.41 87.6197 155.41C90.3197 155.41 92.5197 158.65 92.5197 162.64C92.5197 166.63 90.3197 169.87 87.6197 169.87ZM87.6197 156.02C85.2497 156.02 83.3297 158.99 83.3297 162.64C83.3297 166.29 85.2597 169.26 87.6197 169.26C89.9797 169.26 91.9097 166.29 91.9097 162.64C91.9097 158.99 89.9897 156.02 87.6197 156.02Z" fill="black"/>
<path d="M84.2498 166.39C85.6194 166.39 86.7298 164.716 86.7298 162.65C86.7298 160.584 85.6194 158.91 84.2498 158.91C82.8801 158.91 81.7698 160.584 81.7698 162.65C81.7698 164.716 82.8801 166.39 84.2498 166.39Z" fill="white"/>
<path d="M84.2497 166.69C82.7097 166.69 81.4597 164.87 81.4597 162.64C81.4597 160.41 82.7097 158.59 84.2497 158.59C85.7897 158.59 87.0397 160.41 87.0397 162.64C87.0397 164.88 85.7897 166.69 84.2497 166.69ZM84.2497 159.21C83.0497 159.21 82.0697 160.75 82.0697 162.65C82.0697 164.55 83.0497 166.09 84.2497 166.09C85.4497 166.09 86.4297 164.55 86.4297 162.65C86.4297 160.75 85.4597 159.21 84.2497 159.21Z" fill="black"/>
<path d="M124.91 81.63C119.48 81.63 114.15 80.1 109.45 77.14C102.86 72.99 98.2998 66.5 96.5998 58.88C93.0898 43.15 103.02 27.42 118.75 23.81C126.37 22.06 134.2 23.39 140.79 27.55C147.38 31.7 151.94 38.19 153.64 45.81C157.15 61.54 147.22 77.27 131.49 80.88C129.31 81.38 127.1 81.63 124.91 81.63ZM125.34 23.66C123.2 23.66 121.03 23.9 118.89 24.39C103.49 27.92 93.7598 43.33 97.1998 58.74C98.8698 66.2 103.33 72.55 109.78 76.62C116.24 80.69 123.9 81.99 131.36 80.28C146.76 76.75 156.49 61.34 153.05 45.93C151.38 38.47 146.92 32.12 140.47 28.05C135.87 25.16 130.66 23.66 125.34 23.66Z" fill="black"/>
<path d="M138.46 62.13L134.06 57.92C133.47 57.38 132.17 57.1 130.59 57.87C129.11 58.6 126.74 59.74 122.51 54.19C118.29 48.65 119.83 46.47 121.09 45.41C121.28 45.25 122.71 43.65 121.96 42.04L119.71 37.87C117.81 34.64 115.05 37.06 114.89 37.2C110.37 41 111.54 49.81 117.69 57.89C123.85 65.97 132.01 69.41 136.86 66.04C137.04 65.92 139.96 63.69 138.46 62.13Z" fill="#A1A76F"/>
<path d="M51.8998 140.36C48.2798 140.36 44.6098 139.64 41.0898 138.11C34.4298 135.22 29.2998 129.92 26.6598 123.18C24.0198 116.44 24.1698 109.07 27.0998 102.42C33.1398 88.7 49.2398 82.39 62.9898 88.35C69.6498 91.24 74.7798 96.54 77.4198 103.28C80.0598 110.02 79.9098 117.39 76.9798 124.04C72.4898 134.26 62.4198 140.36 51.8998 140.36ZM52.1798 86.71C41.8898 86.71 32.0398 92.68 27.6498 102.67C24.7898 109.17 24.6398 116.38 27.2198 122.97C29.7998 129.56 34.8198 134.75 41.3298 137.57C44.7698 139.06 48.3598 139.77 51.8998 139.77C62.1898 139.77 72.0398 133.8 76.4298 123.81C79.2898 117.31 79.4398 110.1 76.8598 103.51C74.2798 96.92 69.2598 91.73 62.7498 88.91C59.3098 87.42 55.7098 86.71 52.1798 86.71Z" fill="black"/>
<path d="M62.1497 130.69L33.6396 118.33L42.9096 97.28L71.4196 109.63L62.1497 130.69Z" fill="#E7905F"/>
<path d="M62.1497 130.99C62.1097 130.99 62.0697 130.98 62.0297 130.97L33.5197 118.62C33.4497 118.59 33.3897 118.53 33.3597 118.45C33.3297 118.38 33.3297 118.29 33.3597 118.22L42.6197 97.17C42.6897 97.02 42.8597 96.95 43.0197 97.01L71.5297 109.36C71.5997 109.39 71.6597 109.45 71.6897 109.53C71.7197 109.6 71.7197 109.69 71.6897 109.76L62.4297 130.81C62.3797 130.92 62.2697 130.99 62.1497 130.99ZM34.0397 118.18L61.9997 130.29L71.0197 109.79L43.0597 97.68L34.0397 118.18Z" fill="black"/>
<path d="M52.2597 115.28C52.1597 115.28 52.0597 115.23 52.0097 115.14L45.4597 105.17C45.3697 105.03 45.4097 104.84 45.5497 104.75C45.6897 104.66 45.8797 104.7 45.9697 104.84L52.4097 114.64L64.0397 112.67C64.1997 112.64 64.3597 112.75 64.3897 112.92C64.4197 113.08 64.3097 113.24 64.1397 113.27L52.3197 115.27C52.2897 115.28 52.2697 115.28 52.2597 115.28Z" fill="black"/>
<path d="M67.3998 80.14C64.5198 80.14 61.5898 79.57 58.7898 78.35C53.4798 76.05 49.3998 71.82 47.2898 66.45C45.1798 61.08 45.3098 55.2 47.6398 49.91C52.4498 38.98 65.2798 33.95 76.2398 38.7C81.5498 41 85.6298 45.23 87.7398 50.6C89.8498 55.97 89.7198 61.85 87.3898 67.14C83.8098 75.27 75.7898 80.14 67.3998 80.14ZM47.9098 50.03L48.1898 50.15C45.9198 55.3 45.7998 61.01 47.8498 66.23C49.8998 71.45 53.8698 75.56 59.0298 77.8C61.7598 78.98 64.5998 79.54 67.3998 79.54C75.5498 79.54 83.3498 74.81 86.8298 66.9C89.0998 61.75 89.2198 56.04 87.1698 50.82C85.1198 45.6 81.1498 41.49 75.9898 39.25C65.3298 34.63 52.8598 39.52 48.1798 50.15L47.9098 50.03Z" fill="black"/>
<path d="M78.5198 51.43L75.7998 52.04C75.4498 51.55 75.0698 51.09 74.6498 50.68L75.6898 48.1L73.5898 46.64L71.5298 48.53C70.9898 48.28 70.4298 48.08 69.8598 47.93L69.4698 45.16L66.9198 44.95L66.0798 47.61C65.4898 47.67 64.9098 47.77 64.3298 47.93L62.6098 45.73L60.2998 46.82L60.9098 49.55C60.4198 49.9 59.9698 50.28 59.5498 50.7L56.9698 49.65L55.5098 51.75L57.3998 53.81C57.1498 54.35 56.9498 54.91 56.7998 55.48L54.0398 55.87L53.8298 58.42L56.4898 59.26C56.5498 59.85 56.6498 60.43 56.8098 61.01L54.6098 62.73L55.6998 65.04L58.4198 64.43C58.7698 64.92 59.1498 65.38 59.5698 65.79L58.5298 68.38L60.6298 69.84L62.6898 67.95C63.2298 68.2 63.7898 68.4 64.3598 68.55L64.7498 71.32L67.2998 71.53L68.1398 68.87C68.7298 68.81 69.3098 68.71 69.8898 68.55L71.6098 70.75L73.9198 69.66L73.3098 66.93C73.7998 66.58 74.2498 66.2 74.6698 65.78L77.2498 66.83L78.7098 64.73L76.8198 62.67C77.0698 62.13 77.2698 61.57 77.4198 61L80.1798 60.61L80.3898 58.06L77.7298 57.22C77.6698 56.63 77.5698 56.05 77.4098 55.47L79.6098 53.75L78.5198 51.43ZM71.4198 63.44C66.6298 67.13 60.0398 63.66 60.3798 57.62C60.4798 55.81 61.3798 54.12 62.8098 53.01C67.5998 49.32 74.1898 52.79 73.8498 58.83C73.7398 60.64 72.8498 62.33 71.4198 63.44Z" fill="#C4C4D7"/>
<path d="M200.69 137.29L195.09 160.93H264.24L243.06 94.22H220.78C214.96 94.22 209.51 97.04 206.22 101.76L200.69 137.29Z" fill="white"/>
<path d="M264.24 161.23H195.09C195 161.23 194.91 161.19 194.85 161.12C194.79 161.05 194.77 160.95 194.79 160.86L200.39 137.22C200.43 137.06 200.59 136.96 200.75 137C200.91 137.04 201.01 137.2 200.97 137.36L195.46 160.63H263.81L242.82 94.53H220.76C215.04 94.53 209.69 97.3 206.45 101.94C206.35 102.08 206.17 102.11 206.03 102.01C205.89 101.91 205.86 101.73 205.96 101.59C209.31 96.79 214.85 93.93 220.77 93.93H243.05C243.18 93.93 243.3 94.02 243.34 94.14L264.52 160.85C264.55 160.94 264.53 161.04 264.48 161.12C264.43 161.19 264.34 161.23 264.24 161.23Z" fill="black"/>
<path d="M203.4 117.06L196.9 96.62L172.1 104.24L183.83 141.16C186 147.98 190.27 151.94 197.17 151.97L203.4 117.06Z" fill="white"/>
<path d="M197.18 152.28C190.45 152.25 185.87 148.54 183.55 141.26L171.82 104.34C171.8 104.26 171.8 104.18 171.84 104.11C171.88 104.04 171.94 103.99 172.02 103.96L196.82 96.34C196.98 96.29 197.15 96.38 197.2 96.54L203.7 116.98C203.75 117.14 203.66 117.31 203.5 117.36C203.34 117.41 203.17 117.32 203.12 117.16L196.71 97L172.49 104.44L184.13 141.07C186.36 148.07 190.75 151.64 197.18 151.67C197.35 151.67 197.48 151.81 197.48 151.97C197.48 152.14 197.34 152.28 197.18 152.28Z" fill="black"/>
<path d="M197.18 152.28C197.16 152.28 197.13 152.28 197.11 152.27C196.95 152.23 196.85 152.07 196.89 151.91L206.65 111.13C206.69 110.97 206.85 110.87 207.01 110.91C207.17 110.95 207.27 111.11 207.23 111.27L197.47 152.05C197.44 152.18 197.32 152.28 197.18 152.28Z" fill="black"/>
<path d="M241.62 85.41L242.72 94.27L225.93 114.94L233.26 94.11L233.16 88.16L241.62 85.41Z" fill="#DFE3E8"/>
<path d="M225.93 115.24C225.88 115.24 225.83 115.23 225.78 115.2C225.65 115.13 225.59 114.97 225.64 114.84L232.95 94.07L232.85 88.17C232.85 88.04 232.93 87.92 233.06 87.88L241.52 85.13C241.61 85.1 241.7 85.11 241.78 85.16C241.86 85.21 241.91 85.29 241.92 85.38L243.02 94.25C243.03 94.33 243.01 94.41 242.95 94.48L226.16 115.14C226.11 115.2 226.02 115.24 225.93 115.24ZM233.47 88.38L233.56 94.11C233.56 94.15 233.55 94.18 233.54 94.22L226.79 113.4L242.4 94.19L241.36 85.82L233.47 88.38Z" fill="black"/>
<path d="M233.22 91.76C233.17 90.57 233.21 89.36 233.16 88.16L241.76 85.84C241.66 86.46 241.24 88.53 239.35 90.13C236.84 92.26 233.67 91.83 233.22 91.76Z" fill="black"/>
<path d="M235.76 89.69C239.554 89.69 242.63 86.3322 242.63 82.19C242.63 78.0479 239.554 74.69 235.76 74.69C231.966 74.69 228.89 78.0479 228.89 82.19C228.89 86.3322 231.966 89.69 235.76 89.69Z" fill="#DFE3E8"/>
<path d="M235.76 90C231.81 90 228.59 86.5 228.59 82.2C228.59 77.9 231.81 74.4 235.76 74.4C239.71 74.4 242.93 77.9 242.93 82.2C242.92 86.5 239.71 90 235.76 90ZM235.76 74.99C232.14 74.99 229.2 78.22 229.2 82.19C229.2 86.16 232.14 89.39 235.76 89.39C239.38 89.39 242.32 86.16 242.32 82.19C242.32 78.22 239.37 74.99 235.76 74.99Z" fill="black"/>
<path d="M237.58 84.85C237.48 85.38 237.21 85.88 236.77 86.27C235.8 87.14 234.35 87.15 233.35 86.37L237.58 84.85Z" fill="white"/>
<path d="M230.68 77.15C231.94 75.64 233.74 74.69 235.76 74.69C239.55 74.69 242.98 77.43 242.98 81.57C242.98 82.07 242.77 83.19 242.48 83.71C240.73 82.98 236.38 80.81 233.9 77.09C233.9 77.09 233.99 79.56 237.53 82.99C237.52 83 232.31 81.47 230.68 77.15Z" fill="black"/>
<path d="M246.34 77.71C254.988 77.71 262 70.8152 262 62.31C262 53.8048 254.988 46.91 246.34 46.91C237.691 46.91 230.68 53.8048 230.68 62.31C230.68 70.8152 237.691 77.71 246.34 77.71Z" fill="black"/>
<path d="M248.3 78.01C239.5 78.01 232.34 70.97 232.34 62.31C232.34 53.65 239.5 46.61 248.3 46.61C257.1 46.61 264.26 53.65 264.26 62.31C264.26 70.97 257.1 78.01 248.3 78.01ZM248.3 47.22C239.83 47.22 232.94 53.99 232.94 62.32C232.94 70.64 239.83 77.42 248.3 77.42C256.77 77.42 263.66 70.65 263.66 62.32C263.66 53.99 256.77 47.22 248.3 47.22Z" fill="black"/>
<path d="M233.44 64.17C240.145 64.17 245.58 58.8288 245.58 52.24C245.58 45.6513 240.145 40.31 233.44 40.31C226.735 40.31 221.3 45.6513 221.3 52.24C221.3 58.8288 226.735 64.17 233.44 64.17Z" fill="black"/>
<path d="M240.73 50.39C248.037 50.39 253.96 44.5653 253.96 37.38C253.96 30.1948 248.037 24.37 240.73 24.37C233.423 24.37 227.5 30.1948 227.5 37.38C227.5 44.5653 233.423 50.39 240.73 50.39Z" fill="black"/>
<path d="M239.17 49.92C231.71 49.92 225.63 43.95 225.63 36.6C225.63 29.25 231.7 23.28 239.17 23.28C246.63 23.28 252.71 29.25 252.71 36.6C252.71 43.95 246.63 49.92 239.17 49.92ZM239.17 23.89C232.04 23.89 226.24 29.59 226.24 36.6C226.24 43.61 232.04 49.31 239.17 49.31C246.3 49.31 252.1 43.61 252.1 36.6C252.1 29.6 246.3 23.89 239.17 23.89Z" fill="black"/>
<path d="M232.634 94.7379H242.974V93.4879H232.634V94.7379Z" fill="black"/>
<path d="M235.63 95.38C235.63 95.88 236.04 96.28 236.54 96.28C237.05 96.28 237.45 95.88 237.45 95.38C237.45 94.88 237.04 94.48 236.54 94.48C236.04 94.49 235.63 94.89 235.63 95.38Z" fill="white"/>
<path d="M188.96 85.86L201.37 89.91L196.55 84.57L193.42 83.49C191.67 82.88 189.75 83.77 189.1 85.48L188.96 85.86Z" fill="#DFE3E8"/>
<path d="M177.56 110.39L191.25 113.64C192.75 114 194.19 112.88 194.19 111.36V71.68C194.19 70.59 193.43 69.64 192.35 69.39L178.66 66.14C177.16 65.78 175.72 66.9 175.72 68.42V108.11C175.72 109.19 176.48 110.14 177.56 110.39Z" fill="black"/>
<path d="M184.52 105.59L196.44 112.92L211.12 103.15L204.3 91.23C202.46 88.02 199.51 85.58 195.98 84.36L194.2 83.74L194.19 87.45L184.52 105.59Z" fill="#DFE3E8"/>
<path d="M183.36 88.92L197.63 93.87L199.29 89.23L185.02 84.28C183.77 83.85 182.4 84.49 181.96 85.72L181.89 85.91C181.45 87.14 182.11 88.49 183.36 88.92Z" fill="#DFE3E8"/>
<path d="M179.55 92.81L194.31 98.7L196.5 93.09L181.22 88.17C179.96 87.73 178.58 88.38 178.14 89.62L178.08 89.78C177.63 91.02 178.29 92.38 179.55 92.81Z" fill="#DFE3E8"/>
<path d="M176.24 102.1L191.02 107.22L192.68 102.58L177.9 97.46C176.63 97.02 175.24 97.68 174.79 98.92L174.75 99.04C174.31 100.29 174.98 101.66 176.24 102.1Z" fill="#DFE3E8"/>
<path d="M184.59 108.88L196.32 112.9L197.99 108.24L178.14 101.41L180.46 105.47C181.37 107.06 182.84 108.27 184.59 108.88Z" fill="#DFE3E8"/>
<path d="M177.56 94.59L177.47 94.84C177.04 96.05 177.86 97.44 179.3 97.94L193.54 103.52L195.72 97.84L180.97 93.31C179.52 92.8 177.99 93.38 177.56 94.59Z" fill="#DFE3E8"/>
<path d="M195.36 112.32L211.91 125.14L219.01 107.75L201.82 94.3L195.36 112.32Z" fill="#DFE3E8"/>
<path d="M184.62 94.87C184.59 94.87 184.55 94.86 184.52 94.85L179.45 93.09C178.76 92.85 178.21 92.36 177.9 91.71C177.59 91.07 177.56 90.35 177.8 89.68L177.86 89.52C178.36 88.13 179.91 87.4 181.32 87.89L187.08 89.89C187.24 89.94 187.32 90.12 187.27 90.27C187.22 90.43 187.04 90.51 186.89 90.46L181.13 88.46C180.03 88.08 178.82 88.65 178.43 89.73L178.37 89.89C178.19 90.41 178.21 90.96 178.45 91.46C178.69 91.97 179.12 92.35 179.66 92.53L184.73 94.29C184.89 94.34 184.97 94.52 184.92 94.67C184.86 94.8 184.74 94.87 184.62 94.87Z" fill="black"/>
<path d="M183.7 99.77C183.67 99.77 183.63 99.76 183.6 99.75L178.81 98.09C178.13 97.86 177.59 97.37 177.28 96.73C176.98 96.1 176.94 95.39 177.18 94.74L177.27 94.49C177.76 93.13 179.28 92.41 180.67 92.89L185.29 94.49C185.45 94.54 185.53 94.72 185.48 94.87C185.43 95.03 185.25 95.11 185.1 95.06L180.48 93.46C179.41 93.09 178.23 93.64 177.85 94.7L177.76 94.95C177.58 95.45 177.61 96 177.84 96.48C178.08 96.97 178.5 97.35 179.02 97.53L183.81 99.19C183.97 99.24 184.05 99.42 184 99.57C183.94 99.69 183.82 99.77 183.7 99.77Z" fill="black"/>
<path d="M187.99 90.83C187.96 90.83 187.92 90.82 187.89 90.81L183.26 89.2C182.57 88.96 182.02 88.47 181.71 87.83C181.4 87.19 181.37 86.47 181.61 85.81L181.68 85.62C182.17 84.24 183.72 83.51 185.12 84L198.08 88.49C198.24 88.54 198.32 88.72 198.27 88.87C198.22 89.03 198.04 89.11 197.89 89.06L184.93 84.57C183.84 84.19 182.64 84.76 182.25 85.83L182.18 86.02C182 86.53 182.02 87.08 182.26 87.58C182.5 88.08 182.93 88.46 183.46 88.64L188.09 90.25C188.25 90.3 188.33 90.48 188.28 90.63C188.23 90.75 188.11 90.83 187.99 90.83Z" fill="black"/>
<path d="M211.91 125.44C211.84 125.44 211.78 125.42 211.73 125.38L195.87 113.1L184.5 109.18C182.68 108.55 181.15 107.29 180.2 105.63L178.93 103.41L176.14 102.39C175.45 102.15 174.89 101.66 174.58 101C174.27 100.35 174.23 99.63 174.47 98.95L174.51 98.83C175.01 97.43 176.58 96.69 178 97.18L184.53 99.44C184.69 99.49 184.77 99.67 184.72 99.82C184.67 99.98 184.49 100.06 184.34 100.01L177.81 97.75C176.7 97.36 175.48 97.94 175.09 99.03L175.05 99.15C174.86 99.67 174.89 100.23 175.13 100.73C175.37 101.24 175.81 101.63 176.35 101.81L179.25 102.87C179.32 102.89 179.37 102.94 179.41 103L180.73 105.31C181.61 106.84 183.02 108.01 184.7 108.59L196.12 112.53C196.15 112.54 196.18 112.56 196.21 112.58L211.8 124.65L218.67 107.84L209.31 100.52C209.28 100.5 209.25 100.47 209.23 100.43L204.05 91.38C202.43 88.55 199.86 86.29 196.83 85.01C196.68 84.95 196.6 84.77 196.67 84.61C196.73 84.46 196.91 84.38 197.07 84.45C200.23 85.78 202.89 88.14 204.58 91.08L209.73 100.08L219.23 107.51C219.34 107.59 219.37 107.74 219.32 107.86L212.22 125.25C212.18 125.34 212.11 125.4 212.02 125.43C211.96 125.44 211.93 125.44 211.91 125.44Z" fill="black"/>
<path d="M206.95 123.24L219.39 105.8L249.22 127.5L242.98 94.28L251.2 94.41C258.74 94.41 265.26 99.6 266.82 106.86L274.97 144.69C276.52 151.86 270.95 158.61 263.5 158.61H262.25C258.14 158.61 254.14 157.32 250.83 154.93L206.95 123.24Z" fill="white"/>
<path d="M263.5 158.91H262.25C258.27 158.91 254.14 157.52 250.64 154.98L206.76 123.29C206.63 123.19 206.59 123 206.69 122.87L219.13 105.43C219.18 105.36 219.25 105.32 219.33 105.31C219.41 105.3 219.49 105.32 219.56 105.36L254.54 130.96C254.67 131.06 254.7 131.25 254.61 131.38C254.51 131.51 254.32 131.54 254.19 131.45L219.46 106.03L207.37 122.98L251 154.49C254.4 156.95 258.4 158.3 262.26 158.3H263.51C266.97 158.3 270.2 156.75 272.39 154.04C274.56 151.35 275.4 147.89 274.68 144.56L266.53 106.73C265 99.66 258.56 94.52 251.2 94.52H243.17C243 94.52 242.87 94.38 242.87 94.22C242.87 94.05 243.01 93.92 243.17 93.92H251.2C258.84 93.92 265.53 99.26 267.12 106.61L275.27 144.44C276.03 147.95 275.15 151.59 272.86 154.43C270.55 157.28 267.14 158.91 263.5 158.91Z" fill="black"/>
<path d="M249.21 127.61C249.07 127.61 248.95 127.51 248.92 127.37L244.51 106.87C244.47 106.71 244.58 106.55 244.74 106.51C244.9 106.47 245.06 106.58 245.1 106.74L249.51 127.24C249.55 127.4 249.44 127.56 249.28 127.6C249.25 127.61 249.23 127.61 249.21 127.61Z" fill="black"/>
<path d="M217.04 106.07L202.63 117.95L207.78 121.98L218.41 106.94L217.04 106.07Z" fill="#020202"/>
<path d="M179 71.4C179.7 70.36 179.41 68.97 178.36 68.28L175.63 66.5C174.58 65.81 173.15 66.1 172.45 67.13C171.75 68.16 172.04 69.56 173.09 70.25L175.82 72.03C176.88 72.72 178.3 72.43 179 71.4Z" fill="#DFE3E8"/>
<path d="M177.08 72.71C176.59 72.71 176.09 72.57 175.65 72.29L172.92 70.51C172.34 70.13 171.94 69.55 171.81 68.88C171.67 68.21 171.81 67.53 172.19 66.97C172.98 65.8 174.59 65.48 175.78 66.25L178.51 68.03C179.09 68.41 179.49 68.99 179.62 69.66C179.76 70.33 179.62 71.01 179.24 71.57C178.75 72.31 177.92 72.71 177.08 72.71ZM174.36 66.42C173.71 66.42 173.08 66.73 172.7 67.29C172.41 67.72 172.31 68.24 172.41 68.75C172.51 69.26 172.82 69.7 173.26 69.99L175.99 71.77C176.91 72.37 178.14 72.12 178.75 71.22C179.04 70.79 179.14 70.27 179.04 69.76C178.94 69.25 178.63 68.81 178.19 68.52L175.46 66.74C175.12 66.53 174.74 66.42 174.36 66.42Z" fill="black"/>
<path d="M178.1 76.23C178.8 75.19 178.51 73.8 177.46 73.11L174.73 71.33C173.68 70.64 172.25 70.93 171.55 71.96C170.85 73 171.14 74.39 172.19 75.08L174.92 76.86C175.98 77.55 177.4 77.26 178.1 76.23Z" fill="#DFE3E8"/>
<path d="M176.19 77.54C175.7 77.54 175.2 77.4 174.76 77.12L172.03 75.34C171.45 74.96 171.05 74.38 170.92 73.71C170.78 73.04 170.92 72.36 171.3 71.8C172.09 70.63 173.7 70.31 174.89 71.08L177.62 72.86C178.2 73.24 178.6 73.82 178.73 74.49C178.87 75.16 178.73 75.84 178.35 76.4C177.85 77.13 177.03 77.54 176.19 77.54ZM173.47 71.25C172.82 71.25 172.19 71.56 171.81 72.12C171.52 72.55 171.42 73.07 171.52 73.58C171.62 74.09 171.93 74.53 172.37 74.82L175.1 76.6C176.02 77.2 177.25 76.95 177.86 76.05C178.15 75.62 178.25 75.1 178.15 74.59C178.05 74.08 177.74 73.64 177.3 73.35L174.57 71.57C174.23 71.36 173.85 71.25 173.47 71.25Z" fill="black"/>
<path d="M177.66 81.49C178.36 80.45 178.07 79.06 177.02 78.37L174.29 76.59C173.24 75.9 171.81 76.19 171.11 77.22C170.41 78.26 170.7 79.65 171.75 80.34L174.48 82.12C175.54 82.82 176.96 82.53 177.66 81.49Z" fill="#DFE3E8"/>
<path d="M175.74 82.8C175.25 82.8 174.75 82.66 174.31 82.38L171.58 80.6C171 80.22 170.6 79.64 170.47 78.97C170.33 78.3 170.47 77.62 170.85 77.06C171.64 75.89 173.25 75.57 174.44 76.34L177.17 78.12C177.75 78.5 178.15 79.08 178.28 79.75C178.42 80.42 178.28 81.1 177.9 81.66C177.41 82.4 176.58 82.8 175.74 82.8ZM173.02 76.52C172.37 76.52 171.74 76.83 171.36 77.39C171.07 77.82 170.97 78.34 171.07 78.85C171.17 79.36 171.48 79.8 171.92 80.09L174.65 81.87C175.57 82.47 176.8 82.22 177.41 81.32C177.7 80.89 177.8 80.37 177.7 79.86C177.6 79.35 177.29 78.91 176.85 78.62L174.12 76.84C173.78 76.63 173.4 76.52 173.02 76.52Z" fill="black"/>
<path d="M205.94 43.58H161.53C161.36 43.58 161.23 43.44 161.23 43.28V23.37C161.23 23.2 161.37 23.07 161.53 23.07H214.51C214.64 23.07 214.76 23.16 214.8 23.28C214.84 23.41 214.79 23.54 214.68 23.62L206.25 29.32V43.28C206.24 43.44 206.1 43.58 205.94 43.58ZM161.83 42.97H205.64V29.16C205.64 29.06 205.69 28.97 205.77 28.91L213.52 23.67H161.83V42.97Z" fill="black"/>
<path d="M178.61 28.68H169.39C169.22 28.68 169.09 28.54 169.09 28.38C169.09 28.21 169.23 28.08 169.39 28.08H178.61C178.78 28.08 178.91 28.22 178.91 28.38C178.91 28.54 178.77 28.68 178.61 28.68Z" fill="black"/>
<path d="M200.05 28.68H181.1C180.93 28.68 180.8 28.54 180.8 28.38C180.8 28.21 180.94 28.08 181.1 28.08H200.05C200.22 28.08 200.35 28.22 200.35 28.38C200.36 28.54 200.22 28.68 200.05 28.68Z" fill="black"/>
<path d="M185.58 33.39H169.39C169.22 33.39 169.09 33.25 169.09 33.09C169.09 32.92 169.23 32.79 169.39 32.79H185.58C185.75 32.79 185.88 32.93 185.88 33.09C185.88 33.25 185.75 33.39 185.58 33.39Z" fill="black"/>
<path d="M200.05 33.39H190.58C190.41 33.39 190.28 33.25 190.28 33.09C190.28 32.92 190.42 32.79 190.58 32.79H200.05C200.22 32.79 200.35 32.93 200.35 33.09C200.36 33.25 200.22 33.39 200.05 33.39Z" fill="black"/>
<path d="M178.61 38.1H169.39C169.22 38.1 169.09 37.96 169.09 37.8C169.09 37.63 169.23 37.5 169.39 37.5H178.61C178.78 37.5 178.91 37.64 178.91 37.8C178.91 37.96 178.77 38.1 178.61 38.1Z" fill="black"/>
<path d="M159.37 143.28C159.27 143.28 159.18 143.23 159.12 143.15L151.03 131.18H102.63C102.46 131.18 102.33 131.04 102.33 130.88V106.08C102.33 105.91 102.47 105.78 102.63 105.78H159.38C159.55 105.78 159.68 105.92 159.68 106.08V142.98C159.68 143.11 159.59 143.23 159.47 143.27C159.42 143.27 159.4 143.28 159.37 143.28ZM102.92 130.57H151.18C151.28 130.57 151.37 130.62 151.43 130.7L159.06 141.98V106.37H102.92V130.57Z" fill="black"/>
<path d="M123.33 111.85H112.17C112 111.85 111.87 111.71 111.87 111.55C111.87 111.38 112.01 111.25 112.17 111.25H123.33C123.5 111.25 123.63 111.39 123.63 111.55C123.63 111.71 123.49 111.85 123.33 111.85Z" fill="black"/>
<path d="M149.28 111.85H126.35C126.18 111.85 126.05 111.71 126.05 111.55C126.05 111.38 126.19 111.25 126.35 111.25H149.28C149.45 111.25 149.58 111.39 149.58 111.55C149.58 111.71 149.45 111.85 149.28 111.85Z" fill="black"/>
<path d="M131.76 118.5H112.17C112 118.5 111.87 118.36 111.87 118.2C111.87 118.03 112.01 117.9 112.17 117.9H131.76C131.93 117.9 132.06 118.04 132.06 118.2C132.07 118.37 131.93 118.5 131.76 118.5Z" fill="black"/>
<path d="M149.28 118.5H137.82C137.65 118.5 137.52 118.36 137.52 118.2C137.52 118.03 137.66 117.9 137.82 117.9H149.28C149.45 117.9 149.58 118.04 149.58 118.2C149.58 118.37 149.45 118.5 149.28 118.5Z" fill="black"/>
<path d="M123.33 125.16H112.17C112 125.16 111.87 125.02 111.87 124.86C111.87 124.7 112.01 124.56 112.17 124.56H123.33C123.5 124.56 123.63 124.7 123.63 124.86C123.63 125.02 123.49 125.16 123.33 125.16Z" fill="black"/>
<path d="M149.28 125.16H126.35C126.18 125.16 126.05 125.02 126.05 124.86C126.05 124.7 126.19 124.56 126.35 124.56H149.28C149.45 124.56 149.58 124.7 149.58 124.86C149.58 125.02 149.45 125.16 149.28 125.16Z" fill="black"/>
<path d="M259.98 235.81C259.88 235.81 259.79 235.76 259.73 235.68C259.67 235.6 259.66 235.49 259.7 235.4C259.78 235.2 261.6 230.52 265.9 227.55C270.19 224.58 275.22 224.51 275.43 224.51C275.53 224.51 275.62 224.56 275.68 224.64C275.74 224.72 275.75 224.83 275.71 224.92C275.63 225.12 273.81 229.8 269.51 232.77C265.22 235.74 260.19 235.81 259.98 235.81ZM274.95 225.13C273.61 225.22 269.63 225.69 266.23 228.04C262.83 230.39 261 233.95 260.44 235.18C261.78 235.09 265.76 234.62 269.16 232.27C272.56 229.92 274.39 226.36 274.95 225.13Z" fill="black"/>
<path d="M259.92 253.2C259.75 253.2 259.62 253.06 259.62 252.9V235.66C259.62 235.49 259.76 235.36 259.92 235.36C260.09 235.36 260.22 235.5 260.22 235.66V252.9C260.23 253.07 260.09 253.2 259.92 253.2Z" fill="black"/>
<path d="M236.95 216.25C241.27 223.94 249.03 227.78 249.03 227.78C249.03 227.78 249.79 219.15 245.47 211.47C241.15 203.78 233.39 199.94 233.39 199.94C233.39 199.94 232.63 208.57 236.95 216.25Z" fill="#A1A76F"/>
<path d="M249.03 253.45C248.86 253.45 248.73 253.31 248.73 253.15V227.79C248.73 227.62 248.87 227.49 249.03 227.49C249.2 227.49 249.33 227.63 249.33 227.79V253.15C249.34 253.31 249.2 253.45 249.03 253.45Z" fill="black"/>
<path d="M270.31 209.72C264.26 220.49 253.39 225.87 253.39 225.87C253.39 225.87 252.33 213.79 258.38 203.02C264.43 192.25 275.3 186.87 275.3 186.87C275.3 186.87 276.36 198.95 270.31 209.72Z" fill="#A1A76F"/>
<path d="M253.39 253.47C253.22 253.47 253.09 253.33 253.09 253.17V225.86C253.09 225.69 253.23 225.56 253.39 225.56C253.56 225.56 253.69 225.7 253.69 225.86V253.17C253.69 253.34 253.55 253.47 253.39 253.47Z" fill="black"/>
<path d="M257.68 273.76H249.2C243.6 273.76 239.05 269.22 239.05 263.61V249.75H267.82V263.61C267.83 269.21 263.29 273.76 257.68 273.76Z" fill="white"/>
<path d="M255.59 274.06H251.29C244.38 274.06 238.75 268.43 238.75 261.52V249.75C238.75 249.58 238.89 249.45 239.05 249.45H267.82C267.99 249.45 268.12 249.59 268.12 249.75V261.52C268.13 268.43 262.51 274.06 255.59 274.06ZM239.36 250.05V261.52C239.36 268.1 244.71 273.46 251.3 273.46H255.6C262.18 273.46 267.54 268.11 267.54 261.52V250.05H239.36Z" fill="black"/>
<path d="M94.9599 223.22C94.7899 223.07 94.5499 222.96 94.2599 222.89C93.9999 222.83 93.8699 222.8 93.5199 222.8L87.9299 222.81C87.9299 222.81 88.2999 224.47 89.1999 225.94C89.5599 225.94 94.0099 225.92 94.2699 225.86C94.5299 225.8 94.7799 225.7 94.9799 225.53C95.2999 225.25 95.4699 225.11 95.4699 224.39C95.4699 224.17 95.4499 223.98 95.3799 223.79C95.2999 223.58 95.1699 223.4 94.9599 223.22Z" fill="#F3F9FE"/>
<path d="M103.14 206.57V212.47H110.69C108.98 209.66 106.29 207.54 103.14 206.57Z" fill="#F3F9FE"/>
<path d="M99.6298 200.68C89.3898 200.68 81.0898 208.98 81.0898 219.22C81.0898 229.46 89.3898 237.76 99.6298 237.76C109.87 237.76 118.17 229.46 118.17 219.22C118.17 208.99 109.87 200.68 99.6298 200.68ZM85.2999 212.56L87.7198 212.55V214.37C87.7198 214.88 88.1298 215.29 88.6398 215.29H94.2498H94.7098C95.2198 215.29 95.6298 214.88 95.6298 214.37V205.3C95.6298 204.54 96.2398 203.93 96.9998 203.93H98.0398V214.37C98.0398 216.21 96.5498 217.71 94.6998 217.71H89.0998H88.6398C86.7998 217.71 85.2999 216.22 85.2999 214.37V212.56ZM98.1398 234.44H97.1898C96.7998 234.44 96.4498 234.3 96.1998 234.07C95.9498 233.84 95.7999 233.53 95.7999 233.19V229.8C95.7999 229.49 95.7598 229.22 95.6898 228.99C95.6098 228.73 95.4799 228.52 95.2999 228.37C95.1299 228.22 94.8898 228.11 94.5998 228.04C94.3398 227.98 94.0399 227.95 93.6898 227.95H90.4799C90.4799 227.95 92.0698 229.81 93.0698 230.44L93.1199 232.83C87.1199 229.5 85.7999 224.4 85.4099 222.21L85.1998 220.78H93.1398C94.2298 220.78 94.7898 220.84 95.5098 220.97C96.2098 221.09 96.7298 221.26 97.0898 221.49C97.4298 221.7 97.6798 222 97.8598 222.38C98.0398 222.79 98.1298 223.29 98.1298 223.89C98.1298 224.22 98.0798 224.97 97.9898 225.27C97.8998 225.56 97.7498 225.84 97.5298 226.07C97.3398 226.27 97.0998 226.44 96.7999 226.56C96.4599 226.7 96.0899 226.78 95.7299 226.83C96.1799 226.9 96.5598 226.99 96.8798 227.13C97.1798 227.25 97.4198 227.4 97.5998 227.58C97.7798 227.75 97.9098 227.95 97.9998 228.18C98.0898 228.42 98.1398 228.71 98.1398 229.06V234.44ZM102.18 204.12C105.42 204.76 108.33 206.4 110.61 208.85C112.89 211.32 114.32 214.37 114.72 217.69L114.73 217.79H112.59L112.58 217.72C112.49 217.06 112.34 216.4 112.16 215.76L111.7 214.56H103.14V217.79H102.63C101.72 217.79 100.97 217.04 100.97 216.12L100.96 203.94L102.18 204.12ZM113.08 222.82H104.14C103.57 222.82 103.11 223.28 103.11 223.85V224.73C103.12 225.29 103.57 225.74 104.13 225.74H109.3C110.31 225.74 111.14 226.53 111.19 227.55C111.21 227.97 111.07 228.37 110.85 228.72C110.85 228.72 107.83 233.35 100.96 234.55V232.54C102.39 232.16 104.88 231.13 106.89 229.59C107.26 229.26 108.13 228.62 108.74 227.91V227.9H104.13C102.38 227.9 100.96 226.31 100.95 224.57V224.71C100.95 224.71 100.95 224.54 100.95 224.55C100.95 224.56 100.95 224.57 100.95 224.57V223.85C100.95 222.09 102.38 220.66 104.14 220.66H114.43L114.45 221.42C114.47 222.19 113.85 222.82 113.08 222.82Z" fill="#F3F9FE"/>
</svg>
