<svg width="266" height="266" viewBox="0 0 266 266" fill="none" xmlns="http://www.w3.org/2000/svg">
<g clip-path="url(#clip0_1666_6378)">
<path d="M163.22 51.15L164.11 20.37C164.25 15.03 169.43 11.28 174.57 12.8C179.71 14.32 182.02 20.29 179.23 24.84L163.22 51.15Z" fill="black"/>
<path d="M208.318 33.0502L97.7681 0.316574L57.2186 137.262L167.768 169.996L208.318 33.0502Z" fill="#C4C4D7"/>
<path d="M167.77 170.33C167.74 170.33 167.71 170.33 167.68 170.32L57.1201 137.58C57.0401 137.56 56.9701 137.5 56.9301 137.43C56.8901 137.36 56.8801 137.27 56.9001 137.19L97.4601 0.23C97.4801 0.15 97.5401 0.08 97.6101 0.04C97.6801 0 97.7701 -0.01 97.8501 0.01L208.41 32.75C208.58 32.8 208.68 32.98 208.63 33.15L168.08 170.1C168.06 170.18 168 170.25 167.93 170.29C167.88 170.32 167.83 170.33 167.77 170.33ZM57.6101 137.06L167.55 169.62L207.92 33.28L97.9901 0.72L57.6101 137.06Z" fill="black"/>
<path d="M164.27 164.02L70.6702 136.3L107.06 13.43L179.51 34.89L194.44 62.13L164.27 164.02Z" fill="black"/>
<path d="M194.44 62.13L173.3 55.87L179.51 34.89L194.44 62.13Z" fill="black"/>
<path d="M162.57 160.93L64.7002 131.95L101.09 9.07999L176.85 31.51L192.75 59.04L162.57 160.93Z" fill="white"/>
<path d="M162.57 161.25C162.54 161.25 162.51 161.25 162.48 161.24L64.6101 132.26C64.4401 132.21 64.3401 132.03 64.3901 131.86L100.78 8.98999C100.8 8.90999 100.86 8.83999 100.93 8.79999C101 8.75999 101.09 8.74999 101.17 8.76999L176.94 31.21C177.02 31.23 177.09 31.29 177.13 31.36L193.03 58.88C193.07 58.96 193.08 59.05 193.06 59.13L162.89 161.02C162.87 161.1 162.81 161.17 162.74 161.21C162.68 161.24 162.63 161.25 162.57 161.25ZM65.1001 131.73L162.36 160.53L192.4 59.08L176.64 31.79L101.3 9.47999L65.1001 131.73Z" fill="black"/>
<path d="M192.75 59.04L170.64 52.49L176.85 31.51L192.75 59.04Z" fill="white"/>
<path d="M192.75 59.36C192.72 59.36 192.69 59.36 192.66 59.35L170.55 52.8C170.47 52.78 170.4 52.72 170.36 52.65C170.32 52.58 170.31 52.49 170.33 52.41L176.54 31.43C176.58 31.31 176.68 31.22 176.81 31.2C176.93 31.19 177.06 31.25 177.12 31.36L193.02 58.88C193.09 58.99 193.08 59.13 192.99 59.24C192.94 59.32 192.84 59.36 192.75 59.36ZM171.04 52.28L192.07 58.51L176.95 32.32L171.04 52.28Z" fill="black"/>
<path d="M129.27 32.98L163.46 43.1L164.12 20.37C164.26 15.03 169.44 11.28 174.58 12.8L140.39 2.69001C135.25 1.17001 130.06 4.91001 129.93 10.26L129.27 32.98Z" fill="white"/>
<path d="M163.45 43.43C163.42 43.43 163.39 43.43 163.36 43.42L129.17 33.3C129.03 33.26 128.94 33.13 128.94 32.98L129.6 10.25C129.67 7.61001 130.93 5.21001 133.07 3.66001C135.22 2.10001 137.92 1.63001 140.47 2.39001L174.66 12.51C174.83 12.56 174.93 12.74 174.88 12.91C174.83 13.08 174.65 13.18 174.48 13.13C172.12 12.43 169.62 12.86 167.63 14.3C165.66 15.74 164.49 17.96 164.42 20.39L163.76 43.12C163.76 43.22 163.71 43.31 163.63 43.37C163.59 43.41 163.52 43.43 163.45 43.43ZM129.6 32.75L163.15 42.69L163.79 20.37C163.86 17.73 165.12 15.33 167.26 13.78C168.49 12.89 169.9 12.35 171.36 12.2L140.3 3.00001C137.94 2.30001 135.44 2.73001 133.45 4.17001C131.48 5.61001 130.31 7.83001 130.24 10.26L129.6 32.75Z" fill="black"/>
<path d="M157.264 121.503C161.736 120.423 164.486 115.923 163.406 111.45C162.326 106.978 157.826 104.228 153.353 105.308C148.881 106.388 146.131 110.888 147.211 115.361C148.291 119.833 152.791 122.583 157.264 121.503Z" fill="#D8D3A0"/>
<path d="M155.32 124.87C154.43 124.87 153.52 124.76 152.63 124.55C149.65 123.84 147.13 122.01 145.53 119.4C142.22 114.01 143.92 106.94 149.3 103.64C154.69 100.33 161.76 102.03 165.06 107.41C166.66 110.02 167.15 113.09 166.44 116.07C165.73 119.05 163.9 121.57 161.29 123.17C159.47 124.3 157.41 124.87 155.32 124.87ZM155.28 102.59C153.35 102.59 151.4 103.1 149.64 104.19C144.56 107.31 142.96 113.99 146.08 119.07C147.59 121.53 149.97 123.26 152.78 123.93C155.59 124.6 158.5 124.14 160.96 122.63C163.42 121.12 165.15 118.74 165.82 115.93C166.49 113.12 166.03 110.21 164.52 107.75C162.48 104.43 158.92 102.59 155.28 102.59Z" fill="black"/>
<path d="M150.15 132.99C148.93 132.99 147.81 132.68 146.88 132.04C145.49 131.07 144.58 129.72 144.19 128.09C143.03 128.18 141.88 128 140.82 127.54C137.21 125.97 136.2 121.65 138.2 116.26C138.26 116.09 138.45 116.01 138.61 116.07C138.78 116.13 138.86 116.32 138.8 116.48C136.94 121.52 137.81 125.53 141.08 126.95C142.03 127.36 143.04 127.53 144.08 127.46C144.02 127.07 143.99 126.66 143.99 126.24C143.99 122.82 145.88 119.38 147.64 118.16C148.7 117.42 149.94 117.36 150.96 117.98C152.02 118.63 152.58 119.85 152.4 121.1C152.11 123.15 150.12 125.63 147.68 126.99C146.74 127.51 145.79 127.85 144.83 128.01C145.13 129.23 145.81 130.52 147.24 131.52C149.9 133.38 154.64 131.99 157.82 128.42C157.94 128.29 158.14 128.28 158.27 128.39C158.4 128.51 158.41 128.71 158.3 128.84C155.94 131.5 152.83 132.99 150.15 132.99ZM149.47 118.19C148.98 118.19 148.48 118.35 148.01 118.68C146.38 119.82 144.64 123.13 144.64 126.24C144.64 126.59 144.66 126.98 144.72 127.38C145.61 127.24 146.5 126.92 147.38 126.43C149.66 125.16 151.51 122.88 151.77 121.01C151.91 120.02 151.46 119.05 150.62 118.53C150.26 118.3 149.87 118.19 149.47 118.19Z" fill="black"/>
<path d="M173.09 76.34C173.06 76.34 173.03 76.34 173 76.33L102.8 55.54C102.72 55.52 102.65 55.46 102.61 55.39C102.57 55.32 102.56 55.23 102.58 55.15L104.51 48.65C104.56 48.48 104.74 48.38 104.91 48.43L175.1 69.22C175.27 69.27 175.37 69.45 175.32 69.62L173.39 76.12C173.37 76.2 173.31 76.27 173.24 76.31C173.19 76.33 173.14 76.34 173.09 76.34ZM103.29 55.02L172.87 75.62L174.61 69.73L105.03 49.13L103.29 55.02Z" fill="black"/>
<path d="M168.98 90.22C168.95 90.22 168.92 90.22 168.89 90.21L98.6902 69.42C98.5202 69.37 98.4202 69.19 98.4702 69.02L100.4 62.52C100.42 62.44 100.48 62.37 100.55 62.33C100.62 62.29 100.71 62.28 100.79 62.3L170.98 83.09C171.15 83.14 171.25 83.32 171.2 83.49L169.27 89.99C169.25 90.07 169.19 90.14 169.12 90.18C169.08 90.21 169.03 90.22 168.98 90.22ZM99.1802 68.9L168.76 89.5L170.5 83.61L100.92 63.01L99.1802 68.9Z" fill="black"/>
<path d="M132.28 94.56C132.25 94.56 132.22 94.56 132.19 94.55L94.5501 83.41C94.4701 83.39 94.4001 83.33 94.3601 83.26C94.3201 83.19 94.3101 83.1 94.3301 83.02L96.2601 76.52C96.3101 76.35 96.4901 76.25 96.6601 76.3L134.3 87.45C134.47 87.5 134.57 87.68 134.52 87.85L132.59 94.35C132.57 94.43 132.51 94.5 132.44 94.54C132.39 94.55 132.33 94.56 132.28 94.56ZM95.0401 82.88L132.06 93.84L133.8 87.95L96.7901 76.99L95.0401 82.88Z" fill="black"/>
<path d="M128.17 108.44C128.14 108.44 128.11 108.44 128.08 108.43L90.4402 97.28C90.2702 97.23 90.1702 97.05 90.2202 96.88L92.1502 90.38C92.1702 90.3 92.2302 90.23 92.3002 90.19C92.3702 90.15 92.4602 90.14 92.5402 90.16L130.18 101.31C130.35 101.36 130.45 101.54 130.4 101.71L128.47 108.21C128.45 108.29 128.39 108.36 128.32 108.4C128.28 108.43 128.22 108.44 128.17 108.44ZM90.9302 96.76L127.95 107.72L129.69 101.83L92.6802 90.87L90.9302 96.76Z" fill="black"/>
<path d="M124.06 122.32C124.03 122.32 124 122.32 123.97 122.31L86.3301 111.16C86.1601 111.11 86.0601 110.93 86.1101 110.76L88.0401 104.26C88.0601 104.18 88.1201 104.11 88.1901 104.07C88.2601 104.03 88.3501 104.02 88.4301 104.04L126.07 115.19C126.24 115.24 126.34 115.42 126.29 115.59L124.36 122.09C124.34 122.17 124.28 122.24 124.21 122.28C124.17 122.31 124.11 122.32 124.06 122.32ZM86.8201 110.64L123.84 121.6L125.58 115.71L88.5601 104.75L86.8201 110.64Z" fill="black"/>
<path d="M166.12 126.48C166.05 126.48 165.99 126.46 165.93 126.42L139.91 107.38C139.84 107.33 139.8 107.25 139.78 107.17C139.77 107.09 139.79 107 139.84 106.93L143.99 101.26C144.09 101.12 144.29 101.09 144.44 101.19L170.46 120.23C170.6 120.33 170.63 120.53 170.53 120.68L166.38 126.35C166.33 126.42 166.25 126.46 166.17 126.48C166.15 126.48 166.13 126.48 166.12 126.48ZM140.54 107.05L166.04 125.72L169.81 120.57L144.31 101.9L140.54 107.05Z" fill="black"/>
<path d="M238.8 178.26L238.24 182.2L238.05 183.62L237.67 186.27L237.65 186.4L237.41 188.15L226.56 265.4H192.45L193.58 254.87L195.51 237.01L196.49 227.98L199.03 204.4L199.3 201.96L199.77 197.6V197.59L200.51 190.78L200.77 188.36L201.28 183.62L201.39 182.59L201.62 180.47L202.07 176.3L202.41 173.15L206.86 173.78L209.36 174.13L211.4 174.41H211.41L238.8 178.26Z" fill="#020202"/>
<path d="M210.1 186.19L215.53 188.44L215.23 189.06V189.07L213.49 192.69V192.7L211.71 196.39L204.61 211.14L201.68 217.22L196.5 227.99L189.92 241.65L186.38 249.02L193.6 254.89L204.35 263.63L206.54 265.41H151.26C151.13 265.2 151 264.99 150.87 264.78C150.78 264.64 150.7 264.5 150.62 264.36C150.47 264.1 150.33 263.84 150.19 263.58C150.11 263.42 150.02 263.26 149.94 263.1C149.92 263.07 149.91 263.04 149.89 263.01C149.82 262.87 149.75 262.73 149.68 262.58C149.48 262.17 149.29 261.76 149.12 261.34C149.06 261.2 149.01 261.06 148.95 260.93C148.65 260.2 148.39 259.46 148.16 258.71C148.12 258.6 148.09 258.49 148.06 258.38C147.98 258.13 147.92 257.87 147.85 257.62C147.79 257.41 147.74 257.2 147.69 256.99C147.64 256.78 147.59 256.56 147.55 256.35C147.41 255.71 147.3 255.06 147.2 254.41C147.17 254.2 147.14 253.98 147.12 253.78C147.05 253.22 147 252.66 146.97 252.09C146.95 251.82 146.94 251.55 146.93 251.29C146.92 251.02 146.92 250.75 146.92 250.48C146.92 249.97 146.93 249.46 146.96 248.95C147 248.24 147.07 247.53 147.16 246.82C147.18 246.69 147.2 246.57 147.22 246.44C147.23 246.35 147.24 246.26 147.26 246.16C147.28 246.01 147.31 245.86 147.34 245.71C147.4 245.33 147.48 244.95 147.56 244.57C147.6 244.38 147.64 244.19 147.69 244C147.73 243.82 147.78 243.63 147.83 243.44C147.88 243.25 147.93 243.06 147.98 242.87C148.05 242.62 148.12 242.37 148.2 242.12C148.28 241.85 148.38 241.58 148.47 241.3C148.55 241.08 148.63 240.85 148.72 240.63C148.79 240.45 148.86 240.26 148.94 240.08C149.02 239.9 149.09 239.71 149.17 239.53C149.25 239.35 149.33 239.16 149.41 238.98C149.49 238.8 149.57 238.61 149.66 238.43L156.12 224.95L175.91 183.63L176.74 181.9L178.1 179.06L180.54 173.97L192.86 179.07L198.54 181.42L201.42 182.61L203.91 183.64L210.1 186.19Z" fill="#020202"/>
<path d="M205.76 265.09C205.69 265.09 205.62 265.07 205.56 265.02L186.16 249.25C186.05 249.16 186.01 249 186.07 248.86L201.38 217.07C201.46 216.91 201.65 216.84 201.81 216.92C201.97 217 202.04 217.19 201.96 217.35L186.76 248.92L205.96 264.53C206.1 264.64 206.12 264.84 206.01 264.98C205.94 265.05 205.85 265.09 205.76 265.09Z" fill="black"/>
<path d="M151.25 265.72C151.14 265.72 151.04 265.67 150.98 265.57C145.74 257.31 145.13 247.1 149.36 238.28L180.24 173.82C180.32 173.66 180.51 173.59 180.67 173.67C180.83 173.75 180.9 173.94 180.82 174.1L149.94 238.56C145.81 247.18 146.4 257.16 151.53 265.23C151.62 265.38 151.58 265.58 151.43 265.67C151.36 265.7 151.31 265.72 151.25 265.72Z" fill="black"/>
<path d="M95.27 198.98L104.31 214.13L129.11 199.34L122.56 182.7L95.27 198.98Z" fill="#DFE3E8"/>
<path d="M104.31 214.45C104.2 214.45 104.1 214.39 104.04 214.29L95 199.14C94.96 199.07 94.94 198.98 94.96 198.9C94.98 198.82 95.03 198.75 95.11 198.7L122.4 182.42C122.48 182.37 122.58 182.36 122.67 182.39C122.76 182.42 122.83 182.49 122.86 182.58L129.41 199.21C129.47 199.36 129.41 199.52 129.28 199.6L104.48 214.39C104.42 214.44 104.36 214.45 104.31 214.45ZM95.71 199.09L104.42 213.69L128.72 199.2L122.41 183.17L95.71 199.09Z" fill="black"/>
<path d="M68.561 187.458L63.0862 201.347L86.0739 210.408L91.5487 196.519L68.561 187.458Z" fill="#DFE3E8"/>
<path d="M105.93 207.46L106.85 209.82C107.31 211.01 106.87 212.36 105.8 213.05L103.37 214.61L101.24 208.87L77.3301 199.46L79.3001 194.46L101.79 203.32C103.69 204.05 105.19 205.56 105.93 207.46Z" fill="#DFE3E8"/>
<path d="M106.42 204.05L106.94 205.38C107.4 206.57 106.96 207.92 105.89 208.61L103.46 210.17L101.33 204.43L78.8501 195.58L80.2201 192.1L84.0301 193.6C85.6101 194.22 89.0201 193.81 92.5801 195.21L100.85 198.47C103.41 199.48 105.43 201.5 106.42 204.05Z" fill="#DFE3E8"/>
<path d="M105.8 213.37C105.69 213.37 105.59 213.32 105.53 213.22C105.43 213.07 105.48 212.87 105.63 212.78C106.57 212.17 106.96 210.98 106.56 209.93L105.64 207.57C104.93 205.76 103.49 204.31 101.68 203.6L97.2802 201.87C97.1202 201.81 97.0302 201.62 97.1002 201.46C97.1602 201.3 97.3502 201.21 97.5102 201.28L101.91 203.01C103.88 203.79 105.46 205.37 106.23 207.34L107.15 209.7C107.67 211.03 107.17 212.55 105.97 213.32C105.92 213.35 105.86 213.37 105.8 213.37Z" fill="black"/>
<path d="M105.16 211.04L106.26 213.87C106.72 215.06 106.28 216.41 105.21 217.1L102.78 218.66L100.65 212.92L85.8401 207.09L87.8101 202.09L101.68 207.55C103.28 208.17 104.54 209.44 105.16 211.04Z" fill="#DFE3E8"/>
<path d="M104.27 218.03C104.16 218.03 104.06 217.98 104 217.88C103.9 217.73 103.95 217.53 104.1 217.44L105.05 216.83C105.99 216.22 106.38 215.03 105.98 213.98L104.88 211.15C104.29 209.64 103.09 208.43 101.58 207.84L95.7902 205.56C95.6302 205.5 95.5402 205.31 95.6102 205.15C95.6702 204.99 95.8602 204.9 96.0202 204.97L101.81 207.25C103.49 207.91 104.82 209.25 105.48 210.93L106.58 213.76C107.1 215.09 106.6 216.61 105.4 217.38L104.45 217.99C104.39 218.01 104.33 218.03 104.27 218.03Z" fill="black"/>
<path d="M103.03 214.4L104.18 217.35C104.61 218.44 104.2 219.69 103.22 220.32C101.89 221.17 100.12 220.58 99.5701 219.1L98.9601 217.46C98.6701 216.68 98.0601 216.05 97.2801 215.75L84.8401 210.85C81.5901 209.57 79.3701 208.48 78.1401 202.43L99.4801 210.84C101.11 211.49 102.39 212.78 103.03 214.4Z" fill="#DFE3E8"/>
<path d="M101.88 221.04C101.58 221.04 101.28 220.99 100.99 220.9C100.19 220.63 99.5501 220.02 99.2601 219.23L98.6501 217.59C98.3901 216.89 97.8501 216.34 97.1501 216.06L83.3901 210.64C80.9001 209.66 79.0601 207.51 78.4701 204.89C78.4301 204.72 78.5401 204.55 78.7101 204.51C78.8801 204.47 79.0501 204.58 79.0901 204.75C79.6301 207.16 81.3201 209.14 83.6201 210.04L97.3801 215.46C98.2401 215.8 98.9201 216.49 99.2401 217.36L99.8501 219C100.08 219.61 100.56 220.08 101.18 220.29C101.8 220.5 102.47 220.41 103.02 220.06C103.88 219.51 104.23 218.42 103.86 217.48L102.71 214.53C102.11 212.99 100.88 211.76 99.3401 211.15L94.5201 209.25C94.3601 209.19 94.2701 209 94.3401 208.84C94.4001 208.68 94.5901 208.59 94.7501 208.66L99.5701 210.56C101.27 211.23 102.63 212.59 103.3 214.3L104.45 217.25C104.93 218.48 104.47 219.89 103.36 220.6C102.93 220.89 102.41 221.04 101.88 221.04Z" fill="black"/>
<path d="M106.28 208.63C106.2 208.63 106.11 208.6 106.05 208.53C105.93 208.4 105.93 208.2 106.06 208.08C106.76 207.42 106.99 206.4 106.64 205.5L106.12 204.17C105.16 201.71 103.2 199.74 100.74 198.78L93.0201 195.74C90.6401 194.8 88.9601 194.62 87.3301 194.45C85.9801 194.31 84.7001 194.17 83.2201 193.59L68.4401 187.77C68.2801 187.71 68.1901 187.52 68.2601 187.36C68.3201 187.2 68.5101 187.11 68.6701 187.18L83.4501 193C84.8501 193.55 86.0901 193.68 87.4001 193.82C88.9901 193.99 90.8001 194.18 93.2601 195.15L100.98 198.19C103.6 199.22 105.69 201.32 106.72 203.95L107.24 205.28C107.69 206.43 107.4 207.71 106.5 208.56C106.44 208.6 106.36 208.63 106.28 208.63Z" fill="black"/>
<path d="M79.9001 208.04C79.8601 208.04 79.8201 208.03 79.7801 208.02L62.4601 201.26C62.3001 201.2 62.2101 201.01 62.2801 200.85C62.3401 200.69 62.5301 200.6 62.6901 200.67L80.0101 207.43C80.1701 207.49 80.2601 207.68 80.1901 207.84C80.1401 207.96 80.0201 208.04 79.9001 208.04Z" fill="black"/>
<path d="M88.5101 215.95C87.5001 215.94 86.7001 215.11 86.7101 214.1L86.8101 207.3C86.8201 206.29 87.6501 205.49 88.6601 205.5C89.6701 205.51 90.4701 206.34 90.4601 207.35L90.3601 214.15C90.3401 215.16 89.5101 215.97 88.5101 215.95Z" fill="#DFE3E8"/>
<path d="M88.53 216.27C88.52 216.27 88.51 216.27 88.5 216.27C87.32 216.25 86.37 215.28 86.39 214.1L86.49 207.3C86.51 206.13 87.46 205.19 88.63 205.19C88.64 205.19 88.65 205.19 88.66 205.19C89.84 205.21 90.79 206.18 90.77 207.36L90.67 214.16C90.66 215.33 89.7 216.27 88.53 216.27ZM88.63 205.83C87.81 205.83 87.14 206.49 87.13 207.31L87.03 214.11C87.02 214.94 87.68 215.62 88.51 215.63C89.34 215.66 90.02 214.98 90.03 214.15L90.13 207.35C90.14 206.52 89.48 205.84 88.65 205.83C88.64 205.83 88.63 205.83 88.63 205.83Z" fill="black"/>
<path d="M84.8602 211.84C83.8502 211.83 83.0502 211 83.0602 209.99L83.1302 204.81C83.1402 203.8 83.9702 203 84.9802 203.01C85.9902 203.02 86.7902 203.85 86.7802 204.86L86.7102 210.04C86.7002 211.05 85.8702 211.85 84.8602 211.84Z" fill="#DFE3E8"/>
<path d="M84.8901 212.16C84.8801 212.16 84.8701 212.16 84.8601 212.16C83.6801 212.14 82.7301 211.17 82.7501 209.99L82.8201 204.81C82.8301 204.24 83.0601 203.7 83.4701 203.3C83.8801 202.9 84.4101 202.69 84.9901 202.69C85.5601 202.7 86.1001 202.93 86.5001 203.34C86.9001 203.75 87.1101 204.29 87.1101 204.86L87.0401 210.04C87.0101 211.22 86.0601 212.16 84.8901 212.16ZM84.9601 203.33C84.5701 203.33 84.1901 203.48 83.9101 203.76C83.6201 204.04 83.4601 204.42 83.4501 204.82L83.3801 210C83.3701 210.83 84.0301 211.51 84.8601 211.52C84.8701 211.52 84.8701 211.52 84.8801 211.52C85.7001 211.52 86.3701 210.86 86.3801 210.04L86.4501 204.86C86.4601 204.46 86.3001 204.08 86.0201 203.79C85.7401 203.5 85.3601 203.34 84.9601 203.33C84.9801 203.33 84.9701 203.33 84.9601 203.33Z" fill="black"/>
<path d="M92.1502 217.98C91.1402 217.97 90.3402 217.14 90.3502 216.13L90.4402 209.78C90.4502 208.77 91.2802 207.97 92.2902 207.98C93.3002 207.99 94.1002 208.82 94.0902 209.83L94.0002 216.18C93.9802 217.19 93.1502 217.99 92.1502 217.98Z" fill="#DFE3E8"/>
<path d="M92.1701 218.3C92.1601 218.3 92.1501 218.3 92.1401 218.3C90.9601 218.28 90.0101 217.31 90.0301 216.13L90.1201 209.78C90.1301 209.21 90.3601 208.67 90.7701 208.27C91.1801 207.87 91.7101 207.65 92.2901 207.66H92.3001C92.8701 207.67 93.4001 207.9 93.8001 208.31C94.2001 208.72 94.4101 209.26 94.4101 209.83L94.3201 216.18C94.3101 216.75 94.0801 217.29 93.6701 217.69C93.2601 218.08 92.7301 218.3 92.1701 218.3ZM92.2601 208.3C91.4401 208.3 90.7701 208.96 90.7601 209.78L90.6701 216.13C90.6601 216.96 91.3201 217.64 92.1501 217.65C92.5601 217.66 92.9301 217.5 93.2201 217.22C93.5101 216.94 93.6701 216.56 93.6801 216.16L93.7701 209.81C93.7801 208.98 93.1201 208.3 92.2901 208.29C92.2701 208.3 92.2701 208.3 92.2601 208.3Z" fill="black"/>
<path d="M95.72 219.41C94.71 219.4 93.91 218.57 93.92 217.56L93.97 213.67C93.98 212.66 94.81 211.86 95.82 211.87C96.83 211.88 97.63 212.71 97.62 213.72L97.57 217.61C97.56 218.62 96.73 219.43 95.72 219.41Z" fill="#DFE3E8"/>
<path d="M95.7501 219.73C95.7401 219.73 95.7201 219.73 95.7101 219.73C95.1401 219.72 94.6101 219.49 94.2101 219.08C93.8101 218.67 93.6001 218.13 93.6001 217.56L93.6501 213.67C93.6701 212.49 94.6501 211.54 95.8201 211.56C96.3901 211.57 96.9301 211.8 97.3301 212.21C97.7301 212.62 97.9401 213.16 97.9401 213.73L97.8901 217.62C97.8701 218.79 96.9201 219.73 95.7501 219.73ZM95.7401 219.09C96.5601 219.08 97.2401 218.43 97.2601 217.61L97.3101 213.72C97.3201 213.32 97.1601 212.94 96.8801 212.65C96.6001 212.36 96.2201 212.2 95.8201 212.19C94.9901 212.17 94.3101 212.84 94.3001 213.67L94.2501 217.56C94.2401 217.96 94.4001 218.34 94.6801 218.63C94.9501 218.92 95.3201 219.09 95.7401 219.09C95.7301 219.09 95.7301 219.09 95.7401 219.09Z" fill="black"/>
<path d="M94.9002 197.61C94.9202 196.41 95.9002 195.46 97.0902 195.48L101.6 195.54C102.79 195.56 103.75 196.54 103.73 197.73C103.71 198.92 102.73 199.88 101.54 199.86L97.0302 199.8C95.8402 199.79 94.8902 198.81 94.9002 197.61Z" fill="#DFE3E8"/>
<path d="M101.58 200.19C101.57 200.19 101.56 200.19 101.54 200.19L97.0301 200.13C96.3701 200.12 95.7501 199.85 95.2901 199.38C94.8301 198.91 94.5801 198.28 94.5901 197.62C94.6001 196.95 94.8701 196.33 95.3401 195.87C95.8201 195.41 96.4501 195.16 97.1001 195.17L101.61 195.23C102.98 195.25 104.07 196.38 104.05 197.74C104.04 199.1 102.93 200.19 101.58 200.19ZM97.0601 195.8C96.5801 195.8 96.1201 195.98 95.7801 196.32C95.4301 196.66 95.2301 197.12 95.2201 197.61C95.2101 198.1 95.4001 198.57 95.7401 198.92C96.0801 199.27 96.5401 199.47 97.0301 199.48L101.54 199.54C102.55 199.55 103.39 198.74 103.41 197.73C103.42 197.23 103.23 196.77 102.89 196.42C102.55 196.07 102.09 195.87 101.6 195.86L97.0901 195.8C97.0801 195.8 97.0701 195.8 97.0601 195.8Z" fill="black"/>
<path d="M265.24 168.56C265.24 173.62 262.47 178.5 257.65 180.95C253.86 182.88 249.6 182.9 245.96 181.38L246.14 183.62H172.7L173.5 172.68L164 182.72L155.42 191.8L154.42 192.26L116.59 209.82L104.7 187.64L143.6 164.15L166.92 133.12C173.62 125.29 182.67 119.84 192.72 117.57L205.84 114.61L228.02 117.22C236.21 118.19 243.39 123.14 247.19 130.46L263.72 162.26C264.75 164.28 265.24 166.44 265.24 168.56Z" fill="white"/>
<path d="M116.6 210.14C116.49 210.14 116.38 210.08 116.32 209.97L104.43 187.79C104.35 187.64 104.4 187.45 104.55 187.37L143.4 163.91L166.68 132.93C173.38 125.09 182.61 119.53 192.66 117.26L205.78 114.3C205.81 114.29 205.85 114.29 205.89 114.29L228.07 116.9C236.37 117.88 243.63 122.89 247.48 130.31L264.01 162.11C265.03 164.11 265.56 166.33 265.56 168.55C265.56 173.93 262.58 178.79 257.79 181.23C254.21 183.05 250.06 183.27 246.32 181.86L246.46 183.59C246.47 183.68 246.44 183.77 246.38 183.83C246.32 183.9 246.23 183.93 246.15 183.93H172.7C172.61 183.93 172.53 183.89 172.47 183.83C172.41 183.76 172.38 183.68 172.39 183.59L173.12 173.54L155.67 192.01C155.64 192.04 155.61 192.06 155.57 192.08L154.57 192.54L116.74 210.1C116.69 210.13 116.64 210.14 116.6 210.14ZM105.13 187.76L116.73 209.4L155.23 191.53L173.26 172.45C173.35 172.35 173.5 172.32 173.62 172.38C173.74 172.43 173.82 172.56 173.81 172.7L173.04 183.3H245.79L245.64 181.41C245.63 181.3 245.68 181.19 245.77 181.13C245.86 181.06 245.98 181.05 246.08 181.09C249.77 182.63 253.94 182.48 257.5 180.67C262.08 178.34 264.92 173.7 264.92 168.56C264.92 166.41 264.42 164.34 263.44 162.41L246.91 130.61C243.15 123.38 236.08 118.5 227.99 117.54L205.87 114.94L192.8 117.89C182.88 120.13 173.78 125.62 167.17 133.34L143.87 164.35C143.85 164.38 143.81 164.41 143.78 164.43L105.13 187.76Z" fill="black"/>
<path d="M155.43 191.8L154.68 192.59L154.42 192.26L155.43 191.8Z" fill="white"/>
<path d="M154.68 192.91H154.67C154.58 192.91 154.49 192.86 154.43 192.79L154.17 192.46C154.11 192.38 154.09 192.28 154.11 192.19C154.13 192.1 154.2 192.02 154.29 191.97L155.29 191.51C155.43 191.45 155.59 191.49 155.68 191.61C155.77 191.73 155.76 191.9 155.65 192.02L154.91 192.81C154.85 192.87 154.77 192.91 154.68 192.91Z" fill="black"/>
<path d="M257.64 181.27C257.52 181.27 257.41 181.21 257.35 181.1C257.27 180.94 257.33 180.75 257.49 180.67C260.72 179.02 263.12 176.22 264.24 172.77C265.36 169.32 265.07 165.64 263.43 162.41L246.9 130.61C243.14 123.38 236.07 118.5 227.98 117.55L205.8 114.94C205.62 114.92 205.5 114.76 205.52 114.59C205.54 114.41 205.7 114.29 205.87 114.31L228.05 116.92C236.35 117.9 243.61 122.91 247.47 130.32L264 162.12C265.72 165.5 266.03 169.36 264.85 172.97C263.68 176.58 261.17 179.52 257.78 181.24C257.74 181.26 257.69 181.27 257.64 181.27Z" fill="black"/>
<path d="M172.7 183.94C172.69 183.94 172.68 183.94 172.68 183.94C172.5 183.93 172.37 183.77 172.38 183.6L175.78 136.84C175.79 136.66 175.95 136.53 176.12 136.54C176.3 136.55 176.43 136.71 176.42 136.88L173.02 183.64C173 183.81 172.86 183.94 172.7 183.94Z" fill="black"/>
<path d="M203.55 123.05L209.92 129.02L216.92 115.37L208.6 113.77L203.55 123.05Z" fill="white"/>
<path d="M203.58 123.04L195.68 128.67L196.76 116.67L202.42 114.09L203.58 123.04Z" fill="white"/>
<path d="M232.44 162.4C232.32 162.4 232.21 162.34 232.16 162.23L223.18 144.61C223.1 144.45 223.16 144.26 223.32 144.18C223.48 144.1 223.67 144.16 223.75 144.32L232.73 161.94C232.81 162.1 232.75 162.29 232.59 162.37C232.53 162.39 232.48 162.4 232.44 162.4Z" fill="black"/>
<path d="M166.19 186.81L155.43 191.8L164 182.72L166.19 186.81Z" fill="white"/>
<path d="M155.43 192.12C155.33 192.12 155.23 192.07 155.17 191.99C155.08 191.87 155.09 191.7 155.2 191.58L163.78 182.5C163.85 182.43 163.95 182.39 164.05 182.4C164.15 182.41 164.24 182.48 164.29 182.57L166.48 186.65C166.52 186.73 166.53 186.82 166.5 186.9C166.47 186.98 166.41 187.05 166.33 187.09L155.57 192.09C155.52 192.11 155.47 192.12 155.43 192.12ZM163.93 183.27L156.8 190.81L165.75 186.66L163.93 183.27Z" fill="black"/>
<path d="M116.6 210.14C116.49 210.14 116.38 210.08 116.32 209.97L104.43 187.79C104.35 187.64 104.4 187.45 104.55 187.37L143.83 163.65C143.98 163.56 144.18 163.61 144.27 163.76C144.36 163.91 144.31 164.11 144.16 164.2L105.14 187.77L116.88 209.68C116.96 209.84 116.9 210.03 116.75 210.11C116.7 210.13 116.65 210.14 116.6 210.14Z" fill="black"/>
<path d="M172.527 172.281L136.918 201.688L178.023 251.463L213.633 222.055L172.527 172.281Z" fill="#E7905F"/>
<path d="M178.02 251.78C177.93 251.78 177.84 251.74 177.77 251.66L136.65 201.9C136.6 201.83 136.57 201.75 136.58 201.67C136.59 201.59 136.63 201.51 136.69 201.45L172.3 172.04C172.44 171.93 172.64 171.95 172.75 172.08L213.87 221.84C213.92 221.91 213.95 221.99 213.94 222.07C213.93 222.15 213.89 222.23 213.83 222.29L178.22 251.7C178.16 251.75 178.09 251.78 178.02 251.78ZM137.34 201.74L178.06 251L213.18 222L172.46 172.74L137.34 201.74Z" fill="black"/>
<path d="M157.425 179.134L146.475 188.177L151.69 194.492L162.64 185.449L157.425 179.134Z" fill="black"/>
<path d="M152.05 187.89C150.08 187.89 148.48 186.29 148.48 184.32C148.48 182.35 150.08 180.75 152.05 180.75C154.02 180.75 155.62 182.35 155.62 184.32C155.62 186.28 154.02 187.89 152.05 187.89ZM152.05 181.39C150.43 181.39 149.12 182.7 149.12 184.32C149.12 185.93 150.43 187.25 152.05 187.25C153.67 187.25 154.98 185.94 154.98 184.32C154.98 182.7 153.66 181.39 152.05 181.39Z" fill="black"/>
<path d="M176.82 198.66L172.59 211.21C172.18 212.41 172.83 213.71 174.03 214.12L174.27 214.2C175.47 214.61 176.77 213.96 177.18 212.76L181.41 200.21C181.88 198.81 182.57 197.48 183.45 196.29L191.57 185.26L186.97 183.71L178.85 194.74C177.98 195.93 177.29 197.25 176.82 198.66Z" fill="#DFE3E8"/>
<path d="M181.41 200.21L177.66 211.33C177.25 212.53 177.9 213.83 179.1 214.24L179.34 214.32C180.54 214.73 181.84 214.08 182.25 212.88L186 201.76C186.47 200.36 187.16 199.03 188.04 197.84L196.16 186.81L191.56 185.26L183.44 196.29C182.58 197.48 181.89 198.8 181.41 200.21Z" fill="#DFE3E8"/>
<path d="M186.01 201.76L183.65 208.76C183.24 209.96 183.89 211.26 185.09 211.67L185.33 211.75C186.53 212.16 187.83 211.51 188.24 210.31L190.61 203.3C191.06 201.97 192.09 200.91 193.42 200.43L196.53 199.31C200.24 197.98 203.13 195.02 204.39 191.29L204.91 189.75L196.17 186.8L188.05 197.83C187.17 199.03 186.48 200.35 186.01 201.76Z" fill="#DFE3E8"/>
<path d="M187.89 180.52C184.32 181.58 181.19 183.78 178.98 186.79L174.26 193.19C173.38 194.38 172.69 195.71 172.22 197.11L169.53 205.09C169.14 206.25 169.76 207.52 170.93 207.91L171.31 208.04C172.48 208.43 173.74 207.81 174.13 206.64L176.82 198.66C177.29 197.26 177.98 195.93 178.86 194.74L186.63 184.18L203.94 192.41L245.9 179.92L224.34 169.66L187.89 180.52Z" fill="#DFE3E8"/>
<path d="M175.01 214.64C174.73 214.64 174.45 214.59 174.17 214.5L173.93 214.42C173.27 214.2 172.73 213.73 172.42 213.1C172.11 212.47 172.06 211.76 172.29 211.1L176.52 198.55C177.01 197.11 177.71 195.76 178.61 194.54L184.9 186C185 185.86 185.2 185.83 185.35 185.93C185.49 186.03 185.52 186.23 185.42 186.38L179.13 194.92C178.27 196.09 177.6 197.38 177.13 198.75L172.9 211.3C172.73 211.8 172.77 212.34 173 212.81C173.23 213.28 173.64 213.64 174.14 213.8L174.38 213.88C174.88 214.05 175.42 214.01 175.89 213.78C176.36 213.55 176.72 213.14 176.89 212.64L181.12 200.09C181.6 198.65 182.31 197.31 183.21 196.08L189.32 187.78C189.42 187.64 189.62 187.61 189.77 187.71C189.91 187.81 189.94 188.01 189.84 188.16L183.73 196.46C182.87 197.63 182.2 198.92 181.73 200.29L177.5 212.84C177.28 213.5 176.81 214.04 176.18 214.35C175.8 214.55 175.4 214.64 175.01 214.64Z" fill="black"/>
<path d="M180.08 214.76C179.8 214.76 179.52 214.72 179.25 214.62L179.01 214.54C177.64 214.08 176.91 212.59 177.37 211.23L181.12 200.11C181.6 198.67 182.31 197.33 183.21 196.1L189.32 187.8C189.42 187.66 189.62 187.63 189.77 187.73C189.91 187.83 189.94 188.03 189.84 188.18L183.73 196.48C182.87 197.65 182.2 198.94 181.73 200.31L177.98 211.43C177.63 212.46 178.19 213.59 179.22 213.93L179.46 214.01C180.49 214.36 181.62 213.8 181.97 212.77L185.72 201.65C186.21 200.21 186.91 198.86 187.81 197.64L194.1 189.1C194.2 188.96 194.4 188.93 194.55 189.03C194.69 189.13 194.72 189.33 194.62 189.48L188.33 198.02C187.47 199.19 186.8 200.48 186.33 201.85L182.58 212.97C182.19 214.07 181.17 214.76 180.08 214.76Z" fill="black"/>
<path d="M186.07 212.19C185.79 212.19 185.51 212.15 185.24 212.05L185 211.97C184.34 211.75 183.8 211.28 183.49 210.65C183.18 210.02 183.13 209.31 183.35 208.65L185.71 201.65C186.19 200.21 186.9 198.87 187.8 197.64L194.09 189.1C194.19 188.96 194.39 188.93 194.54 189.03C194.68 189.13 194.71 189.33 194.61 189.48L188.32 198.02C187.46 199.19 186.79 200.48 186.32 201.85L183.96 208.85C183.79 209.35 183.83 209.89 184.06 210.36C184.29 210.83 184.7 211.19 185.2 211.35L185.44 211.43C186.47 211.78 187.6 211.22 187.95 210.19L190.32 203.18C190.8 201.75 191.9 200.63 193.32 200.12L196.43 199C199.64 197.84 202.28 195.39 203.67 192.28L203.73 192.15L203.87 192.11L245.02 179.85L224.32 170L187.99 180.82C184.5 181.86 181.4 184.04 179.24 186.97L174.53 193.37C173.67 194.54 173 195.83 172.53 197.2L169.84 205.18C169.68 205.66 169.71 206.18 169.94 206.64C170.17 207.1 170.56 207.44 171.04 207.6L171.42 207.73C172.42 208.07 173.5 207.53 173.84 206.53L176.53 198.55C177.01 197.11 177.72 195.76 178.62 194.54L183.65 187.71C183.75 187.57 183.95 187.54 184.1 187.64C184.24 187.74 184.27 187.94 184.17 188.09L179.14 194.92C178.28 196.09 177.61 197.38 177.14 198.75L174.45 206.73C174 208.06 172.55 208.78 171.22 208.33L170.84 208.2C170.2 207.98 169.67 207.53 169.37 206.92C169.07 206.31 169.02 205.62 169.24 204.98L171.93 197C172.42 195.56 173.12 194.21 174.02 192.99L178.73 186.59C180.97 183.55 184.19 181.28 187.81 180.21L224.38 169.32L246.8 179.99L204.2 192.69C202.73 195.9 199.98 198.42 196.65 199.62L193.54 200.74C192.3 201.19 191.35 202.16 190.93 203.41L188.56 210.42C188.18 211.5 187.16 212.19 186.07 212.19Z" fill="black"/>
<path d="M203.98 192.68C203.95 192.68 203.91 192.67 203.88 192.66C203.71 192.6 203.62 192.42 203.68 192.25L205.24 187.63C205.3 187.46 205.48 187.37 205.64 187.43C205.81 187.49 205.9 187.67 205.84 187.84L204.28 192.46C204.24 192.6 204.11 192.68 203.98 192.68Z" fill="black"/>
<path d="M255.74 181.69L211.9 193.1L206.35 171.8L248.37 156.49L255.74 181.69Z" fill="white"/>
<path d="M211.9 193.42C211.84 193.42 211.79 193.41 211.74 193.38C211.67 193.34 211.61 193.27 211.59 193.18L206.04 171.88C206 171.72 206.08 171.56 206.24 171.5L249.2 155.51C249.36 155.45 249.55 155.53 249.61 155.7C249.67 155.87 249.59 156.05 249.42 156.11L206.73 172L212.12 192.71L257.32 180.73C257.49 180.68 257.67 180.79 257.71 180.96C257.76 181.13 257.65 181.31 257.48 181.35L211.97 193.41C211.95 193.42 211.93 193.42 211.9 193.42Z" fill="black"/>
<path d="M211.22 115.28L203.54 123.07L200.35 107.45L209.25 105.63L211.22 115.28Z" fill="#DFE3E8"/>
<path d="M203.54 123.39C203.51 123.39 203.48 123.39 203.45 123.38C203.34 123.35 203.25 123.25 203.23 123.14L200.04 107.52C200.02 107.44 200.04 107.35 200.09 107.28C200.14 107.21 200.21 107.16 200.29 107.14L209.19 105.32C209.36 105.28 209.53 105.4 209.57 105.57L211.54 115.22C211.56 115.32 211.53 115.43 211.45 115.51L203.77 123.3C203.71 123.36 203.63 123.39 203.54 123.39ZM200.73 107.7L203.74 122.42L210.88 115.18L209.01 106.01L200.73 107.7Z" fill="black"/>
<path d="M209.92 108.89L209.26 105.64L200.36 107.46L201.83 114.64C202.64 114.64 204.22 114.52 205.87 113.57C208.45 112.08 209.69 109.57 209.92 108.89Z" fill="black"/>
<path d="M209.91 103.05L202.7 102.76L196.08 105.78L193.79 96.15L207.46 91.4L209.91 103.05Z" fill="black"/>
<path d="M204.511 111.916C208.325 111.135 210.717 107.085 209.854 102.87C208.99 98.6554 205.198 95.8724 201.384 96.6538C197.57 97.4353 195.178 101.485 196.041 105.7C196.905 109.914 200.697 112.697 204.511 111.916Z" fill="#DFE3E8"/>
<path d="M203.24 112.35C199.75 112.35 196.54 109.63 195.75 105.74C195.32 103.62 195.66 101.48 196.71 99.71C197.77 97.92 199.41 96.72 201.35 96.33C205.33 95.52 209.3 98.42 210.19 102.8C210.62 104.92 210.28 107.06 209.23 108.83C208.17 110.62 206.53 111.82 204.59 112.21C204.14 112.31 203.69 112.35 203.24 112.35ZM202.69 96.84C202.29 96.84 201.88 96.88 201.47 96.96C199.71 97.32 198.22 98.41 197.25 100.04C196.28 101.68 195.97 103.66 196.37 105.62C197.19 109.65 200.82 112.33 204.46 111.59C206.22 111.23 207.71 110.14 208.68 108.51C209.65 106.87 209.96 104.89 209.56 102.93C208.83 99.35 205.88 96.84 202.69 96.84Z" fill="black"/>
<path d="M200.75 108.99C201.26 109.36 201.88 109.58 202.55 109.58C204.06 109.57 205.29 108.46 205.51 107.02L200.75 108.99Z" fill="white"/>
<path d="M211.19 92.52C210.75 90.36 208.64 88.97 206.48 89.41C206.18 89.47 205.89 89.57 205.62 89.69C205.01 87.91 203.16 86.81 201.27 87.2C199.25 87.61 197.94 89.56 198.29 91.57C197.8 91.36 197.25 91.29 196.68 91.41C195.21 91.71 194.26 93.14 194.56 94.61C194.6 94.8 194.66 94.98 194.73 95.15C194.49 95.15 194.25 95.17 194.01 95.23C191.93 95.65 190.58 97.69 191.01 99.78C191.42 101.81 193.36 103.14 195.38 102.82C195.44 102.81 195.5 102.8 195.55 102.79C195.7 102.76 195.85 102.72 196 102.67C197.83 102.07 198.96 100.18 198.56 98.25C198.55 98.21 198.54 98.17 198.53 98.13C199.47 98.45 200.79 98.51 202.19 98.22C203.37 97.98 204.4 97.54 205.14 97.01C205.22 96.95 205.3 96.89 205.37 96.83C206.17 97.27 207.12 97.44 208.08 97.24C208.28 97.2 208.47 97.14 208.66 97.08C210.47 96.4 211.59 94.48 211.19 92.52ZM199.94 94.11C199.94 94.1 199.94 94.09 199.94 94.09C199.94 94.09 199.95 94.1 199.96 94.1C199.95 94.11 199.94 94.11 199.94 94.11Z" fill="black"/>
<path d="M73.4201 247.04C73.4201 253.33 73.2001 259.46 72.7701 265.4H5.99009C5.56009 259.46 5.34009 253.33 5.34009 247.04C5.34009 227 7.60009 208.43 11.4601 193.16C11.8801 191.49 12.3201 189.87 12.7701 188.29C13.0001 187.5 13.2301 186.72 13.4701 185.95C13.5001 185.86 13.5301 185.77 13.5501 185.69C14.6701 182.1 15.8801 178.73 17.1701 175.64H61.5901C62.8201 178.57 63.9601 181.73 65.0301 185.11C65.0401 185.15 65.0501 185.2 65.0701 185.24C65.5801 186.88 66.0801 188.57 66.5601 190.31C66.5801 190.41 66.6101 190.5 66.6401 190.6C66.7401 190.95 66.8301 191.3 66.9201 191.66C67.9201 195.47 68.8301 199.5 69.6101 203.71C69.6301 203.78 69.6401 203.85 69.6501 203.93C69.9201 205.38 70.1801 206.86 70.4301 208.36C70.4301 208.37 70.4301 208.38 70.4301 208.38C70.5801 209.31 70.7301 210.26 70.8701 211.21C72.5101 222.25 73.4201 234.35 73.4201 247.04Z" fill="#020202"/>
<path d="M72.76 265.72C72.75 265.72 72.74 265.72 72.74 265.72C72.56 265.71 72.43 265.55 72.44 265.38C72.87 259.39 73.09 253.22 73.09 247.05C73.09 234.67 72.23 222.62 70.54 211.26C70.4 210.31 70.25 209.37 70.1 208.44C70.1 208.43 70.1 208.43 70.1 208.42C69.84 206.85 69.59 205.4 69.33 204C69.32 203.93 69.31 203.86 69.29 203.79C68.51 199.64 67.61 195.59 66.6 191.75C66.51 191.4 66.42 191.05 66.32 190.7L66.24 190.4C65.79 188.74 65.29 187.04 64.76 185.35C64.75 185.31 64.73 185.26 64.72 185.21C63.68 181.92 62.55 178.82 61.37 175.98H17.38C16.13 178.98 14.94 182.28 13.85 185.8C13.83 185.88 13.8 185.96 13.77 186.05C13.53 186.83 13.3 187.61 13.07 188.39C12.61 190 12.17 191.64 11.76 193.25C7.76001 209.07 5.65001 227.67 5.65001 247.05C5.65001 253.2 5.87001 259.37 6.30001 265.38C6.31001 265.56 6.18001 265.71 6.00001 265.72C5.82001 265.73 5.67001 265.6 5.66001 265.42C5.23001 259.39 5.01001 253.21 5.01001 247.04C5.01001 227.61 7.13001 208.95 11.14 193.09C11.55 191.47 11.99 189.83 12.45 188.21C12.68 187.42 12.91 186.64 13.15 185.87C13.18 185.77 13.21 185.69 13.23 185.62C14.36 181.99 15.58 178.6 16.87 175.54C16.92 175.42 17.04 175.34 17.16 175.34H61.58C61.71 175.34 61.83 175.42 61.87 175.54C63.09 178.45 64.25 181.64 65.32 185.03C65.33 185.08 65.34 185.11 65.36 185.15C65.9 186.86 66.4 188.57 66.85 190.24L66.93 190.54C67.03 190.88 67.12 191.24 67.21 191.59C68.22 195.44 69.13 199.5 69.91 203.66C69.93 203.73 69.94 203.81 69.95 203.88C70.21 205.28 70.47 206.73 70.73 208.31C70.73 208.32 70.73 208.32 70.73 208.33C70.88 209.26 71.03 210.21 71.17 211.16C72.86 222.55 73.72 234.63 73.72 247.04C73.72 253.23 73.5 259.42 73.06 265.42C73.07 265.59 72.93 265.72 72.76 265.72Z" fill="black"/>
<path d="M109.57 128.64L95.75 127.78L102.42 113.38C102.42 113.38 102.45 109.76 106.32 108.05C107.22 107.65 109.13 107 110.76 106.47C112.61 105.87 114.36 105.02 115.99 103.96L117.85 102.74C118.79 102.13 120.04 102.36 120.69 103.27L120.83 103.46C121.49 104.38 121.29 105.66 120.39 106.34L114.55 110.73L117.46 112.75C118.95 113.79 120.71 114.38 122.52 114.48L129.84 115.01C131.06 115.1 132.02 116.07 132.1 117.29L132.11 117.5L136.06 117.4C137.22 117.41 138.18 118.33 138.22 119.49C138.27 120.63 137.42 121.62 136.28 121.74L111.49 124.46L109.57 128.64Z" fill="#DFE3E8"/>
<path d="M95.6799 127.77L101.06 116.18L112.67 121.47L107.55 134.42L95.6799 127.77Z" fill="#DFE3E8"/>
<path d="M107.55 134.74C107.5 134.74 107.44 134.73 107.39 134.7L95.53 128.06C95.38 127.98 95.33 127.8 95.4 127.65L102.09 113.31C102.12 112.76 102.48 109.4 106.17 107.77C107.1 107.36 109.11 106.68 110.64 106.18C112.46 105.59 114.19 104.75 115.79 103.7L117.65 102.48C118.73 101.77 120.17 102.04 120.93 103.09L121.07 103.28C121.83 104.33 121.6 105.83 120.56 106.6L115.07 110.72L117.62 112.49C119.07 113.49 120.76 114.07 122.52 114.16L129.85 114.69C131.19 114.79 132.26 115.84 132.4 117.17L136.05 117.07C137.4 117.08 138.49 118.13 138.54 119.47C138.59 120.77 137.62 121.91 136.32 122.05L111.55 124.77L107.86 134.51C107.83 134.6 107.76 134.67 107.67 134.7C107.63 134.73 107.59 134.74 107.55 134.74ZM96.11 127.64L107.38 133.96L111.01 124.38C111.05 124.27 111.15 124.19 111.27 124.18L136.24 121.44C137.21 121.33 137.93 120.49 137.89 119.52C137.85 118.52 137.04 117.74 136.04 117.74L132.1 117.84C131.93 117.85 131.78 117.71 131.77 117.54L131.76 117.33C131.69 116.28 130.85 115.43 129.79 115.35L122.47 114.82C120.6 114.72 118.79 114.1 117.25 113.03L114.34 111.01C114.26 110.95 114.2 110.86 114.2 110.75C114.2 110.65 114.25 110.55 114.33 110.49L120.17 106.1C120.93 105.53 121.1 104.43 120.55 103.66L120.41 103.47C119.86 102.7 118.8 102.5 118 103.02L116.14 104.24C114.49 105.32 112.7 106.18 110.83 106.79C108.66 107.5 107.14 108.04 106.42 108.35C102.78 109.95 102.71 113.35 102.71 113.39C102.71 113.44 102.7 113.48 102.68 113.52L96.11 127.64Z" fill="black"/>
<path d="M115.33 117.87L117.42 117.51C118.75 117.28 119.98 116.67 120.97 115.76L126.39 110.75C127.17 110.03 128.38 110.07 129.11 110.84C129.81 111.57 129.83 112.71 129.15 113.47L123.65 119.64C123.21 120.14 122.67 120.54 122.06 120.83L118.81 122.37L115.33 117.87Z" fill="#DFE3E8"/>
<path d="M120.83 116.73L122.95 116.72C124.3 116.71 125.62 116.32 126.74 115.58L132.91 111.53C133.8 110.95 134.99 111.19 135.58 112.06C136.15 112.9 135.98 114.03 135.19 114.66L128.75 119.84C128.23 120.26 127.63 120.57 126.99 120.75L123.53 121.74L120.83 116.73Z" fill="#DFE3E8"/>
<path d="M126.99 121.08C126.85 121.08 126.72 120.99 126.68 120.85C126.63 120.68 126.73 120.5 126.9 120.45C127.5 120.28 128.06 119.99 128.55 119.6L134.99 114.42C135.64 113.9 135.79 112.94 135.32 112.25C134.83 111.52 133.82 111.32 133.09 111.8L128.36 114.93C128.21 115.03 128.01 114.99 127.92 114.84C127.82 114.69 127.86 114.49 128.01 114.4L132.74 111.27C133.77 110.6 135.17 110.88 135.85 111.89C136.5 112.86 136.3 114.19 135.39 114.92L128.95 120.1C128.39 120.55 127.76 120.87 127.08 121.07C127.05 121.08 127.02 121.08 126.99 121.08Z" fill="black"/>
<path d="M120.81 122.14C120.69 122.14 120.57 122.07 120.52 121.96C120.45 121.8 120.51 121.61 120.67 121.54C122.05 120.9 123.29 119.94 124.27 118.78L128.91 113.27C129.47 112.64 129.46 111.67 128.88 111.07C128.27 110.43 127.25 110.4 126.6 111L121.18 116.01C120.14 116.97 118.86 117.6 117.47 117.84L113.12 118.25C112.94 118.27 112.79 118.14 112.77 117.96C112.75 117.78 112.88 117.63 113.06 117.61L117.39 117.2C118.64 116.99 119.81 116.41 120.76 115.53L126.18 110.52C127.08 109.69 128.51 109.73 129.35 110.62C130.16 111.47 130.18 112.81 129.4 113.68L124.77 119.18C123.73 120.41 122.41 121.43 120.95 122.11C120.9 122.13 120.85 122.14 120.81 122.14Z" fill="black"/>
<path d="M112.84 112.32C112.74 112.32 112.65 112.28 112.58 112.19C112.47 112.05 112.5 111.85 112.65 111.74L114.43 110.42C114.57 110.31 114.77 110.34 114.88 110.49C114.99 110.63 114.96 110.83 114.81 110.94L113.03 112.26C112.97 112.3 112.9 112.32 112.84 112.32Z" fill="black"/>
<path d="M58.2698 166.06L69.6298 188.17L56.3798 197.4L48.8598 188.17L43.9298 197.4L3.07983 192.07L16.9498 165.57L28.7198 165.71L58.2698 166.06Z" fill="white"/>
<path d="M43.93 197.72C43.92 197.72 43.8999 197.72 43.8899 197.72L3.03995 192.38C2.93995 192.37 2.84995 192.3 2.79995 192.21C2.74995 192.12 2.74995 192.01 2.79995 191.91L16.67 165.41C16.73 165.3 16.83 165.23 16.96 165.24L28.7299 165.38C28.91 165.38 29.0499 165.53 29.0499 165.7C29.0499 165.88 28.91 166.02 28.7299 166.02L17.15 165.88L3.56995 191.81L43.75 197.06L48.58 188.02C48.63 187.93 48.72 187.86 48.83 187.85C48.94 187.84 49.04 187.88 49.11 187.97L56.45 196.98L69.22 188.07L57.99 166.2C57.91 166.04 57.97 165.85 58.13 165.77C58.29 165.69 58.4799 165.75 58.56 165.91L69.92 188.02C69.99 188.16 69.95 188.34 69.82 188.43L56.57 197.67C56.43 197.77 56.25 197.74 56.1399 197.61L48.9199 188.75L44.2099 197.56C44.1499 197.66 44.04 197.72 43.93 197.72Z" fill="black"/>
<path d="M26.18 166.06H20.29L9.47998 121.62L35.09 113.69L50.31 117.74C58.98 120.05 66.88 124.61 73.21 130.98L83.19 141.02L92.58 121.02L114.66 130.64L99.38 162.28C94.74 171.88 82 174.01 74.49 166.44L59.96 151.82L58.28 166.07H26.18V166.06Z" fill="white"/>
<path d="M85.3801 171.33C81.2201 171.33 77.2701 169.7 74.2601 166.66L60.1901 152.5L58.5901 166.09C58.5701 166.27 58.4101 166.39 58.2401 166.37C58.0601 166.35 57.9401 166.19 57.9601 166.02L59.6401 151.77C59.6501 151.65 59.7401 151.55 59.8501 151.51C59.9701 151.47 60.0901 151.5 60.1801 151.59L74.7101 166.21C78.2201 169.74 83.0401 171.3 87.9501 170.48C92.8601 169.66 96.9101 166.62 99.0801 162.14L114.22 130.8L92.7301 121.44L83.4701 141.16C83.4301 141.25 83.3401 141.32 83.2401 141.34C83.1401 141.36 83.0301 141.32 82.9601 141.25L72.9801 131.21C66.7001 124.89 58.8401 120.35 50.2301 118.06L35.1001 114.04L9.87007 121.86L20.5501 165.76H26.1901C26.3701 165.76 26.5101 165.9 26.5101 166.08C26.5101 166.26 26.3701 166.4 26.1901 166.4H20.3001C20.1501 166.4 20.0201 166.3 19.9901 166.16L9.17007 121.7C9.13007 121.54 9.22007 121.37 9.39007 121.32L35.0001 113.39C35.0601 113.37 35.1201 113.37 35.1801 113.39L50.4001 117.44C59.1201 119.76 67.0801 124.36 73.4401 130.76L83.1001 140.47L92.3001 120.88C92.3701 120.72 92.5601 120.65 92.7201 120.72L114.8 130.34C114.88 130.37 114.94 130.44 114.97 130.52C115 130.6 115 130.69 114.96 130.77L99.6801 162.41C97.4201 167.08 93.2001 170.25 88.0801 171.1C87.1601 171.25 86.2701 171.33 85.3801 171.33Z" fill="black"/>
<path d="M74.8101 159.15C74.7601 159.15 74.7201 159.14 74.6701 159.12C74.5101 159.04 74.4401 158.85 74.5201 158.69L82.8901 140.87C82.9701 140.71 83.1601 140.64 83.3201 140.72C83.4801 140.8 83.5501 140.99 83.4701 141.15L75.1001 158.97C75.0501 159.08 74.9301 159.15 74.8101 159.15Z" fill="black"/>
<path d="M45.2 148.46L43.4 115.9L35.09 113.31L24.29 116.81L45.2 148.46Z" fill="#020202"/>
<path d="M59.9098 152.15C59.7998 152.15 59.6899 152.09 59.6299 151.99C59.5399 151.84 59.5998 151.64 59.7499 151.55C62.2799 150.11 63.8599 147.41 63.8599 144.49C63.8599 141.22 61.9099 138.29 58.8999 137.02C58.7999 136.98 58.7298 136.9 58.7098 136.79L56.9198 128.68C56.8798 128.51 56.9898 128.34 57.1598 128.3C57.3298 128.26 57.4999 128.37 57.5399 128.54L59.2899 136.49C62.4499 137.9 64.4799 141.02 64.4799 144.49C64.4799 147.63 62.7798 150.55 60.0498 152.1C60.0198 152.14 59.9698 152.15 59.9098 152.15Z" fill="black"/>
<path d="M49.0101 190.23C49.0001 190.23 48.9801 190.23 48.9701 190.23C48.8001 190.21 48.6701 190.04 48.7001 189.87L51.9201 166.41L44.9101 148.58C44.8501 148.42 44.9301 148.23 45.0901 148.17C45.2501 148.11 45.4401 148.19 45.5001 148.35L52.5401 166.25C52.5601 166.3 52.5701 166.36 52.5601 166.41L49.3301 189.95C49.3101 190.12 49.1701 190.23 49.0101 190.23Z" fill="black"/>
<path d="M45.2 159.85C45.12 159.85 45.04 159.82 44.98 159.76L27.78 143.85C27.67 143.75 27.65 143.59 27.72 143.46L31.27 137.07L21.59 136.78C21.43 136.78 21.3 136.66 21.28 136.5L19.03 118.27C19.01 118.09 19.13 117.94 19.31 117.91C19.49 117.89 19.64 118.01 19.67 118.19L21.89 136.15L31.82 136.45C31.93 136.45 32.03 136.51 32.09 136.61C32.15 136.71 32.15 136.83 32.09 136.92L28.41 143.55L45.42 159.29C45.55 159.41 45.56 159.61 45.44 159.74C45.37 159.82 45.29 159.85 45.2 159.85Z" fill="#020202"/>
<path d="M50.71 159.15C50.69 159.15 50.68 159.15 50.66 159.15C50.49 159.12 50.37 158.96 50.4 158.78L53.57 139.07L46.96 135.93C46.85 135.88 46.78 135.76 46.78 135.64C46.78 135.51 46.86 135.4 46.97 135.35L53.53 132.52L48.88 117.53C48.83 117.36 48.92 117.18 49.09 117.13C49.26 117.08 49.44 117.17 49.49 117.34L54.22 132.6C54.27 132.76 54.19 132.92 54.04 132.99L47.86 135.66L54.05 138.6C54.18 138.66 54.25 138.8 54.23 138.94L51.02 158.88C51 159.04 50.87 159.15 50.71 159.15Z" fill="#020202"/>
<path d="M20.2901 166.38C20.1501 166.38 20.0201 166.28 19.9801 166.14L15.0701 146.76C15.0601 146.73 15.0601 146.71 15.0601 146.68C15.0601 146.54 15.1601 146.41 15.3001 146.37C15.4701 146.33 15.6401 146.43 15.6901 146.6L20.6001 165.98C20.6101 166.01 20.6101 166.03 20.6101 166.06C20.6101 166.2 20.5101 166.33 20.3701 166.37C20.3501 166.37 20.3201 166.38 20.2901 166.38Z" fill="black"/>
<path d="M10.9599 179.33C10.8999 179.33 10.8299 179.31 10.7699 179.27C10.6299 179.17 10.5899 178.97 10.6999 178.82L20.0299 165.86C20.1299 165.72 20.3299 165.68 20.4799 165.79C20.6199 165.89 20.6599 166.09 20.5499 166.24L11.2199 179.2C11.1599 179.29 11.0599 179.33 10.9599 179.33Z" fill="black"/>
<path d="M21.5399 196.45C16.8799 195.28 14.5799 192.14 12.7399 188.25C10.8999 184.35 9.90991 179.01 9.90991 179.01L14.6699 168.8L30.2799 179.76L68.4399 191.15L71.3099 211.34L21.5399 196.45Z" fill="black"/>
<path d="M24.9699 148.41L32.6599 177.93L80.2599 188.68L74.2699 209.47L23.6399 194.79C18.9799 193.62 15.4499 190.89 13.5699 185.7C9.76991 175.31 3.29991 154.78 1.40991 144.72C-0.690091 133.5 1.15991 125.38 10.5699 121.34C10.8199 121.23 14.9099 119.94 15.1699 119.85L24.9699 148.41Z" fill="white"/>
<path d="M74.2599 209.79C74.2299 209.79 74.1999 209.79 74.1699 209.78L23.5299 195.1C18.4199 193.81 15.0499 190.78 13.2399 185.82C9.48991 175.48 2.99991 154.93 1.09991 144.77C-0.030093 138.74 0.059907 133.99 1.37991 130.22C2.84991 126.03 5.80991 123.03 10.4499 121.04C10.7299 120.92 14.8999 119.6 15.0799 119.54C15.2499 119.49 15.4299 119.58 15.4799 119.75C15.5299 119.92 15.4399 120.1 15.2699 120.15C14.9299 120.25 10.9399 121.52 10.6999 121.62C2.18991 125.26 -0.580093 132.37 1.72991 144.64C3.62991 154.76 10.0999 175.27 13.8499 185.58C15.5799 190.33 18.7999 193.23 23.6999 194.47L74.0399 209.06L79.8499 188.9L32.5799 178.22C32.4599 178.19 32.3699 178.1 32.3399 177.99L24.6499 148.47C24.6099 148.3 24.7099 148.12 24.8799 148.08C25.0499 148.04 25.2299 148.14 25.2699 148.31L32.9099 177.64L80.3199 188.35C80.4099 188.37 80.4799 188.42 80.5199 188.5C80.5599 188.58 80.5799 188.67 80.5499 188.75L74.5599 209.54C74.5399 209.62 74.4799 209.69 74.4099 209.73C74.3699 209.77 74.3099 209.79 74.2599 209.79Z" fill="black"/>
<path d="M74.26 209.79C74.23 209.79 74.2 209.79 74.17 209.78L25.35 195.92C20.81 194.78 15.23 191.6 13.18 186.11C8.91001 174.65 1.93001 149.54 0.310006 139.8C-1.30999 130.1 4.68001 123.54 9.10001 121.49C12.19 120.06 19.35 118.9 19.66 118.85C19.83 118.82 20 118.94 20.03 119.11C20.06 119.28 19.94 119.45 19.77 119.48C19.7 119.49 12.39 120.68 9.38001 122.07C5.14001 124.03 -0.609994 130.34 0.950006 139.69C2.57001 149.41 9.53001 174.45 13.79 185.89C15.75 191.15 21.14 194.21 25.53 195.31L74.05 209.09L79.86 188.93L32.45 177.83C32.33 177.8 32.24 177.71 32.21 177.6L24.85 148.46C24.81 148.29 24.91 148.12 25.08 148.07C25.25 148.03 25.42 148.13 25.47 148.3L32.78 177.25L80.33 188.38C80.42 188.4 80.49 188.45 80.53 188.53C80.57 188.61 80.59 188.7 80.56 188.78L74.57 209.57C74.53 209.69 74.4 209.79 74.26 209.79Z" fill="black"/>
<path d="M19.3601 120.45C26.4238 120.45 32.1501 114.728 32.1501 107.67C32.1501 100.612 26.4238 94.89 19.3601 94.89C12.2963 94.89 6.57007 100.612 6.57007 107.67C6.57007 114.728 12.2963 120.45 19.3601 120.45Z" fill="black"/>
<path d="M29.2703 115.76L40.1603 124.1V99.75H29.2703V115.76Z" fill="#DFE3E8"/>
<path d="M40.1602 124.42C40.0902 124.42 40.0202 124.4 39.9702 124.35L29.0702 116.01C28.9902 115.95 28.9402 115.86 28.9402 115.76V99.75C28.9402 99.57 29.0802 99.43 29.2602 99.43H40.1602C40.3402 99.43 40.4802 99.57 40.4802 99.75V124.1C40.4802 124.22 40.4102 124.33 40.3002 124.39C40.2602 124.41 40.2102 124.42 40.1602 124.42ZM29.5902 115.6L39.8502 123.45V100.07H29.5902V115.6Z" fill="black"/>
<path d="M29.27 103.88V99.75H40.17V108.86C39.19 109.06 37.23 109.3 34.98 108.56C31.45 107.41 29.72 104.65 29.27 103.88Z" fill="black"/>
<path d="M28.6401 101.82L35.2101 95.72L43.9101 93.22L43.5201 91.29C42.2101 84.77 34.9301 81.4 29.1101 84.62C23.3101 87.83 22.2901 95.74 27.0701 100.32L28.6401 101.82Z" fill="black"/>
<path d="M36.1902 106.21C41.0282 106.21 44.9502 101.876 44.9502 96.53C44.9502 91.1839 41.0282 86.85 36.1902 86.85C31.3522 86.85 27.4302 91.1839 27.4302 96.53C27.4302 101.876 31.3522 106.21 36.1902 106.21Z" fill="#DFE3E8"/>
<path d="M36.1901 106.53C31.1801 106.53 27.1101 102.04 27.1101 96.53C27.1101 91.02 31.1801 86.53 36.1901 86.53C41.2001 86.53 45.2701 91.02 45.2701 96.53C45.2701 102.05 41.2001 106.53 36.1901 106.53ZM36.1901 87.17C31.5301 87.17 27.7501 91.37 27.7501 96.53C27.7501 101.69 31.5401 105.89 36.1901 105.89C40.8401 105.89 44.6301 101.69 44.6301 96.53C44.6301 91.37 40.8501 87.17 36.1901 87.17Z" fill="black"/>
<path d="M40.94 101.09C40 101.87 38.82 102.37 37.51 102.44C34.59 102.6 32.06 100.59 31.47 97.82L40.94 101.09Z" fill="white"/>
<path d="M47.75 93.9H31.48V85.66H39.51C44.06 85.67 47.75 89.35 47.75 93.9Z" fill="black"/>
<path d="M71.5359 88.9783C82.3731 86.9313 89.4948 76.4645 87.4427 65.6002C85.3906 54.7358 74.9417 47.588 64.1045 49.635C53.2672 51.682 46.1455 62.1487 48.1976 73.013C50.2498 83.8774 60.6987 91.0253 71.5359 88.9783Z" fill="black"/>
<path d="M69.8117 90.1513C80.6489 88.1021 87.7689 77.6336 85.7145 66.7692C83.6602 55.9049 73.2095 48.7588 62.3723 50.808C51.5351 52.8572 44.4151 63.3257 46.4695 74.1901C48.5238 85.0544 58.9745 92.2005 69.8117 90.1513Z" fill="#D8D3A0"/>
<path d="M73.2502 80.39L71.3702 78.27C69.8702 79.56 68.1202 80.48 66.8702 80.76L65.1902 77.54C66.5502 77.2 68.2302 76.47 69.6202 75.15C70.8402 73.99 71.2402 72.71 70.4502 71.82C69.7002 70.97 68.5302 71.08 66.4502 72.03C63.4402 73.4 60.8802 73.76 58.9602 71.59C57.2102 69.62 57.1802 66.82 59.0502 64.18L57.1702 62.06L59.2702 60.07L61.0202 62.04C62.5202 60.75 63.7602 60.15 64.7802 59.83L66.4002 62.94C65.6202 63.22 64.1802 63.64 62.6402 65.1C61.2502 66.42 61.3502 67.47 61.9102 68.1C62.5602 68.84 63.7302 68.6 66.1902 67.59C69.5702 66.11 71.7002 66.37 73.4802 68.38C75.2502 70.37 75.4002 73.35 73.3302 76.13L75.3502 78.41L73.2502 80.39Z" fill="white"/>
<path d="M25.7363 61.3949C36.5746 59.349 43.6981 48.8823 41.6471 38.0168C39.5961 27.1513 29.1472 20.0017 18.3088 22.0476C7.47052 24.0935 0.347011 34.5602 2.39804 45.4257C4.44906 56.2911 14.8979 63.4408 25.7363 61.3949Z" fill="black"/>
<path d="M24.0109 62.5608C34.8481 60.5116 41.9681 50.043 39.9137 39.1787C37.8594 28.3143 27.4087 21.1682 16.5715 23.2175C5.73428 25.2667 -1.38565 35.7352 0.66869 46.5995C2.72303 57.4639 13.1737 64.61 24.0109 62.5608Z" fill="white"/>
<path d="M20.2601 63.24C16.1801 63.24 12.2001 62 8.77005 59.63C-0.439948 53.26 -2.76995 40.56 3.58005 31.33C6.66005 26.86 11.2901 23.86 16.6201 22.88C21.9501 21.9 27.3501 23.06 31.8101 26.15C41.0201 32.52 43.35 45.22 37 54.45C33.9201 58.92 29.2901 61.92 23.9601 62.9C22.7301 63.13 21.4901 63.24 20.2601 63.24ZM20.3101 23.18C19.1201 23.18 17.9201 23.29 16.7301 23.51C11.5701 24.46 7.08005 27.36 4.10005 31.69C-2.04995 40.63 0.210052 52.92 9.13005 59.1C13.4501 62.09 18.6801 63.21 23.8401 62.27C29.0001 61.32 33.4901 58.42 36.4701 54.09C42.6201 45.15 40.3601 32.86 31.4401 26.68C28.1201 24.38 24.2601 23.18 20.3101 23.18Z" fill="black"/>
<path d="M16.33 54.25L16.94 51.48C15.02 51.03 13.25 50.15 12.28 49.3L13.91 46.05C14.98 46.95 16.56 47.89 18.44 48.24C20.09 48.55 21.37 48.12 21.63 46.95C21.88 45.84 21.1 44.97 19.12 43.83C16.25 42.2 14.45 40.34 15.08 37.51C15.65 34.94 17.89 33.27 21.13 33.24L21.74 30.47L24.59 31L24.02 33.57C25.94 34.02 27.16 34.68 28.01 35.32L26.44 38.46C25.76 38 24.57 37.08 22.48 36.68C20.59 36.33 19.8 37.03 19.62 37.84C19.41 38.8 20.29 39.61 22.55 41C25.73 42.87 26.77 44.74 26.19 47.37C25.61 49.97 23.3 51.84 19.83 51.8L19.17 54.78L16.33 54.25Z" fill="#A1A76F"/>
<path d="M41.3658 29.754C49.4144 28.2363 54.7056 20.4637 53.1838 12.3933C51.662 4.32286 43.9036 -0.989172 35.8549 0.528506C27.8062 2.04618 22.5151 9.81886 24.0369 17.8893C25.5587 25.9597 33.3171 31.2717 41.3658 29.754Z" fill="black"/>
<path d="M40.0808 30.6237C48.1286 29.1027 53.4164 21.3281 51.8914 13.2585C50.3663 5.1889 42.6059 -0.11981 34.558 1.40114C26.5102 2.9221 21.2224 10.6968 22.7474 18.7663C24.2725 26.8359 32.0329 32.1446 40.0808 30.6237Z" fill="#E7905F"/>
<path d="M36.93 24.97L36.79 22.87C35.32 22.95 33.88 22.69 33.02 22.29L33.5 19.63C34.45 20.05 35.77 20.39 37.19 20.25C38.43 20.13 39.25 19.56 39.19 18.67C39.13 17.83 38.4 17.37 36.75 16.97C34.36 16.4 32.69 15.45 32.55 13.31C32.42 11.36 33.67 9.7 35.98 9L35.84 6.9L37.98 6.69L38.11 8.64C39.58 8.56 40.58 8.77 41.32 9.06L40.85 11.63C40.27 11.44 39.23 11.03 37.66 11.19C36.24 11.33 35.82 12 35.87 12.62C35.92 13.35 36.71 13.74 38.62 14.27C41.28 14.94 42.41 16.06 42.54 18.05C42.67 20.02 41.41 21.84 38.93 22.53L39.08 24.79L36.93 24.97Z" fill="white"/>
<path d="M247.14 65.5H205.17C205.01 65.5 204.87 65.38 204.85 65.22L201.45 38.38C201.44 38.29 201.47 38.2 201.53 38.13C201.59 38.06 201.68 38.02 201.77 38.02H258.46C258.57 38.02 258.67 38.07 258.73 38.16C258.79 38.25 258.8 38.36 258.76 38.46L247.43 65.3C247.38 65.42 247.27 65.5 247.14 65.5ZM205.45 64.86H246.93L257.98 38.66H202.13L205.45 64.86Z" fill="black"/>
<path d="M201.77 38.66C201.61 38.66 201.48 38.54 201.45 38.38L199.21 21.82H187.96C187.78 21.82 187.64 21.68 187.64 21.5C187.64 21.32 187.78 21.18 187.96 21.18H199.49C199.65 21.18 199.79 21.3 199.81 21.46L202.09 38.29C202.11 38.46 201.99 38.63 201.82 38.65C201.8 38.66 201.78 38.66 201.77 38.66Z" fill="black"/>
<path d="M208.71 81.15C205.79 81.15 203.41 78.87 203.41 76.06C203.41 73.25 205.79 70.97 208.71 70.97C211.63 70.97 214.01 73.25 214.01 76.06C214.01 78.87 211.63 81.15 208.71 81.15ZM208.71 71.62C206.14 71.62 204.05 73.62 204.05 76.07C204.05 78.52 206.14 80.52 208.71 80.52C211.28 80.52 213.37 78.52 213.37 76.07C213.37 73.61 211.28 71.62 208.71 71.62Z" fill="black"/>
<path d="M241.55 81.15C238.63 81.15 236.25 78.87 236.25 76.06C236.25 73.25 238.63 70.97 241.55 70.97C244.47 70.97 246.85 73.25 246.85 76.06C246.85 78.87 244.47 81.15 241.55 81.15ZM241.55 71.62C238.98 71.62 236.89 73.62 236.89 76.07C236.89 78.52 238.98 80.52 241.55 80.52C244.12 80.52 246.21 78.52 246.21 76.07C246.21 73.61 244.12 71.62 241.55 71.62Z" fill="black"/>
<path d="M226.3 65.5C226.29 65.5 226.29 65.5 226.28 65.5C226.1 65.49 225.97 65.34 225.98 65.16L227.81 38.32C227.82 38.14 227.97 38.01 228.15 38.02C228.33 38.03 228.46 38.18 228.45 38.36L226.62 65.2C226.6 65.37 226.46 65.5 226.3 65.5Z" fill="black"/>
<path d="M237.43 65.5C237.41 65.5 237.39 65.5 237.37 65.5C237.2 65.47 237.08 65.3 237.11 65.13L241.81 38.29C241.84 38.12 242 38 242.18 38.03C242.35 38.06 242.47 38.23 242.44 38.4L237.74 65.24C237.72 65.39 237.58 65.5 237.43 65.5Z" fill="black"/>
<path d="M215.02 65.5C214.85 65.5 214.71 65.37 214.7 65.2L213.37 38.36C213.36 38.18 213.5 38.03 213.67 38.03C213.85 38.02 214 38.16 214.01 38.33L215.34 65.17C215.35 65.35 215.21 65.5 215.04 65.5C215.03 65.5 215.03 65.5 215.02 65.5Z" fill="black"/>
<path d="M244.37 42.54C254.184 42.54 262.14 34.5796 262.14 24.76C262.14 14.9404 254.184 6.98001 244.37 6.98001C234.556 6.98001 226.6 14.9404 226.6 24.76C226.6 34.5796 234.556 42.54 244.37 42.54Z" fill="#A1A76F"/>
<path d="M229.77 17.73L246.16 39.76L260.7 17.74C259.74 15.52 258.35 13.53 256.62 11.89L245.83 28.23L235.08 13.78L229.77 17.73Z" fill="black"/>
<path d="M242.69 38.38L226.3 16.34L231.61 12.38L242.37 26.84L259.78 0.470001L265.31 4.12L242.69 38.38Z" fill="white"/>
<path d="M242.69 38.7C242.59 38.7 242.49 38.65 242.43 38.57L226.04 16.54C225.93 16.4 225.96 16.2 226.11 16.09L231.43 12.13C231.5 12.08 231.58 12.06 231.67 12.07C231.75 12.08 231.83 12.13 231.88 12.2L242.36 26.29L259.52 0.300008C259.57 0.230008 259.64 0.180008 259.72 0.160008C259.8 0.140008 259.89 0.160008 259.96 0.210008L265.49 3.87001C265.64 3.97001 265.68 4.17001 265.58 4.31001L242.96 38.56C242.9 38.64 242.8 38.69 242.69 38.7ZM226.74 16.41L242.67 37.82L264.86 4.21001L259.86 0.910008L242.62 27.01C242.56 27.1 242.47 27.15 242.36 27.15C242.24 27.16 242.16 27.1 242.09 27.02L231.53 12.82L226.74 16.41Z" fill="black"/>
</g>
<defs>
<clipPath id="clip0_1666_6378">
<rect width="265.63" height="265.72" fill="white"/>
</clipPath>
</defs>
</svg>
