<svg width="290" height="290" viewBox="0 0 290 290" fill="none" xmlns="http://www.w3.org/2000/svg">
<g clip-path="url(#clip0_1666_5667)">
<path d="M175.53 280.44C99.65 307.16 46.94 281.9 20.22 206.02C-6.49997 130.14 47.22 44.53 123.1 17.82C198.98 -8.88998 246.54 43.5 273.25 119.38C299.96 195.26 251.41 253.72 175.53 280.44Z" fill="#F3F9FE"/>
<path d="M70.4702 258.36H88.7102L85.8902 240.65H67.6602L70.4702 258.36Z" fill="#DFE3E8"/>
<path d="M88.7101 258.68H70.4701C70.3101 258.68 70.1701 258.56 70.1501 258.41L67.3301 240.7C67.3201 240.61 67.3401 240.51 67.4001 240.44C67.4601 240.37 67.5501 240.33 67.6501 240.33H85.8901C86.0501 240.33 86.1901 240.45 86.2101 240.6L89.0301 258.31C89.0401 258.4 89.0201 258.5 88.9601 258.57C88.9001 258.64 88.8101 258.68 88.7101 258.68ZM70.7501 258.03H88.3301L85.6101 240.97H68.0401L70.7501 258.03Z" fill="black"/>
<path d="M28.75 237.45L36.53 253.95L51.35 243.84L43.57 227.34L28.75 237.45Z" fill="#DFE3E8"/>
<path d="M36.5299 254.27C36.4999 254.27 36.4699 254.27 36.4399 254.26C36.3499 254.24 36.2699 254.17 36.2299 254.08L28.4499 237.58C28.3799 237.44 28.4299 237.26 28.5599 237.17L43.3799 227.07C43.4599 227.02 43.5599 227 43.6499 227.02C43.7399 227.05 43.8199 227.11 43.8599 227.2L51.6399 243.7C51.7099 243.84 51.6599 244.02 51.5299 244.11L36.7099 254.21C36.6599 254.25 36.5999 254.27 36.5299 254.27ZM29.1699 237.56L36.6699 253.46L50.9399 243.73L43.4399 227.83L29.1699 237.56Z" fill="black"/>
<path d="M64.3301 246.3L88.6201 245.73L76.1001 129.84L47.8301 128.8L64.3301 246.3Z" fill="black"/>
<path d="M92.55 128.8L116 177.77C120.38 186.92 117.66 197.89 109.51 203.93L49.23 248.65L35.03 228.99L88.11 185.81L60.66 128.8H92.55Z" fill="black"/>
<path d="M49.23 248.98C49.21 248.98 49.2 248.98 49.18 248.98C49.09 248.97 49.02 248.92 48.97 248.85L34.77 229.19C34.67 229.05 34.69 228.86 34.83 228.75L87.71 185.74L76.19 161.8C76.11 161.64 76.18 161.44 76.34 161.36C76.5 161.28 76.7 161.35 76.78 161.51L88.41 185.67C88.48 185.81 88.44 185.97 88.32 186.06L35.48 229.04L49.31 248.18L109.32 203.66C117.32 197.72 120.01 186.89 115.71 177.9L92.26 128.92C92.18 128.76 92.25 128.56 92.41 128.49C92.57 128.41 92.77 128.48 92.84 128.64L116.29 177.62C120.73 186.89 117.96 198.06 109.7 204.18L49.42 248.9C49.37 248.95 49.3 248.98 49.23 248.98Z" fill="white"/>
<path d="M110.96 270.27V266.67C110.96 263.98 109 261.71 106.36 261.33L98.9999 260.29C97.8299 260.12 96.7199 259.66 95.7699 258.95L94.0899 257.79C90.4499 255.27 89.5599 251.74 89.3499 251.36H65.3999L63.8599 270.04L110.96 270.27Z" fill="white"/>
<path d="M110.96 270.59L63.86 270.36C63.77 270.36 63.68 270.32 63.62 270.25C63.56 270.18 63.53 270.09 63.54 270L65.08 251.32C65.09 251.15 65.24 251.02 65.4 251.02H89.35C89.47 251.02 89.58 251.09 89.64 251.19C89.68 251.26 89.72 251.37 89.79 251.55C90.14 252.5 91.22 255.39 94.28 257.51L95.96 258.67C96.87 259.36 97.93 259.8 99.05 259.96L106.42 261.01C109.2 261.41 111.3 263.84 111.3 266.67V270.27C111.3 270.36 111.27 270.44 111.2 270.5C111.13 270.56 111.05 270.59 110.96 270.59ZM64.22 269.71L110.64 269.94V266.67C110.64 264.16 108.79 262.01 106.33 261.66L98.96 260.61C97.74 260.44 96.57 259.95 95.58 259.21L93.91 258.05C90.68 255.81 89.55 252.78 89.18 251.78C89.17 251.75 89.15 251.71 89.14 251.68H65.7L64.22 269.71Z" fill="black"/>
<path d="M63.74 269.9C63.08 269.9 62.55 270.44 62.55 271.1L62.53 276.04C62.53 276.76 63.11 277.34 63.82 277.34H110.95C112.07 277.34 112.98 276.42 112.98 275.29V271.94C112.98 270.81 112.07 269.89 110.95 269.89L63.74 269.9Z" fill="black"/>
<path d="M110.97 270.22C110.96 270.22 110.96 270.22 110.95 270.22C110.77 270.21 110.63 270.06 110.64 269.88L110.79 267.25C110.94 264.58 109.08 262.27 106.47 261.87L97.6201 260.52C97.5601 260.51 97.5001 260.54 97.4701 260.59L92.9101 267.59C92.8101 267.74 92.6101 267.78 92.4601 267.69C92.3101 267.59 92.2701 267.39 92.3601 267.24L96.9201 260.24C97.0901 259.98 97.4001 259.84 97.7101 259.88L106.56 261.23C109.51 261.68 111.61 264.29 111.44 267.29L111.29 269.92C111.29 270.09 111.14 270.22 110.97 270.22Z" fill="black"/>
<path d="M89.3601 261.53C89.2501 261.53 89.1401 261.47 89.0801 261.37C88.9901 261.21 89.0401 261.01 89.2001 260.92L94.0301 258.08C94.1901 257.99 94.3901 258.04 94.4801 258.2C94.5701 258.36 94.5201 258.56 94.3601 258.65L89.5301 261.49C89.4701 261.51 89.4101 261.53 89.3601 261.53Z" fill="black"/>
<path d="M72.8899 270.14C71.3599 263.89 66.9399 261.24 64.6599 260.26L63.7999 269.93C63.5299 269.92 72.8899 270.14 72.8899 270.14Z" fill="#020202"/>
<path d="M30.33 232.86L16.21 240.22L31.02 263.72C32.35 265.84 34.52 267.28 36.97 267.7L51.96 270.24C53.35 262.18 48.21 259.52 45.45 258.68C44.32 258.34 43.34 257.6 42.69 256.61L44.04 252.04L30.33 232.86Z" fill="white"/>
<path d="M51.96 270.57C51.94 270.57 51.92 270.57 51.91 270.57L36.92 268.03C34.38 267.6 32.12 266.09 30.74 263.9L15.93 240.4C15.88 240.32 15.87 240.23 15.89 240.14C15.91 240.05 15.97 239.98 16.05 239.94L30.17 232.58C30.31 232.5 30.49 232.55 30.59 232.68L44.3 251.86C44.36 251.94 44.38 252.05 44.35 252.14L43.04 256.56C43.65 257.43 44.53 258.07 45.53 258.37C48.04 259.13 53.73 261.82 52.27 270.29C52.25 270.46 52.11 270.57 51.96 270.57ZM16.67 240.35L31.29 263.55C32.57 265.58 34.66 266.98 37.02 267.38L51.68 269.87C52.82 262.44 48.22 259.87 45.34 259C44.14 258.64 43.1 257.85 42.4 256.8C42.35 256.72 42.33 256.62 42.36 256.53L43.66 252.11L30.21 233.29L16.67 240.35Z" fill="black"/>
<path d="M51.96 270.57C51.94 270.57 51.92 270.57 51.9 270.57C51.72 270.54 51.6 270.37 51.63 270.19C52.6 264.59 50.37 260.8 45.2 259.23C44.8 259.11 44.42 258.94 44.06 258.74C43.9 258.65 43.85 258.45 43.94 258.29C44.03 258.13 44.23 258.08 44.39 258.17C44.7 258.35 45.04 258.5 45.39 258.6C49.25 259.77 53.57 262.74 52.27 270.29C52.25 270.46 52.11 270.57 51.96 270.57Z" fill="black"/>
<path d="M51.96 270.24L36.97 267.7C34.51 267.28 32.35 265.84 31.02 263.72L16.21 240.22L16 239.89C15.54 239.2 14.63 238.98 13.9 239.38L11.21 241.06C10.38 241.51 10.12 242.58 10.63 243.37L26.8 268.38C28.73 271.37 31.82 273.41 35.32 274L50.85 276.64C51.69 276.78 52.5 276.21 52.64 275.36L53.21 272.04C53.37 271.19 52.8 270.39 51.96 270.24Z" fill="#020202"/>
<path d="M20.4699 246.98C22.5899 245.38 24.14 243 24.62 240.17C24.87 238.7 24.82 237.26 24.5 235.89L16.2 240.21L20.4699 246.98Z" fill="#020202"/>
<path d="M35.9 263.21C35.78 263.21 35.67 263.15 35.61 263.04C35.53 262.88 35.59 262.68 35.74 262.6L44.05 258.18C44.21 258.1 44.41 258.16 44.49 258.31C44.57 258.47 44.51 258.67 44.36 258.75L36.05 263.17C36 263.2 35.95 263.21 35.9 263.21Z" fill="black"/>
<path d="M34.8299 258.02C34.6799 258.02 34.5499 257.92 34.5099 257.77C34.4699 257.59 34.5799 257.42 34.7499 257.38L39.4599 256.27C39.6299 256.23 39.8099 256.34 39.8499 256.51C39.8899 256.69 39.7799 256.86 39.6099 256.9L34.8999 258.01C34.8799 258.01 34.8499 258.02 34.8299 258.02Z" fill="black"/>
<path d="M118.55 86.73L108.65 117.88C107.01 123.03 102.52 126.53 97.4201 127.23L99.1501 134.56H40.8301L58.7001 78.27H77.4901C82.4001 78.27 87.0001 80.65 89.7701 84.63L91.9001 98.33L97.6301 80.3L118.55 86.73Z" fill="white"/>
<path d="M99.1601 134.88H40.8301C40.7301 134.88 40.6301 134.83 40.5701 134.75C40.5101 134.67 40.4901 134.56 40.5201 134.46L58.3901 78.18C58.4301 78.04 58.5601 77.95 58.7001 77.95H77.4901C82.5101 77.95 87.2001 80.38 90.0401 84.44C90.0701 84.48 90.0901 84.53 90.0901 84.58L92.0101 96.91L97.3201 80.21C97.3701 80.04 97.5601 79.95 97.7301 80L118.65 86.43C118.73 86.46 118.8 86.51 118.84 86.59C118.88 86.67 118.89 86.76 118.86 86.84L108.96 117.99C107.38 122.96 103.03 126.67 97.8201 127.51L99.4701 134.49C99.4901 134.59 99.4701 134.69 99.4101 134.77C99.3601 134.83 99.2601 134.88 99.1601 134.88ZM41.2701 134.22H98.7501L97.1101 127.29C97.0901 127.2 97.1101 127.11 97.1601 127.03C97.2101 126.95 97.2901 126.9 97.3901 126.89C102.51 126.2 106.81 122.62 108.35 117.77L118.15 86.93L97.8501 80.69L92.2201 98.41C92.1701 98.55 92.0401 98.65 91.8801 98.64C91.7301 98.63 91.6101 98.51 91.5801 98.37L89.4601 84.75C86.7401 80.89 82.2701 78.6 77.4901 78.6H58.9401L41.2701 134.22Z" fill="black"/>
<path d="M97.4 127.32C97.25 127.32 97.12 127.22 97.08 127.07L88.85 92.67C88.81 92.49 88.92 92.32 89.09 92.28C89.27 92.24 89.44 92.35 89.48 92.52L97.71 126.92C97.75 127.1 97.64 127.27 97.47 127.31C97.45 127.32 97.43 127.32 97.4 127.32Z" fill="black"/>
<path d="M104.34 71.22L93.8701 74.64L97.9401 70.13L100.58 69.22C102.06 68.71 103.68 69.46 104.22 70.9L104.34 71.22Z" fill="#DFE3E8"/>
<path d="M113.96 91.92L102.41 94.67C101.15 94.97 99.9302 94.03 99.9302 92.75V59.25C99.9302 58.33 100.57 57.53 101.48 57.32L113.03 54.57C114.29 54.27 115.51 55.21 115.51 56.49V89.98C115.51 90.9 114.87 91.7 113.96 91.92Z" fill="black"/>
<path d="M108.08 87.87L98.0301 94.06L85.6501 85.82L91.4101 75.77C92.9601 73.07 95.4501 71.01 98.4301 69.97L99.9301 69.45L99.9401 72.58L108.08 87.87Z" fill="#DFE3E8"/>
<path d="M109.07 73.8L97.0301 77.97L95.6301 74.06L107.67 69.89C108.72 69.52 109.88 70.07 110.25 71.11L110.31 71.27C110.67 72.3 110.12 73.44 109.07 73.8Z" fill="#DFE3E8"/>
<path d="M112.28 77.09L99.8302 82.06L97.9802 77.33L110.87 73.18C111.93 72.81 113.09 73.36 113.47 74.4L113.52 74.54C113.9 75.58 113.34 76.72 112.28 77.09Z" fill="#DFE3E8"/>
<path d="M115.07 84.92L102.6 89.24L101.2 85.33L113.66 81C114.73 80.63 115.9 81.18 116.28 82.23L116.32 82.33C116.7 83.39 116.14 84.55 115.07 84.92Z" fill="#DFE3E8"/>
<path d="M108.02 90.64L98.1302 94.03L96.7202 90.1L113.47 84.34L111.52 87.76C110.74 89.1 109.5 90.13 108.02 90.64Z" fill="#DFE3E8"/>
<path d="M113.96 78.58L114.04 78.79C114.41 79.81 113.71 80.98 112.49 81.41L100.48 86.11L98.6401 81.32L111.09 77.5C112.3 77.08 113.59 77.56 113.96 78.58Z" fill="#DFE3E8"/>
<path d="M98.9402 93.54L84.9802 104.36L78.9802 89.69L93.4902 78.34L98.9402 93.54Z" fill="#DFE3E8"/>
<path d="M108 78.89C107.86 78.89 107.74 78.81 107.69 78.67C107.63 78.5 107.72 78.31 107.89 78.26L112.17 76.78C112.6 76.63 112.95 76.32 113.15 75.91C113.34 75.51 113.36 75.06 113.22 74.64L113.17 74.5C112.86 73.63 111.88 73.17 110.99 73.48L106.13 75.16C105.96 75.22 105.77 75.13 105.72 74.96C105.66 74.79 105.75 74.6 105.92 74.55L110.78 72.87C112.01 72.44 113.36 73.08 113.79 74.29L113.84 74.43C114.05 75.01 114.02 75.64 113.75 76.2C113.48 76.77 113 77.19 112.4 77.4L108.12 78.88C108.07 78.89 108.04 78.89 108 78.89Z" fill="black"/>
<path d="M108.78 83.02C108.64 83.02 108.52 82.94 108.47 82.8C108.41 82.63 108.5 82.44 108.67 82.39L112.71 80.99C113.13 80.84 113.47 80.54 113.66 80.14C113.85 79.75 113.87 79.31 113.72 78.9L113.64 78.69C113.33 77.84 112.38 77.39 111.51 77.69L107.61 79.04C107.44 79.1 107.25 79.01 107.2 78.84C107.14 78.67 107.23 78.48 107.4 78.43L111.3 77.08C112.5 76.66 113.83 77.29 114.26 78.48L114.34 78.69C114.54 79.26 114.51 79.88 114.25 80.43C113.98 80.99 113.51 81.41 112.92 81.61L108.88 83.01C108.85 83.02 108.81 83.02 108.78 83.02Z" fill="black"/>
<path d="M105.16 75.48C105.02 75.48 104.9 75.4 104.85 75.26C104.79 75.09 104.88 74.9 105.05 74.85L108.96 73.5C109.39 73.35 109.74 73.04 109.93 72.64C110.12 72.24 110.14 71.8 109.99 71.38L109.93 71.22C109.62 70.35 108.65 69.9 107.76 70.2L96.8302 73.99C96.6602 74.05 96.4702 73.96 96.4202 73.79C96.3602 73.62 96.4502 73.43 96.6202 73.38L107.55 69.59C108.77 69.17 110.11 69.8 110.54 71L110.6 71.16C110.81 71.74 110.78 72.36 110.51 72.92C110.24 73.48 109.76 73.91 109.16 74.12L105.25 75.47C105.23 75.48 105.19 75.48 105.16 75.48Z" fill="black"/>
<path d="M84.9802 104.68C84.9502 104.68 84.9202 104.68 84.9002 104.67C84.8002 104.64 84.7202 104.57 84.6802 104.48L78.6902 89.81C78.6302 89.67 78.6802 89.52 78.7902 89.43L86.7902 83.17L91.1302 75.59C92.5602 73.09 94.8202 71.09 97.5002 69.97C97.6702 69.9 97.8602 69.98 97.9302 70.14C98.0002 70.31 97.9202 70.5 97.7602 70.57C95.2102 71.64 93.0602 73.54 91.7002 75.92L87.3302 83.55C87.3102 83.59 87.2802 83.62 87.2502 83.64L79.3902 89.79L85.1302 103.83L98.2002 93.7C98.2302 93.68 98.2602 93.66 98.2902 93.65L107.92 90.33C109.33 89.84 110.5 88.87 111.23 87.59L112.34 85.64C112.38 85.57 112.44 85.52 112.51 85.5L114.95 84.61C115.39 84.46 115.75 84.14 115.94 83.73C116.13 83.33 116.16 82.87 116.01 82.45L115.97 82.35C115.65 81.47 114.66 81 113.76 81.31L108.25 83.22C108.08 83.28 107.89 83.19 107.84 83.02C107.78 82.85 107.87 82.66 108.04 82.61L113.55 80.7C114.79 80.27 116.15 80.91 116.58 82.13L116.62 82.23C116.83 82.82 116.8 83.45 116.53 84.01C116.26 84.58 115.77 85.01 115.17 85.22L112.85 86.07L111.79 87.92C110.98 89.33 109.68 90.41 108.13 90.95L98.5502 94.26L85.1802 104.62C85.1202 104.66 85.0502 104.68 84.9802 104.68Z" fill="black"/>
<path d="M89.1601 102.75L78.6701 88.04L53.5001 106.34L59.2101 78.31L51.8301 78.42C45.4701 78.42 39.9701 82.8 38.6501 88.92L31.7701 120.84C30.4701 126.89 35.1601 132.58 41.4501 132.58H42.5101C45.9801 132.58 49.3501 131.49 52.1501 129.47L89.1601 102.75Z" fill="white"/>
<path d="M42.5101 132.92H41.4501C38.3601 132.92 35.4601 131.53 33.5101 129.11C31.5601 126.7 30.8201 123.61 31.4601 120.62L38.3401 88.7C39.6801 82.47 45.3601 77.94 51.8401 77.94H59.2201C59.4001 77.94 59.5501 78.09 59.5501 78.27C59.5501 78.45 59.4001 78.6 59.2201 78.6H51.8401C45.6701 78.6 40.2601 82.91 38.9801 88.84L32.1001 120.76C31.5001 123.55 32.2001 126.45 34.0201 128.7C35.8501 130.97 38.5601 132.27 41.4501 132.27H42.5101C45.7501 132.27 49.1101 131.13 51.9701 129.07L88.7201 102.53L78.6001 88.34L49.3501 109.74C49.2001 109.85 49.0001 109.81 48.8901 109.67C48.7801 109.52 48.8201 109.32 48.9601 109.21L78.4701 87.62C78.5401 87.57 78.6301 87.55 78.7101 87.56C78.8001 87.57 78.8701 87.62 78.9201 87.69L89.4101 102.41C89.5101 102.56 89.4801 102.76 89.3401 102.86L52.3401 129.6C49.3701 131.74 45.8801 132.92 42.5101 132.92Z" fill="black"/>
<path d="M53.5101 106.51C53.4901 106.51 53.4601 106.51 53.4401 106.5C53.2601 106.46 53.1501 106.29 53.1901 106.11L56.9101 88.82C56.9501 88.64 57.1201 88.53 57.3001 88.57C57.4801 88.61 57.5901 88.78 57.5501 88.96L53.8301 106.25C53.8001 106.41 53.6601 106.51 53.5101 106.51Z" fill="black"/>
<path d="M80.6502 88.27L92.8102 98.29L88.4602 101.7L79.5002 89.01L80.6502 88.27Z" fill="#020202"/>
<path d="M112.74 59.02C112.15 58.15 112.39 56.97 113.28 56.39L115.58 54.89C116.47 54.31 117.67 54.55 118.26 55.42C118.85 56.29 118.61 57.47 117.72 58.05L115.42 59.55C114.53 60.13 113.33 59.89 112.74 59.02Z" fill="#DFE3E8"/>
<path d="M114.36 60.19C113.63 60.19 112.91 59.84 112.47 59.2C112.14 58.71 112.02 58.11 112.14 57.53C112.26 56.94 112.6 56.44 113.11 56.11L115.41 54.61C116.45 53.93 117.85 54.21 118.54 55.24C118.87 55.73 118.99 56.33 118.87 56.91C118.75 57.5 118.41 58 117.9 58.33L115.6 59.83C115.22 60.07 114.79 60.19 114.36 60.19ZM113.01 58.84C113.5 59.57 114.5 59.77 115.24 59.28L117.54 57.78C117.9 57.55 118.14 57.19 118.23 56.78C118.31 56.37 118.23 55.95 117.99 55.61C117.5 54.88 116.5 54.68 115.76 55.17L113.46 56.67C113.1 56.9 112.86 57.26 112.77 57.67C112.7 58.07 112.78 58.49 113.01 58.84Z" fill="black"/>
<path d="M113.5 63.09C112.91 62.22 113.15 61.04 114.04 60.46L116.34 58.96C117.23 58.38 118.43 58.62 119.02 59.49C119.61 60.36 119.37 61.54 118.48 62.12L116.18 63.62C115.29 64.21 114.09 63.97 113.5 63.09Z" fill="#DFE3E8"/>
<path d="M115.11 64.27C114.38 64.27 113.66 63.92 113.22 63.28C112.89 62.79 112.77 62.19 112.89 61.61C113.01 61.02 113.35 60.52 113.86 60.19L116.16 58.69C117.2 58.01 118.6 58.3 119.29 59.32C119.62 59.81 119.74 60.41 119.62 60.99C119.5 61.58 119.16 62.08 118.65 62.41L116.35 63.91C115.97 64.15 115.54 64.27 115.11 64.27ZM117.41 58.97C117.1 58.97 116.8 59.06 116.52 59.23L114.22 60.73C113.86 60.96 113.62 61.32 113.53 61.73C113.45 62.14 113.53 62.56 113.77 62.9C114.26 63.63 115.26 63.83 116 63.34L118.3 61.84C118.66 61.61 118.9 61.25 118.99 60.84C119.07 60.43 118.99 60.01 118.75 59.67C118.44 59.22 117.93 58.97 117.41 58.97Z" fill="black"/>
<path d="M113.87 67.54C113.28 66.67 113.52 65.49 114.41 64.91L116.71 63.41C117.6 62.83 118.8 63.07 119.39 63.94C119.98 64.81 119.74 65.99 118.85 66.57L116.55 68.07C115.66 68.65 114.46 68.41 113.87 67.54Z" fill="#DFE3E8"/>
<path d="M115.49 68.71C114.76 68.71 114.04 68.36 113.6 67.72C113.27 67.23 113.15 66.63 113.27 66.05C113.39 65.46 113.73 64.96 114.24 64.63L116.54 63.13C117.58 62.45 118.98 62.73 119.67 63.76C120 64.25 120.12 64.85 120 65.43C119.88 66.02 119.54 66.52 119.03 66.85L116.73 68.35C116.35 68.59 115.92 68.71 115.49 68.71ZM117.78 63.41C117.47 63.41 117.17 63.5 116.89 63.67L114.59 65.17C114.23 65.4 113.99 65.76 113.9 66.17C113.82 66.58 113.9 67 114.14 67.34C114.63 68.07 115.63 68.27 116.37 67.78L118.67 66.28C119.03 66.05 119.27 65.69 119.36 65.28C119.44 64.87 119.36 64.45 119.12 64.11C118.82 63.66 118.31 63.41 117.78 63.41Z" fill="black"/>
<path d="M64.22 71.36V68.05H72.94V75.36C72.15 75.52 70.58 75.71 68.78 75.12C65.96 74.18 64.58 71.98 64.22 71.36Z" fill="black"/>
<path d="M62.7499 65.66L69.7199 63.94L76.7799 65.57L77.2599 64.06C78.8799 58.98 82.5599 53.79 77.2399 53.79H69.7599C64.4599 53.79 60.6699 58.94 62.2399 64.01L62.7499 65.66Z" fill="black"/>
<path d="M76.52 78.49C76.52 82.23 73.49 85.26 69.76 85.26C65.63 85.26 62.23 82.23 62.23 78.49C62.23 78.41 62.23 78.25 62.23 78.25L64.22 78.26V68.04H72.94V78.27L76.52 78.28C76.51 78.28 76.52 78.42 76.52 78.49Z" fill="#DFE3E8"/>
<path d="M69.7599 85.58C65.4299 85.58 61.8999 82.4 61.8999 78.48C61.8999 78.4 61.8999 78.23 61.8999 78.23C61.8999 78.05 62.0499 77.91 62.2299 77.91L63.8899 77.92V68.04C63.8899 67.86 64.0399 67.71 64.2199 67.71H72.9399C73.1199 67.71 73.2699 67.86 73.2699 68.04V77.94L76.5199 77.95C76.6999 77.95 76.8399 78.09 76.8399 78.27C76.8399 78.27 76.8399 78.41 76.8399 78.48C76.8399 82.39 73.6599 85.58 69.7599 85.58ZM62.5599 78.57C62.6099 82.08 65.8199 84.93 69.7599 84.93C73.2699 84.93 76.1299 82.1 76.1899 78.61L72.9399 78.6C72.7599 78.6 72.6099 78.45 72.6099 78.27V68.37H64.5499V78.25C64.5499 78.34 64.5199 78.42 64.4499 78.48C64.3899 78.54 64.3099 78.58 64.2199 78.58L62.5599 78.57Z" fill="black"/>
<path d="M69.76 73.23C73.6315 73.23 76.77 69.7557 76.77 65.47C76.77 61.1843 73.6315 57.71 69.76 57.71C65.8885 57.71 62.75 61.1843 62.75 65.47C62.75 69.7557 65.8885 73.23 69.76 73.23Z" fill="#DFE3E8"/>
<path d="M69.7599 73.56C65.7099 73.56 62.4199 69.93 62.4199 65.47C62.4199 61.01 65.7099 57.38 69.7599 57.38C73.8099 57.38 77.0999 61 77.0999 65.47C77.0999 69.94 73.7999 73.56 69.7599 73.56ZM69.7599 58.03C66.0699 58.03 63.0699 61.37 63.0699 65.47C63.0699 69.57 66.0699 72.91 69.7599 72.91C73.4499 72.91 76.4499 69.57 76.4499 65.47C76.4399 61.36 73.4499 58.03 69.7599 58.03Z" fill="black"/>
<path d="M66.71 68.87C67.39 69.49 68.26 69.91 69.25 70.01C71.45 70.23 73.42 68.81 73.97 66.73L66.71 68.87Z" fill="white"/>
<path d="M246.48 179.73H218.92C200.11 179.73 184.87 164.48 184.87 145.68V41.32C184.87 22.51 200.12 7.26999 218.92 7.26999H246.48C265.29 7.26999 280.53 22.52 280.53 41.32V145.68C280.54 164.48 265.29 179.73 246.48 179.73Z" fill="#020202"/>
<path d="M241.89 179.73H214.33C195.52 179.73 180.28 164.48 180.28 145.68V41.32C180.28 22.51 195.53 7.26999 214.33 7.26999H241.89C260.7 7.26999 275.94 22.52 275.94 41.32V145.68C275.94 164.48 260.7 179.73 241.89 179.73Z" fill="white"/>
<path d="M264.84 180.06H191.38C185.08 180.06 179.95 174.93 179.95 168.63V18.37C179.95 12.07 185.08 6.94 191.38 6.94H264.84C271.14 6.94 276.27 12.07 276.27 18.37V168.63C276.27 174.93 271.14 180.06 264.84 180.06ZM191.38 7.59C185.44 7.59 180.6 12.42 180.6 18.37V168.63C180.6 174.57 185.43 179.41 191.38 179.41H264.84C270.78 179.41 275.62 174.58 275.62 168.63V18.37C275.62 12.43 270.79 7.59 264.84 7.59H191.38Z" fill="black"/>
<path d="M270.96 18.96H185.25V170.75H270.96V18.96Z" fill="black"/>
<path d="M238.29 52.09C235.14 50.34 231.5 49.33 227.57 49.33C223.64 49.33 220 50.34 216.85 52.09C206.48 57.87 202.97 71.14 208.69 81.54L227.56 115.84L246.43 81.54C252.17 71.14 248.66 57.87 238.29 52.09Z" fill="white"/>
<path d="M227.57 116.16C227.45 116.16 227.34 116.1 227.28 115.99L208.41 81.69C202.54 71.02 206.26 57.61 216.69 51.8C219.98 49.97 223.74 49 227.57 49C231.39 49 235.15 49.97 238.45 51.8C248.89 57.62 252.6 71.03 246.73 81.69L227.86 115.99C227.8 116.1 227.69 116.16 227.57 116.16ZM227.57 49.65C223.86 49.65 220.21 50.59 217.01 52.37C206.88 58.01 203.28 71.02 208.98 81.38L227.57 115.16L246.16 81.38C251.86 71.03 248.26 58.01 238.13 52.37C234.94 50.59 231.29 49.65 227.57 49.65Z" fill="black"/>
<path d="M253.66 277.87H245.61C239.73 277.87 234.95 273.09 234.95 267.21V245.98C234.95 245.8 235.1 245.65 235.28 245.65H264C264.18 245.65 264.33 245.8 264.33 245.98V267.21C264.32 273.08 259.54 277.87 253.66 277.87ZM235.59 246.3V267.2C235.59 272.72 240.08 277.21 245.6 277.21H253.65C259.17 277.21 263.66 272.72 263.66 267.2V246.3H235.59Z" fill="black"/>
<path d="M249.63 277.87C249.45 277.87 249.3 277.72 249.3 277.54V243.49C249.3 243.31 249.45 243.16 249.63 243.16C249.81 243.16 249.96 243.31 249.96 243.49V277.54C249.96 277.72 249.81 277.87 249.63 277.87Z" fill="black"/>
<path d="M249.63 267.48C249.57 267.48 249.52 267.46 249.46 267.43L235.1 258.94C234.94 258.85 234.89 258.65 234.99 258.49C235.08 258.33 235.28 258.28 235.44 258.38L249.64 266.77L263.84 258.38C263.99 258.29 264.19 258.34 264.29 258.49C264.38 258.65 264.33 258.85 264.18 258.94L249.82 267.43C249.75 267.47 249.69 267.48 249.63 267.48Z" fill="black"/>
<path d="M249.63 275.12C249.57 275.12 249.52 275.1 249.46 275.07L235.1 266.58C234.94 266.49 234.89 266.29 234.99 266.13C235.08 265.97 235.28 265.92 235.44 266.02L249.64 274.41L263.84 266.02C263.99 265.93 264.19 265.98 264.29 266.13C264.38 266.29 264.33 266.49 264.18 266.58L249.82 275.07C249.75 275.1 249.69 275.12 249.63 275.12Z" fill="black"/>
<path d="M249.63 259.85C249.57 259.85 249.52 259.83 249.46 259.8L235.43 251.51C235.27 251.42 235.22 251.22 235.32 251.06C235.41 250.9 235.61 250.85 235.77 250.95L249.64 259.15L263.27 251.1C263.43 251.01 263.63 251.06 263.72 251.21C263.81 251.37 263.76 251.57 263.61 251.66L249.82 259.81C249.75 259.83 249.69 259.85 249.63 259.85Z" fill="black"/>
<path d="M130.98 277.54C123.05 277.54 116.62 271.11 116.62 263.18V245.98H145.35V263.18C145.34 271.11 138.91 277.54 130.98 277.54Z" fill="white"/>
<path d="M135 277.87H126.95C121.07 277.87 116.29 273.09 116.29 267.21V245.98C116.29 245.8 116.44 245.65 116.62 245.65H145.35C145.53 245.65 145.68 245.8 145.68 245.98V267.21C145.67 273.08 140.88 277.87 135 277.87ZM116.94 246.3V267.2C116.94 272.72 121.43 277.21 126.95 277.21H135C140.52 277.21 145.01 272.72 145.01 267.2V246.3H116.94Z" fill="black"/>
<path d="M130.98 277.87C130.8 277.87 130.65 277.72 130.65 277.54V243.49C130.65 243.31 130.8 243.16 130.98 243.16C131.16 243.16 131.31 243.31 131.31 243.49V277.54C131.3 277.72 131.16 277.87 130.98 277.87Z" fill="black"/>
<path d="M130.98 267.48C130.92 267.48 130.87 267.46 130.81 267.43L116.45 258.94C116.29 258.85 116.24 258.65 116.34 258.49C116.43 258.33 116.63 258.28 116.79 258.38L130.99 266.77L145.19 258.38C145.34 258.29 145.54 258.34 145.64 258.49C145.73 258.65 145.68 258.85 145.53 258.94L131.17 267.43C131.09 267.47 131.03 267.48 130.98 267.48Z" fill="black"/>
<path d="M130.98 275.12C130.92 275.12 130.87 275.1 130.81 275.07L116.45 266.58C116.29 266.49 116.24 266.29 116.34 266.13C116.43 265.97 116.63 265.92 116.79 266.02L130.99 274.41L145.19 266.02C145.34 265.93 145.54 265.98 145.64 266.13C145.73 266.29 145.68 266.49 145.53 266.58L131.17 275.07C131.09 275.1 131.03 275.12 130.98 275.12Z" fill="black"/>
<path d="M130.98 259.85C130.92 259.85 130.87 259.83 130.81 259.8L116.78 251.51C116.62 251.42 116.57 251.22 116.67 251.06C116.76 250.9 116.96 250.85 117.12 250.95L130.99 259.15L144.62 251.1C144.77 251.01 144.97 251.06 145.07 251.21C145.16 251.37 145.11 251.57 144.96 251.66L131.17 259.81C131.09 259.83 131.03 259.85 130.98 259.85Z" fill="black"/>
<path d="M276.46 169.32L267.28 167.3C264.36 166.66 261.49 168.55 260.92 171.49L259.67 178.04L253.04 179.89L253.87 182.85L259.03 181.41L259.02 181.47H275.33C278.26 181.47 280.64 179.09 280.64 176.16V174.5C280.63 172.01 278.9 169.85 276.46 169.32Z" fill="#A1A76F"/>
<path d="M253.87 183.17C253.81 183.17 253.76 183.16 253.71 183.13C253.63 183.09 253.58 183.02 253.56 182.93L252.73 179.97C252.68 179.8 252.78 179.62 252.96 179.57L259.4 177.77L260.62 171.42C260.91 169.91 261.77 168.62 263.05 167.77C264.33 166.93 265.86 166.64 267.36 166.97L276.54 168.99C279.1 169.55 280.96 171.87 280.96 174.49V176.15C280.96 179.26 278.43 181.78 275.33 181.78H259.02C258.98 181.78 258.95 181.77 258.92 181.76L253.96 183.14C253.93 183.17 253.9 183.17 253.87 183.17ZM253.44 180.11L254.09 182.44L258.94 181.09C259.04 181.06 259.14 181.08 259.22 181.14H275.32C278.07 181.14 280.3 178.9 280.3 176.16V174.5C280.3 172.18 278.65 170.13 276.39 169.63L267.21 167.61C265.88 167.32 264.53 167.57 263.4 168.32C262.27 169.07 261.5 170.21 261.25 171.54L260 178.09C259.98 178.21 259.89 178.31 259.77 178.34L253.44 180.11Z" fill="black"/>
<path d="M104.48 169.32L113.66 167.3C116.58 166.66 119.45 168.55 120.02 171.49L121.27 178.04L127.9 179.89L127.07 182.85L121.91 181.41L121.92 181.47H105.61C102.68 181.47 100.3 179.09 100.3 176.16V174.5C100.32 172.01 102.05 169.85 104.48 169.32Z" fill="#A1A76F"/>
<path d="M127.08 183.17C127.05 183.17 127.02 183.17 126.99 183.16L122.03 181.78C122 181.79 121.96 181.8 121.93 181.8H105.62C102.51 181.8 99.99 179.27 99.99 176.17V174.51C99.99 171.89 101.85 169.57 104.41 169.01L113.59 166.99C115.09 166.66 116.62 166.94 117.9 167.79C119.18 168.63 120.05 169.93 120.33 171.44L121.55 177.79L127.99 179.59C128.07 179.61 128.14 179.67 128.19 179.74C128.23 179.82 128.24 179.9 128.22 179.99L127.39 182.95C127.35 183.08 127.22 183.17 127.08 183.17ZM121.92 181.08C121.95 181.08 121.98 181.08 122.01 181.09L126.86 182.44L127.51 180.11L121.19 178.34C121.07 178.31 120.98 178.21 120.96 178.09L119.71 171.54C119.45 170.21 118.69 169.06 117.56 168.32C116.43 167.57 115.07 167.32 113.75 167.61L104.57 169.63C102.3 170.13 100.66 172.18 100.66 174.5V176.16C100.66 178.91 102.9 181.14 105.64 181.14H121.74C121.78 181.1 121.85 181.08 121.92 181.08Z" fill="black"/>
<path d="M254.81 182.25H126.47L138.31 156.28C141.83 148.56 149.54 143.6 158.03 143.6H223.25C231.74 143.6 239.44 148.56 242.96 156.28L254.81 182.25Z" fill="#A1A76F"/>
<path d="M248.3 182.64H132.98L143.62 159.3C146.78 152.36 153.71 147.91 161.34 147.91H219.95C227.58 147.91 234.5 152.36 237.67 159.3L248.3 182.64Z" fill="black"/>
<path d="M266.87 250.43H114.73V209.85C114.73 199.43 118.97 189.47 126.48 182.25H255.12C262.63 189.47 266.87 199.44 266.87 209.85V250.43Z" fill="#A1A76F"/>
<path d="M266.87 250.75H114.73C114.55 250.75 114.4 250.6 114.4 250.42V209.84C114.4 199.39 118.72 189.25 126.25 182C126.31 181.94 126.39 181.91 126.48 181.91H255.12C255.2 181.91 255.29 181.94 255.35 182C262.88 189.24 267.2 199.39 267.2 209.84V250.42C267.19 250.61 267.05 250.75 266.87 250.75ZM115.05 250.1H266.54V209.85C266.54 199.62 262.33 189.69 254.99 182.57H126.61C119.27 189.68 115.06 199.62 115.06 209.85V250.1H115.05Z" fill="black"/>
<path d="M266.87 250.43H114.73V228.36L156.95 228.08L157.21 234.24H224.51V228.3L266.87 228.36V250.43Z" fill="white"/>
<path d="M266.87 250.75H114.73C114.55 250.75 114.4 250.6 114.4 250.42V228.35C114.4 228.17 114.54 228.03 114.72 228.02L156.95 227.73C157.12 227.73 157.27 227.87 157.28 228.04L157.52 233.89H224.18V228.28C224.18 228.19 224.21 228.11 224.28 228.05C224.34 227.99 224.42 227.95 224.51 227.95L266.87 228.01C267.05 228.01 267.2 228.16 267.2 228.34V250.41C267.19 250.61 267.05 250.75 266.87 250.75ZM115.05 250.1H266.54V228.69L224.83 228.63V234.24C224.83 234.42 224.68 234.57 224.5 234.57H157.2C157.03 234.57 156.88 234.43 156.87 234.26L156.63 228.41L115.04 228.69V250.1H115.05Z" fill="black"/>
<path d="M217.68 228.3H164.48V240.17H217.68V228.3Z" fill="#E7905F"/>
<path d="M217.68 240.5H164.48C164.3 240.5 164.15 240.35 164.15 240.17V228.3C164.15 228.12 164.3 227.97 164.48 227.97H217.68C217.86 227.97 218.01 228.12 218.01 228.3V240.16C218.01 240.35 217.86 240.5 217.68 240.5ZM164.81 239.84H217.36V228.63H164.81V239.84Z" fill="black"/>
<path d="M217.68 219.61H164.48L154.5 207.74H227.67L217.68 219.61Z" fill="white"/>
<path d="M217.68 219.94H164.48C164.38 219.94 164.29 219.9 164.23 219.82L154.24 207.95C154.16 207.85 154.14 207.72 154.19 207.6C154.24 207.49 154.36 207.41 154.49 207.41H227.66C227.79 207.41 227.9 207.48 227.96 207.6C228.01 207.71 228 207.85 227.91 207.95L217.92 219.82C217.87 219.89 217.78 219.94 217.68 219.94ZM164.63 219.28H217.53L226.97 208.07H155.2L164.63 219.28Z" fill="black"/>
<path d="M149.17 216.09H122C122 203.13 131.76 195.78 138.52 203.67L149.17 216.09Z" fill="white"/>
<path d="M149.17 216.42H122C121.82 216.42 121.67 216.27 121.67 216.09C121.67 208.59 124.93 202.35 129.78 200.55C132.91 199.39 136.19 200.45 138.76 203.45L149.42 215.87C149.5 215.97 149.52 216.1 149.47 216.22C149.42 216.34 149.3 216.42 149.17 216.42ZM122.33 215.76H148.47L138.27 203.87C135.85 201.05 132.91 200.08 130.01 201.16C125.55 202.81 122.42 208.79 122.33 215.76Z" fill="black"/>
<path d="M232.43 216.09H259.6C259.6 203.13 249.84 195.78 243.08 203.67L232.43 216.09Z" fill="white"/>
<path d="M232.43 216.42C232.3 216.42 232.19 216.35 232.13 216.23C232.08 216.11 232.1 215.98 232.18 215.88L242.84 203.46C245.42 200.46 248.69 199.4 251.82 200.56C256.67 202.35 259.93 208.6 259.93 216.1C259.93 216.28 259.78 216.43 259.6 216.43L232.43 216.42ZM233.14 215.76H259.28C259.19 208.79 256.05 202.81 251.6 201.16C248.7 200.08 245.76 201.05 243.34 203.87L233.14 215.76Z" fill="black"/>
<path d="M232.43 203.12H149.17C149.09 203.12 149.01 203.09 148.95 203.04L126.25 182.5C126.15 182.41 126.12 182.27 126.16 182.14C126.21 182.01 126.33 181.93 126.46 181.93H254.8C254.93 181.93 255.06 182.01 255.1 182.14C255.15 182.27 255.12 182.41 255.02 182.5L232.64 203.04C232.59 203.09 232.51 203.12 232.43 203.12ZM149.3 202.46H232.3L253.97 182.57H127.32L149.3 202.46Z" fill="black"/>
<path d="M254.81 182.58H126.47C126.36 182.58 126.26 182.52 126.2 182.43C126.14 182.34 126.13 182.22 126.18 182.12L138.02 156.15C141.58 148.33 149.44 143.28 158.03 143.28H223.25C231.84 143.28 239.7 148.33 243.26 156.15L255.1 182.12C255.15 182.22 255.14 182.34 255.08 182.43C255.02 182.52 254.92 182.58 254.81 182.58ZM126.98 181.92H254.3L242.67 156.41C239.21 148.82 231.59 143.92 223.25 143.92H158.03C149.69 143.92 142.07 148.82 138.61 156.41L126.98 181.92Z" fill="black"/>
<path d="M141.52 183.17C141.41 183.17 141.3 183.11 141.24 183C141.15 182.84 141.21 182.64 141.36 182.56L202.98 147.62C203.14 147.53 203.34 147.59 203.42 147.74C203.51 147.9 203.45 148.1 203.3 148.18L141.68 183.12C141.63 183.16 141.57 183.17 141.52 183.17Z" fill="white"/>
<path d="M153.27 183.17C153.16 183.17 153.05 183.11 152.99 183C152.9 182.84 152.96 182.64 153.11 182.56L214.73 147.62C214.89 147.53 215.09 147.59 215.17 147.74C215.26 147.9 215.2 148.1 215.05 148.18L153.43 183.12C153.38 183.16 153.32 183.17 153.27 183.17Z" fill="white"/>
<path d="M263.43 232.01H235.27V239.26H263.43V232.01Z" fill="#C4C4D7"/>
<path d="M263.42 239.58H235.26C235.08 239.58 234.93 239.43 234.93 239.25V232C234.93 231.82 235.08 231.67 235.26 231.67H263.42C263.6 231.67 263.75 231.82 263.75 232V239.25C263.75 239.43 263.6 239.58 263.42 239.58ZM235.59 238.93H263.09V232.34H235.59V238.93Z" fill="black"/>
<path d="M145.95 232.01H117.79V239.26H145.95V232.01Z" fill="#C4C4D7"/>
<path d="M145.94 239.58H117.78C117.6 239.58 117.45 239.43 117.45 239.25V232C117.45 231.82 117.6 231.67 117.78 231.67H145.94C146.12 231.67 146.27 231.82 146.27 232V239.25C146.27 239.43 146.12 239.58 145.94 239.58ZM118.11 238.93H145.61V232.34H118.11V238.93Z" fill="black"/>
<path d="M223.77 74.38C223.62 74.25 223.42 74.15 223.16 74.09C222.94 74.04 222.83 74.01 222.52 74.01L217.69 74.02C217.69 74.02 218.01 75.45 218.79 76.72C219.1 76.72 222.94 76.7 223.16 76.65C223.38 76.6 223.6 76.51 223.77 76.36C224.05 76.12 224.19 75.99 224.19 75.37C224.19 75.18 224.17 75.02 224.11 74.85C224.05 74.69 223.95 74.54 223.77 74.38Z" fill="black"/>
<path d="M230.83 60.02V65.11H237.35C235.86 62.68 233.54 60.86 230.83 60.02Z" fill="black"/>
<path d="M227.79 54.94C218.95 54.94 211.79 62.1 211.79 70.94C211.79 79.78 218.95 86.94 227.79 86.94C236.63 86.94 243.79 79.78 243.79 70.94C243.79 62.1 236.63 54.94 227.79 54.94ZM215.43 65.19L217.51 65.18V66.75C217.51 67.19 217.87 67.55 218.31 67.55H223.15H223.55C223.99 67.55 224.35 67.19 224.35 66.75V58.92C224.35 58.27 224.88 57.74 225.53 57.74H226.43V66.75C226.43 68.34 225.14 69.63 223.55 69.63H218.71H218.31C216.72 69.63 215.43 68.34 215.43 66.75V65.19ZM226.51 84.06H225.69C225.35 84.06 225.05 83.94 224.83 83.74C224.61 83.55 224.48 83.28 224.48 82.98V80.05C224.48 79.78 224.45 79.55 224.39 79.35C224.32 79.12 224.21 78.94 224.06 78.81C223.91 78.68 223.71 78.58 223.45 78.52C223.23 78.47 222.97 78.44 222.66 78.44H219.89C219.89 78.44 221.26 80.05 222.13 80.59L222.17 82.65C216.99 79.78 215.85 75.37 215.51 73.49L215.33 72.25H222.19C223.13 72.25 223.61 72.3 224.24 72.41C224.84 72.51 225.3 72.66 225.61 72.86C225.9 73.05 226.12 73.3 226.27 73.63C226.43 73.98 226.51 74.41 226.51 74.93C226.51 75.22 226.47 75.86 226.39 76.12C226.31 76.37 226.18 76.61 225.99 76.81C225.82 76.98 225.62 77.13 225.36 77.23C225.07 77.35 224.75 77.42 224.43 77.46C224.81 77.52 225.14 77.6 225.42 77.71C225.68 77.82 225.89 77.94 226.04 78.09C226.19 78.24 226.31 78.41 226.39 78.61C226.47 78.82 226.51 79.07 226.51 79.37V84.06ZM229.99 57.9C232.79 58.45 235.3 59.86 237.26 61.98C239.23 64.11 240.46 66.74 240.81 69.61L240.82 69.69H238.98L238.97 69.63C238.89 69.06 238.77 68.49 238.6 67.94L238.21 66.91H230.82V69.7H230.38C229.59 69.7 228.95 69.05 228.95 68.26L228.94 57.75L229.99 57.9ZM239.4 74.04H231.68C231.19 74.04 230.8 74.44 230.8 74.92V75.68C230.81 76.16 231.2 76.55 231.68 76.55H236.14C237.01 76.55 237.73 77.23 237.77 78.11C237.79 78.47 237.67 78.82 237.48 79.12C237.48 79.12 234.87 83.11 228.95 84.15V82.42C230.18 82.09 232.33 81.21 234.07 79.87C234.39 79.59 235.14 79.03 235.66 78.42V78.41H231.68C230.17 78.41 228.95 77.04 228.94 75.54V75.66V75.52C228.94 75.53 228.94 75.53 228.94 75.54V74.92C228.94 73.4 230.17 72.17 231.69 72.17H240.57L240.59 72.83C240.6 73.49 240.06 74.04 239.4 74.04Z" fill="black"/>
</g>
<defs>
<clipPath id="clip0_1666_5667">
<rect width="290" height="290" fill="white"/>
</clipPath>
</defs>
</svg>
