<svg width="20" height="20" viewBox="0 0 20 20" fill="none" xmlns="http://www.w3.org/2000/svg">
<g clip-path="url(#clip0_1462_4878)">
<path d="M10.0001 20C9.2001 20 8.4001 19.7 7.9001 19.1L7.2001 18.4C6.9001 18.1 6.5001 18 6.1001 18H5.1001C3.4001 18 2.1001 16.7 2.1001 15V14C2.1001 13.6 1.9001 13.2 1.7001 12.9L1.0001 12.2C-0.199902 11 -0.199902 9.10001 1.0001 7.90001L1.7001 7.20001C1.9001 6.90001 2.0001 6.50001 2.0001 6.10001V5.10001C2.0001 3.40001 3.3001 2.10001 5.0001 2.10001H6.0001C6.4001 2.10001 6.8001 1.90001 7.1001 1.70001L7.8001 1.00001C9.0001 -0.199994 10.9001 -0.199994 12.1001 1.00001L12.8001 1.70001C13.1001 1.90001 13.5001 2.00001 13.9001 2.00001H14.9001C16.6001 2.00001 17.9001 3.30001 17.9001 5.00001V6.00001C17.9001 6.40001 18.1001 6.80001 18.3001 7.10001L19.0001 7.80001C20.2001 9.00001 20.2001 10.9 19.0001 12.1L18.3001 12.8C18.0001 13.1 17.9001 13.5 17.9001 13.9V14.9C17.9001 16.6 16.6001 17.9 14.9001 17.9H13.9001C13.5001 17.9 13.1001 18.1 12.8001 18.3L12.1001 19C11.6001 19.7 10.8001 20 10.0001 20ZM12.6001 11.7C12.1001 11.7 11.7001 12.1 11.7001 12.6C11.7001 13.1 12.1001 13.5 12.6001 13.5C13.1001 13.5 13.5001 13.1 13.5001 12.6C13.4001 12.1 13.1001 11.7 12.6001 11.7ZM12.6001 6.60001C12.4001 6.60001 12.1001 6.70001 12.0001 6.90001L6.8001 12C6.5001 12.3 6.5001 12.9 6.8001 13.2C7.0001 13.4 7.2001 13.5 7.4001 13.5C7.6001 13.5 7.9001 13.4 8.0001 13.2L13.1001 8.10001C13.4001 7.80001 13.4001 7.20001 13.1001 6.90001C13.0001 6.60001 12.8001 6.60001 12.6001 6.60001ZM7.4001 6.60001C7.0001 6.60001 6.6001 6.90001 6.6001 7.40001C6.6001 7.90001 7.0001 8.30001 7.5001 8.30001C8.0001 8.30001 8.4001 7.90001 8.4001 7.40001C8.3001 6.90001 7.9001 6.60001 7.4001 6.60001Z" fill="#212322"/>
</g>
<defs>
<clipPath id="clip0_1462_4878">
<rect width="20" height="20" fill="white"/>
</clipPath>
</defs>
</svg>
