<svg width="21" height="21" viewBox="0 0 21 21" fill="none" xmlns="http://www.w3.org/2000/svg">
<g clip-path="url(#clip0_1460_4830)">
<path d="M10.4999 21C11.3999 21 12.2999 20.6 12.9999 20L13.6999 19.3C13.8999 19.1 14.0999 19 14.3999 19H15.3999C17.2999 19 18.8999 17.4 18.8999 15.5V14.5C18.8999 14.2 18.9999 14 19.1999 13.8L19.9999 13C21.3999 11.6 21.3999 9.40001 19.9999 8.00001L19.2999 7.30001C19.0999 7.10001 18.9999 6.80001 18.9999 6.60001V5.60001C18.9999 3.70001 17.3999 2.10001 15.4999 2.10001H14.4999C14.1999 2.10001 13.9999 2.00001 13.7999 1.80001L12.9999 1.00001C11.5999 -0.399988 9.3999 -0.399988 7.9999 1.00001L7.2999 1.70001C7.0999 1.90001 6.7999 2.00001 6.5999 2.00001H5.5999C3.5999 2.00001 1.9999 3.60001 1.9999 5.60001V6.60001C1.9999 6.90001 1.8999 7.10001 1.6999 7.30001L0.999902 8.10001C-0.300098 9.50001 -0.300098 11.7 0.999902 13L1.6999 13.7C1.8999 13.9 1.9999 14.2 1.9999 14.4V15.4C1.9999 17.4 3.5999 19 5.4999 19H6.4999C6.7999 19 6.9999 19.1 7.1999 19.3L7.9999 20C8.6999 20.6 9.5999 21 10.4999 21ZM6.5999 18H5.5999C4.1999 18 2.9999 16.8 2.9999 15.4V14.4C2.9999 13.9 2.7999 13.4 2.3999 13L1.6999 12.3C0.699902 11.3 0.699902 9.70001 1.6999 8.70001L2.4999 8.00001C2.7999 7.60001 2.9999 7.10001 2.9999 6.60001V5.60001C2.9999 4.20001 4.1999 3.00001 5.4999 3.00001H6.4999C6.9999 3.00001 7.4999 2.80001 7.8999 2.40001L8.5999 1.70001C9.5999 0.700012 11.1999 0.700012 12.1999 1.70001L12.9999 2.50001C13.3999 2.80001 13.8999 3.00001 14.3999 3.00001H15.3999C16.7999 3.00001 17.8999 4.10001 17.8999 5.50001V6.50001C17.8999 7.00001 18.0999 7.50001 18.4999 7.90001L19.1999 8.60001C20.1999 9.60001 20.1999 11.2 19.1999 12.2L18.4999 13C18.0999 13.4 17.8999 13.9 17.8999 14.4V15.4C17.8999 16.8 16.7999 17.9 15.3999 17.9H14.3999C13.8999 17.9 13.3999 18.1 12.9999 18.5L12.2999 19.2C11.7999 19.7 11.1999 19.9 10.4999 19.9C9.7999 19.9 9.1999 19.6 8.6999 19.1L7.9999 18.5C7.5999 18.2 7.0999 18 6.5999 18ZM12.9999 14C13.5999 14 13.9999 13.6 13.9999 13C13.9999 12.4 13.5999 12 12.9999 12C12.3999 12 11.9999 12.4 11.9999 13C11.9999 13.5 12.3999 14 12.9999 14ZM7.9999 9.00001C8.5999 9.00001 8.9999 8.60001 8.9999 8.00001C8.9999 7.40001 8.4999 7.00001 7.9999 7.00001C7.3999 7.00001 6.9999 7.40001 6.9999 8.00001C6.9999 8.60001 7.3999 9.00001 7.9999 9.00001ZM13.7999 7.90001L13.0999 7.20001L6.5999 13.7L7.2999 14.4L13.7999 7.90001Z" fill="#212322"/>
</g>
<defs>
<clipPath id="clip0_1460_4830">
<rect width="21" height="21" fill="white"/>
</clipPath>
</defs>
</svg>
