<svg width="21" height="20" viewBox="0 0 21 20" fill="none" xmlns="http://www.w3.org/2000/svg">
<g clip-path="url(#clip0_1462_4876)">
<path d="M0.100146 16.5C0.300146 17.1 0.700146 17.5 1.20015 17.8C4.00015 19.2 7.10015 19.9 10.2001 19.9C13.4001 19.9 16.5001 19.2 19.4001 17.7C19.9001 17.4 20.3001 17 20.5001 16.4C20.7001 15.8 20.6001 15.2 20.3001 14.7L19.7001 13.7L11.9001 0.9C11.2001 -0.3 9.50015 -0.3 8.80015 0.9L1.00015 13.7L0.300146 14.8C0.000145584 15.3 -0.0998544 15.9 0.100146 16.5ZM12.3001 9.7C12.4001 9.5 12.6001 9.4 12.8001 9.5C13.3001 9.8 14.0001 10.4 14.2001 11C14.6001 11.9 14.2001 12.5 13.7001 12.7C13.2001 12.9 12.6001 12.7 12.2001 11.8C12.0001 11.1 12.1001 10.2 12.3001 9.7ZM10.0001 4.8C10.1001 4.6 10.4001 4.6 10.5001 4.8C10.8001 5.2 11.2001 5.9 11.2001 6.6C11.2001 7.5 10.7001 7.8 10.2001 7.8C9.70015 7.8 9.20015 7.5 9.20015 6.6C9.30015 6 9.70015 5.2 10.0001 4.8ZM6.30015 11C6.50015 10.4 7.30015 9.8 7.70015 9.5C7.90015 9.4 8.20015 9.5 8.20015 9.7C8.30015 10.2 8.50015 11.1 8.30015 11.8C7.90015 12.7 7.30015 12.9 6.80015 12.7C6.30015 12.4 5.90015 11.9 6.30015 11ZM18.3001 14.4L18.9001 15.5C19.0001 15.7 19.0001 15.8 19.0001 16C18.9001 16.2 18.8001 16.3 18.7001 16.4C16.1001 17.7 13.1001 18.4 10.2001 18.4C7.30015 18.4 4.40015 17.7 1.80015 16.5C1.60015 16.4 1.50015 16.3 1.50015 16.1C1.40015 15.9 1.50015 15.7 1.60015 15.6L2.30015 14.4C7.30015 16.9 13.3001 16.9 18.3001 14.4Z" fill="#212322"/>
</g>
<defs>
<clipPath id="clip0_1462_4876">
<rect width="20.5" height="19.8" fill="white"/>
</clipPath>
</defs>
</svg>
