<svg width="21" height="20" viewBox="0 0 21 20" fill="none" xmlns="http://www.w3.org/2000/svg">
<path d="M1.5 1.10791L3.6001 1.5083L4.6001 13.0083C4.7001 13.9083 5.50002 14.708 6.40002 14.708L17.3 14.708C18.2 14.708 19.0001 14.008 19.1001 13.208L20 6.60791C20.1 5.90791 19.6 5.20791 18.9 5.10791C18.8 5.10791 4 5.10791 4 5.10791" stroke="#212322" stroke-width="1.5" stroke-miterlimit="10" stroke-linecap="round" stroke-linejoin="round"/>
<path d="M12.9004 8.60791H15.7004" stroke="#212322" stroke-width="1.5" stroke-miterlimit="10" stroke-linecap="round" stroke-linejoin="round"/>
<path d="M6.00008 18.0083C6.30008 18.0083 6.50008 18.2083 6.50008 18.5083C6.50008 18.8083 6.30008 19.0083 6.00008 19.0083C5.70008 19.0083 5.50008 18.8083 5.50008 18.5083C5.40008 18.3083 5.70008 18.0083 6.00008 18.0083Z" fill="#212322" stroke="#212322" stroke-width="1.5" stroke-miterlimit="10" stroke-linecap="round" stroke-linejoin="round"/>
<path d="M17.2002 18.0083C17.5002 18.0083 17.7002 18.2083 17.7002 18.5083C17.7002 18.8083 17.5002 19.0083 17.2002 19.0083C16.9002 19.0083 16.7002 18.8083 16.7002 18.5083C16.7002 18.3083 16.9002 18.0083 17.2002 18.0083Z" fill="#212322" stroke="#212322" stroke-width="1.5" stroke-miterlimit="10" stroke-linecap="round" stroke-linejoin="round"/>
</svg>
