<svg width="25" height="25" viewBox="0 0 25 25" fill="none" xmlns="http://www.w3.org/2000/svg">
<path fill-rule="evenodd" clip-rule="evenodd" d="M10.7148 12.1V18C10.7148 18.08 10.7848 18.15 10.8648 18.15H13.0548C13.1348 18.15 13.2048 18.08 13.2048 18V12.01H14.7948C14.8748 12.01 14.9448 11.95 14.9448 11.87L15.0948 10.06C15.1048 9.96999 15.0348 9.88999 14.9448 9.88999H13.2048V8.60999C13.2048 8.30999 13.4448 8.06999 13.7448 8.06999H14.9648C15.0448 8.06999 15.1148 7.99999 15.1148 7.91999V6.10999C15.1148 6.02999 15.0448 5.95999 14.9648 5.95999H12.8948C11.6848 5.95999 10.6948 6.93999 10.6948 8.15999V9.89999H9.61484C9.53484 9.89999 9.46484 9.96999 9.46484 10.05V11.86C9.46484 11.94 9.53484 12.01 9.61484 12.01H10.7048V12.1H10.7148Z" fill="#212322"/>
<path d="M12.2951 0C5.65512 0 0.245117 5.41 0.245117 12.05C0.245117 18.7 5.65512 24.1 12.2951 24.1C18.9451 24.1 24.3451 18.69 24.3451 12.05C24.3551 5.41 18.9451 0 12.2951 0ZM22.8051 12.05C22.8051 17.84 18.0951 22.56 12.2951 22.56C6.50512 22.56 1.78512 17.85 1.78512 12.05C1.78512 6.26 6.49512 1.54 12.2951 1.54C18.0951 1.55 22.8051 6.26 22.8051 12.05Z" fill="#212322"/>
</svg>
