<svg width="20" height="20" viewBox="0 0 20 20" fill="none" xmlns="http://www.w3.org/2000/svg">
<g clip-path="url(#clip0_25_1266)">
<path d="M10.0002 0.704102C15.1002 0.704102 19.3002 4.80415 19.3002 10.0042C19.3002 15.2042 15.2002 19.304 10.0002 19.304C4.80018 19.304 0.700195 15.2042 0.700195 10.0042C0.700195 4.80415 4.90018 0.704102 10.0002 0.704102Z" stroke="black" stroke-width="1.5" stroke-miterlimit="10" stroke-linecap="round" stroke-linejoin="round"/>
<path d="M7.1002 7.99998C7.1002 7.59998 7.2002 7.29998 7.5002 6.89998C7.8002 6.49998 8.1002 6.19998 8.5002 5.99998C8.9002 5.79998 9.5002 5.59998 10.1002 5.59998C10.7002 5.59998 11.2002 5.69998 11.6002 5.89998C12.0002 6.09998 12.4002 6.39998 12.6002 6.79998C12.8002 7.19998 13.0002 7.59998 13.0002 7.99998C13.0002 8.29998 12.9002 8.59998 12.8002 8.89998C12.7002 9.19998 12.5002 9.39998 12.3002 9.49998C12.1002 9.59998 11.8002 9.99998 11.3002 10.4C11.2002 10.5 11.1002 10.6 11.0002 10.7C10.9002 10.8 10.9002 10.9 10.8002 11C10.7002 11.1 10.7002 11.2 10.7002 11.2C10.7002 11.2 10.6002 11.4 10.6002 11.6C10.5002 12 10.3002 12.2 9.9002 12.2C9.7002 12.2 9.5002 12.1 9.4002 12C9.3002 11.9 9.2002 11.7 9.2002 11.4C9.2002 11.1 9.3002 10.8 9.4002 10.5C9.5002 10.2 9.6002 9.99998 9.8002 9.89998C10.0002 9.79998 10.2002 9.49998 10.5002 9.29998C10.8002 9.09998 10.9002 8.89998 11.0002 8.79998C11.1002 8.69998 11.2002 8.59998 11.3002 8.39998C11.4002 8.19998 11.4002 8.09998 11.4002 7.99998C11.4002 7.69998 11.3002 7.39998 11.1002 7.19998C10.9002 6.99998 10.6002 6.89998 10.2002 6.89998C9.8002 6.89998 9.5002 6.99998 9.3002 7.19998C9.1002 7.39998 8.9002 7.69998 8.8002 8.19998C8.5002 8.49998 8.2002 8.69998 7.8002 8.69998C7.6002 8.69998 7.4002 8.59998 7.2002 8.49998C7.0002 8.39998 7.1002 8.19998 7.1002 7.99998ZM9.9002 14.4C9.7002 14.4 9.5002 14.3 9.3002 14.2C9.1002 14.1 9.0002 13.8 9.0002 13.6C9.0002 13.4 9.1002 13.1 9.3002 13C9.5002 12.9 9.7002 12.7 9.9002 12.7C10.1002 12.7 10.4002 12.8 10.5002 13C10.6002 13.2 10.8002 13.4 10.8002 13.6C10.8002 13.9 10.7002 14.1 10.5002 14.2C10.3002 14.3 10.2002 14.4 9.9002 14.4Z" fill="black"/>
</g>
<defs>
<clipPath id="clip0_25_1266">
<rect width="20" height="20" fill="white"/>
</clipPath>
</defs>
</svg>
