<svg width="1366" height="586" viewBox="0 0 1366 586" fill="none" xmlns="http://www.w3.org/2000/svg">
<mask id="mask0_1657_7334" style="mask-type:luminance" maskUnits="userSpaceOnUse" x="0" y="-1" width="1367" height="587">
<path d="M0 586V-1H1367V586" fill="white"/>
</mask>
<g mask="url(#mask0_1657_7334)">
<path d="M1336.04 84.79L1337.9 151.12L1271.57 152.99L1272.83 197.55L1339.16 195.68L1341.03 262.01L1385.58 260.75L1383.72 194.42L1450.05 192.56L1448.79 148L1382.46 149.86L1380.6 83.53L1336.04 84.79Z" fill="#D8D3A0"/>
<path opacity="0.26" d="M1391.73 94.73L1395.19 217.55L1272.37 221.01L1274.69 303.51L1397.51 300.05L1400.97 422.87L1483.47 420.55L1480.01 297.73L1602.83 294.27L1600.51 211.77L1477.69 215.23L1474.23 92.41L1391.73 94.73Z" fill="#D8D3A0"/>
<path d="M1295.3 296.99L1297.56 377.44L1217.12 379.7L1218.64 433.74L1299.08 431.47L1301.35 511.92L1355.38 510.39L1353.12 429.95L1433.56 427.69L1432.04 373.65L1351.6 375.91L1349.33 295.47L1295.3 296.99Z" fill="#D8D3A0"/>
<path d="M1290.66 277.19L1291.56 308.95L1259.8 309.85L1260.4 331.18L1292.15 330.29L1293.05 362.05L1314.39 361.44L1313.49 329.69L1345.25 328.79L1344.65 307.46L1312.89 308.35L1312 276.59L1290.66 277.19Z" fill="#D8D3A0"/>
<path opacity="0.29" d="M1310.43 117.6L1310.79 130.22L1298.17 130.57L1298.41 139.05L1311.03 138.69L1311.38 151.31L1319.85 151.07L1319.5 138.45L1332.12 138.1L1331.88 129.62L1319.26 129.98L1318.91 117.37L1310.43 117.6Z" fill="#D8D3A0"/>
<path opacity="0.21" d="M1177.85 96.82L1179.64 160.42L1116.05 162.21L1117.25 204.92L1180.84 203.13L1182.63 266.73L1225.35 265.52L1223.56 201.93L1287.15 200.14L1285.95 157.42L1222.36 159.21L1220.57 95.62L1177.85 96.82Z" fill="#D8D3A0"/>
<path d="M1255.32 137.35L1256.4 175.97L1217.78 177.06L1218.51 203L1257.13 201.91L1258.22 240.54L1284.16 239.81L1283.07 201.18L1321.7 200.1L1320.97 174.15L1282.34 175.24L1281.26 136.62L1255.32 137.35Z" fill="#D8D3A0"/>
<path opacity="0.26" d="M1203.95 557.94L1206.58 651.52L1113 654.16L1114.77 717.01L1208.35 714.38L1210.99 807.96L1273.85 806.19L1271.21 712.61L1364.79 709.97L1363.02 647.12L1269.44 649.75L1266.81 556.17L1203.95 557.94Z" fill="#D8D3A0"/>
<path opacity="0.21" d="M1373.67 -12.21L1374.87 30.53L1332.12 31.74L1332.93 60.45L1375.68 59.25L1376.88 102L1405.6 101.19L1404.4 58.44L1447.14 57.24L1446.33 28.52L1403.59 29.73L1402.38 -13.02L1373.67 -12.21Z" fill="#D8D3A0"/>
<path opacity="0.57" d="M1213.77 221.66L1214.82 258.89L1177.59 259.94L1178.29 284.95L1215.52 283.9L1216.57 321.13L1241.58 320.43L1240.53 283.2L1277.77 282.15L1277.06 257.14L1239.83 258.18L1238.78 220.95L1213.77 221.66Z" fill="#D8D3A0"/>
<path opacity="0.64" d="M1164.6 283.97L1167.89 400.79L1051.07 404.07L1053.28 482.55L1170.1 479.26L1173.39 596.08L1251.86 593.87L1248.57 477.05L1365.39 473.76L1363.18 395.29L1246.36 398.58L1243.07 281.76L1164.6 283.97Z" fill="#D8D3A0"/>
<path opacity="0.57" d="M912.79 802.28L909.33 679.46L1032.15 676L1029.82 593.5L907.01 596.96L903.55 474.14L821.04 476.46L824.5 599.28L701.68 602.74L704.01 685.24L826.82 681.78L830.28 804.6L912.79 802.28Z" fill="#D8D3A0"/>
<path opacity="0.54" d="M1013.75 596.32L1011.48 515.88L1091.92 513.61L1090.4 459.58L1009.96 461.84L1007.69 381.4L953.66 382.92L955.92 463.36L875.48 465.63L877 519.66L957.44 517.4L959.71 597.84L1013.75 596.32Z" fill="#D8D3A0"/>
<path d="M1013.86 619.82L1012.96 588.06L1044.72 587.17L1044.12 565.83L1012.36 566.72L1011.47 534.97L990.13 535.57L991.03 567.33L959.27 568.22L959.87 589.56L991.63 588.66L992.52 620.42L1013.86 619.82Z" fill="#D8D3A0"/>
<path d="M809.28 613.33L807.49 549.74L871.08 547.95L869.88 505.23L806.29 507.02L804.5 443.43L761.78 444.63L763.57 508.22L699.97 510.02L701.18 552.73L764.77 550.94L766.56 614.54L809.28 613.33Z" fill="#D8D3A0"/>
<path opacity="0.26" d="M1042.73 409.65L1040.09 316.08L1133.67 313.44L1131.9 250.58L1038.32 253.22L1035.69 159.64L972.83 161.41L975.46 254.99L881.88 257.62L883.65 320.48L977.23 317.84L979.86 411.42L1042.73 409.65Z" fill="#D8D3A0"/>
<path opacity="0.57" d="M1161.46 674.18L1160.41 636.94L1197.64 635.9L1196.94 610.89L1159.71 611.93L1158.66 574.7L1133.65 575.41L1134.69 612.64L1097.46 613.69L1098.17 638.7L1135.4 637.65L1136.45 674.88L1161.46 674.18Z" fill="#D8D3A0"/>
<path opacity="0.28" d="M1150.18 634.84L1146.89 518.02L1263.71 514.73L1261.5 436.26L1144.68 439.55L1141.39 322.73L1062.92 324.94L1066.21 441.76L949.38 445.05L951.59 523.52L1068.42 520.23L1071.7 637.05L1150.18 634.84Z" fill="#D8D3A0"/>
<path d="M921.21 534.6L920.78 519.09L936.28 518.66L935.99 508.24L920.49 508.68L920.05 493.17L909.63 493.46L910.07 508.97L894.56 509.41L894.86 519.82L910.36 519.39L910.8 534.89L921.21 534.6Z" fill="#D8D3A0"/>
<path d="M882.08 556.77L881.83 547.77L890.83 547.52L890.66 541.47L881.66 541.72L881.41 532.72L875.36 532.89L875.61 541.89L866.61 542.15L866.78 548.19L875.78 547.94L876.04 556.94L882.08 556.77Z" fill="#D8D3A0"/>
</g>
</svg>
