<svg width="21" height="23" viewBox="0 0 21 23" fill="none" xmlns="http://www.w3.org/2000/svg">
<g clip-path="url(#clip0_21_1455)">
<path d="M7.90009 20.2541L7.90009 17.154C7.90009 16.354 8.50008 15.7541 9.30008 15.7541H12.2001C13.0001 15.7541 13.6001 16.354 13.6001 17.154V20.2541C13.6001 20.9541 14.1001 21.4541 14.8001 21.4541L16.7001 21.4541C18.6001 21.4541 20.2001 19.9539 20.2001 18.0539L20.2001 9.35396C20.2001 8.65396 19.8001 7.95405 19.2001 7.45405L12.6001 2.154C11.4001 1.254 9.8001 1.254 8.7001 2.154L2.1001 7.45405C1.5001 7.95405 1.1001 8.65396 1.1001 9.35396L1.1001 18.0539C1.1001 19.9539 2.7001 21.4541 4.6001 21.4541H6.50009C7.30009 21.4541 7.90009 20.9541 7.90009 20.2541Z" stroke="#212322" stroke-width="1.5" stroke-miterlimit="10" stroke-linecap="round" stroke-linejoin="round"/>
</g>
<defs>
<clipPath id="clip0_21_1455">
<rect width="20.5" height="21.5" fill="white" transform="translate(0.5 0.75)"/>
</clipPath>
</defs>
</svg>
