<svg width="31" height="32" viewBox="0 0 31 32" fill="none" xmlns="http://www.w3.org/2000/svg">
<g clip-path="url(#clip0_21_1954)">
<path d="M11 29.2041V24.604C11 23.404 12 22.5041 13.1 22.5041H17.4C18.6 22.5041 19.5 23.404 19.5 24.604V29.2041C19.5 30.2041 20.3 31.0041 21.3 31.0041H24.2C27.1 31.0041 29.4 28.7039 29.4 25.8039V12.7041C29.4 11.6041 28.8 10.504 28 9.904L18.1 2.0041C16.4 0.604102 13.9 0.604102 12.2 2.0041L2.39999 9.904C1.49999 10.604 1 11.6039 1 12.8039V25.904C1 28.804 3.30001 31.104 6.20001 31.104H9.10001C10.1 31.004 11 30.2041 11 29.2041Z" stroke="#212322" stroke-width="2" stroke-miterlimit="10" stroke-linecap="round" stroke-linejoin="round"/>
</g>
<defs>
<clipPath id="clip0_21_1954">
<rect width="30.5" height="32" fill="white"/>
</clipPath>
</defs>
</svg>
