<svg width="21" height="21" viewBox="0 0 21 21" fill="none" xmlns="http://www.w3.org/2000/svg">
<path d="M14.6562 20.199H6.30624C3.23624 20.199 0.886245 19.0889 1.55624 14.6389L2.33624 8.59888C2.74624 6.37888 4.16625 5.5188 5.41625 5.5188H15.5962C16.8562 5.5188 18.1962 6.43888 18.6762 8.59888L19.4562 14.6389C20.0162 18.5889 17.7262 20.199 14.6562 20.199Z" stroke="#010101" stroke-width="1.5" stroke-miterlimit="10" stroke-linecap="round" stroke-linejoin="round"/>
<path d="M14.7967 5.29887C14.7967 2.90887 12.8667 0.978798 10.4767 0.978798C8.08671 0.968798 6.14672 2.89885 6.13672 5.27885C6.13672 5.28885 6.13672 5.28887 6.13672 5.29887" stroke="#010101" stroke-width="1.5" stroke-miterlimit="10" stroke-linecap="round" stroke-linejoin="round"/>
<path d="M13.4465 9.79883H13.3965" stroke="#010101" stroke-width="1.5" stroke-miterlimit="10" stroke-linecap="round" stroke-linejoin="round"/>
<path d="M7.61641 9.79883H7.56641" stroke="#010101" stroke-width="1.5" stroke-miterlimit="10" stroke-linecap="round" stroke-linejoin="round"/>
</svg>
