<?xml version="1.0" encoding="UTF-8"?>
<!DOCTYPE svg PUBLIC "-//W3C//DTD SVG 1.1//EN" "http://www.w3.org/Graphics/SVG/1.1/DTD/svg11.dtd">
<svg xmlns="http://www.w3.org/2000/svg" version="1.1" width="100px" height="100px" style="shape-rendering:geometricPrecision; text-rendering:geometricPrecision; image-rendering:optimizeQuality; fill-rule:evenodd; clip-rule:evenodd" xmlns:xlink="http://www.w3.org/1999/xlink">
<g><path style="opacity:0.924" fill="#f8fbfd" d="M 39.5,5.5 C 67.4958,2.69583 85.3292,14.6958 93,41.5C 95.4146,68.0712 83.9146,85.2379 58.5,93C 24.307,95.4692 6.4737,79.6359 5,45.5C 7.80138,24.5399 19.3014,11.2066 39.5,5.5 Z M 42.5,13.5 C 43.5,13.5 44.5,13.5 45.5,13.5C 45.6664,21.84 45.4997,30.1733 45,38.5C 44.6541,40.8477 43.4875,42.6811 41.5,44C 34.9427,45.5863 28.276,45.9196 21.5,45C 17.0429,42.9206 15.0429,39.4206 15.5,34.5C 17.1667,34.5 18.8333,34.5 20.5,34.5C 20.2606,36.4672 20.5939,38.3005 21.5,40C 27.5,40.6667 33.5,40.6667 39.5,40C 40.3173,31.912 40.8173,23.7453 41,15.5C 41.7172,14.9558 42.2172,14.2891 42.5,13.5 Z M 52.5,13.5 C 69.7063,17.039 80.3729,27.3724 84.5,44.5C 83.1667,45.8333 81.8333,45.8333 80.5,44.5C 79.8333,42.5 79.1667,40.5 78.5,38.5C 71.5316,37.503 64.5316,37.1697 57.5,37.5C 57.5,40.1667 57.5,42.8333 57.5,45.5C 55.0885,45.8633 53.5885,44.8633 53,42.5C 52.5002,32.8391 52.3335,23.1724 52.5,13.5 Z M 15.5,53.5 C 23.1739,53.3336 30.8406,53.5003 38.5,54C 43.6905,54.5548 45.8571,57.3881 45,62.5C 43.9596,65.0405 42.1263,66.7071 39.5,67.5C 41.8048,68.231 43.6382,69.5643 45,71.5C 45.499,75.8206 45.6657,80.1539 45.5,84.5C 43.549,84.7733 42.049,84.1066 41,82.5C 43.1689,70.8316 38.6689,66.8316 27.5,70.5C 29.1491,72.6499 30.9824,74.6499 33,76.5C 33.6667,77.8333 33.6667,79.1667 33,80.5C 23.1336,74.0974 17.3003,65.0974 15.5,53.5 Z M 57.5,53.5 C 66.1667,53.5 74.8333,53.5 83.5,53.5C 83.67,54.8221 83.3366,55.9887 82.5,57C 74.1733,57.4997 65.84,57.6664 57.5,57.5C 57.2317,60.1194 57.565,62.6194 58.5,65C 81.0599,64.8873 82.3933,70.5539 62.5,82C 59.363,83.3217 56.1963,84.4884 53,85.5C 52.2195,84.0563 52.3861,82.723 53.5,81.5C 60.6538,79.4259 66.6538,75.5926 71.5,70C 66.8333,69.6667 62.1667,69.3333 57.5,69C 50.8522,63.6556 50.8522,58.489 57.5,53.5 Z"/></g>
<g><path style="opacity:0.867" fill="#f8fbfd" d="M 57.5,19.5 C 66.3715,21.2422 72.3715,26.2422 75.5,34.5C 69.5,34.5 63.5,34.5 57.5,34.5C 57.5,29.5 57.5,24.5 57.5,19.5 Z"/></g>
<g><path style="opacity:0.909" fill="#f8fbfd" d="M 21.5,57.5 C 26.8437,57.334 32.1771,57.5006 37.5,58C 39.4181,59.7702 39.9181,61.9369 39,64.5C 33.8861,65.8042 28.7195,65.8042 23.5,64.5C 22.0541,62.3821 21.3874,60.0488 21.5,57.5 Z"/></g>
</svg>
