<svg width="73" height="73" viewBox="0 0 73 73" fill="none" xmlns="http://www.w3.org/2000/svg">
<g clip-path="url(#clip0_698_4352)">
<path d="M27.3138 44.3565C26.9711 44.0581 26.5098 43.8402 25.93 43.7048C25.4285 43.5863 25.1662 43.527 24.4721 43.527L13.4629 43.5397C13.4629 43.5397 14.1929 46.8046 15.966 49.7035C16.6664 49.7035 25.437 49.6612 25.9406 49.5448C26.4527 49.4263 26.9414 49.2295 27.3287 48.8909C27.9677 48.3345 28.2893 48.0552 28.2893 46.6375C28.2893 46.1995 28.2554 45.8292 28.1158 45.4568C27.9719 45.0632 27.7265 44.7141 27.3138 44.3565Z" fill="#212322"/>
<path d="M43.4199 11.5827V23.2013H58.2908C54.901 17.6639 49.6196 13.5061 43.4199 11.5827Z" fill="#212322"/>
<path d="M36.5 0C16.3414 0 0 16.3414 0 36.5C0 56.6586 16.3414 73 36.5 73C56.6586 73 73 56.6586 73 36.5C73 16.3414 56.6586 0 36.5 0ZM8.29026 23.3812L13.0448 23.36V26.9423C13.0448 27.9452 13.8573 28.7578 14.8603 28.7578H25.9118H26.8196C27.8225 28.7578 28.635 27.9452 28.635 26.9423V9.08797C28.635 7.59835 29.8432 6.39015 31.3329 6.39015H33.3896V26.9402C33.3896 30.569 30.4484 33.5102 26.8196 33.5102H15.768H14.8603C11.2314 33.5102 8.29026 30.569 8.29026 26.9402V23.3812ZM33.5652 66.4406H31.6989C30.933 66.4406 30.2432 66.1613 29.7438 65.7106C29.2529 65.2662 28.9482 64.6505 28.9482 63.9713V57.2891C28.9482 56.6797 28.8763 56.1465 28.7366 55.6958C28.5758 55.1795 28.3198 54.769 27.9728 54.4665C27.63 54.1681 27.1687 53.9502 26.5889 53.8148C26.0875 53.6963 25.4865 53.637 24.7904 53.637H18.4743C18.4743 53.637 21.6017 57.3039 23.5779 58.5333L23.6795 63.2413C11.8599 56.6924 9.26359 46.6417 8.49762 42.34L8.09136 39.5237L23.7303 39.5258C25.8674 39.5258 26.9698 39.6485 28.4023 39.894C29.7713 40.1288 30.8102 40.4716 31.5191 40.9202C32.1856 41.3434 32.6871 41.9295 33.0256 42.6807C33.3853 43.4784 33.5652 44.4686 33.5652 45.6472C33.5652 46.3053 33.4763 47.7716 33.2901 48.3704C33.1103 48.9481 32.8225 49.4855 32.3845 49.9426C32.0057 50.3404 31.5297 50.662 30.9562 50.9075C30.2939 51.191 29.5639 51.3476 28.8403 51.4301C29.7163 51.5613 30.4717 51.7538 31.1022 52.012C31.6926 52.2532 32.1644 52.5452 32.5178 52.888C32.869 53.2308 33.1335 53.6137 33.307 54.0687C33.4911 54.5469 33.5821 55.1161 33.5821 55.8101L33.5652 66.4406ZM41.519 6.76044C47.8965 8.01942 53.6307 11.242 58.1122 16.0769C62.6107 20.9309 65.408 26.9465 66.2078 33.4763L66.2311 33.6668H62.0225L62.0013 33.5208C61.8172 32.2194 61.5358 30.9224 61.1655 29.6676L60.2684 27.3083H43.4191V33.6668H42.4119C40.6155 33.6668 39.1534 32.1898 39.1513 30.3743L39.1365 6.40496L41.519 6.76044ZM62.981 43.5778H45.3785C44.2634 43.5778 43.3599 44.4813 43.3599 45.5964V47.3315C43.3726 48.4276 44.2655 49.3184 45.3658 49.3184L55.5456 49.3141C55.5456 49.3141 55.5456 49.3141 55.5477 49.3141C57.543 49.3141 59.1766 50.8757 59.2654 52.8689C59.3014 53.692 59.0306 54.4876 58.5968 55.1732C58.5968 55.1732 52.6468 64.2781 39.1343 66.6501V62.6975C41.9486 61.9421 46.8427 59.9298 50.808 56.885C51.5359 56.2417 53.2583 54.9764 54.4432 53.5841C54.4495 53.5778 54.4432 53.5672 54.4347 53.5672L45.3658 53.5714C41.9274 53.5714 39.1301 50.4504 39.1068 47.0141V47.2871C39.1068 47.2955 39.1047 46.9612 39.1047 46.9697C39.1047 46.9845 39.1068 46.9993 39.1068 47.0141V45.5964C39.1068 42.1326 41.9147 39.3248 45.3785 39.3248H65.6386L65.6725 40.8229C65.7085 42.3337 64.4939 43.5778 62.981 43.5778Z" fill="#212322"/>
</g>
<defs>
<clipPath id="clip0_698_4352">
<rect width="73" height="73" fill="white"/>
</clipPath>
</defs>
</svg>
