<svg width="154" height="166" viewBox="0 0 154 166" fill="none" xmlns="http://www.w3.org/2000/svg">
<path d="M1.30999 93.8601C-5.47002 49.0401 14.08 22.5301 58.9 15.7601C103.72 8.99008 145.44 47.7501 152.21 92.5801C158.98 137.41 124.96 158.19 80.14 164.97C35.32 171.75 8.08998 138.69 1.30999 93.8601Z" fill="#F3F9FE"/>
<path d="M92.37 17.2701C93.2 18.0001 94.32 18.4101 95.71 18.2501C95.44 18.2801 96.35 18.0901 96.47 18.0401C96.79 17.9301 96.73 17.9801 97.17 17.7101C97.57 17.4701 98.18 16.9501 98.33 16.7201C98.83 15.9801 98.97 15.7501 99.14 14.9401C99.21 14.6101 99.23 14.6601 99.21 14.1301C99.21 14.0701 99.2 13.9901 99.19 13.9101C99.15 13.7301 99.11 13.5501 99.05 13.3801C99.02 13.2901 98.82 12.7901 98.83 12.7901C98.58 12.2601 98.32 11.7401 98.03 11.2401C97.37 10.1101 96.63 9.02009 95.85 7.97009C95.69 7.75009 95.52 7.53009 95.35 7.31009C95.3 7.25009 95.17 7.09009 95.08 6.97009C95.02 7.04009 94.96 7.11009 94.91 7.18009C94.87 7.23009 94.84 7.27009 94.81 7.30009C94.74 7.39009 94.67 7.48009 94.61 7.57009C94.41 7.84009 94.2 8.11009 94.01 8.39009C93.2 9.52009 92.41 10.6801 91.76 11.9201C91.61 12.2101 91.46 12.5001 91.32 12.7901C91.31 12.8001 91.31 12.8101 91.3 12.8301C91.25 12.9501 91.21 13.0701 91.17 13.1901C91.09 13.4501 91 13.7101 90.95 13.9801C90.95 13.9901 90.95 14.0001 90.94 14.0101C90.94 14.0501 90.94 14.0901 90.94 14.1501C90.97 15.3601 91.38 16.4101 92.37 17.2701Z" fill="#D8D3A0"/>
<path d="M127.89 128.28H13.79V139.38H127.89V128.28Z" fill="#D8D3A0"/>
<path d="M67.81 81.3901C72.08 82.5601 76.94 81.0001 79.37 77.3501C80.72 75.3101 81.36 73.3501 81.28 70.9701C81.24 69.7401 81.08 68.8001 80.59 67.4801C80.34 66.8201 79.67 65.5701 79.03 64.7401C77.92 63.2901 75.86 61.8301 73.99 61.2601C71.71 60.5801 69.53 60.5501 67.23 61.3501C65.44 61.9801 63.37 63.4501 62.31 64.9701C60.89 67.0201 60.26 68.9301 60.23 71.2801C60.28 75.8801 63.32 80.1601 67.81 81.3901ZM62.7 71.2801C62.82 66.8201 66.29 63.3501 70.75 63.2301C74.28 63.1301 74.27 68.6001 70.75 68.7001C70.58 68.7001 70.5 68.7001 70.47 68.6901C70.43 68.7001 70.39 68.7101 70.34 68.7201C70.32 68.7201 69.49 69.0101 69.94 68.8001C69.74 68.9001 69.53 69.0001 69.34 69.1201C69.35 69.1301 68.94 69.4401 68.93 69.4601C68.9 69.4901 68.49 70.0601 68.63 69.8201C68.52 69.9901 68.42 70.1701 68.33 70.3501C68.4 70.2301 68.2 70.8701 68.2 70.8701C68.19 70.9201 68.18 70.9701 68.17 71.0001C68.17 71.0401 68.18 71.1301 68.17 71.2801C68.07 74.8001 62.6 74.8101 62.7 71.2801Z" fill="#D8D3A0"/>
<path d="M127.89 118.89H13.79V122.81H127.89V118.89Z" fill="#F3F9FE"/>
<path d="M72.2 101.22C58.22 101.21 44.23 101.2 30.25 101.19C24.76 101.19 19.27 101.18 13.79 101.18V113.43H127.89V101.26C123.08 101.26 118.27 101.25 113.45 101.25C99.7 101.23 85.95 101.23 72.2 101.22Z" fill="#D8D3A0"/>
<path d="M60.4 85.09C65.31 88.04 71.62 87.9 76.54 85.09C81.45 82.29 84.4 76.87 84.46 71.28C84.53 65.63 81.33 60.35 76.54 57.47C71.63 54.52 65.32 54.66 60.4 57.47C55.49 60.27 52.55 65.69 52.48 71.28C52.55 76.97 55.52 82.16 60.4 85.09ZM60.03 64.98C61.09 63.46 63.16 61.99 64.95 61.36C67.24 60.55 69.43 60.58 71.71 61.27C73.58 61.83 75.64 63.3 76.75 64.75C77.39 65.58 78.06 66.83 78.31 67.49C78.81 68.81 78.96 69.74 79 70.98C79.08 73.36 78.44 75.33 77.09 77.36C74.67 81.01 69.8 82.58 65.53 81.4C61.04 80.17 58 75.89 57.95 71.29C57.97 68.94 58.6 67.02 60.03 64.98Z" fill="#212322"/>
<path d="M91.14 23.59C96.04 24.3701 100.64 21.4501 102.06 16.7001C103.17 12.9801 101.23 9.49005 99.2 6.49005C97.85 4.50005 96.34 2.58005 94.74 0.790049C93.78 -0.279951 91.83 -0.279951 90.87 0.790049C89.49 2.32005 88.22 3.96005 87.01 5.63005C85.33 7.95005 83.49 10.71 83.23 13.65C83.21 13.81 83.2 13.97 83.2 14.14C83.2 14.28 83.2 14.41 83.22 14.54C83.49 18.95 86.67 22.8801 91.14 23.59ZM88.67 14.01C88.67 14 88.67 13.99 88.68 13.98C88.73 13.71 88.82 13.45 88.9 13.19C88.94 13.07 88.99 12.95 89.03 12.83C89.04 12.82 89.04 12.81 89.05 12.79C89.18 12.49 89.33 12.2 89.49 11.92C90.14 10.69 90.92 9.53005 91.74 8.39005C91.94 8.11005 92.14 7.84005 92.34 7.57005C92.41 7.48005 92.48 7.39005 92.54 7.30005C92.56 7.27005 92.59 7.23005 92.64 7.18005C92.7 7.11005 92.75 7.04005 92.81 6.97005C92.9 7.09005 93.03 7.25005 93.08 7.31005C93.25 7.53005 93.41 7.75005 93.58 7.97005C94.36 9.02005 95.09 10.11 95.76 11.24C96.05 11.74 96.32 12.26 96.56 12.79C96.55 12.79 96.75 13.29 96.78 13.38C96.84 13.56 96.88 13.73 96.92 13.91C96.93 13.98 96.94 14.07 96.94 14.13C96.95 14.66 96.93 14.6 96.87 14.94C96.7 15.75 96.56 15.97 96.06 16.72C95.9 16.95 95.29 17.46 94.9 17.71C94.47 17.98 94.52 17.93 94.2 18.0401C94.07 18.0801 93.16 18.2801 93.44 18.25C92.06 18.41 90.94 18 90.1 17.2701C89.11 16.4 88.7 15.35 88.68 14.14C88.67 14.09 88.67 14.05 88.67 14.01Z" fill="#212322"/>
<path d="M131.07 98.52C131.04 80.45 126.64 61.98 114.29 48.28C109.1 42.53 102.63 37.9 95.54 34.7V29.58C95.54 26.05 90.07 26.05 90.07 29.58V32.55C88.89 32.15 87.69 31.79 86.49 31.48C84.52 30.96 82.52 30.59 80.5 30.33C79.62 30.22 78.76 30.13 77.92 30.29C77.63 30.32 77.34 30.41 77.05 30.55C77.01 30.57 76.96 30.59 76.92 30.61C76.59 30.76 76.33 30.99 76.12 31.27C70.66 36.41 65.21 41.54 59.75 46.68C49.09 56.73 38.44 66.76 27.78 76.8C20.94 83.24 14.11 89.67 7.28 96.11C7.14 96.24 6.99 96.38 6.85 96.51C6.84 96.52 6.84 96.52 6.83 96.53C6.65 96.7 6.49 96.9 6.37 97.12C6.34 97.17 6.31 97.22 6.29 97.27C6.29 97.28 6.28 97.28 6.28 97.29C6.12 97.64 6.04 98.02 6.05 98.4C6.05 98.41 6.05 98.43 6.05 98.44V142.11C6.05 143.6 7.29 144.84 8.78 144.84H128.34C129.83 144.84 131.07 143.6 131.07 142.11V98.53C131.07 98.53 131.07 98.53 131.07 98.52ZM27.33 84.73C37.98 74.7 48.64 64.66 59.3 54.63C66 48.32 72.7 42.01 79.4 35.7C79.61 35.71 79.81 35.73 80.02 35.75C80.11 35.76 80.25 35.78 80.38 35.79C80.6 35.82 80.83 35.86 81.05 35.89C81.78 36.01 82.5 36.15 83.22 36.31C85.07 36.72 86.9 37.24 88.69 37.85C89.15 38.01 89.61 38.17 90.06 38.34V65.84C90.06 69.37 95.53 69.37 95.53 65.84V40.77C97.71 41.88 99.8 43.15 101.81 44.54C102.39 44.94 102.97 45.36 103.53 45.79C103.57 45.82 103.67 45.89 103.74 45.95C103.82 46.01 103.9 46.07 103.98 46.14C104.32 46.41 104.65 46.68 104.98 46.95C106.2 47.96 107.37 49.03 108.5 50.15C109.69 51.33 110.81 52.57 111.88 53.85C112.15 54.17 112.41 54.49 112.67 54.82C112.7 54.86 112.83 55.02 112.89 55.1C112.97 55.21 113.06 55.32 113.14 55.43C113.7 56.18 114.24 56.94 114.76 57.71C115.81 59.27 116.78 60.88 117.67 62.53C118.12 63.36 118.54 64.21 118.95 65.06C119.16 65.5 119.36 65.94 119.56 66.38C119.66 66.6 119.76 66.83 119.86 67.05C119.9 67.15 119.94 67.24 119.99 67.34C120 67.38 120.03 67.44 120.07 67.54C123.85 76.68 125.33 86.09 125.56 95.79C120.08 95.79 114.61 95.78 109.13 95.78C95.15 95.77 81.16 95.76 67.18 95.75C53.43 95.74 39.68 95.73 25.93 95.72C22.5 95.72 19.07 95.72 15.65 95.71C19.55 92.05 23.44 88.39 27.33 84.73ZM125.61 139.38H11.51V128.28H125.61V139.38ZM125.61 122.81H11.51V118.89H125.61V122.81ZM125.61 113.42H11.51V101.17C17 101.17 22.49 101.18 27.97 101.18C41.95 101.19 55.94 101.2 69.92 101.21C83.67 101.22 97.42 101.23 111.17 101.24C115.98 101.24 120.79 101.25 125.61 101.25V113.42Z" fill="#212322"/>
<path d="M65.89 71.2801C65.89 71.1301 65.89 71.0401 65.89 71.0001C65.9 70.9601 65.91 70.9201 65.92 70.8701C65.92 70.8601 66.12 70.2301 66.05 70.3501C66.14 70.1701 66.24 69.9901 66.35 69.8201C66.21 70.0601 66.62 69.4901 66.65 69.4601C66.67 69.4401 67.07 69.1301 67.06 69.1201C67.25 69.0001 67.45 68.9001 67.66 68.8001C67.21 69.0201 68.05 68.7301 68.06 68.7201C68.11 68.7101 68.15 68.7001 68.19 68.6901C68.22 68.7001 68.31 68.7001 68.47 68.7001C71.99 68.6101 72 63.1401 68.47 63.2301C64.01 63.3501 60.54 66.8201 60.42 71.2801C60.33 74.8101 65.79 74.8001 65.89 71.2801Z" fill="#474441"/>
</svg>
