<svg width="73" height="186" viewBox="0 0 73 186" fill="none" xmlns="http://www.w3.org/2000/svg">
<path d="M2.8998 62.07V37.18C13.7298 37.18 32.1598 34.52 32.1598 14H59.3298V147H32.1598V52.38C32.1598 48.2 32.9198 42.5 33.6798 38.32L33.2998 38.13C32.5398 42.31 31.7798 48.39 29.4998 51.81C24.5598 60.74 12.7798 62.07 2.8998 62.07Z" fill="white"/>
<path d="M12.8998 68.07H11.8998V69.07H12.8998V68.07ZM12.8998 43.18V42.18H11.8998V43.18H12.8998ZM42.1598 20V19H41.1598V20H42.1598ZM69.3298 20H70.3298V19H69.3298V20ZM69.3298 153V154H70.3298V153H69.3298ZM42.1598 153H41.1598V154H42.1598V153ZM43.6798 44.32L44.6637 44.4989L44.7978 43.761L44.127 43.4256L43.6798 44.32ZM43.2998 44.13L43.747 43.2356L42.5545 42.6393L42.3159 43.9511L43.2998 44.13ZM39.4998 57.81L38.6678 57.2553L38.6448 57.2897L38.6248 57.3259L39.4998 57.81ZM13.8998 68.07V43.18H11.8998V68.07H13.8998ZM12.8998 44.18C18.3634 44.18 25.883 43.5152 32.0675 40.1642C35.1759 38.48 37.962 36.109 39.9665 32.7965C41.9716 29.4827 43.1598 25.2842 43.1598 20H41.1598C41.1598 24.9758 40.0442 28.8047 38.2553 31.761C36.4657 34.7185 33.9674 36.86 31.1147 38.4058C25.3766 41.5148 18.2662 42.18 12.8998 42.18V44.18ZM42.1598 21H69.3298V19H42.1598V21ZM68.3298 20V153H70.3298V20H68.3298ZM69.3298 152H42.1598V154H69.3298V152ZM43.1598 153V58.38H41.1598V153H43.1598ZM43.1598 58.38C43.1598 54.2888 43.9076 48.6573 44.6637 44.4989L42.6959 44.1411C41.932 48.3427 41.1598 54.1112 41.1598 58.38H43.1598ZM44.127 43.4256L43.747 43.2356L42.8526 45.0244L43.2326 45.2144L44.127 43.4256ZM42.3159 43.9511C41.9277 46.0863 41.5585 48.5899 40.9954 51.0301C40.4311 53.4753 39.7029 55.7025 38.6678 57.2553L40.3319 58.3647C41.5767 56.4975 42.3685 53.9747 42.9442 51.4799C43.5211 48.9801 43.9119 46.3537 44.2837 44.3089L42.3159 43.9511ZM38.6248 57.3259C36.3221 61.4884 32.4066 63.9292 27.7632 65.3314C23.108 66.7372 17.8104 67.07 12.8998 67.07V69.07C17.8692 69.07 23.4016 68.7378 28.3414 67.246C33.2931 65.7507 37.7375 63.0615 40.3748 58.2941L38.6248 57.3259Z" fill="black"/>
</svg>
