<svg width="25" height="25" viewBox="0 0 25 25" fill="none" xmlns="http://www.w3.org/2000/svg">
<path fill-rule="evenodd" clip-rule="evenodd" d="M11.3949 14.31C11.3849 14.35 11.3749 14.38 11.3649 14.41C10.8649 16.35 10.8148 16.79 10.3048 17.69C10.0648 18.12 9.78485 18.53 9.48485 18.92C9.45485 18.96 9.41485 19.02 9.35485 19.01C9.28485 18.99 9.27485 18.93 9.26485 18.87C9.18485 18.28 9.13485 17.69 9.15485 17.09C9.18485 16.31 9.27485 16.05 10.2748 11.83C10.2848 11.77 10.2749 11.71 10.2549 11.65C10.0149 11 9.96485 10.35 10.1748 9.68C10.6248 8.24 12.2549 8.13 12.5449 9.32C12.7249 10.05 12.2549 11.01 11.8949 12.43C11.5949 13.6 12.9749 14.43 14.1549 13.58C15.2449 12.79 15.6648 10.9 15.5848 9.57C15.4248 6.9 12.5049 6.32 10.6449 7.18C8.51485 8.16 8.03485 10.8 8.99485 12.01C9.11485 12.16 9.21485 12.26 9.17485 12.41C9.11485 12.65 9.05485 12.89 8.99485 13.13C8.94485 13.31 8.79485 13.37 8.61485 13.3C8.26485 13.16 7.96485 12.93 7.72485 12.63C6.90485 11.62 6.67485 9.62 7.75485 7.93C8.95485 6.06 11.1748 5.3 13.2048 5.53C15.6248 5.81 17.1648 7.46 17.4448 9.34C17.5748 10.2 17.4848 12.31 16.2748 13.8C14.8948 15.51 12.6549 15.63 11.6149 14.58C11.5349 14.5 11.4649 14.4 11.3949 14.31Z" fill="#212322"/>
<path d="M12.1447 0C5.49473 0 0.0947266 5.41 0.0947266 12.05C0.0947266 18.7 5.50473 24.1 12.1447 24.1C18.7947 24.1 24.1947 18.69 24.1947 12.05C24.2047 5.41 18.7947 0 12.1447 0ZM12.1447 22.56C6.35473 22.56 1.63473 17.85 1.63473 12.05C1.63473 6.26 6.34473 1.54 12.1447 1.54C17.9347 1.54 22.6547 6.25 22.6547 12.05C22.6547 17.85 17.9447 22.56 12.1447 22.56Z" fill="#212322"/>
</svg>
