<svg width="27" height="30" viewBox="0 0 27 30" fill="none" xmlns="http://www.w3.org/2000/svg">
<g clip-path="url(#clip0_21_1889)">
<path d="M19.0002 21.2041H8.2002" stroke="#212322" stroke-width="2" stroke-miterlimit="10" stroke-linecap="round" stroke-linejoin="round"/>
<path d="M19.0002 14.9041H8.2002" stroke="#212322" stroke-width="2" stroke-miterlimit="10" stroke-linecap="round" stroke-linejoin="round"/>
<path d="M12.3002 8.7041H8.2002" stroke="#212322" stroke-width="2" stroke-miterlimit="10" stroke-linecap="round" stroke-linejoin="round"/>
<path d="M19.2997 1.00408H7.79971C4.29971 0.804085 1.29973 3.50409 1.09973 7.00409C1.09973 7.30409 1.09973 7.60399 1.09973 7.90399V21.704C0.799732 25.204 3.39972 28.3039 6.89972 28.6039C7.19972 28.6039 7.49971 28.6039 7.79971 28.6039H19.2997C22.7997 28.8039 25.7997 26.1039 25.9997 22.6039C25.9997 22.3039 25.9997 22.004 25.9997 21.704V7.90399C26.2997 4.40399 23.6997 1.30408 20.1997 1.00408C19.8997 1.00408 19.5997 1.00408 19.2997 1.00408Z" stroke="#212322" stroke-width="2" stroke-miterlimit="10" stroke-linecap="round" stroke-linejoin="round"/>
</g>
<defs>
<clipPath id="clip0_21_1889">
<rect width="27" height="29.6" fill="white"/>
</clipPath>
</defs>
</svg>
