<svg width="271" height="263" viewBox="0 0 271 263" fill="none" xmlns="http://www.w3.org/2000/svg">
<g clip-path="url(#clip0_1657_8126)">
<path d="M6.61001 137.36C-5.18999 59.31 28.84 13.15 106.9 1.35001C184.96 -10.45 257.59 57.06 269.39 135.12C281.19 213.18 221.94 249.38 143.88 261.18C65.83 272.98 18.41 215.42 6.61001 137.36Z" fill="#F3F9FE"/>
<path d="M223.96 194.23H23.21C13.1 194.23 4.88 186.01 4.88 175.9V55.2C4.88 45.09 13.1 36.87 23.21 36.87H223.95C234.06 36.87 242.28 45.09 242.28 55.2V175.9C242.29 186.01 234.06 194.23 223.96 194.23ZM23.21 37.47C13.43 37.47 5.48 45.42 5.48 55.2V175.9C5.48 185.68 13.43 193.63 23.21 193.63H223.95C233.73 193.63 241.68 185.68 241.68 175.9V55.2C241.68 45.42 233.73 37.47 223.95 37.47H23.21Z" fill="#212322"/>
<path d="M241.93 165.82H5.24006C5.07006 165.82 4.94006 165.69 4.94006 165.52C4.94006 165.35 5.07006 165.22 5.24006 165.22H241.92C242.09 165.22 242.22 165.35 242.22 165.52C242.22 165.69 242.09 165.82 241.93 165.82Z" fill="#212322"/>
<path d="M163.36 235.58H83.81C83.72 235.58 83.64 235.54 83.58 235.47C83.52 235.4 83.5 235.31 83.51 235.23L90.55 193.88C90.57 193.74 90.7 193.63 90.85 193.63H156.32C156.47 193.63 156.59 193.74 156.62 193.88L163.66 235.23C163.67 235.32 163.65 235.41 163.59 235.47C163.53 235.54 163.45 235.58 163.36 235.58ZM84.16 234.98H163L156.06 194.23H91.1L84.16 234.98Z" fill="#212322"/>
<path d="M174.07 243.61H73.1C70.72 243.61 68.78 241.67 68.78 239.29C68.78 236.91 70.72 234.97 73.1 234.97H174.07C176.45 234.97 178.39 236.91 178.39 239.29C178.39 241.68 176.45 243.61 174.07 243.61ZM73.1 235.58C71.05 235.58 69.38 237.25 69.38 239.3C69.38 241.35 71.05 243.02 73.1 243.02H174.07C176.12 243.02 177.79 241.35 177.79 239.3C177.79 237.25 176.12 235.58 174.07 235.58H73.1Z" fill="#212322"/>
<path d="M123.58 183.43C121.65 183.43 120.08 181.86 120.08 179.93C120.08 178 121.65 176.43 123.58 176.43C125.51 176.43 127.08 178 127.08 179.93C127.08 181.86 125.51 183.43 123.58 183.43ZM123.58 177.04C121.98 177.04 120.68 178.34 120.68 179.94C120.68 181.54 121.98 182.84 123.58 182.84C125.18 182.84 126.48 181.54 126.48 179.94C126.48 178.34 125.18 177.04 123.58 177.04Z" fill="#212322"/>
<path d="M23.1799 193.93C21.5899 193.93 20.0399 193.72 18.5699 193.33C20.1799 192.91 21.8199 193.16 23.1799 193.93Z" fill="black"/>
<path d="M98.11 251.75C78.61 251.75 60.2799 244.16 46.5 230.37L44.83 228.7C31.04 214.91 23.45 196.58 23.45 177.09C23.45 157.6 31.04 139.26 44.83 125.48L116.16 41.57C116.22 41.5 116.3 41.46 116.39 41.46H128.83C128.91 41.46 128.99 41.49 129.04 41.55L153.24 65.8C153.36 65.92 153.36 66.11 153.24 66.22L69.0999 150.38C54.2099 165.27 54.2099 189.49 69.0999 204.38L70.83 206.11C85.72 221 109.94 221 124.83 206.11L196.49 121.88C196.55 121.81 196.63 121.77 196.72 121.77L208.63 121.74C208.71 121.74 208.78 121.77 208.84 121.83L233.56 146.1C233.62 146.16 233.65 146.23 233.65 146.31C233.65 146.39 233.62 146.47 233.56 146.52L149.72 230.36C135.94 244.15 117.61 251.75 98.11 251.75ZM116.53 42.06L45.27 125.88C31.58 139.57 24.0499 157.75 24.0499 177.09C24.0499 196.43 31.58 214.6 45.25 228.28L46.9199 229.95C75.1399 258.17 121.07 258.17 149.3 229.95L232.92 146.33L208.5 122.35L196.85 122.38L125.26 206.52C117.92 213.86 108.18 217.9 97.8199 217.9C87.4599 217.9 77.72 213.87 70.4 206.54L68.6699 204.81C61.3499 197.49 57.31 187.75 57.31 177.39C57.31 167.03 61.34 157.29 68.6699 149.97L152.61 66.03L128.71 42.08H116.53V42.06Z" fill="#212322"/>
<path d="M128.84 42.06H116.4C116.23 42.06 116.1 41.93 116.1 41.76C116.1 41.59 116.23 41.46 116.4 41.46H128.84C129.01 41.46 129.14 41.59 129.14 41.76C129.14 41.93 129.01 42.06 128.84 42.06Z" fill="#212322"/>
<path d="M153.04 66.31H140.32C140.15 66.31 140.02 66.18 140.02 66.01C140.02 65.84 140.15 65.71 140.32 65.71H153.04C153.21 65.71 153.34 65.84 153.34 66.01C153.34 66.17 153.21 66.31 153.04 66.31Z" fill="#212322"/>
<path d="M233.31 146.62H220.72C220.55 146.62 220.42 146.49 220.42 146.32C220.42 146.15 220.55 146.02 220.72 146.02H233.31C233.48 146.02 233.61 146.15 233.61 146.32C233.61 146.49 233.48 146.62 233.31 146.62Z" fill="black"/>
<path d="M196.6 122.16L112.45 206.31C97.42 221.34 73.06 221.34 58.03 206.31L56.3 204.58C41.27 189.55 41.27 165.19 56.3 150.16L140.45 66.01L116.29 41.85L32.45 125.69C4.05997 154.08 4.05997 200.1 32.45 228.49L34.12 230.16C62.51 258.55 108.53 258.55 136.92 230.16L220.76 146.32L196.6 122.16Z" fill="#D8D3A0"/>
<path d="M112.44 206.32C97.41 221.35 73.05 221.35 58.02 206.32L57.21 205.51L33.34 229.38L34.12 230.16C62.51 258.55 108.53 258.55 136.92 230.16L220.76 146.32L196.6 122.16L112.44 206.32Z" fill="#212322"/>
<path d="M196.601 122.155L172.673 146.084L196.828 170.238L220.756 146.31L196.601 122.155Z" fill="white"/>
<path d="M196.83 170.54C196.75 170.54 196.68 170.51 196.62 170.45L172.46 146.29C172.34 146.17 172.34 145.98 172.46 145.87L196.39 121.94C196.5 121.83 196.7 121.83 196.81 121.94L220.97 146.1C221.09 146.22 221.09 146.41 220.97 146.52L197.04 170.45C196.98 170.51 196.91 170.54 196.83 170.54ZM173.1 146.09L196.83 169.82L220.33 146.32L196.6 122.59L173.1 146.09Z" fill="black"/>
<path d="M116.292 41.8472L92.3633 65.7755L116.518 89.93L140.446 66.0018L116.292 41.8472Z" fill="white"/>
<path d="M116.52 90.24C116.44 90.24 116.36 90.21 116.31 90.15L92.1499 65.99C92.0299 65.87 92.0299 65.68 92.1499 65.57L116.08 41.64C116.19 41.53 116.39 41.53 116.5 41.64L140.66 65.8C140.78 65.92 140.78 66.11 140.66 66.22L116.73 90.15C116.68 90.2 116.6 90.24 116.52 90.24ZM92.7899 65.78L116.52 89.51L140.02 66.01L116.29 42.28L92.7899 65.78Z" fill="#212322"/>
<path d="M85.52 251.75C66.02 251.75 47.69 244.16 33.91 230.37L32.24 228.7C18.45 214.91 10.86 196.58 10.86 177.09C10.86 157.6 18.45 139.26 32.24 125.48L116.08 41.64C116.19 41.53 116.39 41.53 116.5 41.64L140.66 65.8C140.78 65.92 140.78 66.11 140.66 66.22L56.51 150.37C41.62 165.26 41.62 189.48 56.51 204.37L58.24 206.1C73.13 220.99 97.35 220.99 112.24 206.1L196.39 121.95C196.5 121.84 196.7 121.84 196.81 121.95L220.97 146.11C221.09 146.23 221.09 146.42 220.97 146.53L137.13 230.37C123.34 244.15 105.01 251.75 85.52 251.75ZM116.29 42.28L32.66 125.9C18.99 139.57 11.46 157.75 11.46 177.09C11.46 196.43 18.99 214.6 32.66 228.28L34.33 229.95C62.55 258.17 108.48 258.17 136.71 229.95L220.34 146.32L196.61 122.59L112.67 206.53C105.35 213.85 95.61 217.89 85.25 217.89C74.89 217.89 65.15 213.86 57.83 206.53L56.1 204.8C48.78 197.48 44.74 187.74 44.74 177.38C44.74 167.02 48.77 157.28 56.1 149.96L140.04 66.02L116.29 42.28Z" fill="#212322"/>
<path d="M92.7068 155.644L80.9763 150.598L70.3165 175.382L82.047 180.427L92.7068 155.644Z" fill="#DFE3E8"/>
<path d="M82.05 180.74C82.01 180.74 81.97 180.73 81.93 180.72L70.2 175.67C70.05 175.6 69.98 175.43 70.04 175.28L80.68 150.48C80.71 150.41 80.77 150.35 80.84 150.32C80.91 150.29 81 150.29 81.07 150.32L92.8 155.37C92.95 155.44 93.02 155.61 92.96 155.76L82.32 180.56C82.29 180.63 82.23 180.69 82.16 180.72C82.13 180.74 82.09 180.74 82.05 180.74ZM70.71 175.24L81.89 180.05L92.29 155.81L81.11 151L70.71 175.24Z" fill="black"/>
<path d="M90.36 161.07L76.83 160.22L80.96 150.6L92.69 155.65L90.36 161.07Z" fill="#020202"/>
<path d="M87.1413 168.6L75.4108 163.554L70.3219 175.386L82.0524 180.431L87.1413 168.6Z" fill="#020202"/>
<path d="M63.26 177.97C66.12 174.49 67.07 172.05 70.47 170.21L70.77 170.05C71.86 169.46 73.16 170.32 73.06 171.55L72.89 173.62C72.72 175.63 74.63 176.23 74.65 176.25C75.75 176.72 76.42 176.26 79.19 175.89L80.17 173.61L82.9 172.63L85.22 173.63L85.84 176.96L92.41 185.57L101.88 189.02L103.76 192.18L100.06 195.07L84.84 196.12L75.7 189.66L63.26 177.97Z" fill="white"/>
<path d="M84.84 196.43C84.78 196.43 84.72 196.41 84.67 196.37L75.53 189.91C75.52 189.9 75.51 189.89 75.5 189.88L63.06 178.18C62.94 178.07 62.93 177.89 63.03 177.77C63.84 176.78 64.52 175.86 65.11 175.04C66.64 172.94 67.84 171.28 70.33 169.94L70.63 169.78C71.24 169.45 71.95 169.48 72.53 169.86C73.11 170.24 73.42 170.88 73.36 171.57L73.19 173.64C73.06 175.14 74.23 175.76 74.74 175.95C74.75 175.95 74.76 175.96 74.77 175.97C75.42 176.25 75.89 176.16 77 175.95C77.52 175.85 78.15 175.73 78.98 175.61L79.89 173.49C79.92 173.41 79.99 173.35 80.06 173.33L82.79 172.35C82.86 172.32 82.94 172.33 83.01 172.36L85.33 173.36C85.42 173.4 85.49 173.48 85.51 173.58L86.12 176.84L92.59 185.33L101.98 188.75C102.05 188.77 102.1 188.82 102.14 188.88L104.02 192.04C104.1 192.17 104.07 192.34 103.95 192.43L100.25 195.32C100.2 195.36 100.15 195.38 100.09 195.38L84.87 196.43C84.85 196.43 84.85 196.43 84.84 196.43ZM75.89 189.44L84.93 195.83L99.95 194.79L103.37 192.12L101.68 189.28L92.31 185.87C92.26 185.85 92.21 185.82 92.17 185.77L85.6 177.16C85.57 177.12 85.55 177.08 85.54 177.03L84.95 173.86L82.88 172.97L80.38 173.87L79.45 176.03C79.41 176.13 79.32 176.19 79.21 176.21C78.31 176.33 77.64 176.46 77.1 176.56C75.96 176.78 75.34 176.9 74.52 176.54C74.52 176.54 74.52 176.54 74.51 176.54C74 176.34 72.41 175.56 72.57 173.61L72.74 171.54C72.78 171.07 72.57 170.64 72.18 170.38C71.79 170.12 71.31 170.1 70.9 170.33L70.6 170.49C68.23 171.77 67.06 173.38 65.58 175.42C65.03 176.18 64.4 177.04 63.66 177.96L75.89 189.44Z" fill="black"/>
<path d="M84.75 196.44L84.66 196.38L75.49 189.89L62.85 178L63.03 177.78C63.84 176.79 64.52 175.87 65.11 175.05C66.64 172.95 67.84 171.29 70.33 169.95L70.63 169.79C71.24 169.46 71.95 169.49 72.53 169.87C73.11 170.25 73.42 170.89 73.36 171.58L73.19 173.65C73.06 175.15 74.23 175.77 74.74 175.96L74.79 175.98C75.44 176.25 75.9 176.16 77.01 175.95C77.53 175.85 78.16 175.73 78.99 175.61L79.95 173.37L82.92 172.3L85.5 173.41L86.14 176.83L92.61 185.32L102.1 188.78L104.16 192.26L100.18 195.37L100.09 195.38L84.75 196.44ZM75.89 189.44L84.93 195.83L99.95 194.79L103.37 192.12L101.68 189.28L92.23 185.84L92.18 185.77L85.57 177.1L84.97 173.86L82.9 172.97L80.4 173.87L79.41 176.18L79.24 176.2C78.34 176.32 77.67 176.45 77.13 176.55C75.99 176.77 75.37 176.89 74.55 176.53H74.54C74.02 176.33 72.44 175.55 72.6 173.6L72.77 171.53C72.81 171.06 72.6 170.63 72.21 170.37C71.82 170.11 71.34 170.09 70.93 170.32L70.63 170.48C68.26 171.76 67.09 173.37 65.61 175.41C65.06 176.17 64.43 177.03 63.69 177.95L75.89 189.44Z" fill="black"/>
<path d="M60.18 179.03L63.27 177.97L76.84 188.99L87.76 194.43L96.39 194.07L103.77 192.18L103.92 194.57L103.16 196.29L97.97 199.33C97.97 199.33 94.84 199.6 88.65 199.97C88.65 199.97 78.74 196.11 76.27 195.04L75.5 193.17L73.47 192.3L71.6 193.03C66.18 190.68 61.9 188.86 61.9 188.86L57.08 183.7L60.18 179.03Z" fill="#020202"/>
<path d="M84.19 179.98C84.05 179.98 83.92 179.88 83.9 179.74C83.87 179.58 83.97 179.42 84.13 179.39L87.28 178.75C87.44 178.72 87.6 178.82 87.63 178.98C87.66 179.14 87.56 179.3 87.4 179.33L84.25 179.97C84.23 179.98 84.21 179.98 84.19 179.98Z" fill="black"/>
<path d="M85.69 182.3C85.55 182.3 85.42 182.2 85.4 182.06C85.37 181.9 85.47 181.74 85.63 181.71L88.78 181.07C88.94 181.04 89.1 181.14 89.13 181.3C89.16 181.46 89.06 181.62 88.9 181.65L85.75 182.29C85.73 182.3 85.71 182.3 85.69 182.3Z" fill="black"/>
<path d="M87.1799 184.61C87.0399 184.61 86.9099 184.51 86.8899 184.37C86.8599 184.21 86.96 184.05 87.12 184.02L90.2699 183.38C90.4299 183.35 90.59 183.45 90.62 183.61C90.65 183.77 90.5499 183.93 90.3899 183.96L87.2399 184.6C87.2199 184.61 87.1999 184.61 87.1799 184.61Z" fill="black"/>
<path d="M102.32 90.03L25.35 76.5L25.47 88.44C25.56 97.46 31.76 106.23 40.63 107.81C40.63 107.81 66.8 111.28 88.28 115.05L73.75 153.63L97.3 161.96C97.3 161.96 113.54 128.89 118.37 113C121.56 102.52 113.1 91.93 102.32 90.03Z" fill="#212322"/>
<path d="M97.3 162.26C97.27 162.26 97.23 162.25 97.2 162.24L73.65 153.91C73.57 153.88 73.51 153.83 73.48 153.75C73.45 153.68 73.44 153.59 73.47 153.52L87.87 115.28C66.71 111.59 41.14 108.47 40.88 108.44C40.72 108.42 40.6 108.27 40.62 108.11C40.64 107.95 40.79 107.83 40.95 107.85C41.21 107.88 67.09 111.03 88.33 114.76C88.42 114.78 88.49 114.83 88.54 114.91C88.58 114.99 88.59 115.08 88.56 115.16L74.14 153.45L97.15 161.59C98.63 158.56 113.54 127.89 118.09 112.92C119.41 108.57 118.74 103.89 116.2 99.76C113.19 94.87 107.99 91.34 102.28 90.34L57.55 82.42C57.39 82.39 57.28 82.24 57.31 82.07C57.34 81.91 57.49 81.8 57.66 81.83L102.39 89.75C108.27 90.78 113.63 94.41 116.72 99.45C119.35 103.74 120.05 108.59 118.68 113.1C113.9 128.83 97.75 161.77 97.59 162.1C97.52 162.2 97.41 162.26 97.3 162.26Z" fill="#212322"/>
<path d="M88.28 115.35C88.25 115.35 88.21 115.34 88.18 115.33C88.02 115.27 87.94 115.1 88 114.95L92.41 102.48C92.47 102.32 92.64 102.24 92.79 102.3C92.95 102.36 93.03 102.53 92.97 102.68L88.56 115.15C88.52 115.27 88.4 115.35 88.28 115.35Z" fill="white"/>
<path d="M30.22 93.62L57.63 81.73V82.15L32.15 100.53L30.22 93.62Z" fill="#212322"/>
<path d="M54.01 52.02C53.58 51.69 53.17 51.36 52.78 51.05C53.22 51.35 53.63 51.67 54.01 52.02Z" fill="white"/>
<path d="M54.01 52.32C53.95 52.32 53.88 52.3 53.83 52.26C53.57 52.06 53.32 51.86 53.07 51.66L52.6 51.29C52.47 51.19 52.45 51.01 52.54 50.88C52.64 50.75 52.82 50.72 52.95 50.81C53.39 51.11 53.82 51.45 54.21 51.81C54.33 51.92 54.34 52.1 54.24 52.23C54.18 52.29 54.1 52.32 54.01 52.32Z" fill="black"/>
<path d="M57.6299 65.94C57.4599 65.94 57.3299 65.81 57.3299 65.64V60.21C57.3299 59.48 57.2599 58.75 57.1099 58.04C57.0799 57.88 57.1799 57.72 57.3399 57.69C57.4999 57.66 57.6599 57.76 57.6899 57.92C57.8399 58.67 57.9199 59.44 57.9199 60.21V65.64C57.9299 65.8 57.7999 65.94 57.6299 65.94Z" fill="black"/>
<path d="M49.17 116.7L58.05 120.58C58.89 120.95 59.27 121.92 58.91 122.76C58.54 123.6 57.56 123.98 56.72 123.62L47.85 119.74L49.17 116.7Z" fill="#F3F9FE"/>
<path d="M52.1799 108.14H38.2399L38.0799 113C37.0599 116.57 39.7399 120.12 43.4399 120.12H52.4999L52.1799 108.14Z" fill="#F3F9FE"/>
<path d="M60.6499 115.85L62.7699 117.1C63.2099 117.36 63.4799 117.83 63.4799 118.34V118.53C63.4799 119.64 62.2799 120.33 61.3299 119.77L60.6599 119.38C59.8699 118.92 58.9699 118.67 58.0499 118.67H50.7599V115.16H58.0499C58.9599 115.14 59.8599 115.39 60.6499 115.85Z" fill="#F3F9FE"/>
<path d="M62.2899 112.35L64.4099 113.6C64.8499 113.86 65.1199 114.33 65.1199 114.84V115.03C65.1199 116.14 63.9199 116.83 62.9699 116.27L62.2999 115.88C61.5099 115.42 60.6099 115.17 59.6899 115.17H51.4299V111.66H59.6899C60.5899 111.64 61.4899 111.89 62.2899 112.35Z" fill="#F3F9FE"/>
<path d="M62.2899 108.85L64.4099 110.1C64.8499 110.36 65.1199 110.83 65.1199 111.34V111.53C65.1199 112.64 63.9199 113.33 62.9699 112.77L62.2999 112.38C61.5099 111.92 60.6099 111.67 59.6899 111.67H51.4299V108.16H59.6899C60.5899 108.14 61.4899 108.39 62.2899 108.85Z" fill="#F3F9FE"/>
<path d="M35.2299 99.41L45.8399 108.78L46.4199 120.12H44.3199C40.3299 120.12 36.7999 117.56 35.5399 113.78L26.5699 106.62L35.2299 99.41Z" fill="#F3F9FE"/>
<path d="M36.7699 100.77L31.5399 110.89L26.5699 106.62L35.2299 99.41L36.7699 100.77Z" fill="#212322"/>
<path d="M62.0498 120.26C61.7498 120.26 61.4498 120.18 61.1698 120.02L60.4998 119.63C59.7498 119.19 58.8998 118.96 58.0398 118.96H53.6298C53.4598 118.96 53.3298 118.83 53.3298 118.66C53.3298 118.49 53.4598 118.36 53.6298 118.36H58.0398C59.0098 118.36 59.9698 118.62 60.7998 119.11L61.4698 119.5C61.8198 119.71 62.2498 119.71 62.5998 119.51C62.9598 119.31 63.1698 118.94 63.1698 118.53V118.34C63.1698 117.94 62.9598 117.57 62.6098 117.36L60.4898 116.11C59.7398 115.67 58.8898 115.44 58.0298 115.44H52.5198C52.3498 115.44 52.2198 115.31 52.2198 115.14C52.2198 114.97 52.3498 114.84 52.5198 114.84H58.0298C58.9998 114.84 59.9598 115.1 60.7898 115.59L62.9098 116.84C63.4398 117.15 63.7698 117.72 63.7698 118.33V118.52C63.7698 119.15 63.4398 119.71 62.8998 120.02C62.6398 120.18 62.3498 120.26 62.0498 120.26Z" fill="#212322"/>
<path d="M63.6799 116.76C63.3799 116.76 63.0799 116.68 62.7999 116.52L62.1299 116.13C61.3899 115.69 60.5299 115.46 59.6699 115.46H53.1399C52.9699 115.46 52.8399 115.33 52.8399 115.16C52.8399 114.99 52.9699 114.86 53.1399 114.86H59.6699C60.6399 114.86 61.5999 115.12 62.4299 115.61L63.0999 116C63.4499 116.21 63.8799 116.21 64.2299 116.01C64.5899 115.81 64.7999 115.44 64.7999 115.03V114.84C64.7999 114.44 64.5899 114.07 64.2399 113.86L62.1199 112.61C61.3799 112.17 60.5199 111.94 59.6599 111.94H52.9499C52.7799 111.94 52.6499 111.81 52.6499 111.64C52.6499 111.47 52.7799 111.34 52.9499 111.34H59.6599C60.6299 111.34 61.5899 111.6 62.4199 112.09L64.5399 113.34C65.0699 113.65 65.3999 114.22 65.3999 114.83V115.02C65.3999 115.65 65.0699 116.21 64.5299 116.52C64.2699 116.68 63.9799 116.76 63.6799 116.76Z" fill="#212322"/>
<path d="M57.4099 124.08C57.1499 124.08 56.8899 124.03 56.6399 123.92L48.6599 120.43H44.2199C40.2499 120.43 36.5899 117.77 35.2899 113.97L26.3899 106.86C26.3199 106.8 26.2799 106.72 26.2799 106.63C26.2799 106.54 26.3199 106.45 26.3899 106.4L35.0499 99.19C35.1599 99.1 35.3299 99.1 35.4399 99.19L45.3099 107.85H59.6899C60.6599 107.85 61.6199 108.11 62.4499 108.6L64.5699 109.85C65.0999 110.16 65.4299 110.73 65.4299 111.34V111.53C65.4299 112.16 65.0999 112.72 64.5599 113.03C64.0099 113.34 63.3699 113.34 62.8299 113.02L62.1599 112.63C61.4199 112.19 60.5599 111.96 59.6999 111.96H52.2799C52.1099 111.96 51.9799 111.83 51.9799 111.66C51.9799 111.49 52.1099 111.36 52.2799 111.36H59.6999C60.6699 111.36 61.6299 111.62 62.4599 112.11L63.1299 112.5C63.4799 112.71 63.9099 112.71 64.2599 112.51C64.6199 112.31 64.8299 111.94 64.8299 111.53V111.34C64.8299 110.94 64.6199 110.57 64.2699 110.36L62.1499 109.11C61.4099 108.67 60.5499 108.44 59.6899 108.44H45.1799C45.1099 108.44 45.0399 108.41 44.9799 108.37L35.2199 99.8L27.0399 106.61L35.7199 113.54C35.7699 113.58 35.7999 113.62 35.8199 113.68C37.0199 117.29 40.4699 119.82 44.2199 119.82C44.2299 119.82 44.2499 119.82 44.2599 119.82C44.3099 119.82 44.3599 119.82 44.4099 119.82H48.7199C48.7599 119.82 48.7999 119.83 48.8399 119.85L56.8799 123.37C57.1999 123.51 57.5599 123.52 57.8899 123.39C58.2199 123.26 58.4799 123.01 58.6199 122.69L58.6499 122.61C58.9399 121.94 58.6399 121.17 57.9699 120.88L50.0299 117.41C49.8799 117.34 49.8099 117.17 49.8799 117.02C49.9499 116.87 50.1199 116.8 50.2799 116.87L58.2199 120.34C59.1899 120.76 59.6299 121.9 59.2099 122.86L59.1799 122.94C58.9799 123.41 58.5999 123.77 58.1199 123.96C57.8799 124.04 57.6399 124.08 57.4099 124.08Z" fill="#212322"/>
<path d="M91.6 42.54L108.2 37.3C109.15 37 109.67 35.99 109.37 35.04C109.07 34.09 108.06 33.57 107.11 33.87L90.51 39.11L91.6 42.54Z" fill="#F3F9FE"/>
<path d="M93.18 46.44C93.41 47.19 94.2 47.6 94.95 47.37L99.19 46.03L99.74 47.79L100.77 47.47C102.41 46.96 102.94 45.5 102.93 45.51C103.59 44.04 102.45 42.05 100.74 42.58L94.11 44.66C93.36 44.91 92.94 45.7 93.18 46.44Z" fill="#F3F9FE"/>
<path d="M96.31 48.39C96.54 49.14 97.33 49.55 98.08 49.32L100.04 48.7L100.59 50.46L101.62 50.14C103.26 49.63 103.79 48.17 103.78 48.18C104.44 46.71 103.3 44.72 101.59 45.25L97.25 46.61C96.49 46.86 96.08 47.65 96.31 48.39Z" fill="#F3F9FE"/>
<path d="M87.8 40.01L90.06 35.52C90.6 34.45 90.7 33.21 90.34 32.07L90.24 31.75C89.96 30.86 90.45 29.92 91.34 29.64L91.53 29.58C92.42 29.3 93.36 29.79 93.64 30.68L94.28 32.69C94.64 33.83 94.54 35.08 94 36.15L91.37 41.35L98.33 39.15L101.8 50.14L95.22 52.22L83.47 70.72L72.2 67.88L85.37 46.02C86.01 43.95 86.82 41.94 87.8 40.01Z" fill="#F3F9FE"/>
<path d="M91 44.18C91.23 44.93 92.02 45.34 92.77 45.11L98.35 43.35L98.9 45.11L99.93 44.79C101.57 44.28 102.1 42.82 102.09 42.83C102.75 41.36 101.61 39.37 99.9 39.9L91.94 42.4C91.18 42.64 90.76 43.43 91 44.18Z" fill="#F3F9FE"/>
<path d="M92.34 45.47C91.6 45.47 90.93 45 90.7 44.27C90.56 43.83 90.61 43.37 90.82 42.96C91.03 42.55 91.39 42.26 91.83 42.12L99.79 39.62C100.56 39.38 101.32 39.57 101.87 40.15C102.52 40.84 102.74 41.91 102.4 42.81C102.34 42.97 102.17 43.04 102.01 42.99C101.85 42.93 101.78 42.76 101.83 42.6C102.08 41.92 101.92 41.08 101.43 40.56C101.2 40.32 100.71 39.95 99.96 40.19L92 42.69C91.72 42.78 91.48 42.97 91.34 43.24C91.2 43.5 91.17 43.8 91.26 44.09C91.44 44.66 92.03 44.99 92.6 44.84L93.99 44.4C94.15 44.35 94.32 44.44 94.37 44.6C94.42 44.76 94.33 44.93 94.17 44.98L92.76 45.42C92.64 45.45 92.49 45.47 92.34 45.47Z" fill="#212322"/>
<path d="M94.5299 47.74C93.7999 47.74 93.1199 47.27 92.8899 46.54C92.6099 45.64 93.1099 44.68 94.0199 44.39L100.65 42.31C101.43 42.07 102.18 42.26 102.73 42.84C103.38 43.53 103.6 44.6 103.26 45.5C103.2 45.66 103.03 45.73 102.87 45.68C102.71 45.62 102.64 45.45 102.69 45.29C102.94 44.61 102.78 43.77 102.29 43.25C102.06 43.01 101.57 42.64 100.82 42.88L94.1899 44.96C93.5999 45.14 93.2699 45.77 93.4599 46.35C93.6399 46.94 94.2699 47.26 94.8499 47.08L96.8599 46.45C97.0199 46.4 97.1899 46.49 97.2399 46.65C97.2899 46.81 97.1999 46.98 97.0399 47.03L95.0299 47.66C94.8699 47.71 94.6999 47.74 94.5299 47.74Z" fill="#212322"/>
<path d="M82.24 72.76C82.22 72.76 82.19 72.76 82.17 72.75L70.9 69.92C70.81 69.9 70.73 69.83 70.7 69.74C70.66 69.65 70.67 69.55 70.72 69.47L85.09 45.89C85.73 43.83 86.55 41.8 87.53 39.87L89.79 35.38C90.3 34.37 90.39 33.23 90.05 32.15L89.95 31.83C89.62 30.79 90.2 29.67 91.24 29.34L91.43 29.28C92.47 28.95 93.59 29.53 93.92 30.57L94.56 32.58C94.95 33.81 94.84 35.11 94.26 36.26L93.45 37.85L107.14 33.52C107.64 33.36 108.17 33.41 108.64 33.65C109.11 33.89 109.45 34.3 109.61 34.8L109.69 35.06C110.02 36.09 109.44 37.2 108.41 37.52L99.89 40.21C99.73 40.26 99.56 40.17 99.51 40.01C99.46 39.85 99.55 39.68 99.71 39.63L108.23 36.94C108.95 36.71 109.35 35.95 109.12 35.23L109.04 35C108.93 34.65 108.69 34.37 108.37 34.2C108.05 34.03 107.68 34 107.33 34.11L92.96 38.66C92.84 38.7 92.72 38.66 92.64 38.57C92.56 38.48 92.55 38.35 92.6 38.24L93.73 36.01C94.24 35 94.33 33.86 93.99 32.78L93.35 30.77C93.12 30.04 92.34 29.64 91.62 29.87L91.43 29.93C90.7 30.16 90.3 30.94 90.53 31.66L90.63 31.98C91.02 33.2 90.91 34.51 90.33 35.66L88.07 40.15C87.11 42.06 86.3 44.07 85.66 46.11C85.65 46.13 85.64 46.16 85.63 46.18L71.45 69.43L82.11 72.11L95 51.99C95.04 51.93 95.1 51.89 95.16 51.87L101.51 49.87C102.93 49.43 103.43 48.21 103.47 48.12C103.47 48.11 103.48 48.09 103.48 48.08C103.79 47.4 103.65 46.53 103.16 45.97C102.93 45.71 102.43 45.31 101.65 45.56L97.31 46.92C97.03 47.01 96.79 47.2 96.65 47.47C96.51 47.73 96.48 48.03 96.57 48.32C96.75 48.91 97.38 49.24 97.96 49.05L99.77 48.48C99.93 48.43 100.1 48.52 100.15 48.68C100.2 48.84 100.11 49.01 99.95 49.06L98.14 49.63C97.24 49.91 96.27 49.41 95.99 48.5C95.85 48.06 95.9 47.6 96.11 47.19C96.32 46.78 96.68 46.49 97.12 46.35L101.46 44.99C102.26 44.74 103.04 44.95 103.59 45.58C104.24 46.31 104.41 47.44 104.01 48.33H104C103.85 48.73 103.19 49.98 101.66 50.45L95.41 52.42L82.5 72.62C82.44 72.71 82.34 72.76 82.24 72.76Z" fill="#212322"/>
<path d="M90.9099 63.23L79.5799 77.45C76.5999 81.19 71.4499 82.39 67.1299 80.36L57.6299 75.88V81.83L17.4199 100.15L21.5799 60.2C21.5799 54.09 26.5199 49.14 32.6199 49.14H46.5899C47.1999 49.14 47.7899 49.19 48.3699 49.28C49.9799 49.54 51.4699 50.15 52.7599 51.02C52.7699 51.02 52.7699 51.03 52.7799 51.03C53.1699 51.34 53.5799 51.67 54.0099 52C54.0099 52 54.0099 52 54.0199 52.01C60.6099 57.2 70.4399 64.83 70.4399 64.83L79.2899 53.67L90.9099 63.23Z" fill="white"/>
<path d="M17.4199 100.46C17.3599 100.46 17.2999 100.44 17.2399 100.4C17.1499 100.34 17.1099 100.23 17.1199 100.13L21.2699 60.2C21.2799 53.95 26.3599 48.86 32.6099 48.86H46.5799C47.1999 48.86 47.8199 48.91 48.4099 49.01C50.0299 49.27 51.5499 49.88 52.9199 50.8C52.9299 50.81 52.9399 50.81 52.9499 50.82L53.4299 51.2C53.6799 51.4 53.9299 51.6 54.1899 51.8C54.1999 51.81 54.2099 51.82 54.2199 51.82C60.1499 56.49 68.8499 63.24 70.3799 64.43L79.0399 53.5C79.0899 53.44 79.1599 53.4 79.2399 53.39C79.3199 53.38 79.3999 53.41 79.4599 53.46L91.0999 63C91.2299 63.1 91.2499 63.29 91.1399 63.42L79.8199 77.64C76.7399 81.51 71.4699 82.74 67.0099 80.63L57.9399 76.35V81.83C57.9399 81.95 57.8699 82.05 57.7599 82.1L17.5499 100.42C17.4999 100.45 17.4599 100.46 17.4199 100.46ZM32.6199 49.45C26.6999 49.45 21.8799 54.28 21.8799 60.21C21.8799 60.22 21.8799 60.23 21.8799 60.24L17.7799 99.66L57.3399 81.63V75.87C57.3399 75.77 57.3899 75.67 57.4799 75.62C57.5699 75.57 57.6799 75.56 57.7699 75.6L67.2699 80.08C71.4799 82.07 76.4499 80.9 79.3599 77.26L90.4999 63.27L79.3399 54.1L70.6799 65.02C70.5799 65.15 70.3899 65.17 70.2599 65.07C70.1599 64.99 60.3599 57.38 53.8399 52.25C53.8399 52.25 53.8299 52.24 53.8199 52.24C53.5599 52.04 53.3099 51.84 53.0699 51.65L52.5999 51.28C51.2999 50.4 49.8699 49.83 48.3299 49.58C47.7699 49.49 47.1899 49.44 46.5999 49.44H32.6199V49.45Z" fill="#212322"/>
<path d="M3.0899 87.95C-0.2401 84.85 -0.4401 79.64 2.6499 76.3L24.7399 52.46L36.3299 63.22L14.7299 87.51C11.6399 90.85 6.4299 91.04 3.0899 87.95Z" fill="white"/>
<path d="M2.49 76.23C5.58 72.89 10.8 72.69 14.13 75.79L37.94 97.9L26.74 109.99L2.93 87.87C-0.409996 84.78 -0.599996 79.57 2.49 76.23Z" fill="white"/>
<path d="M26.74 110.29C26.66 110.29 26.59 110.26 26.54 110.21L2.72995 88.1C-0.720047 84.9 -0.920047 79.48 2.27995 76.03C2.37995 75.93 2.71995 75.54 3.25995 74.94C16.96 59.71 25.14 51.36 27.57 50.12C30.08 48.85 32.52 48.85 34.68 48.85H35.23C35.4 48.85 35.53 48.98 35.53 49.15C35.53 49.32 35.4 49.45 35.23 49.45H34.68C32.59 49.44 30.22 49.44 27.84 50.65C26.22 51.48 20.71 56.43 3.69995 75.33C3.14995 75.94 2.79995 76.32 2.70995 76.43C-0.260047 79.64 -0.0700467 84.68 3.12995 87.65L26.72 109.56L37.51 97.91L13.92 76.01C13.8 75.9 13.79 75.71 13.9 75.59C14.01 75.47 14.2 75.46 14.32 75.57L38.13 97.68C38.25 97.79 38.26 97.98 38.15 98.1L26.95 110.19C26.9 110.25 26.82 110.28 26.74 110.29C26.75 110.29 26.75 110.29 26.74 110.29Z" fill="#212322"/>
<path d="M19.9199 81.54C19.8499 81.54 19.7699 81.51 19.7199 81.46C19.5999 81.35 19.5899 81.16 19.6999 81.04L31.3699 68.36C31.4799 68.24 31.6699 68.23 31.7899 68.34C31.9099 68.45 31.9199 68.64 31.8099 68.76L20.1399 81.44C20.0799 81.5 19.9999 81.54 19.9199 81.54Z" fill="black"/>
<path d="M37.04 43.03H35.61C34.62 43.03 33.79 42.27 33.71 41.28L33.43 37.99C33.31 36.6 34.41 35.41 35.8 35.41H37.05V43.03H37.04Z" fill="#212322"/>
<path d="M35.49 49.3L41.62 55.14V41.63H35.49V49.3Z" fill="#F3F9FE"/>
<path d="M41.6199 55.44C41.5399 55.44 41.4699 55.41 41.4099 55.36L35.2799 49.52C35.2199 49.46 35.1899 49.38 35.1899 49.3V41.63C35.1899 41.46 35.3199 41.33 35.4899 41.33H41.6199C41.7899 41.33 41.9199 41.46 41.9199 41.63V55.14C41.9199 55.26 41.8499 55.37 41.7399 55.42C41.6999 55.43 41.6599 55.44 41.6199 55.44ZM35.7899 49.17L41.3199 54.44V41.93H35.7899V49.17Z" fill="#212322"/>
<path d="M35.49 43.95V41.62H41.62V46.76C41.07 46.87 39.96 47.01 38.7 46.59C36.71 45.94 35.74 44.39 35.49 43.95Z" fill="#212322"/>
<path d="M39.3801 45.27C42.1028 45.27 44.3101 42.8255 44.3101 39.81C44.3101 36.7945 42.1028 34.35 39.3801 34.35C36.6573 34.35 34.4501 36.7945 34.4501 39.81C34.4501 42.8255 36.6573 45.27 39.3801 45.27Z" fill="#F3F9FE"/>
<path d="M39.38 45.57C36.49 45.57 34.15 42.99 34.15 39.81C34.15 36.64 36.5 34.05 39.38 34.05C42.26 34.05 44.61 36.63 44.61 39.81C44.61 42.99 42.27 45.57 39.38 45.57ZM39.38 34.65C36.83 34.65 34.75 36.96 34.75 39.81C34.75 42.66 36.83 44.97 39.38 44.97C41.93 44.97 44.01 42.66 44.01 39.81C44.01 36.96 41.94 34.65 39.38 34.65Z" fill="#212322"/>
<path d="M37.24 42.21C37.72 42.65 38.33 42.94 39.02 43.01C40.56 43.17 41.96 42.16 42.34 40.71L37.24 42.21Z" fill="white"/>
<path d="M47.39 33.63C47.39 31.87 45.96 30.44 44.21 30.44C42.89 30.44 41.76 31.24 41.28 32.39H39.66C37.22 32.39 35.23 34.37 35.23 36.82H44.35V36.81C46.04 36.73 47.39 35.34 47.39 33.63Z" fill="#212322"/>
<path d="M208.14 223.59L198.76 211.69C198.52 211.39 198.89 210.98 199.21 211.19L209.64 218.13C209.84 218.26 210.12 218.15 210.16 217.91L211.55 210.68C211.62 210.34 212.09 210.3 212.2 210.63L215.56 220.41C215.63 220.63 215.9 220.71 216.08 220.57L220.85 217.1C221.13 216.9 221.49 217.19 221.36 217.5L219.35 222.54C219.27 222.74 219.39 222.96 219.6 223L224.81 223.98C225.14 224.04 225.19 224.49 224.89 224.63L218.44 227.55C218.25 227.64 218.18 227.87 218.29 228.04L223.53 236.31C223.73 236.63 223.34 236.99 223.04 236.77L215.17 230.92C214.98 230.78 214.72 230.87 214.65 231.09L212.74 236.8C212.63 237.13 212.14 237.1 212.08 236.75L211.07 231.01C211.02 230.74 210.7 230.64 210.51 230.82L200.6 240.03C200.3 240.31 199.86 239.92 200.09 239.59L207.58 228.71C207.72 228.5 207.6 228.22 207.35 228.18L201.22 227.19C200.87 227.13 200.83 226.65 201.16 226.53L207.97 224.12C208.21 224.04 208.29 223.77 208.14 223.59Z" fill="#212322"/>
<path d="M134.76 153.92C133.6 153.92 132.65 152.97 132.65 151.81C132.65 150.64 133.6 149.7 134.76 149.7C135.92 149.7 136.87 150.65 136.87 151.81C136.87 152.97 135.92 153.92 134.76 153.92ZM134.76 150.3C133.93 150.3 133.25 150.98 133.25 151.81C133.25 152.64 133.93 153.32 134.76 153.32C135.59 153.32 136.27 152.64 136.27 151.81C136.27 150.97 135.59 150.3 134.76 150.3Z" fill="#212322"/>
<path d="M124.37 144.1C125.458 144.1 126.34 142.354 126.34 140.2C126.34 138.046 125.458 136.3 124.37 136.3C123.282 136.3 122.4 138.046 122.4 140.2C122.4 142.354 123.282 144.1 124.37 144.1Z" fill="#212322"/>
<path d="M132.95 128.55C134.38 128.55 135.54 126.262 135.54 123.44C135.54 120.618 134.38 118.33 132.95 118.33C131.519 118.33 130.36 120.618 130.36 123.44C130.36 126.262 131.519 128.55 132.95 128.55Z" fill="#212322"/>
<path d="M238.949 115.838C249.137 107.791 250.873 93.0071 242.825 82.8184C234.778 72.6297 219.994 70.894 209.806 78.9416C199.617 86.9892 197.881 101.773 205.929 111.961C213.976 122.15 228.76 123.886 238.949 115.838Z" fill="#212322"/>
<path d="M223.83 119.89C236.814 119.89 247.34 109.364 247.34 96.38C247.34 83.3958 236.814 72.87 223.83 72.87C210.846 72.87 200.32 83.3958 200.32 96.38C200.32 109.364 210.846 119.89 223.83 119.89Z" fill="white"/>
<path d="M223.83 120.04C217.52 120.04 211.59 117.59 207.12 113.13C202.65 108.67 200.18 102.73 200.17 96.41C200.16 90.09 202.62 84.15 207.08 79.67C211.54 75.2 217.48 72.73 223.8 72.72C223.81 72.72 223.82 72.72 223.83 72.72C230.14 72.72 236.07 75.17 240.54 79.63C245.01 84.09 247.48 90.03 247.49 96.35C247.5 102.67 245.04 108.61 240.58 113.09C236.12 117.56 230.18 120.03 223.86 120.04C223.85 120.04 223.84 120.04 223.83 120.04ZM223.83 73.02C223.82 73.02 223.81 73.02 223.8 73.02C217.56 73.03 211.7 75.46 207.29 79.88C202.88 84.3 200.46 90.17 200.47 96.41C200.48 102.65 202.91 108.51 207.33 112.92C211.74 117.32 217.6 119.74 223.83 119.74C223.84 119.74 223.85 119.74 223.86 119.74C230.1 119.73 235.96 117.3 240.37 112.88C244.78 108.46 247.2 102.59 247.19 96.35C247.18 90.11 244.75 84.25 240.33 79.84C235.92 75.44 230.06 73.02 223.83 73.02Z" fill="white"/>
<mask id="mask0_1657_8126" style="mask-type:luminance" maskUnits="userSpaceOnUse" x="200" y="72" width="48" height="48">
<path d="M223.83 119.89C236.814 119.89 247.34 109.364 247.34 96.38C247.34 83.3958 236.814 72.87 223.83 72.87C210.846 72.87 200.32 83.3958 200.32 96.38C200.32 109.364 210.846 119.89 223.83 119.89Z" fill="white"/>
</mask>
<g mask="url(#mask0_1657_8126)">
<path d="M216.98 100.07C220.719 100.07 223.75 97.0435 223.75 93.31C223.75 89.5766 220.719 86.55 216.98 86.55C213.241 86.55 210.21 89.5766 210.21 93.31C210.21 97.0435 213.241 100.07 216.98 100.07Z" fill="#212322"/>
<path d="M231 98.21C233.507 98.21 235.54 96.1774 235.54 93.67C235.54 91.1626 233.507 89.13 231 89.13C228.493 89.13 226.46 91.1626 226.46 93.67C226.46 96.1774 228.493 98.21 231 98.21Z" fill="#212322"/>
<path d="M225.4 98.12C227.907 98.12 229.94 96.0874 229.94 93.58C229.94 91.0726 227.907 89.04 225.4 89.04C222.893 89.04 220.86 91.0726 220.86 93.58C220.86 96.0874 222.893 98.12 225.4 98.12Z" fill="#212322"/>
<path d="M232.55 90.67C233.73 86.89 231.56 82.85 227.7 81.65C223.84 80.45 219.76 82.53 218.58 86.31C217.75 88.95 218.57 91.73 220.46 93.56L232.55 90.67Z" fill="#212322"/>
<path d="M222.01 96.2L225.94 98.17L227.46 89.74L223.31 88.99L222.01 96.2Z" fill="#F3F9FE"/>
<path d="M223.03 90.56L223.31 88.99L227.46 89.74L227.04 93.21C226.65 93.22 225.69 93.18 224.88 92.74C223.62 92.05 223.15 90.89 223.03 90.56Z" fill="#212322"/>
<path d="M229.449 88.9322C229.812 86.9269 228.634 85.0352 226.819 84.7071C225.004 84.3789 223.239 85.7385 222.876 87.7439C222.514 89.7492 223.691 91.6408 225.506 91.969C227.321 92.2972 229.087 90.9376 229.449 88.9322Z" fill="#F3F9FE"/>
<path d="M224.9 90.46L227.96 89.87C227.7 90.78 226.86 91.38 225.99 91.22C225.52 91.14 225.14 90.85 224.9 90.46Z" fill="white"/>
<path d="M226.92 84.36C225.09 84.09 223.65 84.63 222.67 86.49C222.34 87.12 222.44 88.48 222.43 88.66L226.38 86.2L229.6 87.94C229.77 86.31 228.78 84.63 226.92 84.36Z" fill="#212322"/>
<path d="M205.38 96.64L198.34 103.68V122.11H200.23L215.55 106.8L205.38 96.64Z" fill="#F3F9FE"/>
<path d="M200.35 122.41H198.04V103.55L205.38 96.21L215.97 106.8L200.35 122.41ZM198.64 121.81H200.1L215.12 106.8L205.38 97.06L198.64 103.8V121.81Z" fill="#212322"/>
<path d="M243.44 113.4L245.58 115.04C248.68 112.56 247.05 106.4 244.57 103.3L238.27 96.62L227.04 105.59L233.35 112.27C235.82 115.37 240.34 115.88 243.44 113.4Z" fill="#F3F9FE"/>
<path d="M238.75 122.11V96.2H233.13L224.7 97.11L214.84 96.2H205.2V122.11H238.75Z" fill="#D8D3A0"/>
<path d="M214.714 107.567H233.114V96.2066H214.714V107.567Z" fill="#F3F9FE"/>
<path d="M237.26 115.45C239.635 115.45 241.56 113.525 241.56 111.15C241.56 108.775 239.635 106.85 237.26 106.85C234.885 106.85 232.96 108.775 232.96 111.15C232.96 113.525 234.885 115.45 237.26 115.45Z" fill="#D8D3A0"/>
<path d="M217.05 115.75C214.51 115.75 212.44 113.68 212.44 111.15C212.44 110.98 212.57 110.85 212.74 110.85C212.91 110.85 213.04 110.98 213.04 111.15C213.04 113.36 214.84 115.15 217.05 115.15C217.95 115.15 218.8 114.86 219.5 114.31C219.63 114.21 219.82 114.23 219.92 114.36C220.02 114.49 220 114.68 219.87 114.78C219.05 115.42 218.08 115.75 217.05 115.75Z" fill="#212322"/>
</g>
<path d="M223.83 120.19C217.48 120.19 211.51 117.72 207.01 113.23C202.51 108.74 200.02 102.76 200.02 96.4C200 83.27 210.67 72.58 223.8 72.57C223.81 72.57 223.82 72.57 223.83 72.57C230.18 72.57 236.15 75.04 240.65 79.53C245.15 84.02 247.64 90 247.64 96.36C247.65 102.72 245.18 108.7 240.68 113.2C236.19 117.7 230.21 120.19 223.85 120.19C223.85 120.19 223.84 120.19 223.83 120.19ZM223.83 73.17C223.82 73.17 223.81 73.17 223.8 73.17C217.6 73.18 211.77 75.6 207.39 79.99C203.01 84.38 200.6 90.21 200.61 96.41C200.62 102.61 203.04 108.44 207.43 112.82C211.81 117.19 217.63 119.6 223.82 119.6C223.83 119.6 223.84 119.6 223.85 119.6C230.05 119.59 235.88 117.17 240.26 112.78C244.64 108.39 247.05 102.56 247.04 96.36C247.03 90.16 244.61 84.33 240.22 79.95C235.84 75.57 230.02 73.17 223.83 73.17Z" fill="#212322"/>
<path d="M229.99 35.52C230.34 35.84 230.8 36.06 231.31 36.11C232.45 36.23 233.48 35.48 233.77 34.41L229.99 35.52Z" fill="white"/>
<path d="M147.37 46.99C159.205 46.99 168.8 37.3955 168.8 25.56C168.8 13.7246 159.205 4.13004 147.37 4.13004C135.534 4.13004 125.94 13.7246 125.94 25.56C125.94 37.3955 135.534 46.99 147.37 46.99Z" fill="#212322"/>
<path d="M146.93 45.83C158.765 45.83 168.36 36.2355 168.36 24.4C168.36 12.5646 158.765 2.97003 146.93 2.97003C135.095 2.97003 125.5 12.5646 125.5 24.4C125.5 36.2355 135.095 45.83 146.93 45.83Z" fill="white"/>
<path d="M146.94 45.97C146.53 45.97 146.11 45.96 145.69 45.93C139.94 45.6 134.66 43.05 130.82 38.75C126.98 34.45 125.05 28.91 125.38 23.16C125.71 17.41 128.26 12.13 132.56 8.29002C136.86 4.45002 142.4 2.53002 148.15 2.85002C160.03 3.53002 169.14 13.75 168.46 25.62C167.81 37.09 158.28 45.97 146.94 45.97ZM146.9 3.12002C141.68 3.12002 136.7 5.01002 132.77 8.52002C128.53 12.3 126.01 17.51 125.69 23.18C125.37 28.85 127.27 34.31 131.05 38.56C134.83 42.8 140.04 45.32 145.71 45.64C157.42 46.31 167.5 37.33 168.17 25.61C168.84 13.9 159.86 3.82002 148.14 3.15002C147.73 3.13002 147.31 3.12002 146.9 3.12002Z" fill="white"/>
<mask id="mask1_1657_8126" style="mask-type:luminance" maskUnits="userSpaceOnUse" x="125" y="2" width="44" height="44">
<path d="M146.93 45.83C158.765 45.83 168.36 36.2355 168.36 24.4C168.36 12.5646 158.765 2.97003 146.93 2.97003C135.095 2.97003 125.5 12.5646 125.5 24.4C125.5 36.2355 135.095 45.83 146.93 45.83Z" fill="white"/>
</mask>
<g mask="url(#mask1_1657_8126)">
<path d="M147.19 30.14L148.3 30.13C156.46 30.04 163.51 35.8 165.06 43.8L166.5 51.24L129.46 51.65L130.74 44.18C132.11 36.14 139.03 30.23 147.19 30.14Z" fill="#D8D3A0"/>
<path d="M153.76 30.99C151.95 30.41 150.02 30.11 148.02 30.13L147.46 30.14C145.33 30.16 143.29 30.55 141.4 31.25C142.26 33.86 144.72 35.73 147.61 35.7C150.55 35.66 153 33.68 153.76 30.99Z" fill="#F3F9FE"/>
<path d="M147.54 35.99C144.61 35.99 142.03 34.13 141.11 31.34C141.06 31.19 141.14 31.02 141.29 30.96C143.27 30.24 145.34 29.86 147.45 29.84L148.01 29.83C149.98 29.82 151.95 30.1 153.84 30.7C153.99 30.75 154.08 30.91 154.04 31.07C153.23 33.93 150.58 35.95 147.61 35.99C147.59 35.99 147.57 35.99 147.54 35.99ZM141.79 31.42C142.7 33.81 144.97 35.39 147.55 35.39C147.57 35.39 147.6 35.39 147.62 35.39C150.23 35.36 152.56 33.65 153.39 31.19C151.65 30.67 149.85 30.41 148.03 30.43L147.47 30.44C145.52 30.46 143.61 30.79 141.79 31.42Z" fill="#212322"/>
<path d="M150.895 22.2152L144.045 22.2906L144.146 31.3897L150.995 31.3143L150.895 22.2152Z" fill="#F3F9FE"/>
<path d="M144.15 31.71C143.99 31.71 143.85 31.58 143.85 31.41L143.75 22.31C143.75 22.23 143.78 22.15 143.84 22.1C143.9 22.05 143.97 22.01 144.05 22.01L150.9 21.93C150.98 21.92 151.06 21.96 151.11 22.02C151.17 22.08 151.2 22.15 151.2 22.23L151.3 31.33C151.3 31.5 151.17 31.63 151 31.63C150.83 31.63 150.7 31.5 150.7 31.33L150.6 22.53L144.35 22.6L144.45 31.4C144.45 31.57 144.31 31.7 144.15 31.71Z" fill="#212322"/>
<path d="M150.9 23L144.05 23.08L144.08 25.7C144.37 26.19 145.49 27.93 147.73 28.64C149.11 29.08 150.31 28.94 150.96 28.81L150.9 23Z" fill="#212322"/>
<path d="M151.97 20.34L146.48 19.05L140.95 20.39L140.85 11.15L151.82 11.03L151.97 20.34Z" fill="#212322"/>
<path d="M146.522 26.3332C149.565 26.2998 152.001 23.5463 151.964 20.1832C151.927 16.8202 149.431 14.121 146.388 14.1544C143.345 14.1879 140.908 16.9414 140.945 20.3044C140.982 23.6675 143.479 26.3667 146.522 26.3332Z" fill="#F3F9FE"/>
<path d="M146.47 26.64C143.29 26.64 140.69 23.82 140.65 20.32C140.61 16.8 143.19 13.9 146.39 13.87C146.41 13.87 146.43 13.87 146.45 13.87C149.63 13.87 152.23 16.69 152.27 20.19C152.29 21.89 151.71 23.5 150.63 24.71C149.55 25.94 148.09 26.62 146.53 26.64C146.51 26.64 146.49 26.64 146.47 26.64ZM146.45 14.47C146.43 14.47 146.42 14.47 146.4 14.47C143.53 14.5 141.22 17.12 141.26 20.31C141.29 23.5 143.67 26.07 146.53 26.04C147.92 26.03 149.21 25.41 150.18 24.32C151.16 23.21 151.69 21.75 151.67 20.2C151.63 17.02 149.3 14.47 146.45 14.47Z" fill="#212322"/>
<path d="M144.06 23.55C144.39 23.91 144.84 24.17 145.36 24.27C146.52 24.49 147.63 23.82 148.01 22.74L144.06 23.55Z" fill="white"/>
</g>
<path d="M146.96 46.12C146.54 46.12 146.12 46.11 145.69 46.08C139.9 45.75 134.58 43.18 130.72 38.85C126.86 34.52 124.91 28.94 125.24 23.15C125.57 17.36 128.14 12.04 132.47 8.18003C136.8 4.32003 142.37 2.37003 148.17 2.70003C160.13 3.38003 169.3 13.67 168.62 25.63C168.29 31.42 165.72 36.74 161.39 40.6C157.37 44.19 152.29 46.12 146.96 46.12ZM146.9 3.27003C141.71 3.27003 136.77 5.15003 132.87 8.63003C128.66 12.39 126.16 17.56 125.84 23.19C125.52 28.82 127.41 34.25 131.16 38.46C134.92 42.67 140.09 45.17 145.72 45.49C151.36 45.81 156.78 43.92 160.99 40.17C165.2 36.41 167.7 31.24 168.02 25.61C168.69 13.98 159.76 3.98003 148.14 3.31003C147.72 3.28003 147.31 3.27003 146.9 3.27003Z" fill="#212322"/>
<path d="M190.04 78.47C202.577 78.47 212.74 68.3069 212.74 55.77C212.74 43.2332 202.577 33.07 190.04 33.07C177.503 33.07 167.34 43.2332 167.34 55.77C167.34 68.3069 177.503 78.47 190.04 78.47Z" fill="#212322"/>
<path d="M189.5 77.49C202.037 77.49 212.2 67.3269 212.2 54.79C212.2 42.2532 202.037 32.09 189.5 32.09C176.963 32.09 166.8 42.2532 166.8 54.79C166.8 67.3269 176.963 77.49 189.5 77.49Z" fill="white"/>
<path d="M189.5 77.65C176.91 77.65 166.66 67.41 166.65 54.82C166.64 42.22 176.88 31.95 189.48 31.94C189.49 31.94 189.5 31.94 189.51 31.94C195.61 31.94 201.34 34.31 205.65 38.62C209.97 42.93 212.35 48.67 212.36 54.77C212.37 60.87 210 66.62 205.68 70.94C201.37 75.26 195.63 77.64 189.53 77.65C189.52 77.65 189.51 77.65 189.5 77.65ZM189.5 32.24C189.49 32.24 189.48 32.24 189.48 32.24C183.46 32.25 177.79 34.6 173.54 38.86C169.28 43.12 166.94 48.79 166.95 54.82C166.96 60.84 169.31 66.51 173.57 70.76C177.83 75.01 183.49 77.35 189.5 77.35C189.51 77.35 189.52 77.35 189.52 77.35C195.54 77.34 201.21 74.99 205.46 70.73C209.72 66.47 212.06 60.8 212.05 54.77C212.04 42.34 201.92 32.24 189.5 32.24Z" fill="white"/>
<mask id="mask2_1657_8126" style="mask-type:luminance" maskUnits="userSpaceOnUse" x="166" y="32" width="47" height="46">
<path d="M189.5 77.49C202.037 77.49 212.2 67.3269 212.2 54.79C212.2 42.2532 202.037 32.09 189.5 32.09C176.963 32.09 166.8 42.2532 166.8 54.79C166.8 67.3269 176.963 77.49 189.5 77.49Z" fill="white"/>
</mask>
<g mask="url(#mask2_1657_8126)">
<path d="M189.35 60.27H191.14C192.83 60.27 194.42 58.71 196.01 59.17C199.08 60.07 201.88 61.79 204.08 64.2L216.74 78.07L163.64 78.13L176.27 64.23C178.47 61.8 181.29 60.07 184.38 59.17C185.97 58.71 187.68 60.27 189.35 60.27Z" fill="#D8D3A0"/>
<path d="M196.02 59.17C194.43 58.71 192.77 58.46 191.08 58.46H189.29C187.62 58.46 185.97 58.71 184.4 59.17C185.28 61.54 187.55 63.23 190.22 63.23C192.88 63.23 195.14 61.54 196.02 59.17Z" fill="#F3F9FE"/>
<path d="M190.21 63.53C187.5 63.53 185.06 61.82 184.12 59.28C184.09 59.2 184.1 59.12 184.13 59.04C184.17 58.97 184.23 58.91 184.31 58.89C185.94 58.42 187.61 58.17 189.28 58.17H191.07C191.08 58.17 191.08 58.17 191.09 58.17C192.77 58.17 194.45 58.41 196.09 58.89C196.17 58.91 196.24 58.97 196.27 59.04C196.31 59.11 196.31 59.2 196.28 59.28C195.36 61.82 192.91 63.53 190.21 63.53ZM184.8 59.37C185.73 61.51 187.86 62.93 190.21 62.93C190.21 62.93 190.21 62.93 190.22 62.93C192.56 62.93 194.69 61.51 195.62 59.37C194.14 58.97 192.62 58.76 191.1 58.76C191.09 58.76 191.09 58.76 191.08 58.76H189.29C187.78 58.77 186.27 58.97 184.8 59.37Z" fill="#212322"/>
<path d="M193.195 50.7169L187.215 50.7233L187.225 59.4533L193.205 59.4469L193.195 50.7169Z" fill="#F3F9FE"/>
<path d="M187.22 59.75C187.05 59.75 186.92 59.62 186.92 59.45L186.91 50.72C186.91 50.55 187.04 50.42 187.21 50.42L193.19 50.41C193.27 50.41 193.35 50.44 193.4 50.5C193.46 50.56 193.49 50.63 193.49 50.71L193.5 59.44C193.5 59.61 193.37 59.74 193.2 59.74C193.03 59.74 192.9 59.61 192.9 59.44L192.89 51.01L187.51 51.02L187.52 59.45C187.52 59.62 187.39 59.75 187.22 59.75Z" fill="#212322"/>
<path d="M193.19 51.46L187.21 51.47V54.17C187.6 54.8 188.65 56.2 190.57 56.84C191.61 57.18 192.53 57.18 193.19 57.1V51.46Z" fill="#212322"/>
<path d="M202.64 51.67C202.42 43.7 196.5 37.32 189.24 37.33C181.98 37.34 176.08 43.73 175.87 51.7L202.64 51.67Z" fill="#212322"/>
<path d="M182.65 54.76C181.03 54.76 179.7 53.44 179.7 51.81C179.7 51.64 179.83 51.51 180 51.51C180.17 51.51 180.3 51.64 180.3 51.81C180.3 53.1 181.36 54.16 182.65 54.16C183.94 54.16 185 53.1 185 51.81C185 51.64 185.13 51.51 185.3 51.51C185.47 51.51 185.6 51.64 185.6 51.81C185.6 52.6 185.29 53.34 184.74 53.9C184.18 54.45 183.44 54.76 182.65 54.76Z" fill="#212322"/>
<path d="M180 52.11C179.83 52.11 179.7 51.98 179.7 51.81C179.7 51.02 180.01 50.28 180.56 49.72C181.12 49.16 181.86 48.85 182.64 48.85C183.43 48.85 184.17 49.16 184.72 49.71C185.28 50.27 185.58 51.01 185.59 51.79C185.59 51.96 185.46 52.09 185.29 52.09C185.12 52.09 184.99 51.96 184.99 51.79C184.99 51.16 184.74 50.57 184.3 50.13C183.86 49.69 183.27 49.44 182.64 49.44C181.35 49.44 180.29 50.5 180.29 51.79C180.3 51.98 180.16 52.11 180 52.11Z" fill="white"/>
<path d="M195.92 54.74C195.13 54.74 194.39 54.43 193.84 53.88C193.28 53.32 192.97 52.58 192.97 51.8C192.97 51.63 193.1 51.5 193.27 51.5C193.44 51.5 193.57 51.63 193.57 51.8C193.57 52.43 193.82 53.02 194.26 53.46C194.7 53.9 195.29 54.15 195.92 54.15C196.55 54.15 197.14 53.9 197.58 53.46C198.02 53.02 198.27 52.43 198.27 51.8C198.27 51.63 198.4 51.5 198.57 51.5C198.74 51.5 198.87 51.63 198.87 51.8C198.87 52.59 198.56 53.33 198.01 53.89C197.45 54.44 196.71 54.74 195.92 54.74Z" fill="#212322"/>
<path d="M193.27 52.1C193.1 52.1 192.97 51.97 192.97 51.8C192.97 51.01 193.28 50.27 193.83 49.71C194.39 49.15 195.13 48.84 195.91 48.84C197.53 48.84 198.86 50.16 198.86 51.79C198.86 51.96 198.73 52.09 198.56 52.09C198.39 52.09 198.26 51.96 198.26 51.79C198.26 50.5 197.2 49.44 195.91 49.44C195.28 49.44 194.69 49.69 194.25 50.13C193.81 50.57 193.56 51.16 193.56 51.79C193.57 51.96 193.43 52.1 193.27 52.1Z" fill="white"/>
<path d="M189.256 54.62C192.173 54.6169 194.534 51.9997 194.53 48.7743C194.527 45.549 192.16 42.9369 189.244 42.94C186.328 42.9432 183.967 45.5604 183.97 48.7857C183.974 52.0111 186.34 54.6232 189.256 54.62Z" fill="#F3F9FE"/>
<path d="M189.25 54.92C186.18 54.92 183.67 52.17 183.67 48.79C183.67 45.41 186.17 42.65 189.25 42.65C189.25 42.65 189.25 42.65 189.26 42.65C190.75 42.65 192.16 43.29 193.21 44.45C194.26 45.61 194.84 47.14 194.84 48.78C194.84 52.16 192.34 54.92 189.25 54.92C189.26 54.92 189.26 54.92 189.25 54.92ZM189.25 43.24C186.5 43.24 184.27 45.73 184.27 48.78C184.27 51.83 186.51 54.31 189.25 54.31C192 54.31 194.23 51.82 194.23 48.77C194.23 47.29 193.71 45.89 192.76 44.84C191.82 43.81 190.58 43.24 189.25 43.24Z" fill="#212322"/>
<path d="M186.92 51.92C187.24 52.27 187.66 52.52 188.16 52.62C189.27 52.84 190.34 52.21 190.72 51.18L186.92 51.92Z" fill="white"/>
<path d="M195.57 47.51C195.47 43.89 192.78 40.99 189.48 41C186.18 41.01 183.5 43.91 183.41 47.53L195.57 47.51Z" fill="#212322"/>
</g>
<path d="M189.5 77.8C183.36 77.8 177.6 75.41 173.25 71.08C168.9 66.74 166.5 60.97 166.49 54.82C166.48 48.68 168.87 42.9 173.21 38.55C177.55 34.2 183.32 31.8 189.47 31.79C189.48 31.79 189.49 31.79 189.5 31.79C195.64 31.79 201.4 34.18 205.75 38.51C210.1 42.85 212.5 48.62 212.51 54.77C212.52 60.91 210.13 66.69 205.79 71.04C201.45 75.39 195.68 77.79 189.53 77.8C189.52 77.8 189.51 77.8 189.5 77.8ZM189.5 32.39C189.49 32.39 189.48 32.39 189.48 32.39C183.5 32.4 177.87 34.73 173.64 38.97C169.41 43.21 167.09 48.83 167.1 54.82C167.11 60.8 169.44 66.43 173.68 70.66C177.91 74.88 183.53 77.2 189.5 77.2C189.51 77.2 189.52 77.2 189.52 77.2C195.5 77.19 201.13 74.86 205.36 70.62C209.59 66.38 211.91 60.76 211.9 54.77C211.89 48.79 209.56 43.16 205.32 38.93C201.09 34.71 195.47 32.39 189.5 32.39Z" fill="#212322"/>
<path d="M165.44 130.28C176.165 130.28 184.86 121.585 184.86 110.86C184.86 100.135 176.165 91.44 165.44 91.44C154.715 91.44 146.02 100.135 146.02 110.86C146.02 121.585 154.715 130.28 165.44 130.28Z" fill="#212322"/>
<path d="M165.06 129.38C164.69 129.38 164.31 129.37 163.93 129.35C158.71 129.05 153.92 126.74 150.44 122.84C146.96 118.94 145.21 113.91 145.51 108.69C146.13 97.91 155.39 89.65 166.17 90.27C176.95 90.89 185.21 100.15 184.59 110.93C183.99 121.32 175.35 129.38 165.06 129.38ZM165.03 90.53C154.9 90.53 146.39 98.47 145.8 108.7C145.51 113.84 147.23 118.79 150.66 122.63C154.09 126.47 158.8 128.75 163.94 129.04C164.31 129.06 164.68 129.07 165.05 129.07C175.18 129.07 183.69 121.13 184.28 110.9C184.89 100.29 176.75 91.16 166.14 90.56C165.78 90.54 165.4 90.53 165.03 90.53Z" fill="white"/>
<path d="M165.05 129.23C175.775 129.23 184.47 120.535 184.47 109.81C184.47 99.0846 175.775 90.39 165.05 90.39C154.325 90.39 145.63 99.0846 145.63 109.81C145.63 120.535 154.325 129.23 165.05 129.23Z" fill="white"/>
<mask id="mask3_1657_8126" style="mask-type:luminance" maskUnits="userSpaceOnUse" x="145" y="90" width="40" height="40">
<path d="M165.05 129.23C175.775 129.23 184.47 120.535 184.47 109.81C184.47 99.0846 175.775 90.39 165.05 90.39C154.325 90.39 145.63 99.0846 145.63 109.81C145.63 120.535 154.325 129.23 165.05 129.23Z" fill="white"/>
</mask>
<g mask="url(#mask3_1657_8126)">
<path d="M165.21 112.87C169.788 112.87 173.5 109.235 173.5 104.75C173.5 100.265 169.788 96.63 165.21 96.63C160.631 96.63 156.92 100.265 156.92 104.75C156.92 109.235 160.631 112.87 165.21 112.87Z" fill="#212322"/>
<path d="M167.53 111.67H161.14V121.04H167.53V111.67Z" fill="#F3F9FE"/>
<path d="M167.54 121.34H161.15C160.98 121.34 160.85 121.21 160.85 121.04V111.67C160.85 111.5 160.98 111.37 161.15 111.37H167.54C167.71 111.37 167.84 111.5 167.84 111.67V121.04C167.84 121.2 167.7 121.34 167.54 121.34ZM161.44 120.74H167.23V111.97H161.44V120.74Z" fill="#212322"/>
<path d="M161.14 114.1V111.68H167.53V117.03C166.95 117.15 165.8 117.29 164.48 116.85C162.42 116.17 161.41 114.55 161.14 114.1Z" fill="#212322"/>
<path d="M165.21 115.46C168.049 115.46 170.35 112.917 170.35 109.78C170.35 106.643 168.049 104.1 165.21 104.1C162.371 104.1 160.07 106.643 160.07 109.78C160.07 112.917 162.371 115.46 165.21 115.46Z" fill="#F3F9FE"/>
<path d="M165.21 115.77C162.21 115.77 159.77 113.09 159.77 109.79C159.77 106.49 162.21 103.81 165.21 103.81C168.21 103.81 170.65 106.49 170.65 109.79C170.65 113.08 168.21 115.77 165.21 115.77ZM165.21 104.4C162.54 104.4 160.37 106.82 160.37 109.78C160.37 112.75 162.54 115.16 165.21 115.16C167.88 115.16 170.05 112.74 170.05 109.78C170.05 106.81 167.88 104.4 165.21 104.4Z" fill="#212322"/>
<path d="M163 112.25C163.5 112.71 164.14 113.01 164.86 113.09C166.47 113.25 167.92 112.21 168.32 110.69L163 112.25Z" fill="white"/>
<path d="M189.26 138.65V130.57L182.95 119.65H167.33L165.12 121.27L161.38 119.65H150.5C143.38 119.65 137.6 125.43 137.6 132.55V133.95L142.29 138.65H189.26Z" fill="#D8D3A0"/>
<path d="M189.26 119.65H172.67V134.79H189.26V119.65Z" fill="#D8D3A0"/>
<path d="M156.48 138.65V119.65H150.49C143.37 119.65 137.59 125.43 137.59 132.55V138.65H156.48Z" fill="#D8D3A0"/>
<path d="M167.66 119.9H161.04C160.87 119.9 160.74 119.77 160.74 119.6C160.74 119.43 160.87 119.3 161.04 119.3H167.66C167.83 119.3 167.96 119.43 167.96 119.6C167.96 119.76 167.82 119.9 167.66 119.9Z" fill="black"/>
<path d="M161.04 119L154.14 119.35C156.23 122.11 160.96 123.53 164.47 123.53C167.98 123.53 172.44 122.12 174.52 119.35L167.38 119.24L161.04 119Z" fill="#F3F9FE"/>
<path d="M164.47 123.82C160.83 123.82 156.03 122.34 153.9 119.53C153.83 119.44 153.82 119.32 153.87 119.22C153.92 119.12 154.02 119.05 154.13 119.05L161.03 118.7C161.19 118.69 161.34 118.82 161.34 118.98C161.35 119.15 161.22 119.29 161.06 119.29L154.76 119.61C156.92 121.98 161.19 123.22 164.48 123.22C167.54 123.22 171.67 122.09 173.9 119.63L167.38 119.53C167.21 119.53 167.08 119.39 167.08 119.23C167.08 119.07 167.22 118.93 167.38 118.93L174.52 119.04C174.63 119.04 174.74 119.11 174.78 119.21C174.83 119.31 174.82 119.43 174.75 119.52C172.53 122.48 167.87 123.82 164.47 123.82Z" fill="#212322"/>
<path d="M137.61 132.65C137.44 132.65 137.31 132.51 137.31 132.35C137.32 127.09 140.76 122.08 145.67 120.17C149.24 118.98 153.07 118.98 156.78 118.98C158.24 118.98 159.74 118.98 161.21 118.91C161.37 118.89 161.52 119.03 161.52 119.2C161.53 119.37 161.4 119.51 161.23 119.51C159.75 119.58 158.24 119.58 156.77 119.58C153.11 119.58 149.32 119.58 145.86 120.73C141.19 122.55 137.9 127.33 137.89 132.35C137.91 132.51 137.78 132.65 137.61 132.65Z" fill="#212322"/>
<path d="M182.47 119.68C179.55 119.68 176.6 119.66 173.74 119.63C171.71 119.61 169.69 119.6 167.66 119.59C167.49 119.59 167.36 119.45 167.36 119.29C167.36 119.12 167.49 118.99 167.66 118.99C169.69 119 171.72 119.01 173.75 119.03C176.75 119.05 179.85 119.07 182.91 119.08C183.08 119.08 183.21 119.21 183.21 119.38C183.21 119.55 183.08 119.68 182.91 119.68C182.76 119.68 182.61 119.68 182.47 119.68Z" fill="#212322"/>
</g>
<path d="M165.07 129.53C164.69 129.53 164.3 129.52 163.92 129.5C158.66 129.2 153.83 126.87 150.33 122.94C146.82 119.01 145.06 113.95 145.36 108.69C145.98 97.83 155.32 89.5 166.18 90.12C177.04 90.74 185.37 100.08 184.75 110.94C184.45 116.2 182.12 121.03 178.19 124.53C174.53 127.78 169.92 129.53 165.07 129.53ZM165.02 90.68C160.32 90.68 155.85 92.38 152.32 95.53C148.51 98.93 146.25 103.61 145.96 108.71C145.67 113.81 147.38 118.72 150.78 122.53C154.18 126.34 158.86 128.6 163.96 128.89C169.06 129.18 173.97 127.47 177.78 124.07C181.59 120.67 183.85 115.99 184.14 110.89C184.74 100.36 176.67 91.31 166.14 90.7C165.77 90.69 165.39 90.68 165.02 90.68Z" fill="#212322"/>
<path d="M232 44.15C231.88 44.05 231.73 43.97 231.53 43.93C231.36 43.89 231.27 43.87 231.03 43.87H227.27C227.27 43.87 227.52 44.99 228.12 45.98C228.36 45.98 231.36 45.97 231.53 45.93C231.71 45.89 231.87 45.82 232 45.71C232.22 45.52 232.33 45.42 232.33 44.94C232.33 44.79 232.32 44.66 232.27 44.54C232.22 44.39 232.14 44.27 232 44.15Z" fill="#212322"/>
<path d="M237.5 32.95V36.92H242.58C241.42 35.03 239.61 33.61 237.5 32.95Z" fill="#212322"/>
<path d="M235.13 29C228.24 29 222.66 34.58 222.66 41.47C222.66 48.36 228.24 53.94 235.13 53.94C242.02 53.94 247.6 48.36 247.6 41.47C247.6 34.58 242.02 29 235.13 29ZM225.5 36.98L227.12 36.97V38.19C227.12 38.53 227.4 38.81 227.74 38.81H231.52H231.83C232.17 38.81 232.45 38.53 232.45 38.19V32.09C232.45 31.58 232.86 31.17 233.37 31.17H234.07V38.19C234.07 39.43 233.07 40.43 231.83 40.43H228.05H227.74C226.5 40.43 225.5 39.43 225.5 38.19V36.98ZM234.13 51.69H233.49C233.23 51.69 232.99 51.59 232.82 51.44C232.65 51.29 232.55 51.08 232.55 50.85V48.57C232.55 48.36 232.53 48.18 232.48 48.03C232.42 47.85 232.34 47.71 232.22 47.61C232.1 47.51 231.95 47.43 231.75 47.39C231.58 47.35 231.37 47.33 231.14 47.33H228.98C228.98 47.33 230.05 48.58 230.72 49L230.75 50.61C226.71 48.37 225.83 44.94 225.56 43.47L225.42 42.51H230.76C231.49 42.51 231.87 42.55 232.36 42.64C232.83 42.72 233.18 42.84 233.42 42.99C233.65 43.13 233.82 43.33 233.93 43.59C234.05 43.86 234.11 44.2 234.11 44.6C234.11 44.83 234.08 45.33 234.02 45.53C233.96 45.73 233.86 45.91 233.71 46.07C233.58 46.21 233.42 46.32 233.22 46.4C232.99 46.5 232.74 46.55 232.5 46.58C232.8 46.62 233.06 46.69 233.27 46.78C233.47 46.86 233.63 46.96 233.75 47.08C233.87 47.2 233.96 47.33 234.02 47.48C234.08 47.64 234.11 47.84 234.11 48.07L234.13 51.69ZM236.85 31.3C239.03 31.73 240.99 32.83 242.52 34.48C244.06 36.14 245.01 38.19 245.29 40.42L245.3 40.49H243.86L243.85 40.44C243.79 40 243.69 39.55 243.56 39.12L243.25 38.31H237.49V40.48H237.15C236.54 40.48 236.04 39.98 236.04 39.36V31.17L236.85 31.3ZM244.18 43.88H238.17C237.79 43.88 237.48 44.19 237.48 44.57V45.16C237.48 45.53 237.79 45.84 238.17 45.84H241.65C242.33 45.84 242.89 46.37 242.92 47.05C242.93 47.33 242.84 47.6 242.69 47.84C242.69 47.84 240.66 50.95 236.04 51.76V50.41C237 50.15 238.67 49.46 240.03 48.42C240.28 48.2 240.87 47.77 241.27 47.29V47.28H238.17C237 47.28 236.04 46.21 236.03 45.04V45.13V45.02C236.03 45.03 236.03 45.03 236.03 45.04V44.56C236.03 43.38 236.99 42.42 238.17 42.42H245.09L245.1 42.93C245.11 43.46 244.7 43.88 244.18 43.88Z" fill="#212322"/>
</g>
<defs>
<clipPath id="clip0_1657_8126">
<rect width="270.89" height="262.71" fill="white"/>
</clipPath>
</defs>
</svg>
