<svg width="21" height="21" viewBox="0 0 21 21" fill="none" xmlns="http://www.w3.org/2000/svg">
<g clip-path="url(#clip0_25_1219)">
<path d="M9.49982 0.803955H5.7998C2.6998 0.803955 0.799805 3.004 0.799805 6.104V14.4041C0.799805 17.5041 2.6998 19.7041 5.7998 19.7041H14.5998C17.6998 19.7041 19.5998 17.5041 19.5998 14.4041V10.4041" stroke="#212322" stroke-width="1.5" stroke-miterlimit="10" stroke-linecap="round" stroke-linejoin="round"/>
<path d="M6.80017 8.904L14.3002 1.404C15.2002 0.504004 16.7002 0.504004 17.7002 1.404L18.9002 2.60396C19.8002 3.50396 19.8002 5.0041 18.9002 6.0041L11.4002 13.5041C11.0002 13.9041 10.4002 14.104 9.90018 14.104H6.2002L6.30017 10.3039C6.20017 9.80391 6.40017 9.304 6.80017 8.904Z" stroke="#212322" stroke-width="1.5" stroke-miterlimit="10" stroke-linecap="round" stroke-linejoin="round"/>
<path d="M13.2002 2.604L17.8002 7.2041" stroke="#212322" stroke-width="1.5" stroke-miterlimit="10" stroke-linecap="round" stroke-linejoin="round"/>
</g>
<defs>
<clipPath id="clip0_25_1219">
<rect width="20.3" height="20.4" fill="white"/>
</clipPath>
</defs>
</svg>
