<svg width="128" height="197" viewBox="0 0 128 197" fill="none" xmlns="http://www.w3.org/2000/svg">
<path d="M63.7456 148.14C29.1656 148.14 6.93559 134.46 5.79559 102.92L32.7756 102.16C32.9656 114.13 45.3156 123.06 61.2756 123.06C77.6156 123.06 89.0156 114.32 89.0156 102.54C89.0156 90 79.1356 86.01 61.2756 85.82H50.6356L50.2556 69.86H61.2756C78.5656 69.86 86.5456 63.02 86.5456 52C86.5456 40.22 74.9556 33.38 61.2756 33.38C45.1256 33.38 35.4356 44.02 34.8656 55.42L7.88559 54.66C8.64559 25.78 29.9256 12.86 63.1756 13.05C92.6256 13.24 110.486 23.88 110.486 47.63C110.486 63.78 95.0956 71.57 80.8456 72.14V72.52C85.2156 72.33 90.9156 72.33 94.9056 73.85C108.206 77.84 115.236 86.01 115.236 106.15C115.236 133.7 95.8556 148.14 63.7456 148.14Z" fill="white"/>
<path d="M12.7956 109.275L12.7674 108.275L11.7598 108.304L11.7962 109.311L12.7956 109.275ZM39.7756 108.515L40.7755 108.499L40.7594 107.487L39.7474 107.515L39.7756 108.515ZM68.2756 92.1749L68.2862 91.1749H68.2756V92.1749ZM57.6356 92.1749L56.6359 92.1987L56.6591 93.1749H57.6356V92.1749ZM57.2556 76.2149V75.2149H56.2315L56.2559 76.2387L57.2556 76.2149ZM41.8656 61.7749L41.8374 62.7745L42.8155 62.802L42.8643 61.8248L41.8656 61.7749ZM14.8856 61.0149L13.8859 60.9885L13.8597 61.9864L14.8574 62.0145L14.8856 61.0149ZM70.1756 19.4049L70.182 18.4049L70.1813 18.4049L70.1756 19.4049ZM87.8456 78.4949L87.8056 77.4957L86.8456 77.5341V78.4949H87.8456ZM87.8456 78.8749H86.8456V79.9193L87.889 79.8739L87.8456 78.8749ZM101.906 80.2049L101.55 81.1393L101.583 81.1523L101.618 81.1627L101.906 80.2049ZM70.7456 153.495C53.5647 153.495 39.6053 150.093 29.8226 142.906C20.0849 135.753 14.3557 124.755 13.7949 109.239L11.7962 109.311C12.3754 125.335 18.3313 136.947 28.6386 144.518C38.9008 152.057 53.3465 155.495 70.7456 155.495V153.495ZM12.8237 110.274L39.8037 109.514L39.7474 107.515L12.7674 108.275L12.8237 110.274ZM38.7757 108.531C38.9784 121.3 52.0634 130.415 68.2756 130.415V128.415C52.5677 128.415 40.9528 119.67 40.7755 108.499L38.7757 108.531ZM68.2756 130.415C84.8789 130.415 97.0156 121.477 97.0156 108.895H95.0156C95.0156 119.872 84.3522 128.415 68.2756 128.415V130.415ZM97.0156 108.895C97.0156 105.628 96.3715 102.85 95.0641 100.528C93.7543 98.202 91.8144 96.3978 89.3253 95.0276C84.3933 92.3124 77.2447 91.2702 68.2862 91.1749L68.265 93.1748C77.1665 93.2695 83.8879 94.3173 88.3608 96.7796C90.5743 97.9982 92.2206 99.5545 93.3214 101.509C94.4247 103.469 95.0156 105.892 95.0156 108.895H97.0156ZM68.2756 91.1749H57.6356V93.1749H68.2756V91.1749ZM58.6353 92.1511L58.2553 76.1911L56.2559 76.2387L56.6359 92.1987L58.6353 92.1511ZM57.2556 77.2149H68.2756V75.2149H57.2556V77.2149ZM68.2756 77.2149C77.0285 77.2149 83.5924 75.4874 87.9907 72.2201C92.4367 68.9173 94.5456 64.1337 94.5456 58.3549H92.5456C92.5456 63.596 90.6645 67.7424 86.798 70.6146C82.8838 73.5223 76.8127 75.2149 68.2756 75.2149V77.2149ZM94.5456 58.3549C94.5456 52.0899 91.4461 47.1457 86.6089 43.8046C81.7968 40.4807 75.2676 38.7348 68.2756 38.7348V40.7348C74.9636 40.7348 81.0694 42.409 85.4723 45.4502C89.85 48.474 92.5456 52.8398 92.5456 58.3549H94.5456ZM68.2756 38.7348C51.6388 38.7348 41.4657 49.7479 40.8668 61.7249L42.8643 61.8248C43.4055 51.0018 52.6124 40.7348 68.2756 40.7348V38.7348ZM41.8937 60.7752L14.9137 60.0152L14.8574 62.0145L41.8374 62.7745L41.8937 60.7752ZM15.8852 61.0412C16.2581 46.8731 21.6441 36.734 30.9269 30.1232C40.2592 23.4771 53.6521 20.3104 70.1699 20.4048L70.1813 18.4049C53.4491 18.3093 39.577 21.5076 29.7667 28.4941C19.9071 35.5157 14.2731 46.2766 13.8859 60.9885L15.8852 61.0412ZM70.1691 20.4048C84.8031 20.4992 96.3957 23.1939 104.304 28.6814C112.151 34.1261 116.486 42.3991 116.486 53.9849H118.486C118.486 41.8207 113.89 32.8986 105.444 27.0383C97.0605 21.2209 84.9981 18.5005 70.182 18.4049L70.1691 20.4048ZM116.486 53.9849C116.486 61.6925 112.832 67.3922 107.426 71.2698C101.991 75.1688 94.7822 77.2166 87.8056 77.4957L87.8856 79.4941C95.159 79.2031 102.77 77.0709 108.592 72.8949C114.444 68.6976 118.486 62.4272 118.486 53.9849H116.486ZM86.8456 78.4949V78.8749H88.8456V78.4949H86.8456ZM87.889 79.8739C92.2778 79.6831 97.7785 79.7027 101.55 81.1393L102.262 79.2704C98.0527 77.667 92.1534 77.6866 87.8022 77.8758L87.889 79.8739ZM101.618 81.1627C108.133 83.117 112.981 86.0535 116.23 90.8587C119.493 95.6852 121.236 102.535 121.236 112.505H123.236C123.236 102.335 121.464 95.0295 117.887 89.7385C114.295 84.4262 108.979 81.2827 102.193 79.247L101.618 81.1627ZM121.236 112.505C121.236 126.024 116.494 136.213 107.909 143.049C99.2892 149.912 86.6689 153.495 70.7456 153.495V155.495C86.9323 155.495 100.057 151.857 109.155 144.613C118.287 137.342 123.236 126.536 123.236 112.505H121.236Z" fill="black"/>
</svg>
