<svg width="25" height="25" viewBox="0 0 25 25" fill="none" xmlns="http://www.w3.org/2000/svg">
<path d="M18.8751 8.17001C18.4851 8.35001 18.0351 8.46001 17.6051 8.53001C17.8051 8.50001 18.0951 8.13001 18.2151 7.98001C18.3951 7.75001 18.5451 7.50001 18.6251 7.22001C18.6351 7.20001 18.6451 7.17001 18.6251 7.15001C18.5951 7.14001 18.5751 7.14001 18.5551 7.16001C18.0851 7.41001 17.5851 7.60001 17.0651 7.73001C17.0251 7.74001 16.9851 7.73001 16.9651 7.70001C16.9251 7.65001 16.8851 7.61001 16.8351 7.57001C16.6151 7.38001 16.3751 7.24001 16.1151 7.13001C15.7651 6.99001 15.3851 6.93001 15.0051 6.95001C14.6351 6.97001 14.2851 7.08001 13.9551 7.25001C13.6351 7.42001 13.3451 7.66001 13.1051 7.94001C12.8651 8.23001 12.6951 8.58001 12.5951 8.95001C12.5051 9.31001 12.5151 9.66001 12.5651 10.02C12.5751 10.08 12.5651 10.09 12.5151 10.08C10.4751 9.78001 8.77508 9.05001 7.40508 7.48001C7.34508 7.41001 7.31508 7.41001 7.26508 7.49001C6.66508 8.39001 6.95508 9.84001 7.70508 10.55C7.80508 10.64 7.90508 10.74 8.01508 10.83C7.97508 10.84 7.47508 10.78 7.02508 10.55C6.96508 10.51 6.93508 10.53 6.93508 10.6C6.92508 10.7 6.93508 10.79 6.95508 10.89C7.07508 11.8 7.70508 12.65 8.57508 12.98C8.67508 13.02 8.79508 13.06 8.90508 13.08C8.70508 13.12 8.50508 13.15 7.93508 13.11C7.86508 13.1 7.83508 13.13 7.86508 13.2C8.29508 14.36 9.20508 14.71 9.89508 14.9C9.98508 14.92 10.0751 14.92 10.1751 14.94C10.1651 14.95 10.1651 14.95 10.1551 14.96C9.92508 15.31 9.13508 15.57 8.76508 15.7C8.09508 15.93 7.36508 16.04 6.65508 15.97C6.54508 15.95 6.51508 15.95 6.48508 15.97C6.45508 15.99 6.48508 16.02 6.51508 16.05C6.65508 16.14 6.80508 16.23 6.95508 16.31C7.40508 16.55 7.87508 16.74 8.36508 16.87C10.8951 17.57 13.7451 17.06 15.6551 15.17C17.1451 13.69 17.6751 11.64 17.6751 9.59001C17.6751 9.51001 17.7651 9.47001 17.8251 9.42001C18.2151 9.13001 18.5451 8.78001 18.8351 8.39001C18.9051 8.30001 18.9251 8.22001 18.9251 8.19001C18.9251 8.18001 18.9251 8.18001 18.9251 8.18001C18.9451 8.14001 18.9251 8.15001 18.8751 8.17001Z" fill="#212322"/>
<path d="M12.7248 0C6.0748 0 0.674805 5.41 0.674805 12.05C0.674805 18.7 6.0848 24.1 12.7248 24.1C19.3748 24.1 24.7748 18.69 24.7748 12.05C24.7748 5.41 19.3648 0 12.7248 0ZM12.7248 22.56C6.9348 22.56 2.21481 17.85 2.21481 12.05C2.21481 6.26 6.9248 1.54 12.7248 1.54C18.5248 1.54 23.2348 6.25 23.2348 12.05C23.2348 17.85 18.5148 22.56 12.7248 22.56Z" fill="#212322"/>
</svg>
