<svg width="136" height="185" viewBox="0 0 136 185" fill="none" xmlns="http://www.w3.org/2000/svg">
<path d="M4.58332 147V143.2C4.58332 77.65 85.3333 79.93 85.3333 56.18C85.3333 41.55 73.5533 36.8 60.2533 36.8C44.2933 36.8 34.6033 45.92 34.0333 60.74L6.86332 59.98C8.00332 26.35 27.0033 12.86 62.1533 12.86C94.4533 12.86 114.213 25.78 114.213 52C114.213 92.28 71.4633 88.1 48.0933 117.17C45.4333 120.02 41.2533 123.06 37.2633 124.77L37.4533 125.15C41.2533 123.44 46.7633 122.11 50.9433 122.11H114.973V147H4.58332Z" fill="white"/>
<path d="M21.5833 152H20.5833V153H21.5833V152ZM51.0333 65.74L51.0054 66.7396L51.9945 66.7673L52.0326 65.7784L51.0333 65.74ZM23.8633 64.98L22.8639 64.9461L22.8298 65.9515L23.8354 65.9796L23.8633 64.98ZM65.0933 122.17L65.8244 122.852L65.8496 122.825L65.8727 122.797L65.0933 122.17ZM54.2633 129.77L53.8694 128.851L52.8946 129.269L53.3689 130.217L54.2633 129.77ZM54.4533 130.15L53.5589 130.597L53.9882 131.456L54.8637 131.062L54.4533 130.15ZM131.973 127.11H132.973V126.11H131.973V127.11ZM131.973 152V153H132.973V152H131.973ZM22.5833 152V148.2H20.5833V152H22.5833ZM22.5833 148.2C22.5833 132.041 27.5522 120.114 34.9785 110.917C42.4238 101.697 52.3787 95.1708 62.423 89.9005C67.4433 87.2663 72.4669 84.9552 77.2017 82.7753C81.9249 80.6008 86.375 78.5506 90.1969 76.4553C94.0123 74.3635 97.2751 72.1885 99.5907 69.7359C101.924 67.2641 103.333 64.4681 103.333 61.18H101.333C101.333 63.8294 100.219 66.1574 98.1365 68.3629C96.0361 70.5876 92.9903 72.643 89.2354 74.7016C85.487 76.7566 81.1051 78.7765 76.3653 80.9586C71.6373 83.1354 66.5671 85.4674 61.4937 88.1295C51.3504 93.4517 41.1178 100.131 33.4225 109.661C25.7082 119.214 20.5833 131.584 20.5833 148.2H22.5833ZM103.333 61.18C103.333 53.5471 100.234 48.3785 95.3285 45.1671C90.489 41.999 83.9942 40.8 77.2533 40.8V42.8C83.8124 42.8 89.8576 43.976 94.2331 46.8404C98.5425 49.6615 101.333 54.1829 101.333 61.18H103.333ZM77.2533 40.8C69.0842 40.8 62.409 43.1367 57.6948 47.4768C52.9756 51.8214 50.3273 58.0765 50.0341 65.7016L52.0326 65.7784C52.3093 58.5835 54.791 52.8686 59.0494 48.9482C63.3126 45.0233 69.4625 42.8 77.2533 42.8V40.8ZM51.0613 64.7404L23.8913 63.9804L23.8354 65.9796L51.0054 66.7396L51.0613 64.7404ZM24.8627 65.0139C25.4265 48.3832 30.3938 36.9205 39.3867 29.5836C48.4145 22.2182 61.6783 18.86 79.1533 18.86V16.86C61.4783 16.86 47.6672 20.2467 38.1224 28.0339C28.5428 35.8495 23.4401 47.9468 22.8639 64.9461L24.8627 65.0139ZM79.1533 18.86C95.1933 18.86 107.969 22.0717 116.709 28.4072C125.399 34.7066 130.213 44.1748 130.213 57H132.213C132.213 43.6051 127.147 33.5034 117.883 26.7878C108.668 20.1083 95.4134 16.86 79.1533 16.86V18.86ZM130.213 57C130.213 66.8745 127.6 73.9467 123.374 79.4811C119.127 85.043 113.197 89.1245 106.428 92.9163C103.045 94.8116 99.4812 96.6194 95.8253 98.5071C92.1774 100.391 88.4479 102.349 84.7737 104.528C77.4223 108.887 70.2589 114.149 64.3139 121.543L65.8727 122.797C71.6128 115.656 78.5569 110.539 85.7939 106.248C89.4139 104.101 93.0988 102.166 96.7429 100.284C100.379 98.4067 103.985 96.5778 107.406 94.6612C114.246 90.8292 120.464 86.5864 124.963 80.6949C129.483 74.7758 132.213 67.2655 132.213 57H130.213ZM64.3623 121.488C61.793 124.24 57.7265 127.198 53.8694 128.851L54.6572 130.689C58.7801 128.922 63.0737 125.8 65.8244 122.852L64.3623 121.488ZM53.3689 130.217L53.5589 130.597L55.3477 129.703L55.1577 129.323L53.3689 130.217ZM54.8637 131.062C58.5535 129.402 63.9241 128.11 67.9433 128.11V126.11C63.6026 126.11 57.9531 127.478 54.043 129.238L54.8637 131.062ZM67.9433 128.11H131.973V126.11H67.9433V128.11ZM130.973 127.11V152H132.973V127.11H130.973ZM131.973 151H21.5833V153H131.973V151Z" fill="black"/>
</svg>
