<svg width="268" height="281" viewBox="0 0 268 281" fill="none" xmlns="http://www.w3.org/2000/svg">
<g clip-path="url(#clip0_1657_7850)">
<path d="M162.26 269.69C86.3701 296.4 33.6701 271.15 6.95006 195.26C-19.7699 119.37 33.9401 33.78 109.83 7.06001C185.72 -19.66 233.27 32.74 259.98 108.63C286.69 184.52 238.14 242.97 162.26 269.69Z" fill="#F3F9FE"/>
<path d="M99.4401 48.44L68.0501 82.66L34.0101 51.11L65.3901 16.89L99.4401 48.44Z" fill="white"/>
<path d="M81.0201 68.82C80.9501 68.82 80.8801 68.79 80.8201 68.74C80.7001 68.63 80.6901 68.44 80.8001 68.32L87.8701 60.61C87.9801 60.49 88.1701 60.48 88.2901 60.59C88.4101 60.7 88.4201 60.89 88.3101 61.01L81.2401 68.72C81.1801 68.79 81.1001 68.82 81.0201 68.82Z" fill="black"/>
<path d="M91.1501 57.77C91.0801 57.77 91.0101 57.74 90.9501 57.69C90.8301 57.58 90.8201 57.39 90.9301 57.27L99.0201 48.45L70.3001 21.84C70.1801 21.73 70.1701 21.54 70.2801 21.42C70.3901 21.3 70.5801 21.29 70.7001 21.4L99.6401 48.22C99.7601 48.33 99.7701 48.52 99.6601 48.64L91.3701 57.67C91.3101 57.74 91.2301 57.77 91.1501 57.77Z" fill="#212322"/>
<path d="M62.9801 78.14C62.9101 78.14 62.8401 78.11 62.7801 78.06L33.8301 51.24C33.7101 51.13 33.7001 50.94 33.8101 50.82L42.1001 41.79C42.2101 41.67 42.4001 41.66 42.5201 41.77C42.6401 41.88 42.6501 42.07 42.5401 42.19L34.4501 51.01L63.1701 77.63C63.2901 77.74 63.3001 77.93 63.1901 78.05C63.1401 78.11 63.0601 78.14 62.9801 78.14Z" fill="black"/>
<path d="M66.7702 61.43C73.0386 61.43 78.1202 56.326 78.1202 50.03C78.1202 43.734 73.0386 38.63 66.7702 38.63C60.5017 38.63 55.4202 43.734 55.4202 50.03C55.4202 56.326 60.5017 61.43 66.7702 61.43Z" fill="#D8D3A0"/>
<path d="M72.2902 49.95L63.4602 45.01L63.6102 55.16L72.2902 49.95Z" fill="#212322"/>
<path d="M50.6601 37.51C48.8501 37.51 47.0101 37.15 45.2401 36.38C41.9101 34.93 39.3401 32.27 38.0101 28.88C36.6801 25.48 36.7501 21.76 38.2201 18.4C41.2501 11.49 49.3201 8.31 56.2101 11.31C59.5401 12.76 62.1101 15.42 63.4401 18.81C64.7701 22.21 64.7001 25.93 63.2301 29.29C60.9801 34.44 55.9301 37.51 50.6601 37.51ZM50.8001 10.78C45.7501 10.78 40.9301 13.72 38.7701 18.64C37.3601 21.85 37.2901 25.41 38.5701 28.66C39.8401 31.9 42.2901 34.44 45.4801 35.83C52.0701 38.7 59.7901 35.66 62.6901 29.05C64.1001 25.84 64.1701 22.28 62.8901 19.03C61.6201 15.79 59.1701 13.25 55.9801 11.86C54.2901 11.13 52.5301 10.78 50.8001 10.78Z" fill="#212322"/>
<path d="M55.7401 32.54L41.6101 26.39L46.2001 15.9L60.3401 22.05L55.7401 32.54Z" fill="#D8D3A0"/>
<path d="M55.7401 32.84C55.7001 32.84 55.6601 32.83 55.6201 32.82L41.4901 26.67C41.4201 26.64 41.3601 26.58 41.3301 26.51C41.3001 26.44 41.3001 26.35 41.3301 26.28L45.9201 15.79C45.9901 15.64 46.1601 15.57 46.3101 15.64L60.4401 21.79C60.5101 21.82 60.5701 21.88 60.6001 21.95C60.6301 22.02 60.6301 22.11 60.6001 22.18L56.0101 32.67C55.9701 32.77 55.8601 32.84 55.7401 32.84ZM42.0001 26.23L55.5901 32.15L59.9401 22.21L46.3501 16.29L42.0001 26.23Z" fill="#212322"/>
<path d="M50.8402 25.01C50.7402 25.01 50.6502 24.96 50.5902 24.88L47.3402 19.91C47.2502 19.77 47.2902 19.59 47.4302 19.5C47.5702 19.41 47.7502 19.45 47.8402 19.59L50.9802 24.39L56.6502 23.42C56.8102 23.39 56.9702 23.5 56.9902 23.66C57.0202 23.82 56.9102 23.98 56.7502 24L50.8902 25C50.8702 25.01 50.8502 25.01 50.8402 25.01Z" fill="#212322"/>
<path d="M118.31 16.58H124.59V149.76H118.31C113.48 149.76 109.56 145.86 109.56 141.05V25.29C109.56 20.48 113.48 16.58 118.31 16.58Z" fill="#212322"/>
<path d="M108.219 42.674H111.759V31.734H108.219V42.674Z" fill="#212322"/>
<path d="M110.289 42.674H112.359V31.734H110.289V42.674Z" fill="white"/>
<path d="M112.36 42.97H110.29C110.13 42.97 109.99 42.84 109.99 42.67V31.74C109.99 31.58 110.12 31.44 110.29 31.44H112.36C112.52 31.44 112.66 31.57 112.66 31.74V42.68C112.66 42.84 112.53 42.97 112.36 42.97ZM110.59 42.38H112.06V32.04H110.59V42.38Z" fill="#212322"/>
<path d="M180.58 16.58H122.89C118.06 16.58 114.14 20.48 114.14 25.29V141.05C114.14 145.86 118.06 149.76 122.89 149.76H180.58C185.41 149.76 189.33 145.86 189.33 141.05V25.29C189.32 20.48 185.41 16.58 180.58 16.58Z" fill="white"/>
<path d="M180.5 150.06H122.96C117.93 150.06 113.84 145.97 113.84 140.94V25.41C113.84 20.38 117.93 16.29 122.96 16.29H180.5C185.53 16.29 189.62 20.38 189.62 25.41V140.94C189.62 145.97 185.53 150.06 180.5 150.06ZM122.96 16.88C118.26 16.88 114.44 20.7 114.44 25.4V140.93C114.44 145.63 118.26 149.45 122.96 149.45H180.5C185.2 149.45 189.02 145.63 189.02 140.93V25.41C189.02 20.71 185.2 16.89 180.5 16.89H122.96V16.88Z" fill="#212322"/>
<path d="M189.61 130.41H113.85V36.04H114.15L189.63 36.02V36.32L189.61 130.41ZM114.44 129.82H189.01L189.03 36.61L114.44 36.63V129.82Z" fill="#212322"/>
<path d="M124.76 31.43C127.45 31.43 129.63 29.2586 129.63 26.58C129.63 23.9014 127.45 21.73 124.76 21.73C122.071 21.73 119.89 23.9014 119.89 26.58C119.89 29.2586 122.071 31.43 124.76 31.43Z" fill="#212322"/>
<path d="M154.78 23.37H132.86V26.65H154.78V23.37Z" fill="#D8D3A0"/>
<path d="M162.66 29.97H132.86C132.7 29.97 132.56 29.84 132.56 29.67C132.56 29.51 132.69 29.37 132.86 29.37H162.66C162.82 29.37 162.96 29.5 162.96 29.67C162.95 29.83 162.82 29.97 162.66 29.97Z" fill="#212322"/>
<path d="M151.12 44.87H123.32V72.55H151.12V44.87Z" fill="#D8D3A0"/>
<path d="M148.03 66.53H126.46L132.05 59.78L135.17 62.83L140.74 55.1L148.03 66.53Z" fill="white"/>
<path d="M132.81 54.9C134.136 54.9 135.21 53.83 135.21 52.51C135.21 51.19 134.136 50.12 132.81 50.12C131.485 50.12 130.41 51.19 130.41 52.51C130.41 53.83 131.485 54.9 132.81 54.9Z" fill="white"/>
<path d="M169.46 46.19H159.25C159.09 46.19 158.95 46.06 158.95 45.89C158.95 45.73 159.08 45.59 159.25 45.59H169.46C169.62 45.59 169.76 45.72 169.76 45.89C169.76 46.05 169.63 46.19 169.46 46.19Z" fill="#212322"/>
<path d="M168.77 51.25H156.71C156.55 51.25 156.41 51.12 156.41 50.95C156.41 50.78 156.54 50.65 156.71 50.65H168.77C168.93 50.65 169.07 50.78 169.07 50.95C169.07 51.12 168.93 51.25 168.77 51.25Z" fill="#212322"/>
<path d="M168.86 56.32H160.27C160.11 56.32 159.97 56.19 159.97 56.02C159.97 55.86 160.1 55.72 160.27 55.72H168.86C169.02 55.72 169.16 55.85 169.16 56.02C169.16 56.18 169.03 56.32 168.86 56.32Z" fill="#212322"/>
<path d="M177 61.38H156.71C156.55 61.38 156.41 61.25 156.41 61.08C156.41 60.92 156.54 60.78 156.71 60.78H177C177.16 60.78 177.3 60.91 177.3 61.08C177.3 61.25 177.17 61.38 177 61.38Z" fill="#212322"/>
<path d="M177 66.45H156.71C156.55 66.45 156.41 66.32 156.41 66.15C156.41 65.99 156.54 65.85 156.71 65.85H177C177.16 65.85 177.3 65.98 177.3 66.15C177.3 66.31 177.17 66.45 177 66.45Z" fill="#212322"/>
<path d="M181.55 87.94H153.75V118.01H181.55V87.94Z" fill="#212322"/>
<path d="M143.17 83.49H125.19C125.03 83.49 124.89 83.36 124.89 83.19C124.89 83.03 125.02 82.89 125.19 82.89H143.17C143.33 82.89 143.47 83.02 143.47 83.19C143.47 83.35 143.33 83.49 143.17 83.49Z" fill="#212322"/>
<path d="M147.98 88.54H122.78C122.62 88.54 122.48 88.41 122.48 88.24C122.48 88.08 122.61 87.94 122.78 87.94H147.98C148.14 87.94 148.28 88.07 148.28 88.24C148.28 88.4 148.14 88.54 147.98 88.54Z" fill="#212322"/>
<path d="M150.24 93.58H137.44C137.28 93.58 137.14 93.45 137.14 93.28C137.14 93.12 137.27 92.98 137.44 92.98H150.24C150.4 92.98 150.54 93.11 150.54 93.28C150.53 93.45 150.4 93.58 150.24 93.58Z" fill="#212322"/>
<path d="M150.52 108.72H142.11C141.95 108.72 141.81 108.59 141.81 108.42C141.81 108.26 141.94 108.12 142.11 108.12H150.52C150.68 108.12 150.82 108.25 150.82 108.42C150.82 108.59 150.68 108.72 150.52 108.72Z" fill="#212322"/>
<path d="M147.98 98.63H144.78C144.62 98.63 144.48 98.5 144.48 98.33C144.48 98.17 144.61 98.03 144.78 98.03H147.98C148.14 98.03 148.28 98.16 148.28 98.33C148.28 98.5 148.14 98.63 147.98 98.63Z" fill="#212322"/>
<path d="M150.24 103.68H144.96C144.8 103.68 144.66 103.55 144.66 103.38C144.66 103.22 144.79 103.08 144.96 103.08H150.24C150.4 103.08 150.54 103.21 150.54 103.38C150.53 103.54 150.4 103.68 150.24 103.68Z" fill="#212322"/>
<path d="M260.14 130.09L189.32 130.12V44.15H260.14V130.09Z" fill="white"/>
<path d="M189.32 130.41C189.24 130.41 189.17 130.38 189.11 130.32C189.05 130.26 189.02 130.19 189.02 130.11V44.15C189.02 43.99 189.15 43.85 189.32 43.85H260.13C260.29 43.85 260.43 43.98 260.43 44.15V130.09C260.43 130.25 260.3 130.39 260.13 130.39L189.32 130.41ZM189.62 44.45V129.82L259.84 129.8V44.45H189.62Z" fill="#212322"/>
<path d="M250.86 120.84L189.32 130.12V39.79L250.86 30.26V120.84Z" fill="white"/>
<path d="M189.32 130.41C189.25 130.41 189.18 130.38 189.13 130.34C189.06 130.28 189.03 130.2 189.03 130.11V39.79C189.03 39.64 189.14 39.52 189.28 39.5L250.82 29.98C250.91 29.97 250.99 29.99 251.06 30.05C251.13 30.11 251.16 30.19 251.16 30.28V120.85C251.16 121 251.05 121.12 250.91 121.14L189.37 130.42C189.35 130.41 189.34 130.41 189.32 130.41ZM189.62 40.04V129.77L250.56 120.58V30.61L189.62 40.04Z" fill="#212322"/>
<path d="M242.67 102.57C242.68 103.67 239.35 108.29 229.13 111.13C220.67 113.48 211.49 114.06 203.29 117.21C196.95 119.64 193.59 123.81 190.22 129.37C190.03 129.69 189.58 129.93 189.58 129.73C189.58 120.83 189.58 37.52 189.58 37.48C189.59 29.54 200.08 25 206.49 23.61C218.73 20.96 232.51 22.56 241.64 12.62C242 12.23 242.34 11.83 242.67 11.42C242.67 11.42 242.66 101.91 242.67 102.57Z" fill="#D8D3A0"/>
<path d="M237.78 61.41C237.78 69.31 233.45 76.21 227.02 79.87C223.9 81.65 220.28 82.67 216.43 82.67C212.63 82.67 209.06 81.68 205.96 79.94C199.47 76.3 195.08 69.37 195.08 61.41C195.08 49.67 204.64 40.16 216.43 40.16C228.22 40.16 237.78 49.67 237.78 61.41Z" fill="white"/>
<path d="M219.23 49.8H214.53V60.62H219.23V49.8Z" fill="#F3F9FE"/>
<path d="M219.23 60.91H214.53C214.37 60.91 214.23 60.78 214.23 60.61V49.8C214.23 49.64 214.36 49.5 214.53 49.5H219.23C219.31 49.5 219.38 49.53 219.44 49.59C219.5 49.65 219.53 49.72 219.53 49.8V60.62C219.53 60.78 219.39 60.91 219.23 60.91ZM214.83 60.32H218.93V50.1H214.83V60.32Z" fill="#212322"/>
<path d="M219.23 49.78C219.23 52.26 217.39 54.27 215.11 54.27C212.84 54.27 210.99 52.26 210.99 49.78C210.99 47.3 212.83 45.29 215.11 45.29C217.39 45.29 219.23 47.3 219.23 49.78Z" fill="#F3F9FE"/>
<path d="M215.11 54.57C212.67 54.57 210.69 52.42 210.69 49.78C210.69 47.14 212.67 44.99 215.11 44.99C217.55 44.99 219.53 47.14 219.53 49.78C219.53 52.42 217.55 54.57 215.11 54.57ZM215.11 45.58C213 45.58 211.29 47.46 211.29 49.77C211.29 52.08 213 53.96 215.11 53.96C217.22 53.96 218.93 52.08 218.93 49.77C218.93 47.47 217.22 45.58 215.11 45.58Z" fill="#212322"/>
<path d="M216 52.33C215.7 52.6 215.32 52.78 214.89 52.82C213.93 52.92 213.07 52.3 212.83 51.4L216 52.33Z" fill="white"/>
<path d="M215 54.57C212.63 54.57 210.7 52.48 210.7 49.91C210.7 47.34 212.63 45.25 215 45.25C217.22 45.25 219.06 47.05 219.28 49.44C219.3 49.6 219.17 49.75 219.01 49.76C218.85 49.77 218.7 49.65 218.69 49.49C218.5 47.41 216.91 45.84 215 45.84C212.96 45.84 211.29 47.67 211.29 49.91C211.29 52.15 212.95 53.98 215 53.98C215.37 53.98 215.74 53.92 216.1 53.8C216.26 53.75 216.42 53.83 216.48 53.99C216.53 54.15 216.45 54.31 216.29 54.37C215.87 54.5 215.43 54.57 215 54.57Z" fill="#212322"/>
<path d="M214.9 48.15L211.01 50.06C211 49.95 210.99 49.83 210.99 49.72C210.99 47.27 212.81 45.29 215.05 45.29C217.29 45.29 219.26 47.37 219.26 49.82C219.26 49.99 219.25 50.15 219.23 50.31L214.9 48.15Z" fill="#212322"/>
<path d="M220.31 48.54C221.989 48.54 223.35 47.1834 223.35 45.51C223.35 43.8366 221.989 42.48 220.31 42.48C218.631 42.48 217.27 43.8366 217.27 45.51C217.27 47.1834 218.631 48.54 220.31 48.54Z" fill="#212322"/>
<path d="M225.05 45.89C226.729 45.89 228.09 44.5334 228.09 42.86C228.09 41.1866 226.729 39.83 225.05 39.83C223.371 39.83 222.01 41.1866 222.01 42.86C222.01 44.5334 223.371 45.89 225.05 45.89Z" fill="#212322"/>
<path d="M229.78 43.24C231.459 43.24 232.82 41.8834 232.82 40.21C232.82 38.5366 231.459 37.18 229.78 37.18C228.101 37.18 226.74 38.5366 226.74 40.21C226.74 41.8834 228.101 43.24 229.78 43.24Z" fill="#212322"/>
<path d="M227.02 78.61V79.87C223.9 81.65 220.28 82.67 216.43 82.67C212.63 82.67 209.06 81.68 205.96 79.94L207.42 78.42L227.02 78.61Z" fill="#212322"/>
<path d="M178.82 51.96C178.82 52.54 178.36 53 177.78 53.01H174.48L174.49 54.37H173.69C172.42 54.38 171.72 53.47 171.73 53.47C170.93 52.58 171.3 50.93 172.62 50.92L177.77 50.91C178.34 50.91 178.82 51.38 178.82 51.96Z" fill="#F3F9FE"/>
<path d="M177.04 54.02C177.04 54.6 176.58 55.06 176 55.07H174.48L174.49 56.43H173.69C172.42 56.44 171.72 55.53 171.73 55.53C170.93 54.64 171.3 52.99 172.62 52.98L175.99 52.97C176.57 52.98 177.04 53.45 177.04 54.02Z" fill="#F3F9FE"/>
<path d="M181.18 46.23L178.58 43.58C177.96 42.95 177.61 42.1 177.61 41.21V40.96C177.61 40.27 177.05 39.72 176.36 39.72H176.21C175.52 39.72 174.96 40.28 174.96 40.96V42.52C174.96 43.41 175.31 44.26 175.93 44.89L178.95 47.97H173.54V56.47H178.65L188.68 71.28L196.01 66.78L184.22 49.92C183.32 48.61 182.3 47.38 181.18 46.23Z" fill="#F3F9FE"/>
<path d="M179.85 49.88C179.85 50.46 179.39 50.92 178.81 50.93H174.48L174.49 52.29H173.69C172.42 52.3 171.72 51.39 171.73 51.39C170.93 50.5 171.3 48.85 172.62 48.84L178.8 48.83C179.38 48.84 179.85 49.3 179.85 49.88Z" fill="#F3F9FE"/>
<path d="M179.02 47.79C179.02 48.37 178.56 48.83 177.98 48.84H174.43L174.44 50.2H173.64C172.37 50.21 171.67 49.3 171.68 49.3C170.88 48.41 171.25 46.76 172.57 46.75L177.97 46.74C178.54 46.75 179.01 47.21 179.02 47.79Z" fill="#F3F9FE"/>
<path d="M171.67 49.6C171.59 49.6 171.51 49.57 171.45 49.5C170.95 48.94 170.81 48.08 171.12 47.39C171.38 46.8 171.91 46.45 172.57 46.45L177.91 46.44C177.91 46.44 177.91 46.44 177.92 46.44C178.66 46.44 179.26 47.04 179.26 47.77C179.26 48.45 178.75 49.02 178.08 49.11C177.92 49.13 177.77 49.01 177.75 48.85C177.73 48.69 177.85 48.54 178.01 48.52C178.39 48.48 178.67 48.16 178.67 47.78C178.67 47.37 178.32 47.03 177.92 47.04L172.58 47.05C172.02 47.05 171.77 47.42 171.68 47.63C171.47 48.11 171.56 48.71 171.91 49.1C172.02 49.22 172.01 49.41 171.89 49.52C171.81 49.58 171.74 49.6 171.67 49.6Z" fill="#212322"/>
<path d="M171.66 51.62C171.57 51.62 171.48 51.58 171.43 51.51C170.98 50.93 170.88 50.1 171.2 49.44C171.47 48.88 171.99 48.56 172.62 48.56L178.8 48.55C178.8 48.55 178.8 48.55 178.81 48.55C179.55 48.55 180.15 49.15 180.15 49.88C180.15 50.6 179.59 51.19 178.87 51.22H177.76C177.6 51.22 177.46 51.09 177.46 50.92C177.46 50.76 177.59 50.62 177.76 50.62H178.85C179.23 50.6 179.55 50.27 179.55 49.87C179.55 49.46 179.21 49.13 178.8 49.13L172.62 49.14C172.08 49.14 171.83 49.49 171.73 49.69C171.51 50.14 171.58 50.73 171.89 51.13C171.99 51.26 171.97 51.45 171.84 51.55C171.79 51.6 171.72 51.62 171.66 51.62Z" fill="#212322"/>
<path d="M171.66 53.69C171.57 53.69 171.48 53.65 171.43 53.58C170.97 53 170.88 52.17 171.2 51.51C171.47 50.95 171.99 50.63 172.62 50.62L177.77 50.61C177.77 50.61 177.77 50.61 177.78 50.61C178.14 50.61 178.47 50.75 178.73 51C178.99 51.25 179.13 51.59 179.13 51.95C179.13 52.31 178.99 52.65 178.74 52.9C178.49 53.15 178.15 53.29 177.79 53.3H176.23C176.07 53.3 175.93 53.17 175.93 53C175.93 52.84 176.06 52.7 176.23 52.7H177.79C177.99 52.7 178.18 52.62 178.32 52.48C178.46 52.34 178.54 52.15 178.54 51.95C178.54 51.75 178.46 51.56 178.32 51.42C178.18 51.28 177.99 51.2 177.79 51.2L172.64 51.21C172.1 51.21 171.85 51.56 171.75 51.76C171.53 52.21 171.6 52.8 171.91 53.2C172.01 53.33 171.99 53.52 171.86 53.62C171.79 53.67 171.72 53.69 171.66 53.69Z" fill="#212322"/>
<path d="M188.7 71.58C188.6 71.58 188.51 71.53 188.45 71.45L178.46 56.73L173.68 56.74H173.67C172.49 56.74 171.72 56.04 171.5 55.74C170.99 55.17 170.86 54.33 171.17 53.63C171.43 53.04 171.96 52.7 172.62 52.69L175.99 52.68C175.99 52.68 175.99 52.68 176 52.68C176.36 52.68 176.69 52.82 176.95 53.07C177.21 53.32 177.35 53.66 177.35 54.02C177.35 54.38 177.21 54.72 176.96 54.97C176.71 55.22 176.37 55.36 176.01 55.37H174.6C174.44 55.37 174.3 55.24 174.3 55.07C174.3 54.91 174.43 54.77 174.6 54.77H176.01C176.21 54.77 176.4 54.69 176.54 54.55C176.68 54.41 176.76 54.22 176.76 54.02C176.76 53.82 176.68 53.63 176.54 53.49C176.4 53.35 176.21 53.27 176.01 53.27L172.64 53.28C172.08 53.28 171.83 53.65 171.74 53.86C171.53 54.34 171.62 54.94 171.97 55.33C171.98 55.34 171.99 55.35 171.99 55.36C172.04 55.42 172.65 56.13 173.7 56.13H173.71L178.65 56.12C178.75 56.12 178.84 56.17 178.9 56.25L188.82 70.86L195.64 66.68L184.03 50.08C183.13 48.79 182.11 47.56 181 46.43L178.4 43.78C177.72 43.09 177.35 42.17 177.35 41.2V40.95C177.35 40.43 176.92 40.01 176.4 40.01H176.25C175.73 40.01 175.3 40.43 175.3 40.95V42.51C175.3 43.32 175.61 44.09 176.18 44.67L177.91 46.48C178.02 46.6 178.02 46.79 177.9 46.9C177.78 47.01 177.59 47.01 177.48 46.89L175.75 45.08C175.07 44.39 174.7 43.47 174.7 42.5V40.94C174.7 40.09 175.39 39.4 176.24 39.4H176.39C177.24 39.4 177.93 40.09 177.93 40.94V41.19C177.93 42 178.24 42.77 178.81 43.35L181.41 46C182.54 47.15 183.58 48.4 184.5 49.72L196.29 66.58C196.34 66.65 196.35 66.73 196.34 66.81C196.32 66.89 196.27 66.96 196.2 67L188.87 71.5C188.8 71.56 188.75 71.58 188.7 71.58Z" fill="#212322"/>
<path d="M205.49 72.72C205.51 72.61 205.53 72.5 205.54 72.39L196.43 76.64C193.66 77.93 190.37 76.96 188.75 74.38L179.6 59.73L188.65 54.88L195.63 65.02L210.03 58C210.1 57.96 210.18 57.93 210.25 57.91C210.84 57.63 211.49 57.47 212.19 57.47H218.52C222.7 57.47 226.2 60.6 226.66 64.73L228.22 78.81H204.38L205.49 72.72Z" fill="white"/>
<path d="M204.37 79.11C204.28 79.11 204.2 79.07 204.14 79C204.08 78.93 204.06 78.84 204.08 78.76L205.16 72.9L196.57 76.91C193.67 78.27 190.21 77.25 188.51 74.53L179.36 59.88C179.32 59.81 179.3 59.73 179.32 59.65C179.34 59.57 179.39 59.5 179.47 59.46L188.52 54.61C188.65 54.54 188.82 54.58 188.91 54.7L195.74 64.63L209.91 57.72C209.99 57.68 210.07 57.65 210.16 57.62C210.8 57.32 211.49 57.16 212.2 57.16H218.53C222.86 57.16 226.49 60.39 226.96 64.68L228.52 78.76C228.53 78.84 228.5 78.93 228.45 78.99C228.39 79.05 228.31 79.09 228.23 79.09L204.37 79.11ZM205.78 72.78L204.72 78.52H227.87L226.35 64.77C225.91 60.78 222.54 57.78 218.51 57.78H212.18C211.55 57.78 210.94 57.92 210.37 58.19C210.35 58.2 210.34 58.2 210.32 58.21C210.26 58.23 210.21 58.25 210.15 58.28L195.75 65.3C195.62 65.37 195.46 65.32 195.37 65.2L188.54 55.27L180 59.84L189 74.22C190.53 76.68 193.67 77.6 196.3 76.37L205.41 72.12C205.51 72.08 205.62 72.09 205.71 72.15C205.8 72.21 205.84 72.32 205.83 72.42C205.82 72.54 205.8 72.66 205.78 72.78Z" fill="#212322"/>
<path d="M204.37 78.71C204.35 78.71 204.33 78.71 204.31 78.7C204.15 78.67 204.04 78.51 204.08 78.35L205.2 72.66C205.4 71.65 205.13 70.61 204.49 69.88C203.9 69.2 203.56 68.34 203.56 67.44C203.55 66.04 204.32 64.76 205.56 64.1C206.5 63.6 207.15 62.76 207.34 61.8L207.43 61.35C207.46 61.19 207.62 61.09 207.78 61.12C207.94 61.15 208.05 61.31 208.01 61.47L207.92 61.92C207.69 63.06 206.93 64.05 205.84 64.63C204.79 65.18 204.15 66.26 204.15 67.44C204.15 68.2 204.43 68.93 204.93 69.5C205.69 70.37 206.01 71.6 205.78 72.79L204.66 78.48C204.63 78.61 204.51 78.71 204.37 78.71Z" fill="#212322"/>
<path d="M212.58 70.63C212.52 70.63 212.46 70.61 212.41 70.58C211.36 69.86 210.75 68.67 210.78 67.39C210.83 65.34 212.49 63.73 214.55 63.73C214.71 63.73 214.85 63.86 214.85 64.03C214.85 64.19 214.72 64.33 214.55 64.33C212.82 64.33 211.42 65.68 211.38 67.41C211.35 68.48 211.87 69.48 212.75 70.09C212.89 70.18 212.92 70.37 212.83 70.5C212.77 70.59 212.67 70.63 212.58 70.63Z" fill="#212322"/>
<path d="M255.55 106.91L253.22 102.49C252.91 101.9 252.47 101.37 251.95 100.95L247.45 97.32L245.92 99.21L250 102.5C250.62 103 251.14 103.63 251.51 104.34L253.43 108.04C253.74 108.64 254.51 108.82 255.06 108.43L255.21 108.32C255.66 108 255.8 107.4 255.55 106.91Z" fill="#F3F9FE"/>
<path d="M257.4 105.28L255.11 100.93C254.8 100.34 254.36 99.81 253.84 99.39L249.34 95.76L247.81 97.65L252.02 101.05C252.56 101.48 253 102.02 253.32 102.63L255.27 106.38C255.61 107.03 256.45 107.23 257.04 106.8C257.52 106.46 257.68 105.81 257.4 105.28Z" fill="#F3F9FE"/>
<path d="M245.24 99.5L245.44 99.51C246.04 99.54 246.62 99.76 247.09 100.14L249.29 101.88L251.89 99.36L246.49 92.05L240.92 91.75L241.9 98.1C242.03 98.91 242.3 99.69 242.7 100.4L245.59 105.47C245.93 106.07 246.7 106.28 247.3 105.94L247.43 105.87C248.03 105.53 248.25 104.77 247.9 104.17L245.24 99.5Z" fill="#F3F9FE"/>
<path d="M246.49 92.05L240.92 91.75L241.51 95.55L248.2 94.33L246.49 92.05Z" fill="#212322"/>
<path d="M254.41 108.94C254.3 108.94 254.19 108.93 254.08 108.9C253.68 108.81 253.35 108.54 253.16 108.18L251.24 104.48C250.89 103.8 250.41 103.22 249.81 102.74L246.87 100.36C246.44 100.02 245.93 99.82 245.38 99.79L245.26 99.78C245.1 99.77 244.97 99.63 244.98 99.47C244.99 99.31 245.13 99.18 245.29 99.19L245.41 99.2C246.08 99.24 246.72 99.48 247.24 99.9L250.18 102.28C250.84 102.81 251.37 103.46 251.76 104.21L253.68 107.91C253.79 108.12 253.98 108.27 254.21 108.32C254.44 108.37 254.68 108.33 254.88 108.19L255.03 108.08C255.36 107.85 255.46 107.4 255.27 107.05L252.94 102.63C252.64 102.07 252.24 101.58 251.75 101.18L250.15 99.88C250.02 99.78 250 99.59 250.11 99.46C250.21 99.33 250.4 99.31 250.53 99.42L252.13 100.72C252.69 101.17 253.14 101.72 253.48 102.35L255.81 106.77C256.13 107.38 255.95 108.15 255.39 108.56L255.24 108.67C254.99 108.85 254.7 108.94 254.41 108.94Z" fill="#212322"/>
<path d="M256.33 107.33C256.23 107.33 256.12 107.32 256.02 107.3C255.61 107.21 255.25 106.95 255.04 106.59C254.96 106.45 255.01 106.27 255.15 106.18C255.29 106.1 255.47 106.15 255.56 106.29C255.69 106.51 255.9 106.67 256.15 106.72C256.4 106.77 256.66 106.72 256.87 106.57C257.23 106.31 257.35 105.82 257.14 105.42L254.85 101.07C254.55 100.51 254.15 100.02 253.66 99.62L249.3 96.1C249.28 96.09 249.27 96.07 249.25 96.05L246.35 92.33L241.28 92.06L242.21 98.05C242.33 98.83 242.59 99.57 242.98 100.25L245.87 105.32C246.13 105.78 246.72 105.94 247.18 105.68L247.31 105.61C247.53 105.48 247.69 105.28 247.76 105.03C247.83 104.79 247.8 104.53 247.67 104.31L244.26 98.32C244.18 98.18 244.23 98 244.37 97.91C244.51 97.83 244.69 97.88 244.78 98.02L248.19 104.01C248.39 104.37 248.45 104.79 248.34 105.18C248.23 105.58 247.97 105.91 247.61 106.12L247.48 106.19C246.74 106.61 245.79 106.35 245.36 105.61L242.47 100.54C242.05 99.79 241.76 98.99 241.63 98.14L240.65 91.79C240.64 91.7 240.66 91.61 240.72 91.54C240.78 91.47 240.87 91.44 240.96 91.44L246.53 91.74C246.62 91.74 246.7 91.79 246.75 91.85L249.71 95.65L254.05 99.15C254.61 99.6 255.06 100.15 255.4 100.78L257.69 105.13C258.04 105.79 257.84 106.61 257.24 107.04C256.95 107.24 256.65 107.33 256.33 107.33Z" fill="#212322"/>
<path d="M223.62 59.23L216.79 67.09L231.76 77.32L238.71 92.76H249.56L241.78 74.7C240.71 72.21 238.97 70.07 236.75 68.5L223.62 59.23Z" fill="white"/>
<path d="M249.56 93.05H238.71C238.59 93.05 238.49 92.98 238.44 92.87L231.52 77.51L223.21 71.83C223.07 71.74 223.04 71.55 223.13 71.42C223.22 71.28 223.41 71.25 223.54 71.34L231.92 77.06C231.97 77.09 232 77.13 232.02 77.18L238.89 92.44H249.1L241.22 74.14C240.35 72.13 238.95 70.39 237.17 69.11L222.62 58.92C222.49 58.83 222.45 58.64 222.55 58.51C222.64 58.38 222.83 58.34 222.96 58.44L237.51 68.63C239.38 69.98 240.85 71.8 241.76 73.91L249.82 92.63C249.86 92.72 249.85 92.83 249.8 92.91C249.76 93 249.66 93.05 249.56 93.05Z" fill="#212322"/>
<path d="M72.4701 253.29H66.6601C66.5001 253.29 66.3601 253.16 66.3601 252.99V190.13C66.3601 189.97 66.4901 189.83 66.6601 189.83C66.8201 189.83 66.9601 189.96 66.9601 190.13V252.69H72.1701V190.22C72.1701 190.06 72.3001 189.92 72.4701 189.92C72.6301 189.92 72.7701 190.05 72.7701 190.22V252.99C72.7701 253.15 72.6301 253.29 72.4701 253.29Z" fill="#212322"/>
<path d="M96.7801 256.94H42.4901C42.3301 256.94 42.1901 256.81 42.1901 256.64V255.08C42.1901 254.93 42.3101 254.8 42.4601 254.78L66.6301 252.68H72.4601L96.8001 254.78C96.9501 254.79 97.0701 254.92 97.0701 255.08V256.64C97.0801 256.81 96.9501 256.94 96.7801 256.94ZM42.7901 256.35H96.4801V255.36L72.4401 253.29H66.6601L42.7901 255.36V256.35Z" fill="#212322"/>
<path d="M139.09 190.49H69.3101C48.0201 190.49 30.7001 172.62 30.7001 150.66V118.57C30.7001 118.41 30.8301 118.27 31.0001 118.27H87.9801C88.1401 118.27 88.2801 118.4 88.2801 118.57V135.1C88.2801 149.48 99.6101 161.17 113.54 161.17C113.63 161.17 113.7 161.21 113.76 161.26C127.66 162.43 139.4 174.35 139.4 187.83V190.18C139.39 190.36 139.26 190.49 139.09 190.49ZM31.3001 118.87V150.66C31.3001 172.3 48.3501 189.9 69.3201 189.9H138.8V187.85C138.8 173.96 126.05 161.78 111.52 161.78C111.43 161.78 111.35 161.74 111.3 161.68C98.0901 160.5 87.6901 149.04 87.6901 135.11V118.87H31.3001Z" fill="#212322"/>
<path d="M128.23 217.45H111.37V235.99H128.23V217.45Z" fill="#212322"/>
<path d="M109.14 229.25L108.86 229.6C105.69 233.61 105.81 237.08 104.15 242.81L125.32 250.54L156.99 250.94L162.4 247.75L160.57 243.24L143.05 237.43L131.01 229.78L128.53 226.05H125.19L122.39 228.68V231.96C119.22 233.87 118.65 234.77 117.07 234.77C117.04 234.76 114.4 235.02 113.56 232.49L112.7 229.89C112.18 228.33 110.16 227.97 109.14 229.25Z" fill="white"/>
<path d="M157 251.23L125.32 250.83C125.29 250.83 125.25 250.82 125.22 250.81L104.05 243.08C103.9 243.03 103.82 242.87 103.87 242.72C104.34 241.09 104.68 239.61 104.97 238.31C105.73 234.97 106.33 232.33 108.63 229.41L108.91 229.06C109.45 228.37 110.3 228.05 111.16 228.2C112.03 228.35 112.71 228.94 112.99 229.78L113.85 232.38C114.5 234.33 116.29 234.48 117.03 234.45C117.05 234.45 117.07 234.45 117.08 234.45C118.05 234.45 118.6 234.07 119.83 233.24C120.41 232.84 121.13 232.36 122.1 231.77V228.66C122.1 228.58 122.13 228.5 122.19 228.44L124.99 225.81C125.05 225.76 125.12 225.73 125.19 225.73H128.53C128.63 225.73 128.72 225.78 128.78 225.86L131.23 229.53L143.19 237.13L160.67 242.93C160.75 242.96 160.82 243.02 160.85 243.1L162.68 247.61C162.74 247.75 162.68 247.9 162.56 247.98L157.15 251.17C157.1 251.22 157.05 251.23 157 251.23ZM125.38 250.24L156.92 250.64L162.04 247.62L160.36 243.48L142.97 237.71C142.95 237.7 142.92 237.69 142.9 237.68L130.86 230.03C130.82 230.01 130.79 229.98 130.77 229.94L128.37 226.35H125.31L122.69 228.81V231.96C122.69 232.06 122.64 232.16 122.55 232.21C121.52 232.83 120.77 233.34 120.17 233.75C118.88 234.63 118.23 235.07 117.08 235.07H117.07C116.36 235.09 114.08 234.98 113.29 232.59L112.43 229.99C112.22 229.36 111.71 228.92 111.07 228.81C110.43 228.7 109.8 228.94 109.39 229.45L109.11 229.8C106.89 232.61 106.3 235.19 105.56 238.46C105.28 239.7 104.96 241.1 104.52 242.64L125.38 250.24Z" fill="#212322"/>
<path d="M162.41 247.74L152.53 249.64L126.35 249.11L104.16 242.81L100.97 245.72L99.6301 253.02L108.17 256.78C108.17 256.78 114.31 256.75 122.1 256.78L123.98 254.91H126.9L128.81 256.78C140.99 256.81 154.18 256.78 154.18 256.78L161.27 253.13L162.41 250.91V247.74Z" fill="#212322"/>
<path d="M130.43 234.25C130.34 234.25 130.24 234.21 130.19 234.12C130.1 233.98 130.13 233.8 130.26 233.71L133.75 231.29C133.88 231.2 134.07 231.23 134.16 231.36C134.25 231.5 134.22 231.68 134.09 231.77L130.6 234.19C130.55 234.23 130.49 234.25 130.43 234.25Z" fill="#212322"/>
<path d="M133.45 236.28C133.36 236.28 133.26 236.24 133.21 236.15C133.12 236.01 133.15 235.83 133.28 235.74L136.77 233.32C136.9 233.23 137.09 233.26 137.18 233.39C137.27 233.53 137.24 233.71 137.11 233.8L133.62 236.22C133.56 236.26 133.5 236.28 133.45 236.28Z" fill="#212322"/>
<path d="M136.46 238.31C136.37 238.31 136.27 238.27 136.22 238.18C136.13 238.04 136.16 237.86 136.29 237.77L139.78 235.35C139.92 235.26 140.1 235.29 140.19 235.42C140.28 235.56 140.25 235.74 140.12 235.83L136.63 238.25C136.58 238.3 136.52 238.31 136.46 238.31Z" fill="#212322"/>
<path d="M161.29 172.16L168.59 156.91L185.24 164.94L177.93 180.2L161.29 172.16Z" fill="#212322"/>
<path d="M170.92 179.3L171.11 179.7C173.34 184.31 176.51 185.7 180.92 189.69L197.03 173.87L211.11 145.38L210.59 139.1L205.75 138.8L192.94 152.14L180.85 159.73L176.43 160.36L174.98 163.38L176.12 167.06L179.06 168.48C179.4 172.17 179.96 173.09 179.28 174.51C179.26 174.54 178.35 177.04 175.72 176.7L173.01 176.35C171.41 176.14 170.21 177.82 170.92 179.3Z" fill="white"/>
<path d="M180.93 189.98C180.86 189.98 180.79 189.95 180.73 189.9C179.47 188.76 178.29 187.82 177.25 186.99C174.58 184.86 172.47 183.17 170.85 179.82L170.66 179.42C170.28 178.63 170.35 177.72 170.87 177.01C171.38 176.3 172.2 175.94 173.07 176.05L175.78 176.4C177.81 176.66 178.72 175.1 179.02 174.42C179.03 174.4 179.03 174.39 179.04 174.37C179.46 173.49 179.36 172.82 179.14 171.36C179.04 170.66 178.91 169.8 178.8 168.67L176.01 167.32C175.94 167.28 175.88 167.22 175.86 167.14L174.72 163.46C174.7 163.39 174.7 163.31 174.74 163.24L176.19 160.22C176.23 160.13 176.32 160.07 176.42 160.05L180.78 159.42L192.78 151.89L205.56 138.58C205.62 138.52 205.71 138.48 205.79 138.49L210.63 138.79C210.78 138.8 210.9 138.91 210.91 139.06L211.43 145.34C211.43 145.39 211.42 145.45 211.4 145.5L197.3 174C197.29 174.03 197.27 174.06 197.24 174.08L181.13 189.9C181.08 189.96 181.01 189.98 180.93 189.98ZM172.76 176.63C172.2 176.63 171.68 176.89 171.34 177.36C170.95 177.9 170.9 178.57 171.18 179.17L171.37 179.57C172.93 182.8 174.99 184.45 177.61 186.53C178.6 187.32 179.72 188.21 180.91 189.28L196.78 173.69L210.8 145.31L210.31 139.37L205.86 139.1L193.15 152.34C193.13 152.36 193.11 152.37 193.09 152.39L181 159.98C180.96 160 180.93 160.02 180.88 160.02L176.62 160.63L175.29 163.4L176.36 166.84L179.19 168.2C179.28 168.25 179.35 168.34 179.36 168.44C179.47 169.64 179.6 170.54 179.71 171.26C179.94 172.81 180.05 173.58 179.55 174.62V174.63C179.26 175.28 178.17 177.3 175.69 176.98L172.98 176.63C172.91 176.63 172.84 176.63 172.76 176.63Z" fill="#212322"/>
<path d="M210.59 139.09L208.02 148.86L195.72 172.28L180.93 189.68L182.16 193.83L188.14 198.2L195.18 192.09C195.18 192.09 197.87 186.54 201.27 179.5L200.39 176.97L201.66 174.32L204.2 173.42C209.51 162.41 215.18 150.58 215.12 150.42C215.02 150.12 214.95 142.44 214.95 142.44L213.46 140.44L210.59 139.09Z" fill="#212322"/>
<path d="M184.36 162.36C184.22 162.36 184.09 162.26 184.07 162.11L183.41 157.9C183.38 157.74 183.5 157.59 183.66 157.56C183.82 157.54 183.97 157.65 184 157.81L184.66 162.02C184.69 162.18 184.57 162.33 184.41 162.36C184.39 162.36 184.37 162.36 184.36 162.36Z" fill="#212322"/>
<path d="M187.49 160.51C187.35 160.51 187.22 160.41 187.2 160.26L186.54 156.05C186.51 155.89 186.63 155.74 186.79 155.71C186.95 155.69 187.1 155.8 187.13 155.96L187.79 160.17C187.82 160.33 187.7 160.48 187.54 160.51C187.52 160.51 187.51 160.51 187.49 160.51Z" fill="#212322"/>
<path d="M190.62 158.66C190.48 158.66 190.35 158.56 190.33 158.41L189.67 154.2C189.64 154.04 189.76 153.89 189.92 153.86C190.08 153.83 190.23 153.95 190.26 154.11L190.92 158.32C190.95 158.48 190.83 158.63 190.67 158.66C190.65 158.66 190.64 158.66 190.62 158.66Z" fill="#212322"/>
<path d="M104.47 130.21L76.0401 152.71H48.5801V159.89C48.5801 170.31 56.9901 178.76 67.3701 178.76H69.8601C78.2901 178.76 86.4301 175.68 92.7701 170.1L114.35 151.08L163.66 177.62L175.65 154.78L123.86 128.29C117.58 125.08 110.01 125.83 104.47 130.21Z" fill="#212322"/>
<path d="M48.5302 152.86V159.4C48.5302 170.05 57.1202 178.68 67.7302 178.68H108.47V224.22H134.21V170.79C134.21 160.89 126.22 152.86 116.36 152.86H48.5302Z" fill="#212322"/>
<path d="M134.21 224.52H108.47C108.31 224.52 108.17 224.39 108.17 224.22V178.98H67.7301C56.9801 178.98 48.2401 170.2 48.2401 159.4V152.86C48.2401 152.7 48.3701 152.56 48.5401 152.56H116.36C126.37 152.56 134.51 160.74 134.51 170.79V224.22C134.51 224.38 134.37 224.52 134.21 224.52ZM108.77 223.92H133.91V170.79C133.91 161.07 126.03 153.16 116.35 153.16H48.8301V159.4C48.8301 169.87 57.3101 178.38 67.7301 178.38H108.47C108.63 178.38 108.77 178.51 108.77 178.68V223.92Z" fill="#212322"/>
<path d="M134.21 224.52H108.47C108.31 224.52 108.17 224.39 108.17 224.22V178.98H72.2701C72.1101 178.98 71.9701 178.85 71.9701 178.68C71.9701 178.52 72.1001 178.38 72.2701 178.38H108.48C108.64 178.38 108.78 178.51 108.78 178.68V223.92H133.92V170.79C133.92 161.07 126.04 153.16 116.36 153.16H112.39C112.23 153.16 112.09 153.03 112.09 152.86C112.09 152.7 112.22 152.56 112.39 152.56H116.36C126.37 152.56 134.51 160.74 134.51 170.79V224.22C134.51 224.38 134.37 224.52 134.21 224.52Z" fill="#212322"/>
<path d="M108.47 178.97C108.31 178.97 108.17 178.84 108.17 178.67V173.44C108.17 173.28 108.3 173.14 108.47 173.14C108.63 173.14 108.77 173.27 108.77 173.44V178.67C108.77 178.84 108.64 178.97 108.47 178.97Z" fill="white"/>
<path d="M48.5801 152.71V159.89C48.5801 161.45 48.7701 162.96 49.1201 164.4C53.2601 164.06 57.2101 162.64 58.2301 159.31C59.3901 155.56 62.0101 152.6 76.0701 152.94L48.5801 152.71Z" fill="#212322"/>
<path d="M69.8602 179.06H67.3702C56.8402 179.06 48.2802 170.46 48.2802 159.89V152.71C48.2802 152.55 48.4102 152.41 48.5802 152.41H75.9402L104.29 129.98C109.9 125.54 117.64 124.77 124.01 128.03L175.8 154.52C175.87 154.56 175.92 154.62 175.95 154.69C175.97 154.77 175.97 154.85 175.93 154.92L163.94 177.76C163.9 177.83 163.84 177.88 163.76 177.91C163.68 177.93 163.6 177.93 163.53 177.89L130.39 160.05C130.25 159.97 130.19 159.79 130.27 159.65C130.35 159.51 130.53 159.45 130.67 159.53L163.54 177.23L175.25 154.92L123.73 128.57C117.57 125.42 110.08 126.16 104.65 130.46L76.2202 152.96C76.1702 153 76.1002 153.02 76.0402 153.02H48.8802V159.9C48.8802 170.14 57.1802 178.47 67.3801 178.47H69.8702C78.2302 178.47 86.3001 175.42 92.5901 169.88L114.17 150.86C114.26 150.78 114.4 150.76 114.51 150.82L117.72 152.55C117.86 152.63 117.92 152.81 117.84 152.95C117.76 153.09 117.58 153.15 117.44 153.07L114.42 151.44L92.9902 170.32C86.5802 175.95 78.3702 179.06 69.8602 179.06Z" fill="#212322"/>
<path d="M114.23 151.47C114.15 151.47 114.07 151.44 114.01 151.37C113.9 151.25 113.91 151.06 114.04 150.95L118.52 147C118.64 146.89 118.83 146.9 118.94 147.03C119.05 147.15 119.04 147.34 118.91 147.45L114.43 151.4C114.37 151.45 114.3 151.47 114.23 151.47Z" fill="black"/>
<path d="M72.1401 91.22C72.1401 93.58 70.2301 95.5 67.8801 95.5H65.9601L60.0001 96.67V94.69C60.0001 92.58 61.1601 90.63 63.0201 89.64L66.4701 87.8C69.0401 86.43 72.1401 88.3 72.1401 91.22Z" fill="#212322"/>
<path d="M60.8501 105.63L66.3901 114.59V98.43H60.8501V105.63Z" fill="#DFE3E8"/>
<path d="M60.8501 100.54V98.43H66.3901V103.09C65.8901 103.19 64.8901 103.32 63.7501 102.94C61.9501 102.34 61.0801 100.93 60.8501 100.54Z" fill="#212322"/>
<path d="M64.3901 101.78C66.8202 101.78 68.7901 99.5951 68.7901 96.9C68.7901 94.2048 66.8202 92.02 64.3901 92.02C61.9601 92.02 59.9901 94.2048 59.9901 96.9C59.9901 99.5951 61.9601 101.78 64.3901 101.78Z" fill="#F3F9FE"/>
<path d="M64.39 102.07C62.97 102.07 61.98 101.82 60.8 100.53C60.69 100.41 60.7001 100.22 60.8201 100.11C60.9401 100 61.1301 100.01 61.2401 100.13C62.2801 101.27 63.08 101.48 64.39 101.48C66.6501 101.48 68.49 99.42 68.49 96.9C68.49 94.37 66.6501 92.32 64.39 92.32C62.94 92.32 61.6301 93.15 60.8801 94.54C60.8001 94.68 60.62 94.74 60.48 94.66C60.34 94.58 60.2801 94.4 60.3601 94.26C61.2001 92.7 62.7501 91.73 64.39 91.73C66.9801 91.73 69.0801 94.05 69.0801 96.91C69.0901 99.75 66.9801 102.07 64.39 102.07Z" fill="#212322"/>
<path d="M64.3901 92.02C61.9601 92.02 59.9901 94.2 59.9901 96.9C59.9901 97.14 60.0101 97.38 60.0401 97.61L62.8901 95.5H68.6101C68.0701 93.49 66.3801 92.02 64.3901 92.02Z" fill="#212322"/>
<path d="M63.0001 99.1C63.3601 99.43 63.8301 99.66 64.3501 99.71C65.5201 99.83 66.5801 99.07 66.8701 97.96L63.0001 99.1Z" fill="white"/>
<path d="M108 144.77L115.54 135.98L84.3002 108.94L70.4202 125.11L94.3002 145.79C98.3702 149.31 104.5 148.85 108 144.77Z" fill="#8C7BFF"/>
<path d="M16.5902 134.15L35.3802 112.8C39.5002 108.11 45.4302 105.43 51.6602 105.43L74.8502 106.09C82.7702 106.09 89.5202 113.75 89.5202 121.71L89.3702 149.37H41.8702V138.88L32.8602 148.6C28.8902 153.11 22.0302 153.54 17.5402 149.55C13.0402 145.55 12.6102 138.66 16.5902 134.15Z" fill="white"/>
<path d="M21.7301 152.15C21.7001 152.15 21.6801 152.15 21.6501 152.14C20.0401 151.68 18.5901 150.88 17.3301 149.76C12.7201 145.67 12.2901 138.58 16.3601 133.95L35.1501 112.6C39.3301 107.85 45.3401 105.13 51.6501 105.13H64.1401C64.3001 105.13 64.4401 105.26 64.4401 105.43C64.4401 105.59 64.3101 105.73 64.1401 105.73H51.6601C45.5201 105.73 39.6701 108.38 35.6001 113L16.8101 134.35C12.9501 138.73 13.3601 145.45 17.7301 149.32C18.9201 150.38 20.3001 151.14 21.8201 151.57C21.9801 151.62 22.0701 151.78 22.0201 151.94C21.9801 152.07 21.8601 152.15 21.7301 152.15Z" fill="#212322"/>
<path d="M41.0701 136.97C41.0001 136.97 40.9201 136.94 40.8601 136.89C40.7401 136.78 40.7401 136.59 40.8501 136.47L46.6001 130.46C46.7101 130.34 46.9001 130.34 47.0201 130.45C47.1401 130.56 47.1401 130.75 47.0301 130.87L41.2801 136.88C41.2301 136.94 41.1501 136.97 41.0701 136.97Z" fill="#212322"/>
<path d="M89.3701 144.7C89.2101 144.7 89.0701 144.57 89.0701 144.4V125.2C89.0701 125.04 89.2001 124.9 89.3701 124.9C89.5301 124.9 89.6701 125.03 89.6701 125.2V144.4C89.6701 144.57 89.5401 144.7 89.3701 144.7Z" fill="black"/>
<path d="M94.3101 145.79L98.5801 149.54C103.25 153.58 110.29 153.06 114.32 148.37L125.87 127.92L117.87 111.55L94.5701 138.69L94.3101 145.79Z" fill="#8C7BFF"/>
<path d="M138.62 97.29L129.81 92.86C128.97 92.44 128.03 92.29 127.11 92.42C125.37 92.67 123.86 93.76 123.07 95.34L122.64 96.2L126.51 95.67C127.07 95.59 127.65 95.69 128.16 95.94L139.67 101.73L139.92 101.23C140.65 99.77 140.06 98.01 138.62 97.29Z" fill="#FDA4FF"/>
<path d="M136.66 100.2L128.53 96.05C127.84 95.7 127.06 95.57 126.3 95.68L118.93 96.72C118.06 96.84 117.45 97.65 117.57 98.53L117.61 98.82C117.73 99.7 118.54 100.31 119.41 100.18L126.14 99.23C126.85 99.13 127.57 99.25 128.2 99.58L135.19 103.14L136.66 100.2Z" fill="#FDA4FF"/>
<path d="M126.13 99.22L121.36 99.89C120.46 100.02 119.83 100.86 119.95 101.76L119.97 101.94C120.1 102.85 120.93 103.48 121.83 103.35L125.91 102.77C126.58 102.68 127.27 102.79 127.87 103.1L133.7 106.08L135.17 103.14L128.16 99.56C127.55 99.24 126.83 99.12 126.13 99.22Z" fill="#FDA4FF"/>
<path d="M127.14 109.9L134.53 113.62L136.66 100.2L124.22 93.94L124.34 105.41C124.36 107.31 125.44 109.05 127.14 109.9Z" fill="#FDA4FF"/>
<path d="M139.66 101.72L128.33 96.02L126.04 107.57L124.37 106.73L111.79 121.58L123.78 127.61L133.94 115.8C135.55 113.78 136.95 111.6 138.1 109.29L140.55 104.37C141.02 103.39 140.63 102.2 139.66 101.72Z" fill="#FDA4FF"/>
<path d="M120.87 110.85L111.78 121.57L123.77 127.6L132.63 117.3L120.87 110.85Z" fill="black"/>
<path d="M123.85 127.97L111.32 121.67L124.63 105.87L124.99 107.34C125.41 109.05 126.55 110.48 128.12 111.26C128.27 111.33 128.33 111.51 128.25 111.66C128.18 111.81 128 111.87 127.85 111.79C126.13 110.92 124.88 109.35 124.41 107.48L124.33 107.14L112.26 121.47L123.71 127.23L133.71 115.59C135.3 113.6 136.69 111.43 137.83 109.14L140.28 104.22C140.69 103.39 140.35 102.38 139.52 101.96L139.26 101.83L139.64 101.06C140.29 99.76 139.76 98.18 138.47 97.53L129.69 93.11C128.91 92.72 128.03 92.57 127.16 92.69C125.51 92.92 124.09 93.95 123.34 95.44L122.91 96.3C122.84 96.45 122.66 96.51 122.51 96.43C122.36 96.36 122.3 96.18 122.38 96.03L122.81 95.17C123.64 93.5 125.24 92.35 127.08 92.09C128.07 91.95 129.07 92.11 129.96 92.56L138.74 96.98C140.32 97.78 140.97 99.72 140.17 101.31L140.04 101.57C140.97 102.2 141.32 103.44 140.81 104.47L138.36 109.39C137.2 111.72 135.79 113.92 134.17 115.95L123.85 127.97Z" fill="black"/>
<path d="M134.13 102.9C134.08 102.9 134.04 102.89 134 102.87L128.06 99.84C127.48 99.54 126.82 99.43 126.17 99.52L119.44 100.47C118.94 100.54 118.44 100.41 118.04 100.11C117.63 99.8 117.37 99.36 117.3 98.85L117.26 98.56C117.11 97.52 117.84 96.56 118.87 96.41L126.24 95.37C127.07 95.25 127.9 95.39 128.65 95.77L135.72 99.38C135.87 99.45 135.92 99.63 135.85 99.78C135.78 99.93 135.6 99.98 135.45 99.91L128.38 96.3C127.74 95.97 127.03 95.86 126.33 95.96L118.96 97C118.25 97.1 117.75 97.76 117.85 98.47L117.89 98.76C117.94 99.11 118.12 99.41 118.4 99.62C118.68 99.83 119.02 99.92 119.36 99.87L126.09 98.92C126.86 98.81 127.64 98.94 128.33 99.3L134.27 102.32C134.42 102.39 134.47 102.57 134.4 102.72C134.35 102.84 134.24 102.9 134.13 102.9Z" fill="black"/>
<path d="M125.92 102.77L123.46 103.12C122.56 103.25 121.94 104.08 122.07 104.98L122.1 105.18C122.23 106.08 123.06 106.71 123.95 106.58L125.72 106.33C126.39 106.24 127.08 106.35 127.68 106.66L132.26 109.01L133.73 106.07L127.98 103.12C127.35 102.79 126.63 102.67 125.92 102.77Z" fill="#FDA4FF"/>
<path d="M131.21 108.77C131.16 108.77 131.12 108.76 131.07 108.74L127.55 106.93C127 106.65 126.38 106.54 125.77 106.63L124 106.88C123.49 106.95 122.98 106.82 122.57 106.51C122.15 106.2 121.89 105.74 121.81 105.23L121.78 105.03C121.63 103.97 122.37 102.99 123.43 102.84C123.59 102.82 123.74 102.93 123.77 103.09C123.79 103.25 123.68 103.4 123.52 103.43C122.79 103.53 122.28 104.22 122.38 104.95L122.41 105.15C122.46 105.51 122.65 105.82 122.93 106.04C123.22 106.26 123.57 106.35 123.92 106.3L125.69 106.05C126.43 105.95 127.17 106.07 127.83 106.41L131.35 108.22C131.5 108.3 131.55 108.47 131.48 108.62C131.42 108.71 131.31 108.77 131.21 108.77Z" fill="black"/>
<path d="M132.66 105.85C132.61 105.85 132.57 105.84 132.52 105.82L127.74 103.38C127.19 103.1 126.57 102.99 125.96 103.08L121.88 103.66C121.37 103.73 120.85 103.6 120.44 103.29C120.02 102.98 119.75 102.52 119.68 102L119.66 101.82C119.51 100.75 120.25 99.76 121.32 99.61C121.48 99.59 121.63 99.7 121.66 99.86C121.68 100.02 121.57 100.17 121.41 100.2C120.67 100.3 120.15 100.99 120.26 101.74L120.28 101.92C120.33 102.28 120.52 102.6 120.81 102.82C121.1 103.04 121.45 103.13 121.81 103.08L125.89 102.5C126.63 102.4 127.36 102.52 128.03 102.86L132.81 105.3C132.96 105.37 133.01 105.55 132.94 105.7C132.87 105.79 132.77 105.85 132.66 105.85Z" fill="black"/>
<path d="M89.5301 109.1L94.9201 160.21L58.9101 150.3L53.4301 100.27L89.5301 109.1Z" fill="white"/>
<path d="M94.9201 160.51C94.8901 160.51 94.8701 160.51 94.8401 160.5L58.8301 150.59C58.7101 150.56 58.6301 150.46 58.6101 150.34L53.1301 100.31C53.1201 100.21 53.1601 100.12 53.2301 100.05C53.3001 99.99 53.4001 99.96 53.5001 99.98L89.5901 108.81C89.7101 108.84 89.8001 108.94 89.8201 109.07L95.2201 160.19C95.2301 160.29 95.1901 160.38 95.1201 160.45C95.0601 160.49 94.9901 160.51 94.9201 160.51ZM59.1801 150.07L94.5801 159.82L89.2501 109.35L53.7701 100.67L59.1801 150.07Z" fill="#212322"/>
<path d="M114.14 90.41C114.05 90.41 113.96 90.37 113.9 90.29C113.8 90.16 113.82 89.97 113.95 89.87L116.3 88.06C116.43 87.96 116.62 87.98 116.72 88.11C116.82 88.24 116.8 88.43 116.67 88.53L114.32 90.34C114.27 90.39 114.2 90.41 114.14 90.41Z" fill="#212322"/>
<path d="M109.65 93.87C109.56 93.87 109.47 93.83 109.41 93.75C109.31 93.62 109.33 93.43 109.46 93.33L113.95 89.87C114.08 89.77 114.27 89.79 114.37 89.92C114.47 90.05 114.45 90.24 114.32 90.34L109.83 93.8C109.78 93.85 109.72 93.87 109.65 93.87Z" fill="white"/>
<path d="M89.5301 109.4C89.4401 109.4 89.3401 109.35 89.2901 109.27C89.2001 109.14 89.2301 108.96 89.3501 108.87L109.48 93.34C109.61 93.24 109.8 93.26 109.9 93.39C110 93.52 109.98 93.71 109.85 93.81L94.3301 105.78L109.51 96.37C109.65 96.28 109.83 96.33 109.92 96.47C110.01 96.61 109.96 96.79 109.82 96.88L89.6901 109.36C89.6301 109.38 89.5801 109.4 89.5301 109.4Z" fill="#212322"/>
<path d="M109.65 96.92C109.55 96.92 109.45 96.87 109.4 96.78C109.31 96.64 109.36 96.46 109.5 96.37L114.29 93.4C114.43 93.31 114.61 93.36 114.7 93.5C114.79 93.64 114.74 93.82 114.6 93.91L109.81 96.88C109.76 96.9 109.71 96.92 109.65 96.92Z" fill="white"/>
<path d="M114.44 93.95C114.34 93.95 114.24 93.9 114.19 93.81C114.1 93.67 114.15 93.49 114.29 93.4L119.08 90.43C119.22 90.34 119.4 90.39 119.49 90.53C119.58 90.67 119.53 90.85 119.39 90.94L114.6 93.91C114.55 93.94 114.49 93.95 114.44 93.95Z" fill="#212322"/>
<path d="M95.03 160.19L128.35 143.31L122.58 92.23L89.26 109.11L95.03 160.19Z" fill="white"/>
<path d="M95.0301 160.49C94.9801 160.49 94.9301 160.48 94.8901 160.45C94.8001 160.4 94.7501 160.32 94.7401 160.22L88.9701 109.14C88.9601 109.02 89.0201 108.9 89.1301 108.84L122.45 91.96C122.54 91.92 122.64 91.92 122.73 91.96C122.82 92.01 122.87 92.09 122.88 92.19L128.65 143.27C128.66 143.39 128.6 143.51 128.49 143.57L95.1701 160.45C95.1201 160.48 95.0801 160.49 95.0301 160.49ZM89.5801 109.29L95.2801 159.74L128.03 143.15L122.33 92.7L89.5801 109.29Z" fill="black"/>
<path d="M112.7 119.58L98.4701 126.89L96.5701 110.18L110.8 102.87L112.7 119.58Z" fill="#D8D3A0"/>
<path d="M97.6001 133.74C97.4901 133.74 97.3901 133.68 97.3301 133.58C97.2601 133.43 97.3201 133.25 97.4601 133.18L119.37 122.13C119.52 122.06 119.7 122.11 119.77 122.26C119.84 122.41 119.78 122.59 119.64 122.66L97.7301 133.71C97.6901 133.73 97.6501 133.74 97.6001 133.74Z" fill="#212322"/>
<path d="M98.1401 138.7C98.0301 138.7 97.9302 138.64 97.8702 138.54C97.8002 138.39 97.8601 138.21 98.0001 138.14L119.91 127.09C120.06 127.02 120.24 127.07 120.31 127.22C120.38 127.37 120.32 127.55 120.18 127.62L98.2701 138.67C98.2301 138.69 98.1901 138.7 98.1401 138.7Z" fill="#212322"/>
<path d="M98.7001 143.86C98.5901 143.86 98.4901 143.8 98.4301 143.7C98.3601 143.55 98.4201 143.37 98.5601 143.3L120.47 132.25C120.62 132.18 120.8 132.23 120.87 132.38C120.94 132.53 120.88 132.71 120.74 132.78L98.8301 143.83C98.7901 143.85 98.7501 143.86 98.7001 143.86Z" fill="#212322"/>
<path d="M99.2901 149.38C99.1801 149.38 99.0801 149.32 99.0201 149.22C98.9501 149.07 99.0101 148.89 99.1501 148.82L121.06 137.77C121.21 137.7 121.39 137.75 121.46 137.9C121.53 138.05 121.47 138.23 121.33 138.3L99.4201 149.35C99.3801 149.37 99.3301 149.38 99.2901 149.38Z" fill="#212322"/>
<path d="M72.8601 138.74L62.2801 136.4L59.1201 108.55L69.7601 111.39L72.8601 138.74Z" fill="#D8D3A0"/>
<path d="M88.3401 147.38C88.3201 147.38 88.3001 147.38 88.2701 147.37L62.2601 141.44C62.1001 141.4 62.0001 141.24 62.0401 141.08C62.0801 140.92 62.2401 140.82 62.4001 140.86L88.4101 146.79C88.5701 146.83 88.6701 146.99 88.6301 147.15C88.5901 147.29 88.4701 147.38 88.3401 147.38Z" fill="#212322"/>
<path d="M85.2301 122.69C85.2101 122.69 85.1801 122.69 85.1601 122.68L75.2401 120.16C75.0801 120.12 74.9801 119.96 75.0201 119.8C75.0601 119.64 75.2201 119.54 75.3801 119.59L85.3001 122.11C85.4601 122.15 85.5601 122.31 85.5201 122.47C85.4901 122.6 85.3701 122.69 85.2301 122.69Z" fill="#212322"/>
<path d="M85.8701 128.8C85.8501 128.8 85.8201 128.8 85.8001 128.79L75.8801 126.27C75.7201 126.23 75.6201 126.07 75.6601 125.91C75.7001 125.75 75.8601 125.65 76.0201 125.7L85.9401 128.22C86.1001 128.26 86.2001 128.42 86.1601 128.58C86.1301 128.71 86.0101 128.8 85.8701 128.8Z" fill="#212322"/>
<path d="M86.5401 134.98C86.5201 134.98 86.4901 134.98 86.4701 134.97L76.5501 132.45C76.3901 132.41 76.2901 132.25 76.3301 132.09C76.3701 131.93 76.5301 131.83 76.6901 131.88L86.6101 134.4C86.7701 134.44 86.8701 134.6 86.8301 134.76C86.8001 134.89 86.6701 134.98 86.5401 134.98Z" fill="#212322"/>
<path d="M87.1701 140.89C87.1501 140.89 87.1201 140.89 87.1001 140.88L77.1801 138.36C77.0201 138.32 76.9201 138.16 76.9601 138C77.0001 137.84 77.1601 137.74 77.3201 137.79L87.2401 140.31C87.4001 140.35 87.5001 140.51 87.4601 140.67C87.4201 140.8 87.3001 140.89 87.1701 140.89Z" fill="#212322"/>
<path d="M84.5201 116.44C84.5001 116.44 84.4701 116.44 84.4501 116.43L74.5301 113.91C74.3701 113.87 74.2701 113.71 74.3101 113.55C74.3501 113.39 74.5101 113.29 74.6701 113.34L84.5901 115.86C84.7501 115.9 84.8501 116.06 84.8101 116.22C84.7701 116.35 84.6501 116.44 84.5201 116.44Z" fill="#212322"/>
<path d="M58.91 145.23L76.68 150.87L73.07 162.33L55.3 156.69L58.91 145.23Z" fill="#F3F9FE"/>
<path d="M87.89 151.53L85.56 152.74C83.98 153.56 82.14 153.72 80.44 153.18L72.13 150.54L70.92 154.37L80.7 157.48C82.34 158 84.11 157.85 85.64 157.05L89.66 154.95C91.83 153.84 90.06 150.4 87.89 151.53Z" fill="#F3F9FE"/>
<path d="M87.8501 155.89L85.4501 157.14C84.1901 157.8 82.7201 157.92 81.3701 157.49L69.5301 153.73L68.5901 156.71L69.1001 157.03C70.7301 158.07 72.4901 158.89 74.3301 159.47L80.8301 161.53C82.6301 162.1 84.5901 161.93 86.2601 161.06L89.6101 159.31C91.7801 158.2 90.0101 154.76 87.8501 155.89Z" fill="#F3F9FE"/>
<path d="M85.8801 160.87C85.5701 160.97 83.7301 162.39 81.1401 161.57L64.5301 156.29L63.5801 159.31L65.2101 159.83C69.5401 161.2 70.5401 162.41 73.8801 163.48L80.6001 165.62C82.4001 166.19 84.3601 166.02 86.0301 165.15L87.6501 164.31C89.8701 163.15 88.0801 159.73 85.8801 160.87Z" fill="#F3F9FE"/>
<path d="M82.68 152.45C84.14 152.25 84.76 151.19 84.76 151.19C85.06 150.24 84.62 149.31 83.63 149.26C77.27 148.94 75.58 146.41 71.55 147.93L68.54 149.07L67.75 151.57L71.34 152.72C72.53 153.1 73.78 153.24 75.02 153.13C77.7 152.88 82.32 152.5 82.68 152.45Z" fill="#F3F9FE"/>
<path d="M55.4001 156.69L59.5001 157.99L60.1801 144.78L59.0101 145.22L55.4001 156.69Z" fill="#212322"/>
<path d="M82.6701 158.09C81.9801 158.09 81.2901 157.98 80.6201 157.77L77.9901 156.93C77.8301 156.88 77.7501 156.71 77.8001 156.56C77.8501 156.4 78.0201 156.32 78.1701 156.37L80.8001 157.21C82.3701 157.71 84.0501 157.57 85.5101 156.8L89.5301 154.7C90.1801 154.36 90.3401 153.84 90.3501 153.46C90.3801 152.83 90.0301 152.16 89.5001 151.83C89.1801 151.63 88.6701 151.46 88.0301 151.8L85.7001 153.01C84.0401 153.88 82.1401 154.04 80.3601 153.47L79.0801 153.06C78.9201 153.01 78.8401 152.84 78.8901 152.69C78.9401 152.53 79.1101 152.45 79.2601 152.5L80.5401 152.91C82.1701 153.43 83.9101 153.28 85.4301 152.49L87.7601 151.28C88.4601 150.91 89.1901 150.94 89.8301 151.34C90.5401 151.79 90.9901 152.66 90.9501 153.5C90.9201 154.26 90.5101 154.87 89.8101 155.24L85.7901 157.34C84.8101 157.84 83.7501 158.09 82.6701 158.09Z" fill="#212322"/>
<path d="M83.0001 162.18C82.2501 162.18 81.4901 162.06 80.7501 161.83L77.0301 160.65C76.8701 160.6 76.7901 160.43 76.8401 160.28C76.8901 160.12 77.0601 160.04 77.2101 160.09L80.9301 161.27C82.6701 161.82 84.5201 161.66 86.1401 160.82L89.4901 159.07C90.4001 158.6 90.4201 157.7 90.1701 157.07C89.8901 156.38 89.1901 155.77 88.3001 156.04C88.1401 156.09 87.9801 156 87.9301 155.84C87.8801 155.68 87.9701 155.52 88.1301 155.47C89.3201 155.11 90.3301 155.89 90.7201 156.85C91.1001 157.77 90.9501 158.98 89.7701 159.6L86.4201 161.35C85.3401 161.89 84.1801 162.18 83.0001 162.18Z" fill="#212322"/>
<path d="M82.9001 166.23C81.3301 166.23 79.8101 165.72 78.3401 165.22C77.9901 165.1 77.6501 164.99 77.3001 164.88C76.8901 164.75 76.4801 164.62 76.0701 164.5C74.3301 163.96 72.5301 163.41 70.8701 162.59C67.2201 160.79 60.2701 158.59 55.6601 157.14L54.2601 156.7C54.1001 156.65 54.0201 156.48 54.0701 156.33C54.1201 156.17 54.2901 156.09 54.4401 156.14L55.8401 156.58C60.4601 158.04 67.4501 160.24 71.1401 162.06C72.7601 162.86 74.5401 163.41 76.2601 163.94C76.6701 164.07 77.0901 164.2 77.5001 164.33C77.8501 164.44 78.2001 164.56 78.5501 164.68C80.3301 165.28 82.1801 165.91 84.0301 165.56C85.1201 165.36 86.4601 164.79 87.5101 164.08C88.1201 163.67 88.4401 162.91 88.2901 162.19C88.1601 161.56 87.7001 161.12 87.0201 161C86.8601 160.97 86.7501 160.82 86.7801 160.65C86.8101 160.49 86.9601 160.38 87.1301 160.41C88.0401 160.58 88.6901 161.19 88.8701 162.06C89.0701 163.01 88.6601 164.01 87.8401 164.56C86.7201 165.31 85.3001 165.92 84.1301 166.13C83.7101 166.2 83.3001 166.23 82.9001 166.23Z" fill="#212322"/>
<path d="M79.8802 153.08C78.1502 153.08 76.4202 152.74 74.7102 152.42C74.1302 152.31 73.5202 152.19 72.9402 152.09C72.7802 152.06 72.6702 151.91 72.7002 151.75C72.7302 151.59 72.8802 151.48 73.0402 151.51C73.6302 151.61 74.2402 151.73 74.8202 151.84C77.9502 152.44 81.1802 153.07 84.1702 151.52C84.5702 151.19 84.7002 150.73 84.5302 150.29C84.3802 149.9 83.9702 149.53 83.3802 149.56C81.4302 149.68 79.5802 149.15 77.7902 148.64C76.3702 148.24 74.9102 147.82 73.4002 147.73C72.8202 147.74 72.2302 147.97 71.6202 148.2C70.9802 148.45 70.3202 148.7 69.6102 148.71H69.5902H69.5702C68.0902 148.5 65.6002 147.67 63.2002 146.87C61.4902 146.3 59.8802 145.76 58.8502 145.53C58.6902 145.49 58.5902 145.33 58.6302 145.17C58.6702 145.01 58.8302 144.91 58.9902 144.95C60.0502 145.19 61.6802 145.74 63.4002 146.31C65.6602 147.06 68.2102 147.91 69.6502 148.12C70.2502 148.11 70.8202 147.88 71.4302 147.65C72.0702 147.4 72.7302 147.15 73.4402 147.14C75.0302 147.24 76.5302 147.66 77.9802 148.08C79.8002 148.6 81.5202 149.09 83.3702 148.98C84.1302 148.94 84.8302 149.38 85.1102 150.09C85.3802 150.78 85.1602 151.52 84.5402 152.02L84.4902 152.05C82.9702 152.81 81.4302 153.08 79.8802 153.08Z" fill="#212322"/>
<path d="M17.8601 141.24C16.3801 146.07 19.0701 151.18 23.8801 152.67L54.8101 162.25L60.1801 144.77L29.2601 135.19C24.4501 133.71 19.3501 136.41 17.8601 141.24Z" fill="white"/>
<path d="M54.8101 162.56C54.7801 162.56 54.7501 162.56 54.7201 162.55L21.3701 152.06C21.2101 152.01 21.1301 151.84 21.1801 151.69C21.2301 151.53 21.4001 151.45 21.5501 151.5L54.6201 161.9L59.8101 144.99L29.1601 135.49C29.0001 135.44 28.9201 135.27 28.9601 135.12C29.0101 134.96 29.1701 134.88 29.3301 134.92L60.2601 144.5C60.4201 144.55 60.5001 144.71 60.4601 144.87L55.0901 162.35C55.0701 162.43 55.0101 162.49 54.9401 162.53C54.9101 162.54 54.8601 162.56 54.8101 162.56Z" fill="#212322"/>
<path d="M125.07 113.16L126.54 124.86L130.07 120.5L125.07 113.16Z" fill="#212322"/>
<path d="M138.62 97.29L129.81 92.86C128.97 92.44 128.03 92.29 127.11 92.42C125.37 92.67 123.86 93.76 123.07 95.34L122.64 96.2L126.51 95.67C127.07 95.59 127.65 95.69 128.16 95.94L139.67 101.73L139.92 101.23C140.65 99.77 140.06 98.01 138.62 97.29Z" fill="#F3F9FE"/>
<path d="M136.66 100.2L128.53 96.05C127.84 95.7 127.06 95.57 126.3 95.68L118.93 96.72C118.06 96.84 117.45 97.65 117.57 98.53L117.61 98.82C117.73 99.7 118.54 100.31 119.41 100.18L126.14 99.23C126.85 99.13 127.57 99.25 128.2 99.58L135.19 103.14L136.66 100.2Z" fill="#F3F9FE"/>
<path d="M126.13 99.22L121.36 99.89C120.46 100.02 119.83 100.86 119.95 101.76L119.97 101.94C120.1 102.85 120.93 103.48 121.83 103.35L125.91 102.77C126.58 102.68 127.27 102.79 127.87 103.1L133.7 106.08L135.17 103.14L128.16 99.56C127.55 99.24 126.83 99.12 126.13 99.22Z" fill="#F3F9FE"/>
<path d="M127.14 109.9L134.53 113.62L136.66 100.2L124.22 93.94L124.34 105.41C124.36 107.31 125.44 109.05 127.14 109.9Z" fill="#DFE3E8"/>
<path d="M139.66 101.72L128.33 96.02L126.04 107.57L124.37 106.73L125.59 117.27L127.98 123.17L133.93 115.79C135.54 113.77 136.94 111.59 138.09 109.28L140.54 104.36C141.02 103.39 140.63 102.2 139.66 101.72Z" fill="#F3F9FE"/>
<path d="M125.92 102.77L123.46 103.12C122.56 103.25 121.94 104.08 122.07 104.98L122.1 105.18C122.23 106.08 123.06 106.71 123.95 106.58L125.72 106.33C126.39 106.24 127.08 106.35 127.68 106.66L132.26 109.01L133.73 106.07L127.98 103.12C127.35 102.79 126.63 102.67 125.92 102.77Z" fill="#F3F9FE"/>
<path d="M126.54 125.16C126.47 125.16 126.41 125.14 126.35 125.09C126.22 124.99 126.2 124.8 126.31 124.67L133.7 115.6C135.29 113.6 136.68 111.43 137.82 109.14L140.27 104.22C140.68 103.39 140.34 102.38 139.51 101.96L139.25 101.83L139.63 101.06C140.28 99.76 139.75 98.18 138.46 97.53L129.68 93.11C128.9 92.72 128.02 92.57 127.15 92.69C125.5 92.92 124.08 93.95 123.33 95.44L122.9 96.3C122.83 96.45 122.65 96.51 122.5 96.43C122.35 96.36 122.29 96.18 122.37 96.03L122.8 95.17C123.63 93.5 125.23 92.35 127.07 92.09C128.06 91.95 129.06 92.11 129.95 92.56L138.73 96.98C140.31 97.78 140.96 99.72 140.16 101.31L140.03 101.57C140.96 102.2 141.31 103.44 140.8 104.47L138.35 109.39C137.19 111.72 135.78 113.92 134.16 115.95L126.77 125.03C126.71 125.12 126.63 125.16 126.54 125.16Z" fill="#212322"/>
<path d="M134.13 102.9C134.08 102.9 134.04 102.89 134 102.87L128.06 99.84C127.48 99.54 126.82 99.43 126.17 99.52L119.44 100.47C118.94 100.54 118.44 100.41 118.04 100.11C117.63 99.8 117.37 99.36 117.3 98.85L117.26 98.56C117.11 97.52 117.84 96.56 118.87 96.41L126.24 95.37C127.07 95.25 127.9 95.39 128.65 95.77L135.72 99.38C135.87 99.45 135.92 99.63 135.85 99.78C135.78 99.93 135.6 99.98 135.45 99.91L128.38 96.3C127.74 95.97 127.03 95.86 126.33 95.96L118.96 97C118.25 97.1 117.75 97.76 117.85 98.47L117.89 98.76C117.94 99.11 118.12 99.41 118.4 99.62C118.68 99.83 119.02 99.92 119.36 99.87L126.09 98.92C126.86 98.81 127.64 98.94 128.33 99.3L134.27 102.32C134.42 102.39 134.47 102.57 134.4 102.72C134.35 102.84 134.24 102.9 134.13 102.9Z" fill="#212322"/>
<path d="M131.21 108.77C131.16 108.77 131.12 108.76 131.07 108.74L127.55 106.93C127 106.65 126.38 106.54 125.77 106.63L124 106.88C123.49 106.95 122.98 106.82 122.57 106.51C122.15 106.2 121.89 105.74 121.81 105.23L121.78 105.03C121.63 103.97 122.37 102.99 123.43 102.84C123.59 102.82 123.74 102.93 123.77 103.09C123.79 103.25 123.68 103.4 123.52 103.43C122.79 103.53 122.28 104.22 122.38 104.95L122.41 105.15C122.46 105.51 122.65 105.82 122.93 106.04C123.22 106.26 123.57 106.35 123.92 106.3L125.69 106.05C126.43 105.95 127.17 106.07 127.83 106.41L131.35 108.22C131.5 108.3 131.55 108.47 131.48 108.62C131.42 108.71 131.31 108.77 131.21 108.77Z" fill="#212322"/>
<path d="M132.66 105.85C132.61 105.85 132.57 105.84 132.52 105.82L127.74 103.38C127.19 103.1 126.57 102.99 125.96 103.08L121.88 103.66C121.37 103.73 120.85 103.6 120.44 103.29C120.02 102.98 119.75 102.52 119.68 102L119.66 101.82C119.51 100.75 120.25 99.76 121.32 99.61C121.48 99.59 121.63 99.7 121.66 99.86C121.68 100.02 121.57 100.17 121.41 100.2C120.67 100.3 120.15 100.99 120.26 101.74L120.28 101.92C120.33 102.28 120.52 102.6 120.81 102.82C121.1 103.04 121.45 103.13 121.81 103.08L125.89 102.5C126.63 102.4 127.36 102.52 128.03 102.86L132.81 105.3C132.96 105.37 133.01 105.55 132.94 105.7C132.87 105.79 132.77 105.85 132.66 105.85Z" fill="#212322"/>
<path d="M127.98 111.83C127.94 111.83 127.89 111.82 127.85 111.8C126.13 110.93 124.88 109.36 124.41 107.49L124.19 106.59C124.15 106.43 124.25 106.27 124.41 106.23C124.57 106.19 124.73 106.29 124.77 106.45L124.99 107.35C125.41 109.06 126.55 110.49 128.12 111.27C128.27 111.34 128.33 111.52 128.25 111.67C128.19 111.77 128.09 111.83 127.98 111.83Z" fill="#212322"/>
<path d="M94.9201 160.51C94.7701 160.51 94.6401 160.4 94.6201 160.24L89.2201 109.12C89.2001 108.96 89.3201 108.81 89.4801 108.79C89.6401 108.77 89.7901 108.89 89.8101 109.05L95.2101 160.17C95.2301 160.33 95.1101 160.48 94.9501 160.5C94.9401 160.51 94.9301 160.51 94.9201 160.51Z" fill="#212322"/>
<path d="M206.12 248.01C217.381 248.01 226.51 238.832 226.51 227.51C226.51 216.188 217.381 207.01 206.12 207.01C194.859 207.01 185.73 216.188 185.73 227.51C185.73 238.832 194.859 248.01 206.12 248.01Z" fill="white"/>
<path d="M206.16 248.31C205.4 248.31 204.63 248.27 203.86 248.18C198.36 247.57 193.43 244.85 189.97 240.51C182.84 231.56 184.28 218.45 193.18 211.28C197.49 207.81 202.89 206.23 208.38 206.84C213.88 207.45 218.81 210.17 222.27 214.51C229.4 223.46 227.96 236.57 219.06 243.74C215.35 246.72 210.84 248.31 206.16 248.31ZM206.08 207.31C201.53 207.31 197.16 208.85 193.56 211.75C184.91 218.71 183.51 231.45 190.44 240.14C193.8 244.35 198.59 247 203.93 247.59C209.26 248.18 214.5 246.65 218.69 243.28C227.34 236.32 228.74 223.58 221.81 214.89C218.45 210.68 213.66 208.03 208.32 207.44C207.57 207.35 206.82 207.31 206.08 207.31Z" fill="#212322"/>
<path d="M205.59 216.08C206.11 215.41 206.86 214.99 207.71 214.92C208.35 214.87 208.95 215.02 209.5 215.38C209.78 215.56 210.03 215.79 210.27 216.06C210.45 215.75 210.66 215.49 210.91 215.26C211.39 214.82 211.95 214.56 212.59 214.51C213.44 214.44 214.26 214.71 214.89 215.29C215.51 215.86 215.9 216.68 215.98 217.59C216.06 218.53 215.79 219.42 215.13 220.4C214.53 221.27 213.65 222.18 212.62 223.23C212.27 223.59 211.87 224 211.46 224.43C211.35 224.54 211.2 224.61 211.05 224.63C210.89 224.64 210.74 224.6 210.61 224.5C210.13 224.14 209.66 223.81 209.25 223.52C208.05 222.66 207.02 221.92 206.28 221.16C205.45 220.31 205.03 219.48 204.94 218.54C204.84 217.62 205.08 216.75 205.59 216.08Z" fill="#D8D3A0"/>
<path d="M198.39 219.02C197.55 218.9 196.73 219.13 196.06 219.67C195.56 220.08 195.24 220.61 195.09 221.25C195.02 221.57 194.99 221.92 195.01 222.27C194.67 222.18 194.33 222.13 194 222.14C193.35 222.16 192.77 222.37 192.27 222.78C191.61 223.32 191.22 224.09 191.16 224.95C191.11 225.79 191.4 226.65 191.98 227.36C192.57 228.09 193.39 228.55 194.54 228.78C195.57 228.99 196.84 229.02 198.3 229.05C198.8 229.06 199.37 229.08 199.96 229.1C200.12 229.11 200.27 229.05 200.39 228.95C200.51 228.85 200.59 228.71 200.62 228.55C200.72 227.96 200.82 227.39 200.91 226.9C201.17 225.44 201.4 224.19 201.41 223.12C201.42 221.93 201.15 221.04 200.55 220.3C199.99 219.6 199.22 219.14 198.39 219.02Z" fill="#D8D3A0"/>
<path d="M196.99 233.69C199.64 240.46 208.08 242.74 213.75 238.18C217.59 235.09 218.76 229.9 216.95 225.56L196.99 233.69Z" fill="white"/>
<path d="M207.06 240.86C206.11 240.86 205.14 240.74 204.19 240.48C200.74 239.56 198.02 237.13 196.72 233.8C196.66 233.65 196.73 233.48 196.88 233.42L216.83 225.29C216.98 225.23 217.15 225.3 217.22 225.45C219.12 230 217.77 235.33 213.94 238.42C211.94 240.02 209.54 240.86 207.06 240.86ZM197.38 233.85C198.65 236.86 201.18 239.06 204.34 239.9C207.58 240.76 210.95 240.05 213.56 237.94C217.11 235.08 218.41 230.18 216.78 225.94L197.38 233.85Z" fill="#212322"/>
<path d="M230.37 158.73C227.89 158.73 225.4 158.27 223.01 157.33C222.86 157.27 222.78 157.1 222.84 156.94C222.9 156.79 223.07 156.71 223.23 156.77C228.68 158.91 234.74 158.5 239.86 155.65C245.03 152.76 248.59 147.74 249.61 141.87C249.64 141.71 249.79 141.6 249.95 141.63C250.11 141.66 250.22 141.81 250.19 141.97C249.13 148.01 245.47 153.19 240.14 156.17C237.11 157.87 233.75 158.73 230.37 158.73Z" fill="#212322"/>
<path d="M230.36 147.55C229.26 147.55 228.16 147.35 227.1 146.94C226.95 146.88 226.87 146.71 226.93 146.56C226.99 146.41 227.16 146.33 227.31 146.39C229.65 147.3 232.25 147.12 234.44 145.89C236.67 144.64 238.21 142.47 238.65 139.93C238.68 139.77 238.83 139.66 238.99 139.69C239.15 139.72 239.26 139.87 239.23 140.03C238.76 142.74 237.12 145.07 234.73 146.4C233.38 147.16 231.88 147.55 230.36 147.55Z" fill="#212322"/>
<path d="M230.37 153.09C228.6 153.09 226.82 152.76 225.12 152.1C224.97 152.04 224.89 151.87 224.95 151.71C225.01 151.56 225.18 151.48 225.34 151.54C229.21 153.04 233.51 152.74 237.14 150.72C240.84 148.65 243.37 145.06 244.1 140.87C244.13 140.71 244.28 140.6 244.44 140.63C244.6 140.66 244.71 140.81 244.68 140.97C243.92 145.34 241.28 149.08 237.43 151.24C235.23 152.47 232.81 153.09 230.37 153.09Z" fill="#212322"/>
<path d="M230.52 141.86C230.03 141.86 229.54 141.76 229.09 141.55C228.94 141.48 228.87 141.31 228.94 141.16C229.01 141.01 229.18 140.94 229.33 141.01C230.17 141.39 231.12 141.35 231.92 140.9C232.72 140.45 233.25 139.67 233.38 138.75C233.4 138.59 233.55 138.47 233.72 138.5C233.88 138.52 234 138.67 233.97 138.84C233.82 139.94 233.18 140.88 232.21 141.42C231.69 141.71 231.11 141.86 230.52 141.86Z" fill="#212322"/>
<path d="M226.35 192.45L223.41 187.98C223.11 187.52 223.47 186.92 224.01 186.97L228.67 187.38C229.1 187.42 229.45 187.02 229.36 186.6L227.23 176.44C227.09 175.78 227.93 175.37 228.36 175.89L234.76 183.59C235.02 183.9 235.5 183.9 235.76 183.59L239.51 179.04C239.87 178.6 240.57 178.8 240.65 179.37L241.33 184.29C241.39 184.73 241.87 184.98 242.27 184.78L243.51 184.15C244 183.9 244.56 184.34 244.44 184.88L242.71 192.32C242.65 192.56 242.74 192.81 242.93 192.97L247.12 196.45C247.55 196.81 247.36 197.5 246.81 197.6L240.03 198.74C239.77 198.78 239.56 198.99 239.5 199.25L238.67 203.28C238.57 203.76 238 203.96 237.63 203.65L234.38 201C234.14 200.8 233.79 200.81 233.55 201.01L229.77 204.22C229.37 204.56 228.75 204.31 228.7 203.78L228.37 199.98C228.34 199.64 228.05 199.38 227.71 199.39L222.54 199.51C221.98 199.52 221.67 198.87 222.02 198.44L226.31 193.24C226.49 193.01 226.5 192.69 226.35 192.45Z" fill="#D8D3A0"/>
<path d="M165.22 104.75C165.13 104.67 165.01 104.62 164.86 104.58C164.73 104.55 164.66 104.53 164.48 104.53H161.61C161.61 104.53 161.8 105.38 162.26 106.14C162.44 106.14 164.73 106.13 164.86 106.1C164.99 106.07 165.12 106.02 165.22 105.93C165.39 105.78 165.47 105.71 165.47 105.34C165.47 105.23 165.46 105.13 165.43 105.03C165.39 104.94 165.32 104.85 165.22 104.75Z" fill="#F3F9FE"/>
<path d="M169.42 96.2V99.23H173.3C172.41 97.79 171.03 96.71 169.42 96.2Z" fill="#F3F9FE"/>
<path d="M167.61 93.18C162.35 93.18 158.09 97.44 158.09 102.7C158.09 107.96 162.35 112.22 167.61 112.22C172.87 112.22 177.13 107.96 177.13 102.7C177.13 97.45 172.87 93.18 167.61 93.18ZM160.25 99.28L161.49 99.27V100.2C161.49 100.46 161.7 100.67 161.96 100.67H164.84H165.08C165.34 100.67 165.55 100.46 165.55 100.2V95.54C165.55 95.15 165.87 94.84 166.25 94.84H166.79V100.2C166.79 101.15 166.02 101.91 165.08 101.91H162.2H161.96C161.01 101.91 160.25 101.14 160.25 100.2V99.28ZM166.85 110.51H166.36C166.16 110.51 165.98 110.44 165.85 110.32C165.72 110.2 165.64 110.04 165.64 109.87V108.13C165.64 107.97 165.62 107.83 165.58 107.71C165.54 107.58 165.47 107.47 165.38 107.39C165.29 107.31 165.17 107.26 165.02 107.22C164.89 107.19 164.73 107.17 164.55 107.17H162.9C162.9 107.17 163.72 108.13 164.23 108.45L164.26 109.68C161.18 107.97 160.5 105.35 160.3 104.23L160.19 103.5H164.27C164.83 103.5 165.12 103.53 165.49 103.6C165.85 103.66 166.12 103.75 166.3 103.87C166.47 103.98 166.6 104.13 166.69 104.33C166.78 104.54 166.83 104.8 166.83 105.1C166.83 105.27 166.81 105.65 166.76 105.81C166.71 105.96 166.64 106.1 166.52 106.22C166.42 106.32 166.3 106.41 166.15 106.47C165.98 106.54 165.79 106.59 165.6 106.61C165.83 106.64 166.03 106.69 166.19 106.76C166.34 106.82 166.47 106.9 166.56 106.99C166.65 107.08 166.72 107.18 166.77 107.3C166.82 107.42 166.84 107.57 166.84 107.75L166.85 110.51ZM168.92 94.95C170.58 95.28 172.08 96.12 173.25 97.38C174.42 98.65 175.15 100.22 175.36 101.92L175.37 101.97H174.27L174.26 101.93C174.21 101.59 174.14 101.25 174.04 100.92L173.81 100.3H169.41V101.96H169.15C168.68 101.96 168.3 101.57 168.3 101.1V94.85L168.92 94.95ZM174.52 104.55H169.93C169.64 104.55 169.4 104.79 169.4 105.08V105.53C169.4 105.82 169.64 106.05 169.92 106.05H172.58C173.1 106.05 173.53 106.46 173.55 106.98C173.56 107.19 173.49 107.4 173.38 107.58C173.38 107.58 171.83 109.96 168.3 110.57V109.54C169.03 109.34 170.31 108.82 171.35 108.02C171.54 107.85 171.99 107.52 172.3 107.16H169.93C169.03 107.16 168.3 106.35 168.3 105.45V105.52V105.44V105.45V105.08C168.3 104.18 169.03 103.44 169.94 103.44H175.23L175.24 103.83C175.23 104.23 174.91 104.55 174.52 104.55Z" fill="#F3F9FE"/>
</g>
<defs>
<clipPath id="clip0_1657_7850">
<rect width="267.39" height="280.01" fill="white"/>
</clipPath>
</defs>
</svg>
