<svg width="18" height="28" viewBox="0 0 18 28" fill="none" xmlns="http://www.w3.org/2000/svg">
<g clip-path="url(#clip0_1460_4694)">
<path d="M14.9999 27.1H2.2999C1.2999 27.1 0.399902 26.3 0.399902 25.2V14.6H16.8999V25.3C16.8999 26.3 16.0999 27.1 14.9999 27.1Z" fill="#C4C4D7"/>
<path d="M15.6998 14.6V25.3C15.6998 26.3 14.8998 27.2 13.7998 27.2H14.9998C15.9998 27.2 16.8998 26.4 16.8998 25.3V14.6H15.6998Z" fill="#C4C4D7"/>
<path d="M13.2998 12.3V6.60001H4.8998V12.2H2.2998V14.5H15.7998V12.2L13.2998 12.3Z" fill="#F3F9FE"/>
<path d="M13.2998 12.3V6.60001H11.9998V12.2H2.2998V14.5H15.7998V12.2L13.2998 12.3Z" fill="#F3F9FE"/>
<path d="M14.8997 10.4C15.8386 10.4 16.5997 9.63888 16.5997 8.7C16.5997 7.76112 15.8386 7 14.8997 7C13.9608 7 13.1997 7.76112 13.1997 8.7C13.1997 9.63888 13.9608 10.4 14.8997 10.4Z" fill="#F3F9FE"/>
<path d="M14.8998 7C14.6998 7 14.4998 7 14.2998 7.1C14.8998 7.3 15.2998 7.9 15.2998 8.6C15.2998 9.3 14.8998 9.9 14.2998 10.1C14.4998 10.2 14.6998 10.2 14.8998 10.2C15.7998 10.2 16.5998 9.5 16.5998 8.5C16.5998 7.7 15.7998 7 14.8998 7Z" fill="#F3F9FE"/>
<path d="M12.0001 3.8C12.0001 5.2 11.2001 6.6 9.3001 6.6C7.4001 6.6 6.6001 5.2 6.6001 3.8C6.6001 2 9.3001 0.5 9.3001 0.5C9.3001 0.5 12.0001 2 12.0001 3.8Z" fill="#E7905F"/>
<path d="M9.3998 0.5C9.3998 0.5 9.0998 0.6 8.7998 0.9C9.5998 1.5 10.8998 2.5 10.8998 3.8C10.8998 5 10.2998 6.3 8.7998 6.6C8.9998 6.6 9.1998 6.7 9.3998 6.7C11.2998 6.7 12.0998 5.3 12.0998 3.9C11.9998 2 9.3998 0.5 9.3998 0.5Z" fill="#E7905F"/>
<path d="M0 15V25.3C0 26.6 1 27.6 2.3 27.6H15C16.3 27.6 17.3 26.6 17.3 25.3V14.1H16.2V11.8H13.6V10.4C13.9 10.6 14.3 10.8 14.8 10.8C16 10.8 16.9 9.8 16.9 8.7C16.9 7.5 15.9 6.6 14.8 6.6C14.4 6.6 14 6.7 13.6 7V6.2H11.5L11.6 6.1C12.1 5.5 12.3 4.7 12.3 3.9C12.5 2.9 12 2 11 1.1C10.3 0.5 9.6 0.1 9.6 0.1L9.4 0L9.1 0.1C9.1 0.1 8.4 0.5 7.7 1.1C6.7 2 6.2 2.9 6.2 3.8C6.2 4.7 6.5 5.5 6.9 6L7 6.1H4.5V11.7H1.9V14H0.9M0 15.1V14.1ZM14.9 7.5C15.6 7.5 16.1 8 16.1 8.7C16.1 9.4 15.6 9.9 14.9 9.9C14.3 9.9 13.8 9.5 13.7 8.9V8.5C13.8 7.9 14.3 7.5 14.9 7.5ZM9.4 1.1C10.2 1.6 11.6 2.7 11.6 3.8C11.6 4.8 11.1 5.9 9.9 6.1V4.3H8.9V6.2C7.6 5.9 7.1 4.8 7.1 3.8C7.1 2.7 8.6 1.6 9.4 1.1ZM16.5 25.3C16.5 26.1 15.9 26.7 15.1 26.7H2.3C1.5 26.7 0.9 26.1 0.9 25.3V15H12.6V14.1H2.8V12.7H11.7V11.8H5.4V7.1H12.8V12.7H15.4V14.1H13.6V15H16.5V25.3Z" fill="#212322"/>
<path d="M8.8999 8H9.7999V9H8.8999V8Z" fill="#212322"/>
<path d="M6.8999 9.39999H7.7999V10.3H6.8999V9.39999Z" fill="#212322"/>
<path d="M10.8999 9.39999H11.7999V10.3H10.8999V9.39999Z" fill="#212322"/>
</g>
<defs>
<clipPath id="clip0_1460_4694">
<rect width="17.4" height="27.6" fill="white"/>
</clipPath>
</defs>
</svg>
