<svg width="16" height="28" viewBox="0 0 16 28" fill="none" xmlns="http://www.w3.org/2000/svg">
<g clip-path="url(#clip0_1460_4553)">
<path d="M1.4999 4.10001L0.799902 5.20001C0.499902 5.60001 0.399902 6.00001 0.399902 6.40001V23.4C0.399902 23.8 0.499902 24.3 0.799902 24.6L1.4999 25.7H13.5999L14.2999 24.6C14.4999 24.2 14.6999 23.8 14.6999 23.4V6.40001C14.6999 6.00001 14.5999 5.50001 14.2999 5.20001L13.5999 4.10001H1.4999Z" fill="#C4C4D7"/>
<path d="M14.4002 5.20001L13.7002 4.10001H12.2002L12.9002 5.20001C13.1002 5.60001 13.3002 6.00001 13.3002 6.40001V23.4C13.3002 23.8 13.2002 24.3 12.9002 24.6L12.2002 25.7H13.7002L14.4002 24.6C14.6002 24.2 14.8002 23.8 14.8002 23.4V6.40001C14.8002 6.00001 14.6002 5.60001 14.4002 5.20001Z" fill="#C4C4D7"/>
<path d="M0.399902 2.29999H14.7999V4.09999H0.399902V2.29999Z" fill="#F3F9FE"/>
<path d="M13.2998 2.29999H14.6998V4.09999H13.2998V2.29999Z" fill="#F3F9FE"/>
<path d="M12.8999 2.29999H9.3999V1.89999C9.3999 1.39999 9.7999 0.899994 10.2999 0.799994L11.9999 0.399994C12.0999 0.399994 12.0999 0.399994 12.1999 0.399994C12.5999 0.399994 12.9999 0.799994 12.9999 1.19999L12.8999 2.29999Z" fill="#D8D3A0"/>
<path d="M0.399902 25.8H14.7999V27.6H0.399902V25.8Z" fill="#F3F9FE"/>
<path d="M13.2998 25.8H14.6998V27.6H13.2998V25.8Z" fill="#F3F9FE"/>
<path d="M14.8 9.29999C14.6 9.29999 14.4 9.49999 14.4 9.69999V23.5C14.4 23.9 14.3 24.2 14.1 24.5L13.5 25.4H1.7L1.1 24.5C0.9 24.2 0.8 23.9 0.8 23.5V19C0.8 18.8 0.6 18.6 0.4 18.6C0.2 18.6 0 18.8 0 19V23.4C0 23.9 0.2 24.4 0.4 24.9L0.7 25.4H0.4C0.2 25.4 0 25.6 0 25.8V27.6C0 27.8 0.2 28 0.4 28H11.6C11.8 28 12 27.8 12 27.6C12 27.4 11.8 27.2 11.6 27.2H0.8V26.3H14.3V27.2H13.5C13.3 27.2 13.1 27.4 13.1 27.6C13.1 27.8 13.3 28 13.5 28H14.8C15 28 15.2 27.8 15.2 27.6V25.8C15.2 25.6 15 25.4 14.8 25.4H14.5L14.8 24.9C15.1 24.5 15.2 24 15.2 23.4V9.69999C15.2 9.49999 15 9.29999 14.8 9.29999Z" fill="#212322"/>
<path d="M15.2 4.1V2.3C15.2 2.1 15 1.9 14.8 1.9H13.4V1.2C13.4 0.5 12.9 0 12.2 0C12.1 0 12 0 12 0L10.3 0.4C9.5 0.5 9 1.1 9 1.9V2H0.4C0.2 1.9 0 2.1 0 2.3V4.1C0 4.3 0.2 4.5 0.4 4.5H0.7L0.4 5C0.2 5.4 0 5.9 0 6.4V17.1C0 17.3 0.2 17.5 0.4 17.5C0.6 17.5 0.8 17.3 0.8 17.1V6.4C0.8 6 0.9 5.7 1.1 5.4L1.7 4.5H13.4L14 5.4C14.2 5.7 14.3 6 14.3 6.4V7.8C14.3 8 14.5 8.2 14.7 8.2C14.9 8.2 15.1 8 15.1 7.8V6.4C15.1 5.9 14.9 5.4 14.7 4.9L14.4 4.4H14.7C15 4.5 15.2 4.3 15.2 4.1ZM9.8 1.9C9.8 1.6 10 1.3 10.4 1.2L12.1 0.8H12.2C12.4 0.8 12.6 1 12.6 1.2V1.9H9.8ZM0.8 2.8H14.3V3.7H0.8V2.8Z" fill="#212322"/>
</g>
<defs>
<clipPath id="clip0_1460_4553">
<rect width="15.2" height="28" fill="white"/>
</clipPath>
</defs>
</svg>
