<svg width="25" height="19" viewBox="0 0 25 19" fill="none" xmlns="http://www.w3.org/2000/svg">
<g clip-path="url(#clip0_1460_4539)">
<path d="M5.38098 18.6183C2.69039 18.6183 0.448242 16.7099 0.448242 14.4199V-1.41984C0.448242 -3.70992 2.69039 -5.61832 5.38098 -5.61832C8.07156 -5.61832 10.3137 -3.70992 10.3137 -1.41984V14.4199C10.3137 16.7099 8.07156 18.6183 5.38098 18.6183Z" fill="#C4C4D7"/>
<path d="M10.3137 -1.41984V6.5H0.448242V-1.41984C0.448242 -3.70992 2.69039 -5.61832 5.38098 -5.61832C8.07156 -5.61832 10.3137 -3.70992 10.3137 -1.41984Z" fill="#F3F9FE"/>
<path d="M8.29586 17.7596C6.05371 16.4237 5.60528 13.7519 7.17478 11.9389L15.5829 2.1107C17.1524 0.202299 20.2914 -0.17938 22.4214 1.1565C24.6636 2.49238 25.112 5.16413 23.5425 6.97711L15.1344 16.9008C13.5649 18.7137 10.538 19.1908 8.29586 17.7596Z" fill="#F3F9FE"/>
<path d="M23.5422 7.07253L19.3942 11.9389L11.4346 6.97711L15.5826 2.1107C17.1521 0.202299 20.2911 -0.17938 22.4211 1.1565C24.5512 2.49238 25.2238 5.25955 23.5422 7.07253Z" fill="#D8D3A0"/>
<path d="M0.44843 3.35113C0.672646 3.35113 0.896861 3.16029 0.896861 2.96945V1.91984C0.896861 1.729 0.672646 1.63358 0.44843 1.63358C0.224215 1.63358 0 1.729 0 1.91984V2.96945C0 3.16029 0.224215 3.35113 0.44843 3.35113Z" fill="#212322"/>
<path d="M22.7578 0.965649C20.4036 -0.561069 17.0404 -0.0839695 15.2466 1.91985L14.3498 2.96946C14.2377 3.1603 14.2377 3.35114 14.4619 3.44656C14.6861 3.54198 14.9103 3.54198 15.0224 3.35114L15.9193 2.30153C17.3767 0.679389 20.1794 0.29771 22.1973 1.53817C24.2152 2.77863 24.6637 5.16412 23.2063 6.88168L19.2825 11.4618L11.9955 6.9771L13.6771 5.0687C13.7892 4.87786 13.7892 4.68702 13.565 4.5916C13.3408 4.49618 13.1166 4.49618 13.0045 4.68702L10.7623 7.26336V-1.41985C10.7623 -3.99618 8.29597 -6 5.38117 -6C2.35426 -6 0 -3.99618 0 -1.41985V0.679389C0 0.870229 0.224215 1.06107 0.448431 1.06107C0.672646 1.06107 0.896861 0.870229 0.896861 0.679389V-1.41985C0.896861 -3.51908 2.9148 -5.23664 5.38117 -5.23664C7.84753 -5.23664 9.86547 -3.51908 9.86547 -1.41985V6.11832H0.896861V4.40076C0.896861 4.20992 0.672646 4.01908 0.448431 4.01908C0.224215 4.01908 0 4.20992 0 4.40076V14.4198C0 16.9008 2.35426 19 5.38117 19C6.39014 19 7.3991 18.7137 8.29597 18.2366C9.19283 18.7137 10.2018 19 11.2108 19C11.5471 19 11.7713 19 12.1076 18.9046C13.565 18.7137 14.7982 18.0458 15.583 17.0916L16.9283 15.4695C17.0404 15.2786 17.0404 15.0878 16.8161 14.9924C16.5919 14.8969 16.3677 14.8969 16.2556 15.0878L14.9103 16.7099C13.4529 18.4275 10.6502 18.8092 8.63229 17.5687C6.61435 16.3282 6.16592 13.9427 7.62332 12.2252L11.5471 7.64504L18.8341 12.1298L17.6009 13.5611C17.4888 13.7519 17.4888 13.9427 17.713 14.0382C17.9372 14.1336 18.1614 14.1336 18.2735 13.9427L23.991 7.26336C25.6726 5.25954 25.1121 2.39695 22.7578 0.965649ZM6.83857 11.7481C5.26906 13.6565 5.49327 16.2328 7.51121 17.7595C6.83857 18.0458 6.05381 18.2366 5.26906 18.2366C2.80269 18.2366 0.784753 16.5191 0.784753 14.4198V6.88168H9.75336V8.31298L6.83857 11.7481Z" fill="#212322"/>
<path d="M20.2913 9.17175C20.4034 9.17175 20.5155 9.07633 20.6276 8.98091L21.4124 8.02671C21.5245 7.83587 21.5245 7.64504 21.3003 7.54962C21.0761 7.4542 20.8518 7.4542 20.7397 7.64504L19.955 8.59923C19.8429 8.79007 19.8429 8.98091 20.0671 9.07633C20.0671 9.17175 20.1792 9.17175 20.2913 9.17175Z" fill="#212322"/>
<path d="M10.314 4.97327H0.336426V6.49998H10.314V4.97327Z" fill="#F3F9FE"/>
<path d="M20.4728 10.8263L12.4688 5.75546L11.3977 6.9802L19.4017 12.051L20.4728 10.8263Z" fill="#D8D3A0"/>
</g>
<defs>
<clipPath id="clip0_1460_4539">
<rect width="25" height="25" fill="white" transform="translate(0 -6)"/>
</clipPath>
</defs>
</svg>
