<svg width="25" height="25" viewBox="0 0 25 25" fill="none" xmlns="http://www.w3.org/2000/svg">
<g clip-path="url(#clip0_1460_4488)">
<path d="M21.1187 10.0187H19.2922V9.45695C19.2922 9.08242 18.9498 8.70789 18.379 8.70789C17.9224 8.70789 17.4657 8.98878 17.4657 9.45695V10.0187H14.2694L12.3287 12.2659L10.8447 14.8877L14.2694 19.7566H21.1187L24.5434 14.8877L21.1187 10.0187Z" fill="#D8D3A0"/>
<path d="M21.1187 19.7566L21.8036 18.7266H15.1826L11.6438 13.7641L10.8447 14.8877L14.2694 19.7566H21.1187Z" fill="#D8D3A0"/>
<path d="M4.10972 14.8877L0.685059 19.7566L4.10972 24.5319H10.8449L14.2695 19.7566L10.8449 14.8877H4.10972Z" fill="#A1A76F"/>
<path d="M10.8449 24.5318L11.644 23.5955H4.9088L1.48415 18.633L0.685059 19.7566L4.10972 24.5318H10.8449Z" fill="#D8D3A0" stroke="#A1A76F" stroke-miterlimit="9.9934"/>
<path d="M21.1187 0.374542H14.2694L10.8447 5.24346L14.2694 10.1124H15.7534V11.7978C15.7534 12.1723 16.0959 12.5468 16.6666 12.5468C17.1233 12.5468 17.5799 12.2659 17.5799 11.7978V9.64421C17.5799 9.26967 17.9224 8.89514 18.4931 8.89514C18.9498 8.89514 19.4064 9.17604 19.4064 9.64421V13.6704C19.4064 14.045 19.7488 14.4195 20.3196 14.4195C20.7762 14.4195 21.2329 14.1386 21.2329 13.6704V10.206L24.6575 5.33709L21.1187 0.374542Z" fill="#A1A76F"/>
<path d="M16.6667 11.4233C16.21 11.4233 15.7534 11.1424 15.7534 10.6742V11.6105C15.7534 11.9851 16.0959 12.3596 16.6667 12.3596C17.1233 12.3596 17.5799 12.0787 17.5799 11.6105V10.6742C17.4657 11.1424 17.1233 11.4233 16.6667 11.4233Z" fill="#D8D3A0"/>
<path d="M15.7534 10.0187V9.08242H15.1826L11.6438 4.11987L10.8447 5.24347L14.2694 10.0187H15.7534Z" fill="#A1A76F"/>
<path d="M20.2052 13.2959C19.7486 13.2959 19.292 13.015 19.292 12.5468V13.4832C19.292 13.8577 19.6345 14.2322 20.2052 14.2322C20.6619 14.2322 21.1185 13.9513 21.1185 13.4832V12.5468C21.1185 12.9214 20.6619 13.2959 20.2052 13.2959Z" fill="#D8D3A0"/>
<path d="M10.8448 5.24347H3.99546L0.570801 10.1124L3.99546 14.9813H5.47948V17.4158C5.47948 17.7903 5.82194 18.1648 6.39272 18.1648C6.84934 18.1648 7.30596 17.8839 7.30596 17.4158V16.4794C7.30596 16.1049 7.64843 15.7304 8.2192 15.7304C8.78998 15.7304 9.13245 16.0113 9.13245 16.4794V19.1948C9.13245 19.5693 9.47491 19.9438 10.0457 19.9438C10.5023 19.9438 10.9589 19.6629 10.9589 19.1948V14.8877L14.3836 10.0187L10.8448 5.24347Z" fill="#D8D3A0"/>
<path d="M6.39273 17.1348C5.93611 17.1348 5.47949 16.8539 5.47949 16.3858V17.3221C5.47949 17.6966 5.82196 18.0712 6.39273 18.0712C6.84935 18.0712 7.30598 17.7903 7.30598 17.3221V16.3858C7.30598 16.8539 6.84935 17.1348 6.39273 17.1348Z" fill="#D8D3A0"/>
<path d="M5.47958 14.8876V13.9513H4.9088L1.48415 8.98877L0.685059 10.1124L4.10972 14.8876H5.47958Z" fill="#D8D3A0"/>
<path d="M9.93131 19.0075C9.47469 19.0075 9.01807 18.7266 9.01807 18.2584V19.1948C9.01807 19.5693 9.36053 19.9438 9.93131 19.9438C10.5021 19.9438 10.8446 19.6629 10.8446 19.1948V18.2584C10.8446 18.633 10.5021 19.0075 9.93131 19.0075Z" fill="#D8D3A0"/>
<path d="M15.7536 1.49814H14.8403V2.2472H15.7536V1.49814Z" fill="white"/>
<path d="M17.466 1.49814H16.5527V2.2472H17.466V1.49814Z" fill="white"/>
<path d="M5.47965 6.36707H4.56641V7.11613H5.47965V6.36707Z" fill="white"/>
<path d="M21.3472 20.1311H14.0413L10.5024 15.0749L11.3015 14.7004L14.612 19.382H20.8906L23.9728 14.8876L20.7764 10.206L21.4613 9.83145L25.0002 14.8876L21.3472 20.1311Z" fill="#212322"/>
<path d="M11.1875 24.9064H9.01855V24.2509H10.6167L13.8131 19.7566L10.5026 15.0749L11.3017 14.7004L14.8405 19.7566L11.1875 24.9064Z" fill="#212322"/>
<path d="M8.21939 24.2509H7.30615V25H8.21939V24.2509Z" fill="#212322"/>
<path d="M6.3928 24.9064H3.76723L0.114258 19.7566L3.65307 14.7004L4.45216 15.0749L1.14165 19.7566L4.338 24.2509H6.3928V24.9064Z" fill="#212322"/>
<path d="M20.2055 14.6067C19.5206 14.6067 18.8357 14.1386 18.8357 13.4831V9.45693C18.8357 9.26966 18.6074 9.0824 18.3791 9.0824C18.1507 9.0824 17.9224 9.26966 17.9224 9.45693V11.6105C17.9224 12.1723 17.3517 12.7341 16.5526 12.7341C15.8676 12.7341 15.1827 12.2659 15.1827 11.6105V10.2996H13.927L10.3882 5.24345L14.0412 0H18.8357V0.749064H14.4978L11.4156 5.24345L14.6119 9.73783H16.2101V11.7978C16.2101 11.985 16.4384 12.1723 16.6667 12.1723C16.895 12.1723 17.1233 11.985 17.1233 11.7978V9.6442C17.1233 9.0824 17.6941 8.5206 18.4932 8.5206C19.1781 8.5206 19.8631 8.98876 19.8631 9.6442V13.6704C19.8631 13.8577 20.0914 14.0449 20.3197 14.0449C20.548 14.0449 20.7763 13.8577 20.7763 13.6704V10.1124L24.201 5.33708L21.0046 0.842697H19.8631V0H21.4612L25.1142 5.24345L21.5754 10.206V13.5768C21.4612 14.1386 20.8905 14.6067 20.2055 14.6067Z" fill="#212322"/>
<path d="M9.93161 20.3183C9.24668 20.3183 8.56175 19.8502 8.56175 19.1947V16.4794C8.56175 16.2921 8.33344 16.1049 8.10513 16.1049C7.87682 16.1049 7.6485 16.2921 7.6485 16.4794V17.4157C7.6485 17.9775 7.07773 18.5393 6.27864 18.5393C5.59371 18.5393 4.90878 18.0711 4.90878 17.4157V15.2622H3.76723L0.114258 10.0187L3.76723 4.77527H11.0732L14.7261 10.0187L13.128 12.2659L12.3289 11.8914L13.6987 10.0187L10.6165 5.61797H4.338L1.14166 10.1123L4.338 14.6067H5.93618V17.4157C5.93618 17.603 6.16449 17.7902 6.3928 17.7902C6.62111 17.7902 6.84942 17.603 6.84942 17.4157V16.4794C6.84942 15.9176 7.42019 15.3558 8.21928 15.3558C9.01837 15.3558 9.58914 15.824 9.58914 16.4794V19.1947C9.58914 19.382 9.81745 19.5693 10.0458 19.5693C10.2741 19.5693 10.5024 19.382 10.5024 19.1947V14.794L11.9864 12.6404L12.7855 13.015L11.3015 14.9813V19.1947C11.3015 19.8502 10.7307 20.3183 9.93161 20.3183Z" fill="#212322"/>
<path d="M5.93619 12.4532H5.02295V14.8876H5.93619V12.4532Z" fill="#212322"/>
<path d="M16.2101 7.30338H15.2969V10.0187H16.2101V7.30338Z" fill="#212322"/>
</g>
<defs>
<clipPath id="clip0_1460_4488">
<rect width="25" height="25" fill="white"/>
</clipPath>
</defs>
</svg>
