<svg width="132" height="132" viewBox="0 0 132 132" fill="none" xmlns="http://www.w3.org/2000/svg">
<g clip-path="url(#clip0_1460_4782)">
<path opacity="0.25" d="M64.5 132C100.122 132 129 103.122 129 67.5C129 31.8776 100.122 3 64.5 3C28.8776 3 0 31.8776 0 67.5C0 103.122 28.8776 132 64.5 132Z" fill="#C4C4D7"/>
<path d="M94.3 28.1C94 27.8 93.7 27.5 93.4 27.2C93 26.9 92.6 26.6 92.2 26.3C90.6 25.3 88.5 24.3 85.8 23.2L80.2 21C79 21.6 77.7 22 76.3 22C75.9 22 75.6 22 75.2 21.9C74.9 21.9 74.6 21.8 74.3 21.7C74 21.6 73.7 21.5 73.4 21.4C73 21.3 72.6 21.1 72.3 20.9L66.7 23.3C60.4 26 56.5 28 56.5 33.5V46.1H63V33.6C63 33.1 63.4 32.7 63.9 32.7C64.4 32.7 64.8 33.1 64.8 33.6V46.1H87.8V33.6C87.8 33.1 88.2 32.7 88.7 32.7C89.2 32.7 89.6 33.1 89.6 33.6V46.1H96.1V33.5C96.1 31.2 95.5 29.5 94.3 28.1Z" fill="#C4C4D7"/>
<path d="M76.3 3.40002C75.9 3.40002 75.5 3.40002 75.1 3.50002C74.8 3.60002 74.5 3.60002 74.2 3.70002C74 3.80002 73.7 4.00002 73.4 4.10002C70.8 5.40002 69 8.40002 69 11.8C69 14.8 70.4 17.5 72.5 18.9C72.8 19.1 73.1 19.3 73.4 19.5C73.7 19.6 74 19.8 74.3 19.9C74.4 19.9 74.5 20 74.6 20C74.8 20.1 75 20.1 75.2 20.1C75.6 20.2 76 20.2 76.4 20.2C76.9 20.2 77.5 20.1 78 20C78.4 19.9 78.8 19.7 79.2 19.6C79.5 19.4 79.9 19.3 80.2 19C82.4 17.5 83.8 14.8 83.8 11.8C83.7 7.20002 80.4 3.40002 76.3 3.40002Z" fill="#D8D3A0"/>
<path d="M47.5001 54.9H8.3001H5.1001V61.4H6.2001H129.9H131.1V54.9H47.5001Z" fill="#212322"/>
<path d="M20.6999 106.5H8.8999L9.0999 112.9H127L127.3 106.5H115.5H20.6999Z" fill="#C4C4D7"/>
<path d="M19.8002 104.7V72.6C19.8002 72.1 20.2002 71.7 20.7002 71.7C21.2002 71.7 21.6002 72.1 21.6002 72.6V104.7H114.7V72.6C114.7 72.1 115.1 71.7 115.6 71.7C116.1 71.7 116.5 72.1 116.5 72.6V104.7H127.5L129.1 63.2H7.2002L8.8002 104.7H19.8002V104.7Z" fill="#F3F9FE"/>
<path d="M44.6003 40.5H33.0003H11.1003L9.30029 53.2H46.5003L44.6003 40.5Z" fill="#A1A76F"/>
<path d="M40.4002 30.5V24H25.7002V30.5H33.0002H40.4002Z" fill="#E7905F"/>
<path d="M130.3 51.5H46.6002L44.6002 37.8C44.5002 37.4 44.2002 37 43.7002 37H32.3002V30.5H39.7002C40.2002 30.5 40.6002 30.1 40.6002 29.6V21.4C40.6002 20.9 40.2002 20.5 39.7002 20.5H23.2002C22.7002 20.5 22.3002 20.9 22.3002 21.4V29.6C22.3002 30.1 22.7002 30.5 23.2002 30.5H30.6002V37H8.7002C8.3002 37 7.9002 37.3 7.8002 37.8L5.8002 51.5H2.6002C2.1002 51.5 1.7002 51.9 1.7002 52.4V60.6C1.7002 61.1 2.1002 61.5 2.6002 61.5H3.8002L5.4002 104L5.8002 112.2C5.8002 112.7 6.2002 113 6.7002 113H126.2C126.7 113 127.1 112.6 127.1 112.2L127.5 104L129.2 61.6H130.4C130.9 61.6 131.3 61.2 131.3 60.7V52.5C131.2 51.9 130.8 51.5 130.3 51.5ZM24.0002 22.4H38.7002V28.9H31.3002H24.0002V22.4ZM9.5002 38.9H31.4002H43.0002L44.8002 51.6H7.7002L9.5002 38.9ZM125.4 111.3H7.5002L7.2002 104.8H19.0002H113.8H125.6L125.4 111.3ZM125.7 103.1H114.7V71C114.7 70.5 114.3 70.1 113.8 70.1C113.3 70.1 112.9 70.5 112.9 71V103.1H19.9002V71C19.9002 70.5 19.5002 70.1 19.0002 70.1C18.5002 70.1 18.1002 70.5 18.1002 71V103.1H7.10019L5.5002 61.5H127.3L125.7 103.1ZM129.5 59.8H128.3H4.6002H3.4002V53.3H6.60019H45.8002H129.4V59.8H129.5Z" fill="#212322"/>
<path d="M54 45.4C54.5 45.4 54.9 45 54.9 44.5V31.9C54.9 26.4 58.7 24.3 65.1 21.7L70.7 19.3C71.1 19.5 71.4 19.7 71.8 19.8C72.1 19.9 72.4 20 72.7 20.1C73 20.2 73.3 20.2 73.6 20.3C74 20.3 74.3 20.4 74.7 20.4C76.1 20.4 77.4 20 78.6 19.4L84.1 21.7C86.8 22.8 88.9 23.7 90.5 24.8C90.9 25.1 91.3 25.4 91.7 25.7C92 26 92.4 26.3 92.6 26.6C93.8 28 94.4 29.7 94.4 32V44.6C94.4 45.1 94.8 45.5 95.3 45.5C95.8 45.5 96.2 45.1 96.2 44.6V31.9C96.2 29.7 95.7 27.9 94.8 26.5C94.6 26.2 94.4 25.9 94.2 25.6C93.9 25.3 93.7 25 93.4 24.7C91.4 22.8 88.5 21.5 84.8 20L80.3 18.1C82.4 16.2 83.8 13.3 83.8 10.1C83.8 4.6 79.7 0 74.7 0C74.3 0 73.9 0 73.5 0.1C73.2 0.1 72.9 0.2 72.6 0.3C72.3 0.4 72 0.5 71.7 0.6C68.1 2 65.5 5.8 65.5 10.2C65.5 13.4 66.8 16.3 68.9 18.1L64.4 20C57.6 22.9 53.2 25.2 53.2 31.9V44.5C53.1 45 53.5 45.4 54 45.4ZM67.3 10.2C67.3 6.8 69.1 3.8 71.7 2.5C72 2.4 72.3 2.2 72.6 2.1C72.9 2 73.2 1.9 73.5 1.9C73.9 1.8 74.3 1.8 74.7 1.8C78.8 1.8 82.1 5.6 82.1 10.2C82.1 13.3 80.7 15.9 78.5 17.4C78.2 17.6 77.9 17.8 77.5 18C77.1 18.2 76.7 18.3 76.3 18.4C75.8 18.5 75.3 18.6 74.7 18.6C74.3 18.6 73.9 18.6 73.5 18.5C73.3 18.5 73.1 18.4 72.9 18.4C72.8 18.4 72.7 18.3 72.6 18.3C72.3 18.2 72 18.1 71.7 17.9C71.4 17.7 71.1 17.5 70.8 17.3C68.7 15.8 67.3 13.2 67.3 10.2Z" fill="#212322"/>
<path d="M61.4004 31.9V44.4C61.4004 44.9 61.8004 45.3 62.3004 45.3C62.8004 45.3 63.2004 44.9 63.2004 44.4V31.9C63.2004 31.4 62.8004 31 62.3004 31C61.8004 31.1 61.4004 31.4 61.4004 31.9Z" fill="#212322"/>
<path d="M86.2002 31.9V44.4C86.2002 44.9 86.6002 45.3 87.1002 45.3C87.6002 45.3 88.0002 44.9 88.0002 44.4V31.9C88.0002 31.4 87.6002 31 87.1002 31C86.6002 31.1 86.2002 31.5 86.2002 31.9Z" fill="#212322"/>
<path d="M64.1003 85.7C63.9003 85.6 63.7003 85.5 63.5003 85.4C63.3003 85.3 63.2003 85.3 62.8003 85.3H57.8003C57.8003 85.3 58.1003 86.8 58.9003 88.1C59.2003 88.1 63.2003 88.1 63.4003 88C63.6003 87.9 63.9003 87.9 64.0003 87.7C64.3003 87.4 64.4003 87.3 64.4003 86.7C64.4003 86.5 64.4003 86.3 64.3003 86.2C64.4003 86.1 64.2003 85.9 64.1003 85.7Z" fill="#212322"/>
<path d="M71.3999 70.8V76.1H78.1999C76.5999 73.6 74.1999 71.7 71.3999 70.8Z" fill="#212322"/>
<path d="M68.2001 65.6C59.0001 65.6 51.6001 73 51.6001 82.2C51.6001 91.4 59.0001 98.8 68.2001 98.8C77.4001 98.8 84.8001 91.4 84.8001 82.2C84.8001 73 77.4001 65.6 68.2001 65.6ZM55.4001 76.2H57.6001V77.8C57.6001 78.3 58.0001 78.6 58.4001 78.6H63.4001H63.8001C64.3001 78.6 64.6001 78.2 64.6001 77.8V69.7C64.6001 69 65.1001 68.5 65.8001 68.5H66.7001V77.8C66.7001 79.4 65.4001 80.8 63.7001 80.8H58.7001H58.3001C56.7001 80.8 55.3001 79.5 55.3001 77.8V76.2H55.4001ZM66.9001 95.8H66.0001C65.7001 95.8 65.3001 95.7 65.1001 95.5C64.9001 95.3 64.7001 95 64.7001 94.7V91.7C64.7001 91.4 64.7001 91.2 64.6001 91C64.5001 90.8 64.4001 90.6 64.3001 90.4C64.1001 90.3 63.9001 90.2 63.7001 90.1C63.5001 90 63.2001 90 62.9001 90H60.0001C60.0001 90 61.4001 91.7 62.3001 92.2V94.3C56.9001 91.3 55.8001 86.8 55.4001 84.8L55.2001 83.5H62.3001C63.3001 83.5 63.8001 83.6 64.4001 83.7C65.0001 83.8 65.5001 84 65.8001 84.2C66.1001 84.4 66.3001 84.7 66.5001 85C66.7001 85.4 66.7001 85.8 66.7001 86.3C66.7001 86.6 66.7001 87.3 66.6001 87.5C66.5001 87.8 66.4001 88 66.2001 88.2C66.0001 88.4 65.8001 88.5 65.6001 88.6C65.3001 88.7 65.0001 88.8 64.6001 88.8C65.0001 88.9 65.3001 88.9 65.6001 89.1C65.9001 89.2 66.1001 89.3 66.2001 89.5C66.4001 89.7 66.5001 89.8 66.6001 90C66.7001 90.2 66.7001 90.5 66.7001 90.8L66.9001 95.8ZM70.5001 68.7C73.4001 69.3 76.0001 70.7 78.0001 72.9C80.0001 75.1 81.3001 77.8 81.7001 80.8V80.9H79.8001V80.8C79.7001 80.2 79.6001 79.6 79.4001 79L79.0001 78H71.3001V80.9H70.8001C70.0001 80.9 69.3001 80.2 69.3001 79.4V68.5L70.5001 68.7ZM80.3001 85.4H72.3001C71.8001 85.4 71.4001 85.8 71.4001 86.3V87.1C71.4001 87.6 71.8001 88 72.3001 88H76.9001C77.8001 88 78.5001 88.7 78.6001 89.6C78.6001 90 78.5001 90.3 78.3001 90.6C78.3001 90.6 75.6001 94.7 69.5001 95.8V94C70.8001 93.7 73.0001 92.7 74.8001 91.4C75.1001 91.1 75.9001 90.5 76.5001 89.9H72.4001C70.8001 89.9 69.6001 88.5 69.6001 86.9V87V86.9V86.3C69.6001 84.7 70.9001 83.5 72.4001 83.5H81.6001V84.2C81.5001 84.8 80.9001 85.4 80.3001 85.4Z" fill="#212322"/>
</g>
<defs>
<clipPath id="clip0_1460_4782">
<rect width="131.2" height="132" fill="white"/>
</clipPath>
</defs>
</svg>
