<svg width="25" height="25" viewBox="0 0 25 25" fill="none" xmlns="http://www.w3.org/2000/svg">
<g clip-path="url(#clip0_1460_4434)">
<path d="M24.6169 12.5C24.6169 13.1783 24.138 13.8566 24.0422 14.5349C23.9464 15.2132 24.138 15.9884 23.8507 16.6667C23.6591 17.345 22.9886 17.8295 22.6054 18.4109C22.2223 18.9923 22.1265 19.8644 21.7434 20.3489C21.2644 20.9302 20.4982 21.124 20.0192 21.6085C19.4445 22.093 19.1572 22.7713 18.5825 23.1589C18.0077 23.5465 17.1457 23.4496 16.571 23.7403C15.9005 23.9341 15.3257 24.5155 14.6552 24.7093C13.9848 24.8062 13.2185 24.5155 12.548 24.5155C11.8775 24.5155 11.1112 24.8062 10.4407 24.7093C9.77019 24.6124 9.19548 24.031 8.52498 23.7403C7.85448 23.5465 7.0882 23.5465 6.51349 23.1589C5.93877 22.7713 5.55563 22.093 5.07671 21.6085C4.50199 21.124 3.73571 20.9302 3.35257 20.3489C2.87364 19.7675 2.77785 18.9923 2.4905 18.4109C2.10736 17.8295 1.53264 17.345 1.24529 16.6667C1.05372 15.9884 1.24529 15.2132 1.05372 14.5349C0.957931 13.8566 0.479004 13.1783 0.479004 12.5C0.479004 11.8217 0.957931 11.1434 1.05372 10.4651C1.05372 9.68994 0.862146 8.91474 1.05372 8.33335C1.24529 7.65505 1.91579 7.17056 2.29893 6.58916C2.68207 6.00776 2.77785 5.13567 3.161 4.65118C3.63992 4.06978 4.40621 3.87598 4.98092 3.39149C5.45985 2.90699 5.84299 2.2287 6.4177 1.8411C6.99241 1.4535 7.85448 1.5504 8.4292 1.2597C9.09969 1.0659 9.67441 0.484509 10.3449 0.29071C11.0154 0.193811 11.7817 0.484509 12.4522 0.484509C13.1227 0.484509 13.889 0.193811 14.5595 0.29071C15.23 0.38761 15.8047 0.969005 16.4752 1.2597C17.1457 1.4535 17.912 1.4535 18.4867 1.8411C19.0614 2.2287 19.4445 2.90699 19.9234 3.39149C20.4982 3.87598 21.2644 4.06978 21.6476 4.65118C22.1265 5.23257 22.2223 6.00776 22.5097 6.58916C22.8928 7.17056 23.4675 7.65505 23.7549 8.33335C23.9464 9.01164 23.7549 9.78684 23.9464 10.4651C24.2338 11.1434 24.6169 11.7248 24.6169 12.5Z" fill="#D8D3A0"/>
<path d="M24.6168 12.5C24.6168 11.8217 24.1379 11.1434 24.0421 10.4651C23.9463 9.68992 24.1379 8.91473 23.9463 8.33333C23.7548 7.65504 23.0843 7.17054 22.7011 6.58915C22.318 6.00775 22.2222 5.13566 21.8391 4.65116C21.3601 4.06977 20.6896 3.87597 20.1149 3.48837C20.2107 3.77907 20.3065 4.06977 20.4981 4.36047C20.8812 4.94186 21.4559 5.42636 21.7433 6.10465C21.9348 6.78295 21.7433 7.55814 21.9348 8.23643C22.0306 8.91473 22.5096 9.59302 22.5096 10.2713C22.5096 10.9496 22.0306 11.6279 21.9348 12.3062C21.8391 12.9845 22.0306 13.7597 21.7433 14.438C21.5517 15.1163 20.8812 15.6008 20.4981 16.1822C20.1149 16.7636 20.0191 17.6357 19.636 18.1202C19.1571 18.7016 18.3908 18.8953 17.9118 19.3798C17.3371 19.8643 17.0498 20.5426 16.4751 20.9302C15.9004 21.3178 15.0383 21.2209 14.4636 21.5116C13.7931 21.7054 13.2184 22.2868 12.5479 22.4806C11.8774 22.5775 11.1111 22.2868 10.4406 22.2868C9.77009 22.2868 9.0038 22.5775 8.3333 22.4806C7.66281 22.3837 7.08809 21.8023 6.4176 21.5116C5.7471 21.3178 4.98081 21.3178 4.4061 20.9302C3.83139 20.5426 3.44825 19.8643 2.96932 19.3798L2.87354 19.2829C2.96932 19.6705 3.16089 20.0581 3.35246 20.3488C3.83139 20.9302 4.59767 21.124 5.0766 21.6085C5.65131 22.093 5.93867 22.7713 6.51338 23.1589C7.08809 23.5465 7.95016 23.4496 8.52488 23.7403C9.19537 23.9341 9.77009 24.5155 10.4406 24.7093C11.1111 24.8062 11.8774 24.5155 12.5479 24.5155C13.2184 24.5155 13.9846 24.8062 14.6551 24.7093C15.3256 24.6124 15.9004 24.031 16.5709 23.7403C17.2414 23.5465 18.0076 23.5465 18.5823 23.1589C19.1571 22.7713 19.5402 22.093 20.0191 21.6085C20.5938 21.124 21.3601 20.9302 21.7433 20.3488C22.2222 19.7674 22.318 18.9922 22.6053 18.4109C22.9885 17.8295 23.5632 17.345 23.8505 16.6667C24.0421 15.9884 23.8505 15.2132 24.0421 14.5349C24.2337 13.8566 24.6168 13.1783 24.6168 12.5Z" fill="#D8D3A0"/>
<path d="M12.548 24.6124C15.7749 24.6124 18.3909 21.966 18.3909 18.7016C18.3909 15.4371 15.7749 12.7907 12.548 12.7907C9.32104 12.7907 6.70508 15.4371 6.70508 18.7016C6.70508 21.966 9.32104 24.6124 12.548 24.6124Z" fill="#C4C4D7"/>
<path d="M15.9963 13.9535C16.7626 14.9225 17.1458 16.1822 17.1458 17.5388C17.1458 20.8333 14.5596 23.4496 11.3029 23.4496C9.96185 23.4496 8.81243 22.9651 7.75879 22.2868C8.81243 23.7403 10.5366 24.6124 12.4523 24.6124C15.709 24.6124 18.2952 21.9961 18.2952 18.7016C18.391 16.7636 17.4331 15.0194 15.9963 13.9535Z" fill="#C4C4D7"/>
<path d="M10.5365 5.81397C11.3829 5.81397 12.069 5.11984 12.069 4.26358C12.069 3.40733 11.3829 2.7132 10.5365 2.7132C9.69006 2.7132 9.00391 3.40733 9.00391 4.26358C9.00391 5.11984 9.69006 5.81397 10.5365 5.81397Z" fill="#D8D3A0"/>
<path d="M11.2068 2.81009C11.3026 3.00389 11.3984 3.19769 11.3984 3.48838C11.3984 4.36048 10.7279 5.03877 9.86581 5.03877C9.67424 5.03877 9.38688 4.94187 9.19531 4.84497C9.38688 5.42637 9.86581 5.81397 10.5363 5.81397C11.3984 5.81397 12.0689 5.13567 12.0689 4.26358C12.0689 3.58528 11.6857 3.10079 11.2068 2.81009Z" fill="#D8D3A0"/>
<path d="M19.5404 8.91474C20.3868 8.91474 21.0729 8.22061 21.0729 7.36435C21.0729 6.5081 20.3868 5.81396 19.5404 5.81396C18.694 5.81396 18.0078 6.5081 18.0078 7.36435C18.0078 8.22061 18.694 8.91474 19.5404 8.91474Z" fill="#D8D3A0"/>
<path d="M20.2107 5.91086C20.3065 6.10466 20.4023 6.29846 20.4023 6.58915C20.4023 7.46125 19.7318 8.13954 18.8697 8.13954C18.6781 8.13954 18.3908 8.04264 18.1992 7.94574C18.4866 8.52714 18.9655 8.81784 19.636 8.81784C20.4981 8.81784 21.1686 8.13954 21.1686 7.26745C21.0728 6.68605 20.7854 6.20156 20.2107 5.91086Z" fill="#D8D3A0"/>
<path d="M4.98081 10.2713C5.82722 10.2713 6.51338 9.57721 6.51338 8.72095C6.51338 7.86469 5.82722 7.17056 4.98081 7.17056C4.1344 7.17056 3.44824 7.86469 3.44824 8.72095C3.44824 9.57721 4.1344 10.2713 4.98081 10.2713Z" fill="#D8D3A0"/>
<path d="M5.65123 7.26746C5.74701 7.46125 5.8428 7.65505 5.8428 7.94575C5.8428 8.81784 5.1723 9.49614 4.31023 9.49614C4.02287 9.49614 3.8313 9.49614 3.54395 9.39924C3.8313 9.98063 4.31023 10.2713 4.98073 10.2713C5.8428 10.2713 6.51329 9.59304 6.51329 8.72094C6.51329 8.04265 6.22594 7.55815 5.65123 7.26746Z" fill="#D8D3A0"/>
<path d="M13.9847 10.6589C14.8311 10.6589 15.5173 9.96481 15.5173 9.10855C15.5173 8.2523 14.8311 7.55817 13.9847 7.55817C13.1383 7.55817 12.4521 8.2523 12.4521 9.10855C12.4521 9.96481 13.1383 10.6589 13.9847 10.6589Z" fill="#D8D3A0"/>
<path d="M14.655 7.75195C14.7508 7.94575 14.8466 8.13955 14.8466 8.43025C14.8466 9.30234 14.1761 9.98064 13.3141 9.98064C13.1225 9.98064 12.8351 9.88374 12.6436 9.78684C12.9309 10.3682 13.4098 10.6589 14.0803 10.6589C14.9424 10.6589 15.6129 9.98064 15.6129 9.10854C15.5171 8.52715 15.134 7.94575 14.655 7.75195Z" fill="#D8D3A0"/>
<path d="M4.31023 15.7946C5.05085 15.7946 5.65123 15.1872 5.65123 14.438C5.65123 13.6888 5.05085 13.0814 4.31023 13.0814C3.56962 13.0814 2.96924 13.6888 2.96924 14.438C2.96924 15.1872 3.56962 15.7946 4.31023 15.7946Z" fill="#D8D3A0"/>
<path d="M4.88486 13.2752C4.98065 13.469 4.98065 13.6628 4.98065 13.8566C4.98065 14.6318 4.40594 15.2132 3.63965 15.2132C3.44808 15.2132 3.25651 15.2132 3.06494 15.1163C3.3523 15.5039 3.83122 15.7946 4.31015 15.7946C5.07644 15.7946 5.65115 15.2132 5.65115 14.438C5.65115 13.9535 5.36379 13.469 4.88486 13.2752Z" fill="#D8D3A0"/>
<path d="M20.6898 16.376C21.5362 16.376 22.2224 15.6819 22.2224 14.8256C22.2224 13.9693 21.5362 13.2752 20.6898 13.2752C19.8434 13.2752 19.1572 13.9693 19.1572 14.8256C19.1572 15.6819 19.8434 16.376 20.6898 16.376Z" fill="#D8D3A0"/>
<path d="M21.3601 13.469C21.4559 13.6628 21.5517 13.8566 21.5517 14.1473C21.5517 15.0194 20.8812 15.6977 20.0191 15.6977C19.8276 15.6977 19.5402 15.6008 19.3486 15.5039C19.636 16.0853 20.1149 16.376 20.7854 16.376C21.6475 16.376 22.318 15.6977 22.318 14.8256C22.318 14.2442 21.9348 13.6628 21.3601 13.469Z" fill="#D8D3A0"/>
<path d="M16.0918 5.52326C16.4092 5.52326 16.6665 5.26296 16.6665 4.94187C16.6665 4.62077 16.4092 4.36047 16.0918 4.36047C15.7744 4.36047 15.5171 4.62077 15.5171 4.94187C15.5171 5.26296 15.7744 5.52326 16.0918 5.52326Z" fill="#212322"/>
<path d="M17.8159 12.6938C18.1333 12.6938 18.3906 12.4335 18.3906 12.1124C18.3906 11.7913 18.1333 11.531 17.8159 11.531C17.4985 11.531 17.2412 11.7913 17.2412 12.1124C17.2412 12.4335 17.4985 12.6938 17.8159 12.6938Z" fill="#212322"/>
<path d="M21.3604 11.7248C21.6778 11.7248 21.9351 11.4645 21.9351 11.1434C21.9351 10.8223 21.6778 10.562 21.3604 10.562C21.043 10.562 20.7856 10.8223 20.7856 11.1434C20.7856 11.4645 21.043 11.7248 21.3604 11.7248Z" fill="#212322"/>
<path d="M6.99219 5.62016C7.3096 5.62016 7.56691 5.35986 7.56691 5.03876C7.56691 4.71767 7.3096 4.45737 6.99219 4.45737C6.67479 4.45737 6.41748 4.71767 6.41748 5.03876C6.41748 5.35986 6.67479 5.62016 6.99219 5.62016Z" fill="#212322"/>
<path d="M9.48292 10.8527C9.80032 10.8527 10.0576 10.5924 10.0576 10.2713C10.0576 9.95024 9.80032 9.68994 9.48292 9.68994C9.16551 9.68994 8.9082 9.95024 8.9082 10.2713C8.9082 10.5924 9.16551 10.8527 9.48292 10.8527Z" fill="#212322"/>
<path d="M7.4712 12.5969C7.7886 12.5969 8.04591 12.3366 8.04591 12.0155C8.04591 11.6944 7.7886 11.4341 7.4712 11.4341C7.15379 11.4341 6.89648 11.6944 6.89648 12.0155C6.89648 12.3366 7.15379 12.5969 7.4712 12.5969Z" fill="#212322"/>
<path d="M4.69336 19.0892C5.01077 19.0892 5.26808 18.8289 5.26808 18.5078C5.26808 18.1867 5.01077 17.9264 4.69336 17.9264C4.37596 17.9264 4.11865 18.1867 4.11865 18.5078C4.11865 18.8289 4.37596 19.0892 4.69336 19.0892Z" fill="#212322"/>
<path d="M24.7126 11.1434C24.6169 10.8527 24.5211 10.562 24.4253 10.3682C24.4253 10.0775 24.4253 9.78683 24.4253 9.49614C24.4253 9.01164 24.4253 8.62404 24.2337 8.13955C24.0421 7.65505 23.7548 7.36435 23.4674 6.97676C23.2759 6.78296 23.0843 6.58916 22.9885 6.39536C22.8927 6.20156 22.7969 5.91087 22.7011 5.62017C22.5096 5.23257 22.4138 4.74807 22.1264 4.36048C21.8391 3.97288 21.4559 3.77908 21.0728 3.58528C20.7854 3.39149 20.5939 3.29459 20.4023 3.10079C20.1149 2.90699 19.9234 2.71319 19.7318 2.51939C19.4444 2.1318 19.1571 1.8411 18.7739 1.5504C18.5824 1.4535 18.3908 1.3566 18.1992 1.3566C18.0077 1.2597 17.8161 1.4535 17.7203 1.6473C17.6245 1.8411 17.8161 2.0349 18.0077 2.1318C18.1992 2.1318 18.295 2.22869 18.3908 2.32559C18.6782 2.32559 18.8697 2.61629 19.1571 2.90699C19.3487 3.19769 19.5402 3.39149 19.8276 3.58528C20.1149 3.77908 20.4023 3.97288 20.6897 4.06978C21.0728 4.26358 21.3602 4.45738 21.5517 4.74807C21.7433 5.03877 21.9349 5.32947 22.0307 5.71707C22.1264 6.00776 22.2222 6.29846 22.4138 6.58916C22.6054 6.87986 22.7969 7.17056 22.9885 7.36435C23.2759 7.65505 23.4674 7.94575 23.5632 8.23645C23.659 8.52714 23.659 8.91474 23.659 9.30234C23.659 9.59304 23.659 9.98063 23.659 10.2713C23.7548 10.562 23.8506 10.8527 23.9464 11.1434C24.0421 11.531 24.2337 11.9186 24.2337 12.2093C24.2337 12.5969 24.1379 12.8876 23.9464 13.2752C23.8506 13.5659 23.7548 13.8566 23.659 14.1473C23.5632 14.438 23.5632 14.8256 23.659 15.1163C23.659 15.5039 23.659 15.8915 23.5632 16.1822C23.4674 16.4729 23.1801 16.7636 22.9885 17.0543C22.7969 17.2481 22.6054 17.5388 22.4138 17.8295C22.2222 18.1202 22.1264 18.4109 22.0307 18.7016C21.9349 19.0892 21.7433 19.4768 21.5517 19.6706C21.3602 19.9613 20.977 20.1551 20.6897 20.3489C20.4023 20.5426 20.1149 20.6395 19.8276 20.8333C19.5402 21.0271 19.3487 21.3178 19.1571 21.5116C18.8697 21.8023 18.6782 22.093 18.3908 22.2868C18.1034 22.4806 17.7203 22.4806 17.3372 22.5775C17.1456 22.5775 17.0498 22.6744 16.8582 22.6744C18.0077 21.5116 18.7739 19.9613 18.7739 18.2171C18.7739 14.7287 15.9962 11.9186 12.5479 11.9186C10.6322 11.9186 8.90805 12.7907 7.66284 14.2442C7.56705 14.438 7.56705 14.6318 7.75862 14.7287C7.95019 14.8256 8.14176 14.8256 8.23755 14.6318C9.29119 13.2752 10.8238 12.5969 12.5479 12.5969C15.613 12.5969 18.0077 15.1163 18.0077 18.1202C18.0077 21.2209 15.5172 23.6434 12.5479 23.6434C9.57854 23.6434 7.08812 21.124 7.08812 18.1202C7.08812 17.4419 7.18391 16.6667 7.47126 16.0853C7.56705 15.8915 7.47126 15.6977 7.27969 15.6008C7.08812 15.5039 6.89655 15.6008 6.80077 15.7946C6.51341 16.5698 6.32184 17.345 6.32184 18.1202C6.32184 19.8644 6.99234 21.5116 8.23755 22.5775C8.04598 22.5775 7.85441 22.4806 7.75862 22.4806C7.37548 22.3837 6.99234 22.3837 6.70498 22.1899C6.41762 21.9961 6.22605 21.7054 5.9387 21.4147C5.74713 21.124 5.55556 20.9302 5.2682 20.7364C4.98084 20.5426 4.69349 20.3489 4.40613 20.252C4.02299 20.0582 3.73563 19.8644 3.54406 19.5737C3.35249 19.283 3.16092 18.9923 3.06513 18.6047C2.96935 18.314 2.87356 18.0233 2.68199 17.7326C2.49042 17.4419 2.29885 17.1512 2.10728 16.9574C1.81992 16.6667 1.62835 16.376 1.53257 16.0853C1.43678 15.7946 1.43678 15.407 1.43678 15.0194C1.43678 14.7287 1.43678 14.3411 1.43678 14.0504C1.341 13.7597 1.24521 13.469 1.14943 13.1783C1.05364 12.7907 0.862069 12.4031 0.862069 12.1124C0.862069 11.8217 0.957854 11.4341 1.14943 11.0465C1.24521 10.7558 1.341 10.4651 1.43678 10.1744C1.53257 9.88373 1.53257 9.49614 1.43678 9.20544C1.43678 8.81784 1.43678 8.43024 1.53257 8.13955C1.62835 7.84885 1.91571 7.55815 2.10728 7.26745C2.29885 7.07366 2.49042 6.78296 2.68199 6.49226C2.77778 6.39536 2.87356 6.10466 3.06513 5.81397C3.16092 5.42637 3.35249 5.03877 3.54406 4.84497C3.73563 4.55428 4.11877 4.36048 4.40613 4.16668C4.69349 4.06978 4.98084 3.87598 5.17241 3.68218C5.45977 3.48838 5.65134 3.19769 5.84291 2.90699C6.13027 2.61629 6.32184 2.32559 6.6092 2.1318C6.89655 2.0349 7.27969 1.938 7.66284 1.8411C7.95019 1.7442 8.33333 1.7442 8.62069 1.6473C8.90805 1.5504 9.1954 1.3566 9.48276 1.1628C9.8659 0.969005 10.1533 0.775206 10.4406 0.678307C10.728 0.581408 11.1111 0.678307 11.4943 0.775206C11.7816 0.872105 12.1648 0.872105 12.4521 0.872105C12.8352 0.872105 13.1226 0.775206 13.41 0.775206C13.7931 0.678307 14.1762 0.581408 14.4636 0.678307C14.8467 0.775206 15.1341 0.969005 15.4215 1.1628C15.613 1.2597 15.9004 1.4535 16.092 1.5504C16.2835 1.6473 16.4751 1.5504 16.5709 1.3566C16.6667 1.1628 16.5709 0.969005 16.3793 0.872105C16.1877 0.775206 15.9962 0.678307 15.8046 0.484508C15.4215 0.29071 15.0383 1.22812e-05 14.5594 -0.0968869C14.0805 -0.193786 13.6973 -0.0968869 13.2184 1.22848e-05C12.931 0.0969115 12.6437 0.0969115 12.3563 0.0969115C12.069 0.0969115 11.7816 1.22848e-05 11.4943 1.22848e-05C11.2069 1.22848e-05 10.8238 1.22848e-05 10.3448 1.22848e-05C9.8659 0.0969115 9.48276 0.29071 9.09962 0.581408C8.81226 0.775206 8.62069 0.872105 8.33333 0.969005C8.14176 1.0659 7.85441 1.0659 7.56705 1.1628C7.08812 1.2597 6.6092 1.2597 6.22605 1.5504C5.84291 1.7442 5.55556 2.1318 5.2682 2.51939C5.07663 2.71319 4.88506 2.90699 4.69349 3.10079C4.50192 3.29459 4.31034 3.39149 4.02299 3.58528C3.63985 3.77908 3.2567 3.97288 2.96935 4.36048C2.58621 4.74807 2.49042 5.13567 2.29885 5.62017C2.20307 5.91087 2.10728 6.10466 2.01149 6.39536C1.91571 6.58916 1.72414 6.78296 1.53257 6.97676C1.24521 7.36435 0.957854 7.75195 0.766284 8.13955C0.574713 8.62404 0.574713 9.10854 0.574713 9.49614C0.574713 9.78683 0.574713 10.0775 0.574713 10.3682C0.574713 10.6589 0.478927 10.8527 0.287356 11.1434C0.191571 11.531 0 12.0155 0 12.5C0 12.9845 0.191571 13.469 0.287356 13.8566C0.383142 14.1473 0.478927 14.438 0.574713 14.6318C0.574713 14.9225 0.574713 15.2132 0.574713 15.5039C0.574713 15.9884 0.574713 16.376 0.766284 16.8605C0.957854 17.345 1.24521 17.6357 1.53257 18.0233C1.72414 18.2171 1.91571 18.4109 2.01149 18.6047C2.10728 18.7985 2.20307 19.0892 2.29885 19.3799C2.49042 19.7675 2.58621 20.252 2.87356 20.6395C3.16092 21.0271 3.54406 21.2209 3.9272 21.4147C4.21456 21.6085 4.40613 21.7054 4.5977 21.8992C4.78927 22.093 4.98084 22.2868 5.17241 22.4806C5.45977 22.8682 5.74713 23.1589 6.13027 23.4496C6.51341 23.6434 6.99234 23.7403 7.47126 23.8372C7.75862 23.8372 8.04598 23.9341 8.23755 24.031C8.62069 24.1279 8.81226 24.2248 9.09962 24.4186C9.48276 24.6124 9.8659 24.9031 10.3448 25C10.4406 25 10.6322 25 10.728 25C11.0153 25 11.2069 25 11.4943 24.9031C11.7816 25 12.1648 25 12.5479 25C12.931 25 13.2184 25 13.6015 24.9031C13.8889 24.9031 14.0805 25 14.3678 25C14.4636 25 14.6552 25 14.751 25C15.2299 24.9031 15.613 24.7093 15.9962 24.4186C16.2835 24.2248 16.4751 24.1279 16.7625 24.031C17.0498 23.9341 17.2414 23.9341 17.5287 23.8372C18.0077 23.7403 18.3908 23.7403 18.8697 23.4496C19.2529 23.2558 19.5402 22.8682 19.8276 22.4806C20.0192 22.2868 20.2107 21.9961 20.4023 21.8992C20.5939 21.7054 20.8812 21.6085 21.0728 21.4147C21.4559 21.2209 21.8391 20.9302 22.1264 20.6395C22.4138 20.252 22.6054 19.8644 22.7011 19.3799C22.7969 19.0892 22.8927 18.7985 22.9885 18.6047C23.0843 18.4109 23.2759 18.2171 23.4674 17.9264C23.7548 17.5388 24.0421 17.2481 24.2337 16.7636C24.4253 16.2791 24.4253 15.8915 24.4253 15.407C24.4253 15.1163 24.4253 14.8256 24.4253 14.5349C24.4253 14.2442 24.5211 14.0504 24.7126 13.7597C24.9042 13.3721 25 12.8876 25 12.4031C25 12.0155 24.8084 11.531 24.7126 11.1434Z" fill="#212322"/>
<path d="M12.452 4.26358C12.452 3.19769 11.59 2.32559 10.5363 2.32559C9.48267 2.32559 8.62061 3.19769 8.62061 4.26358C8.62061 5.32947 9.48267 6.20156 10.5363 6.20156C11.59 6.20156 12.452 5.32947 12.452 4.26358ZM9.2911 4.26358C9.2911 3.58528 9.86582 3.10079 10.4405 3.10079C11.111 3.10079 11.59 3.68218 11.59 4.26358C11.59 4.94187 11.0152 5.42637 10.4405 5.42637C9.86582 5.42637 9.2911 4.94187 9.2911 4.26358Z" fill="#212322"/>
<path d="M19.5402 5.42636C18.4866 5.42636 17.6245 6.29845 17.6245 7.36435C17.6245 8.43024 18.4866 9.30233 19.5402 9.30233C20.5939 9.30233 21.4559 8.43024 21.4559 7.36435C21.4559 6.29845 20.5939 5.42636 19.5402 5.42636ZM19.5402 8.52714C18.8697 8.52714 18.3908 7.94574 18.3908 7.36435C18.3908 6.78295 18.9655 6.20156 19.5402 6.20156C20.2107 6.20156 20.6896 6.78295 20.6896 7.36435C20.6896 7.94574 20.2107 8.52714 19.5402 8.52714Z" fill="#212322"/>
<path d="M6.89636 8.72094C6.89636 7.65505 6.03429 6.78296 4.98065 6.78296C3.92701 6.78296 3.06494 7.65505 3.06494 8.72094C3.06494 9.78684 3.92701 10.6589 4.98065 10.6589C6.03429 10.6589 6.89636 9.78684 6.89636 8.72094ZM4.98065 9.88373C4.31015 9.88373 3.83122 9.39924 3.83122 8.72094C3.83122 8.04265 4.40594 7.55815 4.98065 7.55815C5.55536 7.55815 6.22586 8.04265 6.22586 8.72094C6.22586 9.39924 5.65115 9.88373 4.98065 9.88373Z" fill="#212322"/>
<path d="M13.9846 11.0465C15.0382 11.0465 15.9003 10.1744 15.9003 9.10855C15.9003 8.04266 15.0382 7.17056 13.9846 7.17056C12.9309 7.17056 12.0688 8.04266 12.0688 9.10855C12.0688 10.1744 12.9309 11.0465 13.9846 11.0465ZM13.9846 7.94576C14.6551 7.94576 15.134 8.52715 15.134 9.10855C15.134 9.68994 14.5593 10.2713 13.9846 10.2713C13.4098 10.2713 12.8351 9.68994 12.8351 9.10855C12.8351 8.52715 13.3141 7.94576 13.9846 7.94576Z" fill="#212322"/>
<path d="M6.03462 14.438C6.03462 13.469 5.26834 12.6938 4.31048 12.6938C3.35263 12.6938 2.68213 13.5659 2.68213 14.438C2.68213 15.407 3.44841 16.1822 4.40627 16.1822C5.36412 16.1822 6.03462 15.407 6.03462 14.438ZM4.31048 15.407C3.83155 15.407 3.35263 15.0194 3.35263 14.438C3.35263 13.9535 3.73577 13.469 4.31048 13.469C4.78941 13.469 5.26834 13.8566 5.26834 14.438C5.26834 15.0194 4.88519 15.407 4.31048 15.407Z" fill="#212322"/>
<path d="M18.7739 14.8256C18.7739 15.8915 19.636 16.7636 20.6896 16.7636C21.7433 16.7636 22.6053 15.8915 22.6053 14.8256C22.6053 13.7597 21.7433 12.8876 20.6896 12.8876C19.636 12.8876 18.7739 13.7597 18.7739 14.8256ZM21.9348 14.8256C21.9348 15.5039 21.3601 15.9884 20.7854 15.9884C20.1149 15.9884 19.636 15.407 19.636 14.8256C19.636 14.2442 20.2107 13.6628 20.7854 13.6628C21.3601 13.6628 21.9348 14.1473 21.9348 14.8256Z" fill="#212322"/>
</g>
<defs>
<clipPath id="clip0_1460_4434">
<rect width="25" height="25" fill="white"/>
</clipPath>
</defs>
</svg>
