<svg width="25" height="25" viewBox="0 0 25 25" fill="none" xmlns="http://www.w3.org/2000/svg">
<g clip-path="url(#clip0_1460_4401)">
<path d="M4.54539 5.8979C5.62764 6.77818 7.25102 6.60212 7.25102 6.60212C7.25102 6.60212 7.35924 5.2817 6.27699 4.40142C5.19474 3.52114 3.57137 3.60917 3.57137 3.60917C3.57137 3.60917 3.46314 5.10564 4.54539 5.8979Z" fill="#D8D3A0"/>
<path d="M22.9435 15.4049C23.1599 14.9648 23.2681 14.5247 23.2681 14.0845C23.2681 12.6761 22.1859 11.4437 20.6707 10.9155C21.1036 10.3873 21.4283 9.85917 21.4283 9.15494C21.4283 8.09861 20.6707 7.1303 19.5885 6.60213C19.6967 6.25001 19.8049 5.98593 19.8049 5.63382C19.8049 4.04931 18.2898 2.81692 16.45 2.72889C16.3417 1.40846 15.043 0.440155 13.4196 0.440155C11.7963 0.440155 10.4976 1.40846 10.3893 2.72889C8.44129 2.81692 7.03437 4.04931 7.03437 5.63382C7.03437 5.98593 7.14259 6.33804 7.25082 6.60213C6.16856 7.1303 5.41099 8.09861 5.41099 9.15494C5.41099 9.77114 5.62744 10.3873 6.16856 10.9155C4.65341 11.4437 3.57116 12.6761 3.57116 14.0845C3.57116 14.5247 3.67939 15.0528 3.89584 15.4049C2.92181 16.0211 2.27246 16.9895 2.27246 18.1338C2.27246 20.0704 4.22051 21.5669 6.49324 21.5669C7.03437 21.5669 7.68372 21.4789 8.11662 21.3028C8.76597 23.1514 10.8222 24.5599 13.4196 24.5599C16.017 24.5599 18.0733 23.1514 18.7227 21.3028C19.2638 21.4789 19.8049 21.5669 20.3461 21.5669C22.727 21.5669 24.5668 19.9824 24.5668 18.1338C24.5668 17.0775 23.9175 16.1092 22.9435 15.4049Z" fill="#A1A76F"/>
<g opacity="0.5">
<path d="M22.9435 15.4049C23.1599 14.9648 23.2681 14.5246 23.2681 14.0845C23.2681 12.6761 22.1859 11.4437 20.6707 10.9155C21.1036 10.3873 21.4283 9.85915 21.4283 9.15493C21.4283 8.09859 20.6707 7.13028 19.5885 6.60211C19.6967 6.25 19.8049 5.98591 19.8049 5.6338C19.8049 4.04929 18.2898 2.8169 16.45 2.72887C16.45 1.93662 15.9088 1.32042 15.1512 0.88028C15.3677 1.32042 15.5841 1.76056 15.5841 2.2007C15.5841 2.28873 15.5841 2.28873 15.5841 2.37676C15.5841 2.90493 15.8006 3.34507 16.2335 3.78521C16.8829 4.31338 17.2075 5.0176 17.2075 5.80986C17.2075 6.07394 17.2075 6.25 17.0993 6.51408C16.8829 7.13028 17.2075 7.8345 17.7487 8.27465C18.5062 8.89084 19.0474 9.77112 19.0474 10.7394C19.0474 10.9155 19.0474 11.0915 19.0474 11.2676C18.9391 11.7958 19.1556 12.3239 19.4803 12.7641C20.0214 13.3803 20.3461 14.0845 20.3461 14.8768C20.3461 16.7253 18.5062 18.2218 16.2335 18.2218C16.1253 18.2218 16.0171 18.2218 16.0171 18.2218C15.1512 18.2218 14.3937 18.4859 13.9608 19.1021C12.8785 20.2465 11.1469 21.1268 9.09064 21.1268C7.14259 21.1268 5.41099 20.2465 4.43696 19.0141C4.00406 18.3979 3.13826 18.0458 2.38069 18.1338H2.27246C2.27246 20.0704 4.11229 21.5669 6.49324 21.5669C7.03437 21.5669 7.68372 21.4789 8.11662 21.3028C8.76597 23.1514 10.8222 24.5599 13.4196 24.5599C16.017 24.5599 18.0733 23.1514 18.7227 21.3028C19.2638 21.4789 19.8049 21.5669 20.4543 21.5669C22.727 21.5669 24.5668 20.0704 24.5668 18.2218C24.5668 17.0775 23.9175 16.1092 22.9435 15.4049Z" fill="#A1A76F"/>
</g>
<path d="M21.5369 8.89083C20.5628 9.68308 20.6711 10.9155 20.6711 10.9155C20.6711 10.9155 22.1862 11.0035 23.1602 10.2112C24.1343 9.41899 24.026 8.09857 24.026 8.09857C24.026 8.09857 22.5109 8.09857 21.5369 8.89083Z" fill="#D8D3A0"/>
<path d="M19.1558 8.53872C19.1558 9.94717 20.6709 10.9155 20.6709 10.9155C20.6709 10.9155 22.1861 9.94717 22.1861 8.53872C22.1861 7.13027 20.6709 5.9859 20.6709 5.9859C20.6709 5.9859 19.1558 7.13027 19.1558 8.53872Z" fill="#D8D3A0"/>
<path d="M13.4194 8.53875C13.4194 9.68311 14.6099 10.4754 14.6099 10.4754C14.6099 10.4754 15.8004 9.68311 15.8004 8.53875C15.8004 7.39438 14.6099 6.5141 14.6099 6.5141C14.6099 6.5141 13.4194 7.39438 13.4194 8.53875Z" fill="#D8D3A0"/>
<path d="M11.4715 9.59508C12.662 10.5634 14.6101 10.3873 14.6101 10.3873C14.6101 10.3873 14.8265 8.80282 13.636 7.83451C12.4456 6.8662 10.3893 6.95423 10.3893 6.95423C10.3893 6.95423 10.2811 8.62677 11.4715 9.59508Z" fill="#D8D3A0"/>
<path d="M3.03035 13.3803C4.00438 14.1725 3.89615 15.4049 3.89615 15.4049C3.89615 15.4049 2.381 15.4929 1.40698 14.7007C0.43295 13.9084 0.541175 12.588 0.541175 12.588C0.541175 12.588 2.05633 12.588 3.03035 13.3803Z" fill="#D8D3A0"/>
<path d="M5.41116 13.0282C5.41116 14.4366 3.89601 15.4049 3.89601 15.4049C3.89601 15.4049 2.38086 14.4366 2.38086 13.0282C2.38086 11.6197 3.89601 10.4753 3.89601 10.4753C3.89601 10.4753 5.41116 11.6197 5.41116 13.0282Z" fill="#D8D3A0"/>
<path d="M12.2295 16.8134C12.2295 17.9577 13.42 18.75 13.42 18.75C13.42 18.75 14.6104 17.9577 14.6104 16.8134C14.6104 15.669 13.42 14.7887 13.42 14.7887C13.42 14.7887 12.2295 15.669 12.2295 16.8134Z" fill="#D8D3A0"/>
<path d="M21.8614 15.3169C20.9956 16.1972 21.212 17.4296 21.212 17.4296C21.212 17.4296 22.7272 17.4296 23.7012 16.6373C24.567 15.757 24.3506 14.4366 24.3506 14.4366C24.3506 14.4366 22.7272 14.4366 21.8614 15.3169Z" fill="#D8D3A0"/>
<path d="M9.19913 3.34507C9.41558 3.25704 9.74026 3.16901 9.95671 3.08099C10.0649 3.52113 10.1732 3.96127 10.4978 4.40141C10.6061 4.48944 10.7143 4.57746 10.8225 4.57746C10.9307 4.57746 11.039 4.57746 11.039 4.48944C11.2554 4.40141 11.2554 4.13732 11.1472 3.96127C11.039 3.60915 10.8225 3.25704 10.8225 2.8169C10.8225 1.67254 12.013 0.704225 13.4199 0.704225C14.8268 0.704225 16.0173 1.67254 16.0173 2.8169C16.0173 3.25704 15.9091 3.60915 15.5844 3.96127C15.4762 4.13732 15.4762 4.31338 15.6926 4.48944C15.8009 4.48944 15.9091 4.57746 15.9091 4.57746C16.0173 4.57746 16.2338 4.48944 16.2338 4.40141C16.5584 4.0493 16.7749 3.52113 16.7749 3.08099C18.1818 3.34507 19.2641 4.40141 19.2641 5.6338C19.2641 6.42606 18.8312 7.21831 18.0736 7.65845C17.8571 7.74648 17.8571 8.01056 17.9654 8.18662C18.0736 8.27465 18.1818 8.36268 18.29 8.36268C18.3983 8.36268 18.5065 8.36268 18.6147 8.27465C18.6147 8.27465 18.6147 8.27465 18.7229 8.27465C18.7229 8.36268 18.7229 8.4507 18.7229 8.53873C18.7229 9.24296 19.0476 9.85915 19.4805 10.2993C19.3723 10.2993 19.1558 10.2993 19.0476 10.2993C18.1818 10.2993 17.316 10.4754 16.5584 10.9155C16.342 11.0035 16.2338 11.2676 16.4502 11.4437C16.5584 11.5317 16.6667 11.6197 16.8831 11.6197C16.9913 11.6197 17.0996 11.6197 17.0996 11.5317C17.7489 11.2676 18.3983 11.0915 19.1558 11.0915C19.697 11.0915 20.1299 11.1796 20.671 11.3556C21.2121 11.5317 21.645 11.7958 21.9697 12.0599C22.0779 12.1479 22.1861 12.1479 22.2944 12.1479C22.4026 12.1479 22.5108 12.1479 22.619 12.0599C22.8355 11.8838 22.8355 11.7077 22.619 11.5317C22.5108 11.4437 22.2944 11.2676 22.1861 11.1796C22.7273 11.0915 23.2684 10.9155 23.7013 10.4754C24.7835 9.59507 24.7835 8.09859 24.6753 8.09859C24.6753 7.92254 24.4589 7.74648 24.2424 7.74648C24.2424 7.74648 23.4848 7.74648 22.7273 7.92254C22.4026 6.69014 21.2121 5.72183 21.1039 5.72183C20.8874 5.6338 20.671 5.6338 20.4545 5.72183C20.4545 5.72183 20.3463 5.72183 20.3463 5.80986C20.3463 5.72183 20.3463 5.72183 20.3463 5.6338C20.3463 3.96127 18.8312 2.64085 16.8831 2.37676C16.5584 1.05634 15.1515 0 13.4199 0C11.6883 0 10.2814 0.96831 9.95671 2.37676C9.52381 2.37676 9.19913 2.55282 8.76623 2.64085C8.54978 2.72887 8.44156 2.99296 8.54978 3.16901C8.65801 3.34507 8.98268 3.4331 9.19913 3.34507ZM22.9437 10.0352C22.619 10.2993 22.1861 10.4754 21.8615 10.4754C22.2944 10.0352 22.619 9.41901 22.7273 8.71479C23.0519 8.62676 23.4848 8.53873 23.7013 8.53873C23.5931 8.89084 23.4848 9.59507 22.9437 10.0352ZM20.671 6.51408C21.1039 6.8662 21.7532 7.65845 21.7532 8.53873C21.7532 9.41901 21.1039 10.1232 20.671 10.4754C20.2381 10.1232 19.5887 9.41901 19.5887 8.53873C19.5887 7.65845 20.3463 6.95423 20.671 6.51408Z" fill="#212322"/>
<path d="M24.4588 16.2852C25 15.4049 24.8917 14.3486 24.8917 14.2606C24.8917 14.0845 24.6753 13.9084 24.4588 13.9084C24.4588 13.9084 24.1342 13.9084 23.8095 13.9965C23.8095 13.6444 23.8095 13.3803 23.7013 13.0282C23.593 12.8521 23.3766 12.676 23.1601 12.7641C22.9437 12.8521 22.7272 13.0282 22.8355 13.2042C22.9437 13.4683 22.9437 13.7324 22.9437 13.9965C22.9437 14.0845 22.9437 14.0845 22.9437 14.1725C22.5108 14.3486 21.9697 14.5246 21.645 14.8768C21.1039 15.4049 20.8874 16.0211 20.8874 16.5493C20.4545 16.3732 20.0216 16.2852 19.5887 16.2852C19.3723 16.2852 19.1558 16.4613 19.1558 16.6373C19.1558 16.8134 19.3723 16.9894 19.5887 16.9894C20.1298 16.9894 20.671 17.1655 21.1039 17.5176C21.5368 17.7817 21.8614 18.2218 21.9697 18.662C21.9697 18.838 22.1861 18.926 22.4026 18.926H22.5108C22.7272 18.926 22.9437 18.662 22.8355 18.4859C22.7272 18.1338 22.5108 17.7817 22.2943 17.4296C22.8355 17.3415 23.4848 17.1655 23.9177 16.7253C24.1342 17.0775 24.2424 17.5176 24.2424 17.8697C24.2424 19.5422 22.5108 20.9507 20.4545 20.9507C20.0216 20.9507 19.6969 20.8627 19.3723 20.7746C19.4805 20.5106 19.4805 20.1584 19.4805 19.8063C19.4805 19.4542 19.3723 19.0141 19.3723 18.662C19.264 18.4859 19.0476 18.3099 18.8311 18.3979C18.6147 18.4859 18.3982 18.662 18.5065 18.838C18.7229 19.4542 18.7229 20.1584 18.5065 20.8627C17.9653 22.6232 15.9091 23.8556 13.6363 23.8556C11.3636 23.8556 9.41556 22.6232 8.76621 20.8627C8.54976 20.2465 8.54976 19.5422 8.76621 18.838C8.87443 18.662 8.65798 18.4859 8.44153 18.3979C8.22508 18.3099 8.00863 18.4859 7.90041 18.662C7.57573 19.3662 7.46751 19.8063 7.46751 20.1584C7.46751 20.5106 7.46751 20.7746 7.57573 21.1268C7.25106 21.2148 6.81816 21.3028 6.49348 21.3028C5.62768 21.3028 4.76188 21.0387 4.11253 20.5986C3.89608 20.5106 3.67963 20.5106 3.46318 20.6866C3.35495 20.8627 3.35495 21.0387 3.5714 21.2148C4.4372 21.743 5.41123 22.0951 6.49348 22.0951C6.92638 22.0951 7.35928 22.007 7.90041 21.919C8.76621 23.7676 10.9307 25.088 13.4199 25.088C15.9091 25.088 18.1818 23.7676 18.9394 21.919C19.3723 22.007 19.8052 22.0951 20.3463 22.0951C22.9437 22.0951 25 20.4225 25 18.3099C25 17.5176 24.7835 16.9014 24.4588 16.2852ZM21.645 16.9894C21.645 16.6373 21.645 16.0211 22.1861 15.4929C22.619 15.0528 23.4848 14.8768 23.9177 14.7887C23.9177 15.2289 23.8095 15.8451 23.3766 16.2852C22.8355 16.8134 22.0779 16.9014 21.645 16.9894Z" fill="#212322"/>
<path d="M2.7057 18.1338C2.7057 16.4613 4.43731 15.0528 6.49358 15.0528C6.71003 15.0528 6.92648 14.8767 6.92648 14.7007C6.92648 14.5246 6.71003 14.3486 6.49358 14.3486C6.16891 14.3486 5.73601 14.3486 5.41133 14.4366C5.62778 13.9965 5.84423 13.5563 5.84423 13.0282C5.84423 12.5 5.62778 12.0598 5.41133 11.7077C5.62778 11.5317 5.95246 11.4436 6.27713 11.2676C6.71003 11.0915 7.25116 11.0035 7.79228 11.0035C8.54986 11.0035 9.19921 11.1796 9.84856 11.4436C9.95679 11.4436 9.95679 11.5317 10.065 11.5317C10.1732 11.5317 10.3897 11.4436 10.4979 11.3556C10.6061 11.1796 10.6061 10.9155 10.3897 10.8275C9.63211 10.4753 8.76631 10.2113 7.90051 10.2113C7.35938 10.2113 6.92648 10.2993 6.38536 10.3873C6.06068 10.0352 5.95246 9.50703 5.95246 9.06689C5.95246 8.27463 6.38536 7.57041 7.14293 7.04224C7.35938 7.48238 7.79228 7.83449 8.22518 8.09858C8.33341 8.1866 8.44163 8.18661 8.54986 8.18661C8.65809 8.18661 8.76631 8.09858 8.87454 8.01055C8.87454 8.01055 8.87454 7.83449 8.65809 7.65844C7.90051 7.21829 7.46761 6.42604 7.46761 5.63379C7.46761 5.19365 7.57583 4.75351 7.90051 4.31337C8.00873 4.13731 7.90051 3.87322 7.68406 3.7852C7.46761 3.69717 7.14293 3.7852 7.03471 3.96125C7.03471 4.13731 6.92648 4.22534 6.81826 4.40139C6.81826 4.31337 6.71003 4.22534 6.60181 4.13731C5.41133 3.169 3.57151 3.25703 3.46328 3.25703C3.24683 3.25703 3.1386 3.43308 3.1386 3.60914C3.1386 3.69717 3.03038 5.19365 4.22086 6.16196C4.76198 6.6021 5.41133 6.86618 6.06068 6.95421C5.41133 7.57041 4.97843 8.36266 4.97843 9.24294C4.97843 9.77111 5.19488 10.3873 5.51956 10.8275C5.30311 10.9155 5.19488 11.0035 5.08666 11.0915C4.65376 10.6514 4.32908 10.2993 4.22086 10.2993C4.00441 10.2113 3.78796 10.2113 3.57151 10.2993C3.46328 10.3873 2.2728 11.2676 1.94813 12.5C1.19055 12.2359 0.432977 12.3239 0.432977 12.3239C0.216527 12.3239 7.65673e-05 12.412 7.65673e-05 12.676C7.65673e-05 12.7641 -0.108149 14.1725 0.974102 15.0528C1.51523 15.4929 2.2728 15.669 2.81393 15.757C2.16458 16.4613 1.8399 17.2535 1.8399 18.1338C1.8399 18.662 1.94813 19.1021 2.16458 19.6303C2.2728 19.8063 2.38103 19.8944 2.59748 19.8944C2.7057 19.8944 2.7057 19.8944 2.81393 19.8944C3.03038 19.8063 3.1386 19.6303 3.03038 19.4542C2.81393 18.926 2.7057 18.5739 2.7057 18.1338ZM4.00441 4.04928C4.54553 4.04928 5.41133 4.22534 6.06068 4.66548C6.27713 4.84153 6.49358 5.10562 6.60181 5.3697C6.60181 5.45773 6.60181 5.54576 6.60181 5.54576C6.60181 5.72182 6.60181 5.9859 6.71003 6.16196C6.16891 6.16196 5.41133 5.9859 4.87021 5.54576C4.22086 5.19365 4.00441 4.48942 4.00441 4.04928ZM3.89618 11.0915C4.32908 11.4436 4.97843 12.2359 4.97843 13.1162C4.97843 13.9965 4.32908 14.7007 3.89618 15.0528C3.46328 14.7007 2.81393 13.9965 2.81393 13.1162C2.81393 12.2359 3.46328 11.4436 3.89618 11.0915ZM0.974102 13.0282C1.29878 13.0282 1.62345 13.1162 1.94813 13.2042C2.05635 13.9084 2.38103 14.5246 2.81393 14.9648C2.48925 14.8767 2.05635 14.7887 1.73168 14.5246C1.19055 14.0845 0.974102 13.4683 0.974102 13.0282Z" fill="#212322"/>
<path d="M14.9347 6.25001C14.7182 6.16198 14.5018 6.16198 14.2853 6.25001C14.2853 6.25001 13.7442 6.69015 13.3113 7.30635C12.0126 6.60212 10.3892 6.60212 10.281 6.69015C10.0646 6.69015 9.84812 6.86621 9.84812 7.04227C9.84812 7.13029 9.73989 8.89086 11.1468 9.94719C12.2291 10.8275 13.636 10.9155 14.2853 10.9155C14.5018 10.9155 14.61 10.9155 14.61 10.9155C14.7182 10.9155 14.8265 10.9155 14.8265 10.8275C14.9347 10.7394 16.2334 9.85917 16.2334 8.62677C16.3416 7.21832 15.0429 6.25001 14.9347 6.25001ZM10.8221 7.30635C11.4715 7.30635 12.5537 7.48241 13.3113 8.0986C14.0689 8.7148 14.1771 9.59508 14.1771 10.0352C13.636 10.0352 12.5537 9.9472 11.7962 9.331C11.0386 8.7148 10.9304 7.83452 10.8221 7.30635ZM15.0429 9.50705C14.9347 8.97889 14.7182 8.27466 14.0689 7.74649C14.1771 7.48241 14.3936 7.21832 14.61 7.04227C14.9347 7.39438 15.3676 7.92255 15.3676 8.53874C15.4758 8.89086 15.2594 9.24297 15.0429 9.50705Z" fill="#212322"/>
<path d="M11.1473 19.4542C11.2555 19.6303 11.5802 19.6303 11.7966 19.5423C12.2295 19.2782 12.7706 19.1021 13.42 19.1021C14.0693 19.1021 14.5022 19.2782 15.0434 19.5423C15.1516 19.6303 15.2598 19.6303 15.368 19.6303C15.4763 19.6303 15.5845 19.5423 15.6927 19.4542C15.8009 19.2782 15.8009 19.1021 15.5845 18.9261C15.2598 18.662 14.8269 18.4859 14.394 18.3979C14.7187 18.0458 15.1516 17.4296 15.1516 16.7254C15.1516 15.493 13.8529 14.5247 13.7447 14.4366C13.5282 14.3486 13.3118 14.3486 13.0953 14.4366C12.9871 14.4366 11.6884 15.493 11.6884 16.7254C11.6884 17.4296 12.1213 17.9578 12.446 18.3979C12.0131 18.4859 11.5802 18.662 11.2555 18.9261C11.039 19.1021 11.039 19.3662 11.1473 19.4542ZM13.42 15.3169C13.7447 15.669 14.1776 16.1972 14.1776 16.8134C14.1776 17.4296 13.7447 17.9578 13.42 18.2218C13.0953 17.9578 12.6624 17.4296 12.6624 16.8134C12.6624 16.1972 13.0953 15.669 13.42 15.3169Z" fill="#212322"/>
</g>
<defs>
<clipPath id="clip0_1460_4401">
<rect width="25" height="25" fill="white"/>
</clipPath>
</defs>
</svg>
