<svg width="129" height="131" viewBox="0 0 129 131" fill="none" xmlns="http://www.w3.org/2000/svg">
<g clip-path="url(#clip0_1460_4804)">
<path opacity="0.25" d="M64.5 130.5C100.122 130.5 129 101.622 129 66C129 30.3776 100.122 1.5 64.5 1.5C28.8776 1.5 0 30.3776 0 66C0 101.622 28.8776 130.5 64.5 130.5Z" fill="#C4C4D7"/>
<path d="M106.9 70C105.3 70 104 71.3 104 72.9V77.6H120.9V70H106.9Z" fill="#E7905F"/>
<path d="M25.6997 70H11.6997V77.6H28.5997V72.9C28.5997 71.3 27.2997 70 25.6997 70Z" fill="#E7905F"/>
<path d="M119.1 103.2H102.2V109H119.1V103.2Z" fill="#212322"/>
<path d="M41.0998 85H91.4998L94.7998 70H37.7998L41.0998 85Z" fill="#A1A76F"/>
<path d="M30.4996 103.2H13.5996V109H30.4996V103.2Z" fill="#212322"/>
<path d="M121.9 50.2H112.7C112.1 50.2 111.5 50.4 111.1 50.7L113.1 57.4C115 57.5 116.8 58.2 118.3 59.2H122C122.4 59.2 122.8 58.8 122.8 58.4V51C122.7 50.5 122.4 50.2 121.9 50.2Z" fill="#C4C4D7"/>
<path d="M19.5999 57.3L21.6999 50.2C21.1999 49.9 20.5999 49.6 19.8999 49.6H10.6999C10.2999 49.6 9.8999 50 9.8999 50.4V58.3C9.8999 58.7 10.2999 59.1 10.6999 59.1H14.3999C15.8999 58.1 17.6999 57.5 19.5999 57.3Z" fill="#C4C4D7"/>
<path d="M117.7 60.7001C117.3 60.4001 116.9 60.1001 116.5 59.9001C115.9 59.6001 115.2 59.3 114.5 59.1C113.8 58.9 113.1 58.8 112.4 58.8H109.5H108.7H108H24.6997H23.8997H23.0997H20.1997C19.4997 58.8 18.7997 58.9 18.0997 59.1C17.3997 59.3 16.6997 59.5001 16.0997 59.9001C15.6997 60.1001 15.2997 60.4001 14.8997 60.7001C12.9997 62.2001 11.6997 64.6001 11.6997 67.3001V68.4001H25.6997C28.1997 68.4001 30.1997 70.4001 30.1997 72.9001V78.4001C30.1997 78.8001 29.7997 79.2 29.3997 79.2H11.6997V85H39.3997L35.9997 69.3001C35.8997 69.1001 35.9997 68.8 36.1997 68.6C36.2997 68.4 36.5997 68.3001 36.7997 68.3001H95.7997C95.9997 68.3001 96.2997 68.4 96.3997 68.6C96.4997 68.8 96.5997 69.0001 96.5997 69.3001L93.0997 85H120.8V79.2H103.1C102.7 79.2 102.3 78.8001 102.3 78.4001V72.9001C102.3 70.4001 104.3 68.4001 106.8 68.4001H120.8V67.3001C120.9 64.7001 119.6 62.3001 117.7 60.7001ZM24.6997 59.9001C24.6997 60.1001 24.5997 60.3 24.4997 60.5C24.5997 60.4 24.6997 60.2001 24.6997 59.9001ZM108 59.9001C108 60.1001 108.1 60.3 108.2 60.5C108 60.4 108 60.2001 108 59.9001Z" fill="#C4C4D7"/>
<path d="M40.4997 86.6H11.6997V101.6H12.7997H31.2997H48.9997V96.9C48.9997 96.5 49.3997 96.1 49.7997 96.1H82.9997C83.3997 96.1 83.7997 96.5 83.7997 96.9V101.6H101.5H120H121.1V86.6H92.0997H40.4997ZM23.8997 95.8H20.1997C19.7997 95.8 19.3997 95.4 19.3997 95C19.3997 94.6 19.7997 94.2 20.1997 94.2H23.8997C24.2997 94.2 24.6997 94.6 24.6997 95C24.6997 95.4 24.2997 95.8 23.8997 95.8ZM108.7 94.2H112.4C112.8 94.2 113.2 94.6 113.2 95C113.2 95.4 112.8 95.8 112.4 95.8H108.7C108.3 95.8 107.9 95.4 107.9 95C108 94.6 108.3 94.2 108.7 94.2Z" fill="#C4C4D7"/>
<path d="M109.8 52.1L109.5 50.9L109.3 50.1L103.6 31C103 28.9 101.2 27.5 98.9997 27.5H86.9997C86.5997 27.5 86.1997 27.1 86.1997 26.7H34.3997C34.3997 27.1 33.9997 27.5 33.5997 27.5C31.4997 27.5 29.5997 28.9 28.9997 31L21.1997 57.3H108H108.8H109.6H111.4L109.8 52.1Z" fill="#F3F9FE"/>
<path d="M50.5 97.6V101.6V102.4V103.2V103.4H82.1V103.2V102.4V101.6V97.6H50.5Z" fill="#D8D3A0"/>
<path d="M120.5 47.1H111.3C110.5 47.1 109.8 47.3 109.2 47.6L103.7 29.1C103 26.4 100.4 24.4 97.5998 24.4H73.5998C73.1998 24.4 72.7998 24.8 72.7998 25.2C72.7998 25.6 73.1998 26 73.5998 26H97.5998C99.6998 26 101.6 27.4 102.2 29.5L107.9 48.6L108.1 49.4L108.4 50.6L110 55.8H108.2H107.4H106.6H23.1998H22.3998H21.5998H19.7998L21.3998 50.3L21.7998 49L21.9998 48.2L27.5998 29.5C28.1998 27.4 29.9998 26 32.1998 26C32.5998 26 32.9998 25.6 32.9998 25.2C32.9998 24.8 32.5998 24.4 32.1998 24.4C29.3998 24.4 26.7998 26.3 26.0998 29L20.6998 47.1C19.9998 46.7 19.2998 46.5 18.4998 46.5H9.1998C7.8998 46.5 6.7998 47.6 6.7998 48.9V56.8C6.7998 58.1 7.8998 59.2 9.1998 59.2H11.1998C9.6998 61 8.6998 63.3 8.6998 65.8V67.6V76.8V84.2V100.8C8.6998 101.2 9.0998 101.6 9.4998 101.6H10.5998V107.4C10.5998 108.3 11.2998 109 12.1998 109H29.8998C30.2998 109 30.6998 108.6 30.6998 108.2V101.6H47.5998V102.7C47.5998 103.1 47.9998 103.5 48.3998 103.5H81.5998C81.9998 103.5 82.3998 103.1 82.3998 102.7V101.6H99.2998V108.2C99.2998 108.6 99.6998 109 100.1 109H117.8C118.7 109 119.4 108.3 119.4 107.4V101.6H120.5C120.9 101.6 121.3 101.2 121.3 100.8V84.3V76.9V67.7V65.9C121.3 63.4 120.4 61.1 118.8 59.3H120.8C122.1 59.3 123.2 58.2 123.2 56.9V49.5C122.8 48.2 121.8 47.1 120.5 47.1ZM121.3 56.9C121.3 57.3 120.9 57.7 120.5 57.7H116.8C115.3 56.7 113.5 56 111.6 55.9L109.6 49.2C110.1 48.9 110.6 48.7 111.2 48.7H120.4C120.8 48.7 121.2 49.1 121.2 49.5V56.9H121.3ZM119.4 65.9V67H105.4C102.9 67 100.9 69 100.9 71.5V77C100.9 77.4 101.3 77.8 101.7 77.8H119.4V83.6H91.6998L95.1998 68C95.2998 67.8 95.1998 67.5 94.9998 67.3C94.7998 67.1 94.5998 67 94.3998 67H35.3998C35.1998 67 34.8998 67.1 34.7998 67.3C34.6998 67.5 34.5998 67.7 34.5998 68L37.9998 83.5H10.2998V77.7H27.9998C28.3998 77.7 28.7998 77.3 28.7998 76.9V71.4C28.7998 68.9 26.7998 66.9 24.2998 66.9H10.2998V65.8C10.2998 63.1 11.4998 60.8 13.4998 59.2C13.8998 58.9 14.2998 58.6 14.6998 58.4C15.2998 58.1 15.9998 57.8 16.6998 57.6C17.3998 57.4 18.0998 57.3 18.7998 57.3H21.6998H22.4998H23.2998H106.6H107.4H108.2H111.1C111.8 57.3 112.5 57.4 113.2 57.6C113.9 57.8 114.6 58 115.2 58.4C115.6 58.6 116 58.9 116.4 59.2C118.2 60.8 119.4 63.2 119.4 65.9ZM119.4 100.1H118.3H99.8998H82.1998V95.4C82.1998 95 81.7998 94.6 81.3998 94.6H48.1998C47.7998 94.6 47.3998 95 47.3998 95.4V100.1H29.7998H11.2998H10.1998V85.1H38.9998H90.6998H119.4V100.1ZM117.6 107.5H100.7V101.7H117.6V107.5ZM80.6998 101.7V102H48.9998V101.7V100.9V100.1V96.1H80.5998V100.1V100.9V101.7H80.6998ZM28.9998 107.5H12.0998V101.7H28.9998V107.5ZM10.2998 76.1V68.5H24.2998C25.8998 68.5 27.1998 69.8 27.1998 71.4V76.1H10.2998V76.1ZM39.5998 83.5L36.2998 68.5H93.3998L90.0998 83.5H39.5998ZM119.4 76.1H102.5V71.4C102.5 69.8 103.8 68.5 105.4 68.5H119.4V76.1ZM8.3998 56.9V49C8.3998 48.6 8.7998 48.2 9.1998 48.2H18.3998C19.0998 48.2 19.6998 48.4 20.1998 48.8L18.0998 55.9C16.1998 56 14.3998 56.7 12.8998 57.7H9.1998C8.7998 57.7 8.3998 57.3 8.3998 56.9Z" fill="#212322"/>
<path d="M107.3 94.3H111C111.4 94.3 111.8 93.9 111.8 93.5C111.8 93.1 111.4 92.7 111 92.7H107.3C106.9 92.7 106.5 93.1 106.5 93.5C106.5 94 106.8 94.3 107.3 94.3Z" fill="#212322"/>
<path d="M22.3999 92.7H18.6999C18.2999 92.7 17.8999 93.1 17.8999 93.5C17.8999 93.9 18.2999 94.3 18.6999 94.3H22.3999C22.7999 94.3 23.1999 93.9 23.1999 93.5C23.1999 93.1 22.7999 92.7 22.3999 92.7Z" fill="#212322"/>
<path d="M48.6999 20.2C48.4999 20.1 48.2999 20 48.0999 19.9C47.8999 19.8 47.7999 19.8 47.3999 19.8H42.3999C42.3999 19.8 42.6999 21.3 43.4999 22.6C43.7999 22.6 47.7999 22.6 47.9999 22.5C48.1999 22.4 48.4999 22.4 48.5999 22.2C48.8999 21.9 48.9999 21.8 48.9999 21.2C48.9999 21 48.9999 20.8 48.8999 20.7C48.9999 20.5 48.8999 20.3 48.6999 20.2Z" fill="#212322"/>
<path d="M56 5.29999V10.6H62.8C61.3 7.99999 58.9 6.09999 56 5.29999Z" fill="#212322"/>
<path d="M52.8998 0C43.6998 0 36.2998 7.4 36.2998 16.6C36.2998 25.8 43.6998 33.2 52.8998 33.2C62.0998 33.2 69.4998 25.8 69.4998 16.6C69.4998 7.4 62.0998 0 52.8998 0ZM40.0998 10.6H42.2998V12.2C42.2998 12.7 42.6998 13 43.0998 13H48.0998H48.4998C48.9998 13 49.2998 12.6 49.2998 12.2V4.1C49.2998 3.4 49.7998 2.9 50.4998 2.9H51.3998V12.2C51.3998 13.8 50.0998 15.2 48.3998 15.2H43.3998H42.9998C41.3998 15.2 39.9998 13.9 39.9998 12.2V10.6H40.0998ZM51.5998 30.2H50.7998C50.4998 30.2 50.0998 30.1 49.8998 29.9C49.6998 29.7 49.4998 29.4 49.4998 29.1V26.1C49.4998 25.8 49.4998 25.6 49.3998 25.4C49.2998 25.2 49.1998 25 49.0998 24.8C48.8998 24.7 48.6998 24.6 48.4998 24.5C48.2998 24.4 47.9998 24.4 47.6998 24.4H44.7998C44.7998 24.4 46.1998 26.1 47.0998 26.6V28.7C41.6998 25.7 40.5998 21.2 40.1998 19.2L39.9998 18H47.0998C48.0998 18 48.5998 18.1 49.1998 18.2C49.7998 18.3 50.2998 18.5 50.5998 18.7C50.8998 18.9 51.0998 19.2 51.2998 19.5C51.4998 19.9 51.4998 20.3 51.4998 20.8C51.4998 21.1 51.4998 21.8 51.3998 22C51.2998 22.3 51.1998 22.5 50.9998 22.7C50.7998 22.9 50.5998 23 50.3998 23.1C50.0998 23.2 49.7998 23.3 49.3998 23.3C49.7998 23.4 50.0998 23.4 50.3998 23.6C50.6998 23.7 50.8998 23.8 50.9998 24C51.1998 24.2 51.2998 24.3 51.3998 24.5C51.4998 24.7 51.4998 25 51.4998 25.3L51.5998 30.2ZM55.1998 3.1C58.0998 3.7 60.6998 5.1 62.6998 7.3C64.6998 9.5 65.9998 12.2 66.3998 15.2V15.3H64.4998V15.2C64.3998 14.6 64.2998 14 64.0998 13.4L63.6998 12.3H55.9998V15.2H55.4998C54.6998 15.2 53.9998 14.5 53.9998 13.7V2.8L55.1998 3.1ZM64.8998 19.8H56.8998C56.3998 19.8 55.9998 20.2 55.9998 20.7V21.5C55.9998 22 56.3998 22.4 56.8998 22.4H61.4998C62.3998 22.4 63.0998 23.1 63.1998 24C63.1998 24.4 63.0998 24.7 62.8998 25C62.8998 25 60.1998 29.1 54.0998 30.2V28.4C55.3998 28.1 57.5998 27.1 59.3998 25.8C59.6998 25.5 60.4998 24.9 61.0998 24.3H56.9998C55.3998 24.3 54.1998 22.9 54.1998 21.3V21.4V21.3V20.7C54.1998 19.1 55.4998 17.9 56.9998 17.9H66.1998V18.6C66.1998 19.2 65.5998 19.8 64.8998 19.8Z" fill="#212322"/>
</g>
<defs>
<clipPath id="clip0_1460_4804">
<rect width="129" height="130.5" fill="white"/>
</clipPath>
</defs>
</svg>
