<svg width="25" height="25" viewBox="0 0 25 25" fill="none" xmlns="http://www.w3.org/2000/svg">
<g clip-path="url(#clip0_1460_4605)">
<path d="M1.93706 19.5651L18.0065 5.77575C18.658 5.23286 18.9837 4.47282 18.8752 3.60419C18.8752 3.38704 18.8752 3.16988 18.9837 3.06131L19.6352 1.97553C19.8524 1.54122 19.8524 0.998353 19.4181 0.67262C19.0923 0.346887 18.5494 0.238296 18.1151 0.455451L17.0293 1.10692C16.8122 1.2155 16.7036 1.21551 16.4865 1.21551C15.6178 1.21551 14.8578 1.54123 14.3149 2.08412L0.52555 18.1536C0.199817 18.4794 0.199817 19.1308 0.52555 19.4565C0.95986 19.8908 1.50275 19.8909 1.93706 19.5651Z" fill="#F3F9FE"/>
<path d="M18.8911 3.59798C18.8911 3.38083 18.8911 3.16367 18.9997 3.0551L19.6511 1.96932C19.7597 1.75216 19.8683 1.535 19.7597 1.31785C17.5882 3.92371 14.4394 7.07247 10.8564 10.2212C7.27329 13.37 3.69025 16.0844 0.86723 17.9302L0.650061 18.256C0.324328 18.5817 0.324328 19.2332 0.650061 19.5589C0.975794 19.8846 1.5187 19.8846 1.95301 19.5589L18.0225 5.76954C18.5654 5.22665 18.8911 4.35803 18.8911 3.59798Z" fill="#F3F9FE"/>
<path d="M1.93688 19.5651L7.04003 15.222L4.97705 13.1591L0.633948 18.2622C0.308215 18.5879 0.308215 19.2394 0.633948 19.5651C0.959681 19.8909 1.50257 19.8909 1.93688 19.5651Z" fill="#D8D3A0"/>
<path d="M6.06381 14.2371C4.21799 15.6486 2.48074 16.9515 0.852077 17.9287L0.634925 18.2545C0.309192 18.5802 0.309192 19.2317 0.634925 19.5574C0.960658 19.8831 1.50354 19.8831 1.93785 19.5574L7.04101 15.2143L6.06381 14.2371Z" fill="#D8D3A0"/>
<path d="M6.76568 24.3933L22.8352 10.604C23.4866 10.0611 23.8124 9.30103 23.7038 8.43241C23.7038 8.21526 23.7038 7.9981 23.8124 7.88952L24.4638 6.80375C24.681 6.36944 24.681 5.82657 24.2467 5.50084C23.9209 5.1751 23.378 5.06651 22.9437 5.28367L21.858 5.93514C21.6408 6.04372 21.5322 6.04372 21.3151 6.04372C20.4464 6.04372 19.6864 6.36944 19.1435 6.91233L5.35416 22.9818C5.02843 23.3075 5.02843 23.959 5.35416 24.2848C5.78847 24.7191 6.43994 24.7191 6.76568 24.3933Z" fill="#F4FBFF"/>
<path d="M23.7197 8.42609C23.7197 8.20894 23.7197 7.99178 23.8283 7.8832L24.4798 6.79743C24.5883 6.58027 24.6969 6.36313 24.5883 6.14597C22.4168 8.75183 19.268 11.9006 15.685 15.0493C12.1019 18.1981 8.51883 20.9125 5.69581 22.7584L5.47867 23.0841C5.15294 23.4098 5.15294 24.0613 5.47867 24.387C5.80441 24.7128 6.34728 24.7128 6.78159 24.387L22.8511 10.5976C23.394 10.0548 23.7197 9.29471 23.7197 8.42609Z" fill="#F3F9FE"/>
<path d="M6.76549 24.3933L11.8686 20.0502L9.80567 17.9873L5.46256 23.0904C5.13683 23.4161 5.13683 24.0676 5.46256 24.3933C5.78829 24.7191 6.43976 24.7191 6.76549 24.3933Z" fill="#D8D3A0"/>
<path d="M10.8924 19.0662C9.0466 20.4777 7.30935 21.7807 5.68069 22.7579L5.46354 23.0836C5.13781 23.4093 5.13781 24.0608 5.46354 24.3865C5.78927 24.7123 6.33216 24.7123 6.76647 24.3865L11.8696 20.0434L10.8924 19.0662Z" fill="#D8D3A0"/>
<path d="M7.0305 15.5297C6.92192 15.5297 6.81335 15.5298 6.81335 15.4212L4.75038 13.3582C4.6418 13.2496 4.6418 13.0324 4.75038 12.8153C4.85896 12.7067 5.07611 12.7067 5.29327 12.8153L7.35624 14.8783C7.46481 14.9869 7.46481 15.204 7.35624 15.4212C7.24766 15.5298 7.13908 15.5297 7.0305 15.5297Z" fill="#212322"/>
<path d="M1.26051 20.1093C0.934781 20.1093 0.609045 20.0008 0.39189 19.675C-0.042421 19.2407 -0.150989 18.3721 0.283322 17.9378L5.7122 11.6403C5.82078 11.5317 6.03794 11.4231 6.25509 11.6403C6.36367 11.7489 6.47225 11.966 6.25509 12.1832L0.82621 18.4807C0.609055 18.6978 0.609055 19.0236 0.82621 19.2407C0.934788 19.3493 1.04336 19.4579 1.26051 19.4579C1.36909 19.4579 1.47767 19.4579 1.58625 19.3493L17.6557 5.55993C18.1986 5.12562 18.5244 4.47416 18.4158 3.71412C18.4158 3.71412 18.4158 3.71413 18.4158 3.60555C18.4158 3.38839 18.5244 3.06265 18.6329 2.84549L19.2844 1.75972C19.393 1.54256 19.393 1.10826 19.1758 0.891109C19.0672 0.782531 18.8501 0.67394 18.7415 0.67394C18.6329 0.67394 18.5244 0.673947 18.4158 0.782525L17.33 1.434C17.1129 1.54257 16.7871 1.65115 16.57 1.65115H16.4614C15.8099 1.65115 15.1585 1.97688 14.7242 2.41119L7.44944 10.8802C7.34086 10.9888 7.1237 11.0974 6.90655 10.8802C6.68939 10.6631 6.68939 10.5545 6.90655 10.3374L14.1813 1.8683C14.7242 1.21684 15.5928 0.782525 16.4614 0.782525H16.57C16.6785 0.782525 16.7871 0.782518 16.8957 0.67394L17.9815 0.0224846C18.1986 -0.086093 18.4158 -0.194667 18.7415 -0.194667C19.0673 -0.194667 19.5016 -0.0860963 19.7187 0.239637C20.153 0.673947 20.2616 1.434 19.9359 1.97689L19.2844 3.06266C19.1758 3.17124 19.1758 3.2798 19.1758 3.38838C19.1758 4.36558 18.8501 5.23421 18.09 5.7771L2.12914 19.7836C1.91198 20.0008 1.58625 20.1093 1.26051 20.1093Z" fill="#212322"/>
<path d="M15.2578 8.38538C15.0406 8.38538 14.9321 8.2768 14.9321 8.05964L14.0635 2.19645C14.0635 1.97929 14.172 1.76214 14.3892 1.76214C14.6064 1.76214 14.8235 1.87072 14.8235 2.08787L15.6921 7.95107C15.6921 8.16822 15.5835 8.38538 15.2578 8.38538C15.2578 8.38538 15.3664 8.38538 15.2578 8.38538Z" fill="#212322"/>
<path d="M12.0936 11.1025C11.8764 11.1025 11.7679 10.994 11.7679 10.7768L11.0078 5.78224C11.0078 5.56509 11.1164 5.34793 11.3335 5.34793C11.5507 5.34793 11.7679 5.4565 11.7679 5.67366L12.5279 10.6682C12.5279 10.8854 12.4193 11.1025 12.0936 11.1025C12.2022 11.1025 12.2022 11.1025 12.0936 11.1025Z" fill="#212322"/>
<path d="M8.92885 13.8197C8.7117 13.8197 8.60312 13.7111 8.60312 13.494L7.95166 9.25943C7.95166 9.04227 8.06024 8.82512 8.2774 8.82512C8.49455 8.82512 8.7117 8.93371 8.7117 9.15086L9.36317 13.3854C9.36317 13.6025 9.25459 13.8197 8.92885 13.8197C9.03743 13.8197 9.03743 13.8197 8.92885 13.8197Z" fill="#212322"/>
<path d="M11.8591 20.359C11.7506 20.359 11.642 20.359 11.642 20.2504L9.57899 18.1875C9.47041 18.0789 9.47041 17.8617 9.57899 17.6446C9.68757 17.536 9.90472 17.536 10.1219 17.6446L12.1849 19.7075C12.2934 19.8161 12.2934 20.0333 12.1849 20.2504C12.0763 20.359 11.9677 20.359 11.8591 20.359Z" fill="#212322"/>
<path d="M6.157 24.9824C5.83127 24.9824 5.50553 24.8739 5.28837 24.5481C4.85406 24.1138 4.7455 23.2452 5.17981 22.8109L7.24277 20.4221C7.35135 20.3136 7.56851 20.205 7.78566 20.4221C7.89424 20.5307 8.00282 20.7479 7.78566 20.965L5.72269 23.3538C5.50554 23.5709 5.50554 23.8967 5.72269 24.1138C5.83127 24.2224 5.93984 24.3309 6.157 24.3309C6.26558 24.3309 6.37416 24.3309 6.48273 24.2224L17.7748 14.4504C17.8834 14.3418 18.2091 14.3418 18.3177 14.4504C18.4263 14.559 18.4263 14.8847 18.3177 14.9933L7.02562 24.7653C6.80847 24.8738 6.48273 24.9824 6.157 24.9824Z" fill="#212322"/>
<path d="M8.69751 19.76C8.58893 19.76 8.48036 19.76 8.48036 19.6515C8.37178 19.5429 8.2632 19.3257 8.48036 19.1086L19.121 6.83928C19.6639 6.18781 20.5325 5.7535 21.4011 5.7535H21.5097C21.6182 5.7535 21.7268 5.75353 21.8354 5.64495L22.9212 4.99348C23.1383 4.8849 23.3555 4.77631 23.6812 4.77631C24.007 4.77631 24.4413 4.88488 24.6584 5.21061C25.0927 5.64492 25.2013 6.40497 24.8756 6.94786L24.2241 8.03364C24.1155 8.14221 24.1155 8.25081 24.1155 8.35939C24.1155 9.33659 23.7898 10.2052 23.0297 10.7481L19.6639 13.6797C19.5553 13.7883 19.2295 13.7883 19.121 13.6797C19.0124 13.5711 19.0124 13.2454 19.121 13.1368L22.4869 10.2052C23.0297 9.77088 23.3555 9.11943 23.2469 8.35939C23.2469 8.35939 23.2469 8.35938 23.2469 8.2508C23.2469 8.03365 23.3555 7.7079 23.4641 7.49075L24.1155 6.40497C24.2241 6.18782 24.2241 5.75352 24.007 5.53636C23.8984 5.42779 23.6812 5.3192 23.5726 5.3192C23.4641 5.3192 23.3555 5.3192 23.2469 5.42778L22.1611 6.07925C21.944 6.18783 21.6182 6.29639 21.4011 6.29639H21.2925C20.6411 6.29639 19.9896 6.62213 19.5553 7.05644L8.91466 19.3257C8.91466 19.6514 8.80608 19.76 8.69751 19.76Z" fill="#212322"/>
<path d="M20.0865 13.2134C19.8693 13.2134 19.7607 13.1048 19.7607 12.8877L18.8921 7.02446C18.8921 6.8073 19.0007 6.59015 19.2178 6.59015C19.435 6.59015 19.6521 6.69873 19.6521 6.91589L20.5208 12.7791C20.5208 12.9962 20.4122 13.2134 20.0865 13.2134C20.195 13.2134 20.195 13.2134 20.0865 13.2134Z" fill="#212322"/>
<path d="M17.0311 15.9316C16.8139 15.9316 16.7053 15.823 16.7053 15.6059L15.9453 10.6113C15.9453 10.3941 16.0539 10.177 16.271 10.177C16.4882 10.177 16.7053 10.2856 16.7053 10.5027L17.4654 15.4973C17.3568 15.7144 17.2482 15.9316 17.0311 15.9316Z" fill="#212322"/>
<path d="M13.8659 18.6489C13.6487 18.6489 13.5401 18.5403 13.5401 18.3231L12.8887 14.0886C12.8887 13.8715 12.9972 13.6543 13.2144 13.6543C13.4315 13.6543 13.6487 13.7629 13.6487 13.98L14.3002 18.2146C14.1916 18.4317 14.083 18.6489 13.8659 18.6489Z" fill="#212322"/>
</g>
<defs>
<clipPath id="clip0_1460_4605">
<rect width="25" height="25" fill="white"/>
</clipPath>
</defs>
</svg>
