<svg width="14" height="28" viewBox="0 0 14 28" fill="none" xmlns="http://www.w3.org/2000/svg">
<g clip-path="url(#clip0_1460_4680)">
<path d="M4.5 6.83163V2.50173C4.5 1.34709 5.4 0.48111 6.6 0.48111C7.8 0.48111 8.7 1.34709 8.7 2.50173V6.83163H4.5Z" fill="#C4C4D7"/>
<path d="M8.7 5.29211V6.83163H4.5V5.29211H8.7Z" fill="#C4C4D7"/>
<path d="M10.5997 6.83163V9.91067H2.69971V6.83163H10.5997Z" fill="#C4C4D7"/>
<path d="M12.0999 27.5189H1.0999C0.699902 27.5189 0.399902 27.2303 0.399902 26.8454V10.488C0.399902 10.1031 0.699902 9.81445 1.0999 9.81445H11.9999C12.3999 9.81445 12.6999 10.1031 12.6999 10.488V26.9416C12.6999 27.2303 12.3999 27.5189 12.0999 27.5189Z" fill="#D8D3A0"/>
<path d="M12.1 9.81445H10.5C10.9 9.81445 11.2 10.1031 11.2 10.488V26.9416C11.2 27.3265 10.9 27.6151 10.5 27.6151H12.1C12.5 27.6151 12.8 27.3265 12.8 26.9416V10.488C12.7 10.1031 12.4 9.81445 12.1 9.81445Z" fill="#D8D3A0"/>
<path d="M13.2 10.488C13.2 9.91065 12.7 9.42955 12.1 9.42955H11.1V6.83161C11.1 6.54295 10.9 6.35052 10.6 6.35052H9.2V2.50172C9.2 1.15464 8 0 6.6 0C5.2 0 4 1.15464 4 2.50172V6.35052H2.7C2.4 6.35052 2.2 6.54295 2.2 6.83161V9.42955H1.2C0.5 9.33333 0 9.81443 0 10.488V20.3986C0 20.6873 0.2 20.8797 0.5 20.8797C0.8 20.8797 1 20.6873 1 20.3986V12.3162H12.3V25.0172H1V22.5155C1 22.323 0.8 22.1306 0.5 22.1306C0.2 22.1306 0 22.323 0 22.6117V26.9416C0 27.5189 0.5 28 1.1 28H12C12.6 28 13.1 27.5189 13.1 26.9416L13.2 10.488ZM5 2.50172C5 1.63574 5.7 0.962199 6.6 0.962199C7.5 0.962199 8.2 1.63574 8.2 2.50172V6.35052H5V2.50172ZM3.1 7.31271H10V9.42955H3.1V7.31271ZM1 11.354V10.3918C1 10.2955 1.1 10.1993 1.2 10.1993H12.1C12.2 10.1993 12.3 10.2955 12.3 10.3918V11.354H1ZM12.1 27.134H1.1C1.1 27.134 1 27.0378 1 26.9416V25.9794H12.3V26.9416C12.2 27.0378 12.2 27.134 12.1 27.134Z" fill="#212322"/>
</g>
<defs>
<clipPath id="clip0_1460_4680">
<rect width="13.2" height="28" fill="white"/>
</clipPath>
</defs>
</svg>
