<svg width="25" height="25" viewBox="0 0 25 25" fill="none" xmlns="http://www.w3.org/2000/svg">
<g clip-path="url(#clip0_1460_4667)">
<path d="M20.7695 24.3119H4.23099C2.21176 24.3119 0.577148 22.3624 0.577148 19.9541V12.5C0.577148 11.3532 1.34638 10.4358 2.30792 10.4358H22.6925C23.6541 10.4358 24.4233 11.3532 24.4233 12.5V19.9541C24.4233 22.3624 22.7887 24.3119 20.7695 24.3119Z" fill="#C4C4D7"/>
<path d="M2.59619 6.76605H22.4039V10.3211H2.59619V6.76605Z" fill="#F3F9FE"/>
<path d="M21.3462 6.76607C21.3462 4.70185 19.9038 2.98166 18.1731 2.98166C16.8269 2.98166 15.6731 2.17891 15 0.802765L14.6154 1.37616C13.9423 2.40827 12.8846 3.09634 11.7308 3.09634H6.92308C5.19231 3.09634 3.75 4.81653 3.75 6.88075H21.3462V6.76607Z" fill="#D8D3A0"/>
<path d="M23.0769 9.63303V6.76606C23.0769 6.30734 22.7885 5.9633 22.4038 5.9633H21.9231C21.6346 3.7844 20 2.1789 18.1731 2.1789C17.1154 2.1789 16.0577 1.49083 15.5769 0.344037C15.4808 0.114679 15.2885 0 15.0962 0C14.9038 0 14.7115 0.114679 14.5192 0.344037L14.1346 0.917431C13.5577 1.83486 12.6923 2.29358 11.8269 2.29358H6.92308C5 2.29358 3.46154 3.89908 3.17308 6.07798H2.59615C2.21154 6.07798 1.92308 6.42202 1.92308 6.88073V9.74771C0.865385 9.86239 0 11.0092 0 12.3853V19.8395C0 22.5917 1.92308 24.8853 4.23077 24.8853H20.7692C23.0769 24.8853 25 22.5917 25 19.8395V12.3853C25 11.0092 24.1346 9.86239 23.0769 9.63303ZM6.92308 3.66973H11.8269C13.0769 3.66973 14.2308 2.98165 15 1.94954C15.7692 2.98165 16.9231 3.66973 18.1731 3.66973C19.4231 3.66973 20.3846 4.70183 20.6731 5.9633H4.32692C4.61538 4.70183 5.67308 3.66973 6.92308 3.66973ZM23.75 19.9541C23.75 21.9037 22.4038 23.5092 20.7692 23.5092H4.23077C2.59615 23.5092 1.25 21.9037 1.25 19.9541V12.5C1.25 11.8119 1.73077 11.2385 2.30769 11.2385H9.71154C10.0962 11.2385 10.3846 10.8945 10.3846 10.4358C10.3846 9.97707 10.0962 9.63303 9.71154 9.63303H3.26923V7.56881H21.8269V9.63303H15.3846C15 9.63303 14.7115 9.97707 14.7115 10.4358C14.7115 10.8945 15 11.2385 15.3846 11.2385H22.7885C23.3654 11.2385 23.8462 11.8119 23.8462 12.5V19.9541H23.75Z" fill="#212322"/>
<path d="M12.5002 11.2385C12.872 11.2385 13.1733 10.8791 13.1733 10.4358C13.1733 9.99243 12.872 9.63303 12.5002 9.63303C12.1285 9.63303 11.8271 9.99243 11.8271 10.4358C11.8271 10.8791 12.1285 11.2385 12.5002 11.2385Z" fill="#212322"/>
<path d="M22.5 10.4358H24.0385V23.1652H22.5V10.4358Z" fill="#C4C4D7"/>
<path d="M20.5771 6.99542H22.1156V10.7798H20.5771V6.99542Z" fill="#F3F9FE"/>
</g>
<defs>
<clipPath id="clip0_1460_4667">
<rect width="25" height="25" fill="white"/>
</clipPath>
</defs>
</svg>
