<svg width="95" height="144" viewBox="0 0 95 144" fill="none" xmlns="http://www.w3.org/2000/svg">
<g clip-path="url(#clip0_1460_4712)">
<path d="M87.9998 28.8V22.6C87.9998 19.7 85.5998 17.3 82.6998 17.3H60.1998V24.1C60.1998 26.1 58.5998 27.6 56.6998 27.6H49.5998C47.5998 27.6 46.0998 26 46.0998 24.1V17.3H24.5998C21.6998 17.3 19.2998 19.7 19.2998 22.6V138.6C19.2998 141.5 21.6998 143.9 24.5998 143.9H82.5998C85.4998 143.9 87.8998 141.5 87.8998 138.6V88.9C87.8998 88.4 88.2998 88 88.7998 88V66C85.1998 71.7 81.4998 76.5 81.1998 76.9C80.9998 77.1 80.7998 77.2 80.4998 77.2C80.1998 77.2 79.9998 77.2 79.8998 77C79.2998 76.2 65.1998 57.8 65.1998 49.6C65.1998 41.1 72.0998 34.2 80.5998 34.2C83.6998 34.2 86.4998 35.1 88.8998 36.7V29.8C88.3998 29.7 87.9998 29.3 87.9998 28.8ZM76.3998 110.8C76.8998 110.8 77.2998 111.2 77.2998 111.7C77.2998 112.2 76.8998 112.6 76.3998 112.6H63.9998C63.4998 112.6 63.0998 112.2 63.0998 111.7C63.0998 111.2 63.4998 110.8 63.9998 110.8H76.3998ZM64.5998 103.4C64.5998 102.9 64.9998 102.5 65.4998 102.5H68.1998C68.6998 102.5 69.0998 102.9 69.0998 103.4C69.0998 103.9 68.6998 104.3 68.1998 104.3H65.4998C64.9998 104.3 64.5998 103.9 64.5998 103.4ZM70.7998 103.4C70.7998 102.9 71.1998 102.5 71.6998 102.5H74.3998C74.8998 102.5 75.2998 102.9 75.2998 103.4C75.2998 103.9 74.8998 104.3 74.3998 104.3H71.6998C71.1998 104.3 70.7998 103.9 70.7998 103.4ZM61.6998 75.6C62.1998 75.6 62.5998 76 62.5998 76.5C62.5998 77 62.1998 77.4 61.6998 77.4C61.1998 77.4 60.7998 77 60.7998 76.5C60.7998 75.9 61.1998 75.6 61.6998 75.6ZM58.9998 76.4C58.9998 76.9 58.5998 77.3 58.0998 77.3C57.5998 77.3 57.1998 76.9 57.1998 76.4C57.1998 75.9 57.5998 75.5 58.0998 75.5C58.5998 75.6 58.9998 75.9 58.9998 76.4ZM57.6998 47.8H57.5998C57.0998 47.7 56.7998 47.3 56.8998 46.8C56.9998 46.3 57.3998 46 57.8998 46.1C58.3998 46.2 58.6998 46.6 58.5998 47.1C58.4998 47.5 58.0998 47.8 57.6998 47.8ZM58.4998 43.3C58.5998 43.8 58.2998 44.2 57.7998 44.3C57.6998 44.3 57.6998 44.3 57.5998 44.3C57.1998 44.3 56.7998 44 56.6998 43.6C56.5998 43.1 56.8998 42.7 57.3998 42.6C57.8998 42.5 58.3998 42.8 58.4998 43.3ZM54.8998 53.7C54.6998 53.9 54.4998 53.9 54.2998 53.9C54.0998 53.9 53.7998 53.8 53.5998 53.6C53.2998 53.2 53.2998 52.7 53.6998 52.3C54.0998 52 54.5998 52 54.9998 52.4C55.2998 52.8 55.2998 53.4 54.8998 53.7ZM53.3998 36.9C53.6998 36.5 54.2998 36.5 54.6998 36.8C55.0998 37.1 55.0998 37.7 54.7998 38C54.5998 38.2 54.3998 38.3 54.0998 38.3C53.8998 38.3 53.6998 38.2 53.4998 38.1C53.1998 37.8 53.0998 37.2 53.3998 36.9ZM52.1998 54.6C52.3998 55.1 52.1998 55.6 51.6998 55.8C51.5998 55.9 51.4998 55.9 51.3998 55.9C51.0998 55.9 50.6998 55.7 50.5998 55.3C50.3998 54.8 50.5998 54.3 51.0998 54.1C51.4998 53.9 51.9998 54.2 52.1998 54.6ZM50.1998 35.3C50.3998 34.8 50.8998 34.6 51.2998 34.8C51.7998 35 51.9998 35.5 51.7998 35.9C51.6998 36.3 51.2998 36.5 50.9998 36.5C50.8998 36.5 50.7998 36.5 50.6998 36.4C50.2998 36.3 49.9998 35.8 50.1998 35.3ZM50.9998 75.6C51.4998 75.6 51.8998 76 51.8998 76.5C51.8998 77 51.4998 77.4 50.9998 77.4C50.4998 77.4 50.0998 77 50.0998 76.5C50.0998 75.9 50.4998 75.6 50.9998 75.6ZM48.7998 55.7C48.7998 56.2 48.3998 56.6 47.8998 56.6C47.3998 56.6 46.9998 56.2 46.9998 55.7C46.9998 55.2 47.3998 54.8 47.7998 54.8C48.3998 54.8 48.7998 55.2 48.7998 55.7ZM47.5998 34.1C48.0998 34.1 48.4998 34.5 48.4998 35C48.4998 35.5 48.0998 35.9 47.5998 35.9C47.0998 35.9 46.6998 35.5 46.6998 35C46.6998 34.5 47.0998 34.1 47.5998 34.1ZM47.4998 75.6C47.9998 75.6 48.3998 76 48.3998 76.5C48.3998 77 47.9998 77.4 47.4998 77.4C46.9998 77.4 46.5998 77 46.5998 76.5C46.5998 75.9 46.9998 75.6 47.4998 75.6ZM45.2998 55.7C45.2998 56.2 44.8998 56.6 44.3998 56.6C43.8998 56.6 43.4998 56.2 43.4998 55.7C43.4998 55.2 43.8998 54.8 44.3998 54.8C44.8998 54.8 45.2998 55.2 45.2998 55.7ZM43.9998 34.1C44.4998 34.1 44.8998 34.5 44.8998 35C44.8998 35.5 44.4998 35.9 43.9998 35.9C43.4998 35.9 43.0998 35.5 43.0998 35C43.1998 34.5 43.5998 34.1 43.9998 34.1ZM43.8998 75.6C44.3998 75.6 44.7998 76 44.7998 76.5C44.7998 77 44.3998 77.4 43.8998 77.4C43.3998 77.4 42.9998 77 42.9998 76.5C42.9998 75.9 43.3998 75.6 43.8998 75.6ZM41.6998 55.7C41.6998 56.2 41.2998 56.6 40.7998 56.6C40.2998 56.6 39.8998 56.2 39.8998 55.7C39.8998 55.2 40.2998 54.8 40.7998 54.8C41.2998 54.8 41.6998 55.2 41.6998 55.7ZM40.4998 34.1C40.9998 34.1 41.3998 34.5 41.3998 35C41.3998 35.5 40.9998 35.9 40.4998 35.9C39.9998 35.9 39.5998 35.5 39.5998 35C39.5998 34.5 39.9998 34.1 40.4998 34.1ZM40.3998 75.6C40.8998 75.6 41.2998 76 41.2998 76.5C41.2998 77 40.8998 77.4 40.3998 77.4C39.8998 77.4 39.4998 77 39.4998 76.5C39.4998 75.9 39.8998 75.6 40.3998 75.6ZM36.8998 34.1C37.3998 34.1 37.7998 34.5 37.7998 35C37.7998 35.5 37.3998 35.9 36.8998 35.9C36.3998 35.9 35.9998 35.5 35.9998 35C36.0998 34.5 36.4998 34.1 36.8998 34.1ZM38.1998 55.7C38.2998 56.2 37.9998 56.6 37.4998 56.7C37.3998 56.7 37.3998 56.7 37.2998 56.7C36.8998 56.7 36.4998 56.4 36.3998 56C36.2998 55.5 36.5998 55.1 37.0998 55C37.5998 54.9 38.0998 55.2 38.1998 55.7ZM35.9998 76C36.0998 75.5 36.5998 75.2 37.0998 75.3C37.5998 75.4 37.8998 75.9 37.7998 76.4C37.6998 76.8 37.2998 77.1 36.8998 77.1C36.7998 77.1 36.7998 77.1 36.6998 77.1C36.1998 76.9 35.8998 76.5 35.9998 76ZM34.6998 56.7C34.8998 57.1 34.7998 57.7 34.3998 57.9C34.2998 57.9 34.0998 58 33.9998 58C33.6998 58 33.3998 57.8 33.1998 57.6C32.9998 57.2 33.0998 56.6 33.4998 56.4C33.9998 56.1 34.4998 56.2 34.6998 56.7ZM34.2998 75.3C34.0998 75.6 33.7998 75.7 33.5998 75.7C33.3998 75.7 33.2998 75.7 33.0998 75.6C32.6998 75.3 32.5998 74.8 32.7998 74.4C33.0998 74 33.5998 73.9 33.9998 74.1C34.4998 74.3 34.5998 74.9 34.2998 75.3ZM33.3998 34.1C33.8998 34.1 34.2998 34.5 34.2998 35C34.2998 35.5 33.8998 35.9 33.3998 35.9C32.8998 35.9 32.4998 35.5 32.4998 35C32.4998 34.5 32.8998 34.1 33.3998 34.1ZM31.7998 58.7C32.1998 59 32.1998 59.6 31.8998 60C31.6998 60.2 31.4998 60.3 31.1998 60.3C30.9998 60.3 30.7998 60.2 30.5998 60.1C30.1998 59.8 30.1998 59.2 30.4998 58.8C30.8998 58.4 31.4998 58.4 31.7998 58.7ZM30.3998 71.7C30.7998 71.4 31.2998 71.5 31.5998 71.9C31.8998 72.3 31.7998 72.8 31.3998 73.2C31.1998 73.3 30.9998 73.4 30.8998 73.4C30.5998 73.4 30.3998 73.3 30.1998 73.1C29.9998 72.6 29.9998 72 30.3998 71.7ZM29.5998 70.2C29.4998 70.2 29.3998 70.2 29.2998 70.2C28.8998 70.2 28.5998 70 28.4998 69.6C28.2998 69.1 28.5998 68.6 29.0998 68.5C29.5998 68.3 30.0998 68.6 30.1998 69.1C30.2998 69.5 30.0998 70 29.5998 70.2ZM29.8998 34.1C30.3998 34.1 30.7998 34.5 30.7998 35C30.7998 35.5 30.3998 35.9 29.8998 35.9C29.3998 35.9 28.9998 35.5 28.9998 35C28.9998 34.5 29.3998 34.1 29.8998 34.1ZM28.5998 62.1C28.7998 61.6 29.2998 61.4 29.6998 61.6C30.1998 61.8 30.3998 62.3 30.1998 62.7C30.0998 63.1 29.6998 63.3 29.3998 63.3C29.2998 63.3 29.1998 63.3 29.0998 63.2C28.6998 63 28.4998 62.5 28.5998 62.1ZM28.7998 65C29.2998 65 29.6998 65.4 29.6998 65.9C29.6998 66.4 29.2998 66.8 28.7998 66.8C28.2998 66.8 27.8998 66.4 27.8998 65.9C27.8998 65.3 28.2998 65 28.7998 65ZM50.3998 134.7C50.3998 136.2 49.1998 137.4 47.6998 137.4H28.4998C26.9998 137.4 25.7998 136.2 25.7998 134.7V130C25.7998 128.5 26.9998 127.3 28.4998 127.3H47.6998C49.1998 127.3 50.3998 128.5 50.3998 130V134.7V134.7ZM54.4998 99.2V116.1C54.4998 117.6 53.2998 118.8 51.7998 118.8H28.4998C26.9998 118.8 25.7998 117.6 25.7998 116.1V99.2V92.7C25.7998 91.2 26.9998 90 28.4998 90H31.9998V88.8C31.9998 88.3 32.3998 87.9 32.8998 87.9C33.3998 87.9 33.7998 88.3 33.7998 88.8V90H46.4998V88.8C46.4998 88.3 46.8998 87.9 47.3998 87.9C47.8998 87.9 48.2998 88.3 48.2998 88.8V90H51.8998C53.3998 90 54.5998 91.2 54.5998 92.7V99.2H54.4998ZM54.5998 77.3C54.0998 77.3 53.6998 76.9 53.6998 76.4C53.6998 75.9 54.0998 75.5 54.5998 75.5C55.0998 75.5 55.4998 75.9 55.4998 76.4C55.3998 76.9 54.9998 77.3 54.5998 77.3ZM55.8998 39.4C56.2998 39.2 56.8998 39.3 57.0998 39.7C57.2998 40.1 57.1998 40.7 56.7998 40.9C56.6998 41 56.4998 41 56.3998 41C56.0998 41 55.7998 40.8 55.5998 40.6C55.3998 40.2 55.4998 39.6 55.8998 39.4ZM56.0998 51.1C55.6998 50.9 55.4998 50.3 55.6998 49.9C55.8998 49.5 56.4998 49.3 56.8998 49.5C57.2998 49.7 57.4998 50.3 57.2998 50.7C57.0998 51 56.7998 51.2 56.4998 51.2C56.3998 51.2 56.2998 51.2 56.0998 51.1ZM81.4998 134.7C81.4998 136.2 80.2998 137.4 78.7998 137.4H59.5998C58.0998 137.4 56.8998 136.2 56.8998 134.7V130C56.8998 128.5 58.0998 127.3 59.5998 127.3H78.7998C80.2998 127.3 81.4998 128.5 81.4998 130V134.7ZM80.5998 104.3H77.8998C77.3998 104.3 76.9998 103.9 76.9998 103.4C76.9998 102.9 77.3998 102.5 77.8998 102.5H80.5998C81.0998 102.5 81.4998 102.9 81.4998 103.4C81.4998 103.9 81.0998 104.3 80.5998 104.3ZM80.5998 94.2C81.0998 94.2 81.4998 94.6 81.4998 95.1C81.4998 95.6 81.0998 96 80.5998 96H63.9998C63.4998 96 63.0998 95.6 63.0998 95.1C63.0998 94.6 63.4998 94.2 63.9998 94.2H80.5998ZM72.2998 75.6C72.7998 75.6 73.1998 76 73.1998 76.5C73.1998 77 72.7998 77.4 72.2998 77.4C71.7998 77.4 71.3998 77 71.3998 76.5C71.3998 75.9 71.7998 75.6 72.2998 75.6ZM68.6998 75.6C69.1998 75.6 69.5998 76 69.5998 76.5C69.5998 77 69.1998 77.4 68.6998 77.4C68.1998 77.4 67.7998 77 67.7998 76.5C67.8998 75.9 68.2998 75.6 68.6998 75.6ZM65.1998 75.6C65.6998 75.6 66.0998 76 66.0998 76.5C66.0998 77 65.6998 77.4 65.1998 77.4C64.6998 77.4 64.2998 77 64.2998 76.5C64.2998 75.9 64.6998 75.6 65.1998 75.6Z" fill="#F3F9FE"/>
<path d="M78.8002 129.1H59.6002C59.1002 129.1 58.7002 129.5 58.7002 130V134.7C58.7002 135.2 59.1002 135.6 59.6002 135.6H78.8002C79.3002 135.6 79.7002 135.2 79.7002 134.7V130C79.7002 129.5 79.3002 129.1 78.8002 129.1Z" fill="#C4C4D7"/>
<path d="M47.7002 17.2V24C47.7002 25 48.5002 25.8 49.5002 25.8H56.6002C57.6002 25.8 58.4002 25 58.4002 24V17.2H47.7002Z" fill="#D8D3A0"/>
<path d="M47.7001 129.1H28.5001C28.0001 129.1 27.6001 129.5 27.6001 130V134.7C27.6001 135.2 28.0001 135.6 28.5001 135.6H47.7001C48.2001 135.6 48.6001 135.2 48.6001 134.7V130C48.6001 129.5 48.2001 129.1 47.7001 129.1Z" fill="#C4C4D7"/>
<path d="M28.5001 117H51.9001C52.4001 117 52.8001 116.6 52.8001 116.1V100.1H27.6001V116.1C27.6001 116.6 28.0001 117 28.5001 117Z" fill="#F3F9FE"/>
<path d="M28.5001 91.8C28.0001 91.8 27.6001 92.2 27.6001 92.7V98.3H52.8001V92.7C52.8001 92.2 52.4001 91.8 51.9001 91.8H47.5001H32.9001H28.5001Z" fill="#A1A76F"/>
<path d="M88.9 38.7C86.6 36.9 83.7 35.9 80.6 35.9C73.1 35.9 67 42 67 49.6C67 56.3 77.7 71.1 80.6 75C82.1 73 85.7 68 88.9 62.7C91.8 57.9 94.2 52.8 94.2 49.6C94.2 45.2 92.1 41.2 88.9 38.7ZM80.6 56.4C76.7 56.4 73.5 53.2 73.5 49.3C73.5 45.4 76.7 42.2 80.6 42.2C84.5 42.2 87.7 45.4 87.7 49.3C87.7 53.2 84.5 56.4 80.6 56.4Z" fill="#E7905F"/>
<path d="M75.2002 49.3C75.2002 52.2 77.6002 54.6 80.5002 54.6C83.4002 54.6 85.8002 52.2 85.8002 49.3C85.8002 46.4 83.4002 44 80.5002 44C77.6002 44 75.2002 46.3 75.2002 49.3Z" fill="#F3F9FE"/>
<path d="M71.4997 74.8C71.4997 74.3 71.0997 73.9 70.5997 73.9C70.0997 73.9 69.6997 74.3 69.6997 74.8C69.6997 75.3 70.0997 75.7 70.5997 75.7C71.0997 75.7 71.4997 75.3 71.4997 74.8Z" fill="black"/>
<path d="M56.1998 44.4C55.6998 44.3 55.2998 44.7 55.1998 45.1C55.0998 45.6 55.3998 46 55.8998 46.1H55.9998C56.3998 46.1 56.7998 45.8 56.8998 45.3C56.9998 45 56.5998 44.5 56.1998 44.4Z" fill="black"/>
<path d="M67.9997 74.8C67.9997 74.3 67.5997 73.9 67.0997 73.9C66.5997 73.9 66.1997 74.3 66.1997 74.8C66.1997 75.3 66.5997 75.7 67.0997 75.7C67.5997 75.7 67.9997 75.3 67.9997 74.8Z" fill="black"/>
<path d="M78.8998 40.5C74.9998 40.5 71.7998 43.7 71.7998 47.6C71.7998 51.5 74.9998 54.7 78.8998 54.7C82.7998 54.7 85.9998 51.5 85.9998 47.6C85.9998 43.7 82.8998 40.5 78.8998 40.5ZM78.8998 53C75.9998 53 73.5998 50.6 73.5998 47.7C73.5998 44.8 75.9998 42.4 78.8998 42.4C81.7998 42.4 84.1998 44.8 84.1998 47.7C84.2998 50.6 81.8998 53 78.8998 53Z" fill="black"/>
<path d="M78.9 92.6H62.4C61.9 92.6 61.5 93 61.5 93.5C61.5 94 61.9 94.4 62.4 94.4H79C79.5 94.4 79.9 94 79.9 93.5C79.8 92.9 79.4 92.6 78.9 92.6Z" fill="black"/>
<path d="M52.9001 114.5V97.6V91.1C52.9001 89.6 51.7001 88.4 50.2001 88.4H46.6001V87.2C46.6001 86.7 46.2001 86.3 45.7001 86.3C45.2001 86.3 44.8001 86.7 44.8001 87.2V88.4H32.2001V87.2C32.2001 86.7 31.8001 86.3 31.3001 86.3C30.8001 86.3 30.4001 86.7 30.4001 87.2V88.4H26.8001C25.3001 88.4 24.1001 89.6 24.1001 91.1V97.6V114.5C24.1001 116 25.3001 117.2 26.8001 117.2H50.2001C51.7001 117.1 52.9001 115.9 52.9001 114.5ZM26.0001 91.1C26.0001 90.6 26.4001 90.2 26.9001 90.2H31.3001H45.8001H50.2001C50.7001 90.2 51.1001 90.6 51.1001 91.1V96.7H26.0001V91.1ZM26.0001 114.5V98.5H51.2001V114.5C51.2001 115 50.8001 115.4 50.3001 115.4H26.9001C26.4001 115.3 26.0001 114.9 26.0001 114.5Z" fill="black"/>
<path d="M44.3 15.6V22.4C44.3 24.4 45.9 25.9 47.8 25.9H55C57 25.9 58.5 24.3 58.5 22.4V15.6H81C83.9 15.6 86.3 18 86.3 20.9V27.1C86.3 27.6 86.7 28 87.2 28C87.7 28 88.1 27.6 88.1 27.1V20.9C88.1 17 84.9 13.8 81 13.8H57.6H45.2H42C42.1 14.4 42.2 15 42.3 15.6H44.3ZM46.1 15.6H56.8V22.4C56.8 23.4 56 24.2 55 24.2H47.9C46.9 24.2 46.1 23.4 46.1 22.4V15.6Z" fill="black"/>
<path d="M87.1999 86.3C86.6999 86.3 86.2999 86.7 86.2999 87.2V136.9C86.2999 139.8 83.8999 142.2 80.9999 142.2H22.9999C20.0999 142.2 17.6999 139.8 17.6999 136.9V42.1C17.0999 42.1 16.4999 42 15.8999 42V137C15.8999 140.9 19.0999 144.1 22.9999 144.1H80.9999C84.8999 144.1 88.0999 140.9 88.0999 137V87.2C88.0999 86.7 87.6999 86.3 87.1999 86.3Z" fill="black"/>
<path d="M64.4001 74.8C64.4001 74.3 64.0001 73.9 63.5001 73.9C63.0001 73.9 62.6001 74.3 62.6001 74.8C62.6001 75.3 63.0001 75.7 63.5001 75.7C64.0001 75.7 64.4001 75.3 64.4001 74.8Z" fill="black"/>
<path d="M78.9 32.5C70.4 32.5 63.5 39.4 63.5 48C63.5 56.3 77.6 74.6 78.2 75.4C78.4 75.6 78.6 75.7 78.9 75.7C79.2 75.7 79.4 75.6 79.6 75.4C79.9 75 83.6 70.2 87.2 64.5C90.8 58.8 94.3 52.1 94.3 48C94.3 42.5 91.5 37.8 87.2 35C84.8 33.4 82 32.5 78.9 32.5ZM92.6 47.9C92.6 51.1 90.1 56.1 87.3 61C84.2 66.3 80.5 71.3 79 73.3C76.1 69.4 65.4 54.6 65.4 47.9C65.4 40.4 71.5 34.2 79 34.2C82.1 34.2 85 35.3 87.3 37C90.5 39.6 92.6 43.5 92.6 47.9Z" fill="black"/>
<path d="M54.5 49.4C54.6 49.5 54.8 49.5 54.9 49.5C55.2 49.5 55.5 49.3 55.7 49C55.9 48.6 55.8 48 55.3 47.8C54.9 47.6 54.3 47.7 54.1 48.2C53.9 48.7 54 49.2 54.5 49.4Z" fill="black"/>
<path d="M55.6001 74.8C55.6001 75.3 56.0001 75.7 56.5001 75.7C57.0001 75.7 57.4001 75.3 57.4001 74.8C57.4001 74.3 57.0001 73.9 56.5001 73.9C56.0001 73.9 55.6001 74.3 55.6001 74.8Z" fill="black"/>
<path d="M78.8998 100.8H76.1998C75.6998 100.8 75.2998 101.2 75.2998 101.7C75.2998 102.2 75.6998 102.6 76.1998 102.6H78.8998C79.3998 102.6 79.7998 102.2 79.7998 101.7C79.7998 101.2 79.3998 100.8 78.8998 100.8Z" fill="black"/>
<path d="M57.8997 135.8H77.0997C78.5997 135.8 79.7997 134.6 79.7997 133.1V128.4C79.7997 126.9 78.5997 125.7 77.0997 125.7H57.8997C56.3997 125.7 55.1997 126.9 55.1997 128.4V133.1C55.2997 134.6 56.4997 135.8 57.8997 135.8ZM56.9997 128.4C56.9997 127.9 57.3997 127.5 57.8997 127.5H77.0997C77.5997 127.5 77.9997 127.9 77.9997 128.4V133.1C77.9997 133.6 77.5997 134 77.0997 134H57.8997C57.3997 134 56.9997 133.6 56.9997 133.1V128.4Z" fill="black"/>
<path d="M55.7997 40.9C55.2997 41 54.9997 41.5 55.0997 41.9C55.1997 42.3 55.5997 42.6 55.9997 42.6C56.0997 42.6 56.0997 42.6 56.1997 42.6C56.6997 42.5 56.9997 42 56.8997 41.6C56.7997 41.1 56.2997 40.8 55.7997 40.9Z" fill="black"/>
<path d="M72.7001 102.6C73.2001 102.6 73.6001 102.2 73.6001 101.7C73.6001 101.2 73.2001 100.8 72.7001 100.8H70.0001C69.5001 100.8 69.1001 101.2 69.1001 101.7C69.1001 102.2 69.5001 102.6 70.0001 102.6H72.7001Z" fill="black"/>
<path d="M66.4999 102.6C66.9999 102.6 67.3999 102.2 67.3999 101.7C67.3999 101.2 66.9999 100.8 66.4999 100.8H63.7999C63.2999 100.8 62.8999 101.2 62.8999 101.7C62.8999 102.2 63.2999 102.6 63.7999 102.6H66.4999Z" fill="black"/>
<path d="M61.5 110C61.5 110.5 61.9 110.9 62.4 110.9H74.8C75.3 110.9 75.7 110.5 75.7 110C75.7 109.5 75.3 109.1 74.8 109.1H62.4C61.9 109.1 61.5 109.5 61.5 110Z" fill="black"/>
<path d="M60.9001 74.8C60.9001 74.3 60.5001 73.9 60.0001 73.9C59.5001 73.9 59.1001 74.3 59.1001 74.8C59.1001 75.3 59.5001 75.7 60.0001 75.7C60.5001 75.7 60.9001 75.3 60.9001 74.8Z" fill="black"/>
<path d="M55.4999 38C55.2999 37.6 54.6999 37.4 54.2999 37.7C53.8999 37.9 53.6999 38.5 53.9999 38.9C54.1999 39.2 54.4999 39.3 54.7999 39.3C54.9999 39.3 55.0999 39.3 55.2999 39.2C55.5999 39 55.6999 38.5 55.4999 38Z" fill="black"/>
<path d="M38.6998 75.7C39.1998 75.7 39.5998 75.3 39.5998 74.8C39.5998 74.3 39.1998 73.9 38.6998 73.9C38.1998 73.9 37.7998 74.3 37.7998 74.8C37.7998 75.3 38.1998 75.7 38.6998 75.7Z" fill="black"/>
<path d="M42.4 32.5C41.9 32.5 41.5 32.9 41.5 33.4C41.5 33.9 41.9 34.3 42.4 34.3C42.9 34.3 43.3 33.9 43.3 33.4C43.3 32.9 42.9 32.5 42.4 32.5Z" fill="black"/>
<path d="M38.2998 54.1C38.2998 54.6 38.6998 55 39.1998 55C39.6998 55 40.0998 54.6 40.0998 54.1C40.0998 53.6 39.6998 53.2 39.1998 53.2C38.6998 53.2 38.2998 53.6 38.2998 54.1Z" fill="black"/>
<path d="M38.9 32.5C38.4 32.5 38 32.9 38 33.4C38 33.9 38.4 34.3 38.9 34.3C39.4 34.3 39.8 33.9 39.8 33.4C39.7 32.9 39.3 32.5 38.9 32.5Z" fill="black"/>
<path d="M41.7998 54.1C41.7998 54.6 42.1998 55 42.6998 55C43.1998 55 43.5998 54.6 43.5998 54.1C43.5998 53.6 43.1998 53.2 42.6998 53.2C42.1998 53.2 41.7998 53.6 41.7998 54.1Z" fill="black"/>
<path d="M34.2999 74.3C34.1999 74.8 34.4999 75.2 34.9999 75.4C35.0999 75.4 35.0999 75.4 35.1999 75.4C35.5999 75.4 35.9999 75.1 36.0999 74.7C36.1999 74.2 35.8999 73.7 35.3999 73.6C34.8999 73.6 34.4999 73.9 34.2999 74.3Z" fill="black"/>
<path d="M35.7 55.1C35.8 55.1 35.8 55.1 35.9 55.1C36.4 55 36.7 54.6 36.6 54.1C36.5 53.6 36 53.3 35.6 53.4C35.1 53.5 34.8 54 34.9 54.4C34.9 54.8 35.2 55.1 35.7 55.1Z" fill="black"/>
<path d="M49.6998 33.2C49.1998 33 48.6998 33.3 48.5998 33.7C48.3998 34.2 48.6998 34.7 49.0998 34.8C49.1998 34.8 49.2998 34.9 49.3998 34.9C49.7998 34.9 50.0998 34.7 50.1998 34.3C50.3998 33.9 50.1998 33.4 49.6998 33.2Z" fill="black"/>
<path d="M42.2999 75.7C42.7999 75.7 43.1999 75.3 43.1999 74.8C43.1999 74.3 42.7999 73.9 42.2999 73.9C41.7999 73.9 41.3999 74.3 41.3999 74.8C41.3999 75.3 41.7999 75.7 42.2999 75.7Z" fill="black"/>
<path d="M49.4 75.7C49.9 75.7 50.3 75.3 50.3 74.8C50.3 74.3 49.9 73.9 49.4 73.9C48.9 73.9 48.5 74.3 48.5 74.8C48.5 75.3 48.9 75.7 49.4 75.7Z" fill="black"/>
<path d="M49.3999 52.5C48.8999 52.7 48.6999 53.2 48.8999 53.7C48.9999 54 49.3999 54.2 49.6999 54.2C49.7999 54.2 49.8999 54.2 49.9999 54.1C50.4999 53.9 50.6999 53.4 50.4999 52.9C50.3999 52.5 49.7999 52.3 49.3999 52.5Z" fill="black"/>
<path d="M45.3999 54.1C45.3999 54.6 45.7999 55 46.2999 55C46.7999 55 47.1999 54.6 47.1999 54.1C47.1999 53.6 46.7999 53.2 46.2999 53.3C45.6999 53.2 45.3999 53.6 45.3999 54.1Z" fill="black"/>
<path d="M46.0001 32.5C45.5001 32.5 45.1001 32.9 45.1001 33.4C45.1001 33.9 45.5001 34.3 46.0001 34.3C46.5001 34.3 46.9001 33.9 46.9001 33.4C46.8001 32.9 46.4001 32.5 46.0001 32.5Z" fill="black"/>
<path d="M45.7999 75.7C46.2999 75.7 46.6999 75.3 46.6999 74.8C46.6999 74.3 46.2999 73.9 45.7999 73.9C45.2999 73.9 44.8999 74.3 44.8999 74.8C44.8999 75.3 45.2999 75.7 45.7999 75.7Z" fill="black"/>
<path d="M26.8997 125.7C25.3997 125.7 24.1997 126.9 24.1997 128.4V133.1C24.1997 134.6 25.3997 135.8 26.8997 135.8H46.0997C47.5997 135.8 48.7997 134.6 48.7997 133.1V128.4C48.7997 126.9 47.5997 125.7 46.0997 125.7H26.8997ZM46.9997 128.4V133.1C46.9997 133.6 46.5997 134 46.0997 134H26.8997C26.3997 134 25.9997 133.6 25.9997 133.1V128.4C25.9997 127.9 26.3997 127.5 26.8997 127.5H46.0997C46.5997 127.5 46.9997 127.9 46.9997 128.4Z" fill="black"/>
<path d="M52.1 50.8C51.7 51.1 51.7 51.7 52 52.1C52.2 52.3 52.4 52.4 52.7 52.4C52.9 52.4 53.1 52.3 53.3 52.2C53.7 51.9 53.7 51.3 53.4 50.9C53 50.5 52.5 50.4 52.1 50.8Z" fill="black"/>
<path d="M53.8 74.8C53.8 74.3 53.4 73.9 52.9 73.9C52.4 73.9 52 74.3 52 74.8C52 75.3 52.4 75.7 52.9 75.7C53.4 75.7 53.8 75.3 53.8 74.8Z" fill="black"/>
<path d="M29.6 58.6C29.8 58.6 30.1 58.5 30.3 58.3C30.6 57.9 30.6 57.4 30.2 57.1C29.8 56.8 29.3 56.8 29 57.2C28.7 57.6 28.7 58.1 29.1 58.5C29.2 58.5 29.4 58.6 29.6 58.6Z" fill="black"/>
<path d="M28.5999 71.4C28.7999 71.6 28.9999 71.7 29.2999 71.7C29.4999 71.7 29.6999 71.6 29.8999 71.5C30.2999 71.2 30.3999 70.6 30.0999 70.3C29.7999 69.9 29.1999 69.8 28.8999 70.1C28.3999 70.4 28.2999 71 28.5999 71.4Z" fill="black"/>
<path d="M26.2998 64.2C26.2998 64.7 26.6998 65.1 27.1998 65.1C27.6998 65.1 28.0998 64.7 28.0998 64.2C28.0998 63.7 27.6998 63.3 27.1998 63.3C26.6998 63.3 26.2998 63.7 26.2998 64.2Z" fill="black"/>
<path d="M28.0997 59.9C27.5997 59.7 27.0997 60 26.9997 60.4C26.7997 60.9 27.0997 61.4 27.4997 61.5C27.5997 61.5 27.6997 61.6 27.7997 61.6C28.1997 61.6 28.4997 61.4 28.5997 61C28.7997 60.6 28.5997 60.1 28.0997 59.9Z" fill="black"/>
<path d="M32.8 56.2C33.2 56 33.4 55.4 33.1 55C32.9 54.6 32.3 54.4 31.9 54.7C31.5 54.9 31.3 55.5 31.6 55.9C31.8 56.2 32.1 56.3 32.4 56.3C32.5 56.3 32.6 56.3 32.8 56.2Z" fill="black"/>
<path d="M51.7998 35.2C51.4998 35.6 51.4998 36.1 51.8998 36.4C52.0998 36.5 52.2998 36.6 52.4998 36.6C52.7998 36.6 52.9998 36.5 53.1998 36.3C53.4998 35.9 53.4998 35.4 53.0998 35.1C52.6998 34.8 52.0998 34.8 51.7998 35.2Z" fill="black"/>
<path d="M31.2001 72.7C30.9001 73.1 31.1001 73.7 31.5001 73.9C31.7001 74 31.8001 74 32.0001 74C32.3001 74 32.6001 73.8 32.7001 73.6C33.0001 73.2 32.8001 72.6 32.4001 72.4C32.0001 72.2 31.5001 72.3 31.2001 72.7Z" fill="black"/>
<path d="M27.3999 66.9C26.8999 67.1 26.6999 67.5 26.7999 68C26.8999 68.4 27.2999 68.6 27.5999 68.6C27.6999 68.6 27.7999 68.6 27.8999 68.6C28.3999 68.4 28.5999 67.9 28.4999 67.5C28.3999 67 27.8999 66.7 27.3999 66.9Z" fill="black"/>
<path d="M14.3 23.2C14.1 23 13.9 22.9 13.6 22.9C13.3 22.8 13.2 22.8 12.8 22.8H7C7 22.8 7.4 24.5 8.3 26C8.7 26 13.3 26 13.5 25.9C13.8 25.8 14 25.7 14.2 25.6C14.5 25.3 14.7 25.2 14.7 24.4C14.7 24.2 14.7 24 14.6 23.8C14.6 23.6 14.5 23.4 14.3 23.2Z" fill="#212322"/>
<path d="M22.7002 6.09998V12.2H30.5002C28.7002 9.19998 26.0002 7.09998 22.7002 6.09998Z" fill="#212322"/>
<path d="M19.1 0C8.5 0 0 8.5 0 19.1C0 29.6 8.5 38.2 19.1 38.2C29.6 38.2 38.2 29.7 38.2 19.1C38.2 8.5 29.6 0 19.1 0ZM4.3 12.2H6.8V14.1C6.8 14.6 7.2 15.1 7.8 15.1H13.6H14C14.5 15.1 15 14.7 15 14.1V4.8C15 4 15.6 3.4 16.4 3.4H17.5V14.2C17.5 16.1 16 17.6 14.1 17.6H8.2H7.8C5.9 17.6 4.4 16.1 4.4 14.2V12.2H4.3ZM17.6 34.8H16.6C16.2 34.8 15.8 34.7 15.6 34.4C15.3 34.2 15.2 33.8 15.2 33.5V30C15.2 29.7 15.2 29.4 15.1 29.2C15 28.9 14.9 28.7 14.7 28.6C14.5 28.4 14.3 28.3 14 28.3C13.7 28.2 13.4 28.2 13.1 28.2H9.7C9.7 28.2 11.3 30.1 12.4 30.8L12.5 33.3C6.3 29.9 5 24.6 4.6 22.4L4.4 20.9H12.6C13.7 20.9 14.3 21 15 21.1C15.7 21.2 16.3 21.4 16.6 21.6C16.9 21.8 17.2 22.1 17.4 22.5C17.6 22.9 17.7 23.4 17.7 24.1C17.7 24.4 17.7 25.2 17.6 25.5C17.5 25.8 17.4 26.1 17.1 26.3C16.9 26.5 16.7 26.7 16.4 26.8C16.1 26.9 15.7 27 15.3 27.1C15.8 27.2 16.2 27.3 16.5 27.4C16.8 27.5 17.1 27.7 17.2 27.9C17.4 28.1 17.5 28.3 17.6 28.5C17.7 28.7 17.7 29 17.7 29.4L17.6 34.8ZM21.7 3.5C25 4.2 28 5.8 30.4 8.4C32.8 10.9 34.2 14.1 34.6 17.5V17.6H32.4V17.5C32.3 16.8 32.2 16.1 32 15.5L31.5 14.3H22.7V17.6H22.2C21.3 17.6 20.5 16.8 20.5 15.9V3.4L21.7 3.5ZM32.9 22.8H23.7C23.1 22.8 22.6 23.3 22.6 23.9V24.8C22.6 25.4 23.1 25.8 23.6 25.8H28.9C29.9 25.8 30.8 26.6 30.8 27.7C30.8 28.1 30.7 28.5 30.4 28.9C30.4 28.9 27.3 33.7 20.2 34.9V32.8C21.7 32.4 24.2 31.4 26.3 29.8C26.7 29.5 27.6 28.8 28.2 28.1H23.5C21.7 28.1 20.2 26.5 20.2 24.7V24.8V24.6V23.9C20.2 22.1 21.7 20.6 23.5 20.6H34.1V21.4C34.4 22.1 33.7 22.8 32.9 22.8Z" fill="#212322"/>
</g>
<defs>
<clipPath id="clip0_1460_4712">
<rect width="94.3" height="144" fill="white"/>
</clipPath>
</defs>
</svg>
