<svg width="17" height="20" viewBox="0 0 17 20" fill="none" xmlns="http://www.w3.org/2000/svg">
<g clip-path="url(#clip0_1460_4874)">
<path d="M8 20C7.4 19.9 6.8 19.7 6.3 19.3C5.9 19 5.6 18.6 5.6 18.1C5.6 17.6 6.1 17.4 6.5 17.3C7.8 17.2 9.2 17.2 10.5 17.3C10.9 17.4 11.4 17.6 11.4 18.1C11.4 18.6 11.1 19 10.7 19.3C10.2 19.6 9.6 19.9 9 20C8.8 20 8.7 20 8.5 20C8.3 20 8.2 20 8 20ZM3.8 15.7C2.7 15.6 1.7 15.1 0.9 14.3C0.3 13.7 0 12.8 0 12C0 11.1 0.2 10.3 0.7 9.6C1.4 8.8 1.8 7.8 1.8 6.8V6.4C1.7 5 2.2 3.6 3.1 2.5C4.4 0.9 6.4 0 8.5 0H8.6C10.7 0 12.7 1 14.1 2.6C14.9 3.7 15.4 5 15.3 6.3V6.7C15.3 7.8 15.6 8.8 16.4 9.5C16.9 10.2 17.2 11 17.1 11.8C17.1 12.7 16.8 13.5 16.2 14.2C15.4 15 14.4 15.5 13.3 15.6C11.7 15.7 10.2 15.8 8.6 15.8C6.9 16 5.3 15.9 3.8 15.7Z" fill="#212322"/>
</g>
<defs>
<clipPath id="clip0_1460_4874">
<rect width="17" height="20" fill="white"/>
</clipPath>
</defs>
</svg>
