<svg width="22" height="22" viewBox="0 0 22 22" fill="none" xmlns="http://www.w3.org/2000/svg">
<g clip-path="url(#clip0_1460_4872)">
<path d="M16.2 21.5C16.1 21.5 16.1 21.5 16.2 21.5H16.1C13.5 21.5 10.1 19.5 6.1 15.5C2 11.4 0 8 0 5.4C0 4.2 0.5 3 1.4 2.2L1.5 2.1C3 0.6 4 0 5.1 0C6.5 0 7.4 1 8.4 2.1L8.5 2.2C8.8 2.4 9 2.7 9.3 2.9C10.5 3.9 10.8 5.7 10.1 7.1C9.7 8 9.5 8.7 11.2 10.3C11.8 11.1 12.6 11.5 13.5 11.6C13.8 11.6 14.1 11.5 14.5 11.4H14.6C15.1 11.2 15.6 11.1 16.1 11.1C17.1 11.1 18 11.6 18.6 12.3C18.8 12.5 19.1 12.8 19.3 13L19 13.4L19.3 13C20.4 14 21.4 15 21.4 16.3C21.4 17.4 20.8 18.5 19.3 20L19 20.3C18.3 21.1 17.2 21.5 16.2 21.5ZM5.2 1C4.4 1 3.5 1.6 2.2 2.9H2.1C1.4 3.6 1 4.5 1 5.4C1 7.8 2.9 10.9 6.8 14.7C10.6 18.5 13.7 20.5 16.1 20.5C16.8 20.5 17.6 20.3 18.2 19.8L18 19.6L18.6 18.8L18.9 19C20 17.8 20.5 17 20.5 16.3C20.5 15.4 19.8 14.7 18.7 13.7L18.6 13.6C18.4 13.4 18.1 13.1 17.8 12.9C17.3 12.4 16.7 12 16 12C15.6 12 15.2 12.1 14.8 12.3H14.7C14.3 12.5 13.9 12.6 13.4 12.6C12.1 12.4 11.1 11.9 10.4 10.9C8.5 9.1 8.7 8 9.1 6.7C9.7 5.6 9.4 4.4 8.5 3.6C8.3 3.4 8.1 3.1 7.8 2.9L7.7 2.8C6.8 1.7 6.1 1 5.2 1Z" fill="#212322"/>
</g>
<defs>
<clipPath id="clip0_1460_4872">
<rect width="21.5" height="21.5" fill="white"/>
</clipPath>
</defs>
</svg>
