<svg width="23" height="23" viewBox="0 0 23 23" fill="none" xmlns="http://www.w3.org/2000/svg">
<g clip-path="url(#clip0_1460_4870)">
<path d="M11.2002 22.5C9.60022 22.5 7.90022 22.1 6.50022 21.5C6.20022 21.4 5.90022 21.3 5.60022 21.2C5.30022 21.2 4.90022 21.3 4.60022 21.5C4.00022 21.7 3.50022 21.9 2.90022 21.9C2.30022 21.9 1.70022 21.7 1.30022 21.3C0.300222 20.3 0.700222 18.9 1.00022 18C1.10022 17.6 1.20022 17.3 1.30022 17C1.30022 16.7 1.20022 16.4 1.00022 16.1C-1.59978 10.3 0.900222 3.60001 6.50022 1.00001C12.1002 -1.59999 18.8002 0.900008 21.4002 6.50001C23.4002 10.8 22.4002 15.8 19.1002 19.1C18.0002 20.2 16.8002 21 15.4002 21.6C14.1002 22.2 12.7002 22.5 11.2002 22.5ZM11.2002 21.5C12.6002 21.5 13.9002 21.2 15.1002 20.7C16.4002 20.2 17.5002 19.4 18.5002 18.5C21.5002 15.5 22.3002 10.9 20.6002 7.00001C18.2002 1.90001 12.1002 -0.399992 7.00022 2.00001C1.90022 4.40001 -0.399778 10.5 2.00022 15.6C2.20022 16 2.30022 16.4 2.40022 16.9V17V17.1C2.40022 17.6 2.20022 18 2.10022 18.5C1.80022 19.4 1.60022 20.2 2.10022 20.7C2.30022 20.9 2.60022 21.1 2.90022 21C3.40022 21 3.80022 20.9 4.30022 20.7C4.70022 20.5 5.20022 20.4 5.60022 20.4H5.70022H5.80022C6.20022 20.5 6.70022 20.6 7.10022 20.8C8.30022 21.2 9.70022 21.5 11.2002 21.5ZM15.2002 12.7C15.8002 12.7 16.2002 12.3 16.2002 11.7C16.2002 11.1 15.8002 10.7 15.2002 10.7C14.6002 10.7 14.2002 11.1 14.2002 11.7C14.2002 12.2 14.6002 12.7 15.2002 12.7ZM11.2002 12.7C11.8002 12.7 12.2002 12.3 12.2002 11.7C12.2002 11.1 11.8002 10.7 11.2002 10.7C10.6002 10.7 10.2002 11.1 10.2002 11.7C10.2002 12.2 10.6002 12.7 11.2002 12.7ZM7.20022 12.7C7.80022 12.7 8.20022 12.3 8.20022 11.7C8.20022 11.1 7.80022 10.7 7.20022 10.7C6.60022 10.7 6.20022 11.1 6.20022 11.7C6.20022 12.2 6.60022 12.7 7.20022 12.7Z" fill="#212322"/>
</g>
<defs>
<clipPath id="clip0_1460_4870">
<rect width="22.5" height="22.5" fill="white"/>
</clipPath>
</defs>
</svg>
