<svg width="20" height="19" viewBox="0 0 20 19" fill="none" xmlns="http://www.w3.org/2000/svg">
<g clip-path="url(#clip0_1460_4850)">
<path d="M10.0001 19L9.70008 18.8C7.40008 17.4 5.30008 15.7 3.30008 13.8C2.00008 12.4 0.900083 10.8 0.300083 9C-0.299917 7.3 -0.199917 5.4 0.400083 3.7C1.10008 2 2.50008 0.7 4.20008 0.2C4.50008 0.1 4.80008 0 5.10008 0H5.20008C5.60008 0 5.90008 0 6.20008 0H6.30008C6.90008 0 7.50008 0.1 8.10008 0.3H8.20008C8.20008 0.3 8.30008 0.3 8.30008 0.4C8.50008 0.5 8.70008 0.6 8.90008 0.7L9.30008 0.9C9.40008 0.9 9.50008 0.9 9.60008 1C9.70008 1 9.70008 1.1 9.70008 1.1C9.80008 1.1 9.90008 1.2 10.0001 1.3C11.1001 0.5 12.4001 0 13.8001 0C14.4001 0 15.1001 0.1 15.7001 0.3C17.4001 0.9 18.8001 2.1 19.5001 3.8C20.2001 5.5 20.2001 7.3 19.7001 9.1C19.1001 10.9 18.0001 12.6 16.7001 13.9C14.8001 15.8 12.6001 17.4 10.4001 18.9L10.0001 19ZM14.9001 3.1C14.6001 3.1 14.3001 3.3 14.1001 3.6C14.0001 4 14.2001 4.5 14.6001 4.6C15.2001 4.9 15.7001 5.5 15.7001 6.2C15.7001 6.4 15.7001 6.6 15.9001 6.8C16.0001 7 16.2001 7.1 16.5001 7.1C16.9001 7.1 17.3001 6.8 17.3001 6.3V6.3C17.3001 4.9 16.5001 3.6 15.2001 3.1C15.1001 3.1 15.0001 3.1 14.9001 3.1Z" fill="#212322"/>
</g>
<defs>
<clipPath id="clip0_1460_4850">
<rect width="20" height="19" fill="white"/>
</clipPath>
</defs>
</svg>
