<svg width="21" height="22" viewBox="0 0 21 22" fill="none" xmlns="http://www.w3.org/2000/svg">
<g clip-path="url(#clip0_1460_4866)">
<path d="M7.40009 19.5041V16.404C7.40009 15.604 8.00008 15.0041 8.80008 15.0041H11.7001C12.5001 15.0041 13.1001 15.604 13.1001 16.404V19.5041C13.1001 20.2041 13.6001 20.7041 14.3001 20.7041H16.2001C18.1001 20.7041 19.7001 19.2039 19.7001 17.3039V8.60396C19.7001 7.90396 19.3001 7.20405 18.7001 6.70405L12.1001 1.404C10.9001 0.504004 9.3001 0.504004 8.2001 1.404L1.6001 6.70405C1.0001 7.20405 0.600098 7.90396 0.600098 8.60396V17.3039C0.600098 19.2039 2.2001 20.7041 4.1001 20.7041H6.00009C6.80009 20.7041 7.40009 20.2041 7.40009 19.5041Z" stroke="black" stroke-width="1.5" stroke-miterlimit="10" stroke-linecap="round" stroke-linejoin="round"/>
</g>
<defs>
<clipPath id="clip0_1460_4866">
<rect width="20.5" height="21.5" fill="white"/>
</clipPath>
</defs>
</svg>
